G04*
G04 #@! TF.GenerationSoftware,Altium Limited,Altium Designer,20.0.1 (14)*
G04*
G04 Layer_Color=8388736*
%FSLAX25Y25*%
%MOIN*%
G70*
G01*
G75*
%ADD10C,0.01000*%
%ADD14C,0.00787*%
%ADD17C,0.01180*%
%ADD18C,0.01181*%
G36*
X83460Y234000D02*
X85460D01*
Y233000D01*
X83460D01*
X83460Y231000D01*
X82460Y231000D01*
Y231500D01*
Y233000D01*
X80460D01*
Y234000D01*
X82460D01*
Y236000D01*
X83460D01*
X83460Y234000D01*
D02*
G37*
G36*
X223816Y92649D02*
Y92508D01*
Y92366D01*
X221548Y92366D01*
X223674D01*
Y92224D01*
Y92082D01*
X223532D01*
Y91941D01*
X223391D01*
Y91799D01*
Y91657D01*
X223107D01*
X223107Y91799D01*
Y91941D01*
Y92082D01*
X223249D01*
Y92224D01*
X221548Y92224D01*
Y92366D01*
Y92508D01*
X221548Y92649D01*
X221548Y92791D01*
X223816D01*
Y92649D01*
D02*
G37*
G36*
X226000Y55500D02*
X225000D01*
Y62500D01*
X226000D01*
Y55500D01*
D02*
G37*
G36*
X218059Y59500D02*
Y58500D01*
X214059D01*
Y56500D01*
X218059D01*
Y55500D01*
X213059D01*
Y56500D01*
Y59500D01*
X217059D01*
X217059Y62500D01*
X213059D01*
X213059Y63500D01*
X218059D01*
Y59500D01*
D02*
G37*
G36*
X272342Y48966D02*
X268067D01*
Y50034D01*
X272342D01*
Y48966D01*
D02*
G37*
G36*
X285330Y50034D02*
X286933D01*
Y48966D01*
X285330D01*
Y45937D01*
X284261Y45937D01*
Y48966D01*
X282658D01*
Y50034D01*
X284261D01*
Y53063D01*
X285330Y53063D01*
Y50034D01*
D02*
G37*
D10*
X219831Y94217D02*
G03*
X219831Y94217I-500J0D01*
G01*
D14*
X192601Y67942D02*
G03*
X192601Y67942I-394J0D01*
G01*
D17*
X62750Y36910D02*
G03*
X62750Y36910I-590J0D01*
G01*
D18*
X273438Y143822D02*
G03*
X273438Y143822I-591J0D01*
G01*
X197091Y154788D02*
G03*
X197091Y154788I-591J0D01*
G01*
X237091Y76040D02*
G03*
X237091Y76040I-591J0D01*
G01*
M02*
