G04*
G04 #@! TF.GenerationSoftware,Altium Limited,Altium Designer,20.0.1 (14)*
G04*
G04 Layer_Physical_Order=1*
G04 Layer_Color=255*
%FSLAX25Y25*%
%MOIN*%
G70*
G01*
G75*
%ADD10C,0.01000*%
%ADD12C,0.00800*%
%ADD35R,0.05118X0.10000*%
%ADD43R,0.05906X0.05512*%
%ADD44R,0.04331X0.02362*%
%ADD62R,0.03937X0.03937*%
%ADD65O,0.01063X0.05906*%
%ADD66O,0.05906X0.01063*%
%ADD73R,0.05512X0.05906*%
%ADD76R,0.08061X0.08632*%
%ADD98R,0.08661X0.12205*%
%ADD99R,0.03150X0.06693*%
%ADD100R,0.02360X0.06700*%
%ADD101R,0.05118X0.11811*%
G04:AMPARAMS|DCode=102|XSize=38mil|YSize=35mil|CornerRadius=0mil|HoleSize=0mil|Usage=FLASHONLY|Rotation=45.000|XOffset=0mil|YOffset=0mil|HoleType=Round|Shape=Rectangle|*
%AMROTATEDRECTD102*
4,1,4,-0.00106,-0.02581,-0.02581,-0.00106,0.00106,0.02581,0.02581,0.00106,-0.00106,-0.02581,0.0*
%
%ADD102ROTATEDRECTD102*%

%ADD103P,0.04243X4X270.0*%
%ADD104R,0.01968X0.04724*%
%ADD105R,0.03000X0.03000*%
%ADD106R,0.03000X0.03000*%
%ADD107R,0.03800X0.03500*%
%ADD108R,0.03500X0.03800*%
%ADD109R,0.09449X0.03543*%
%ADD110R,0.02756X0.03937*%
%ADD111R,0.10000X0.06000*%
%ADD112R,0.03150X0.03937*%
G04:AMPARAMS|DCode=113|XSize=39.37mil|YSize=31.5mil|CornerRadius=0mil|HoleSize=0mil|Usage=FLASHONLY|Rotation=90.000|XOffset=0mil|YOffset=0mil|HoleType=Round|Shape=Octagon|*
%AMOCTAGOND113*
4,1,8,0.00787,0.01968,-0.00787,0.01968,-0.01575,0.01181,-0.01575,-0.01181,-0.00787,-0.01968,0.00787,-0.01968,0.01575,-0.01181,0.01575,0.01181,0.00787,0.01968,0.0*
%
%ADD113OCTAGOND113*%

%ADD114O,0.05906X0.01968*%
%ADD115R,0.05906X0.01968*%
G04:AMPARAMS|DCode=116|XSize=39.37mil|YSize=31.5mil|CornerRadius=0mil|HoleSize=0mil|Usage=FLASHONLY|Rotation=45.000|XOffset=0mil|YOffset=0mil|HoleType=Round|Shape=Rectangle|*
%AMROTATEDRECTD116*
4,1,4,-0.00278,-0.02506,-0.02506,-0.00278,0.00278,0.02506,0.02506,0.00278,-0.00278,-0.02506,0.0*
%
%ADD116ROTATEDRECTD116*%

G04:AMPARAMS|DCode=117|XSize=39.37mil|YSize=31.5mil|CornerRadius=0mil|HoleSize=0mil|Usage=FLASHONLY|Rotation=45.000|XOffset=0mil|YOffset=0mil|HoleType=Round|Shape=Octagon|*
%AMOCTAGOND117*
4,1,8,0.01949,0.00835,0.00835,0.01949,-0.00278,0.01949,-0.01949,0.00278,-0.01949,-0.00835,-0.00835,-0.01949,0.00278,-0.01949,0.01949,-0.00278,0.01949,0.00835,0.0*
%
%ADD117OCTAGOND117*%

%ADD118R,0.04724X0.05118*%
%ADD119R,0.03937X0.03150*%
G04:AMPARAMS|DCode=120|XSize=39.37mil|YSize=31.5mil|CornerRadius=0mil|HoleSize=0mil|Usage=FLASHONLY|Rotation=180.000|XOffset=0mil|YOffset=0mil|HoleType=Round|Shape=Octagon|*
%AMOCTAGOND120*
4,1,8,-0.01968,0.00787,-0.01968,-0.00787,-0.01181,-0.01575,0.01181,-0.01575,0.01968,-0.00787,0.01968,0.00787,0.01181,0.01575,-0.01181,0.01575,-0.01968,0.00787,0.0*
%
%ADD120OCTAGOND120*%

%ADD121R,0.04724X0.01968*%
%ADD122R,0.05000X0.03500*%
%ADD123P,0.04243X4X180.0*%
%ADD124R,0.03150X0.02756*%
G04:AMPARAMS|DCode=125|XSize=31.5mil|YSize=27.56mil|CornerRadius=0mil|HoleSize=0mil|Usage=FLASHONLY|Rotation=0.000|XOffset=0mil|YOffset=0mil|HoleType=Round|Shape=Octagon|*
%AMOCTAGOND125*
4,1,8,0.01575,-0.00689,0.01575,0.00689,0.00886,0.01378,-0.00886,0.01378,-0.01575,0.00689,-0.01575,-0.00689,-0.00886,-0.01378,0.00886,-0.01378,0.01575,-0.00689,0.0*
%
%ADD125OCTAGOND125*%

G04:AMPARAMS|DCode=126|XSize=39.37mil|YSize=31.5mil|CornerRadius=0mil|HoleSize=0mil|Usage=FLASHONLY|Rotation=125.000|XOffset=0mil|YOffset=0mil|HoleType=Round|Shape=Rectangle|*
%AMROTATEDRECTD126*
4,1,4,0.02419,-0.00709,-0.00161,-0.02516,-0.02419,0.00709,0.00161,0.02516,0.02419,-0.00709,0.0*
%
%ADD126ROTATEDRECTD126*%

G04:AMPARAMS|DCode=127|XSize=39.37mil|YSize=31.5mil|CornerRadius=0mil|HoleSize=0mil|Usage=FLASHONLY|Rotation=125.000|XOffset=0mil|YOffset=0mil|HoleType=Round|Shape=Octagon|*
%AMOCTAGOND127*
4,1,8,-0.00484,0.02064,-0.01774,0.01161,-0.01968,0.00064,-0.00613,-0.01871,0.00484,-0.02064,0.01774,-0.01161,0.01968,-0.00064,0.00613,0.01871,-0.00484,0.02064,0.0*
%
%ADD127OCTAGOND127*%

%ADD128R,0.03500X0.03500*%
%ADD129R,0.04213X0.02362*%
%ADD130O,0.01430X0.04810*%
%ADD131R,0.06299X0.13780*%
%ADD132R,0.03500X0.03500*%
%ADD133O,0.09055X0.02362*%
%ADD134R,0.06700X0.02360*%
%ADD135R,0.11811X0.05118*%
%ADD136R,0.03500X0.05000*%
%ADD137C,0.02000*%
%ADD138C,0.04000*%
%ADD139C,0.05000*%
%ADD140C,0.01500*%
%ADD141C,0.03000*%
%ADD142C,0.23622*%
%ADD143C,0.07087*%
%ADD144C,0.06000*%
%ADD145R,0.06000X0.06000*%
%ADD146C,0.06299*%
%ADD147R,0.06299X0.06299*%
%ADD148C,0.06693*%
%ADD149P,0.09465X4X180.0*%
%ADD150R,0.06693X0.06693*%
%ADD151R,0.06693X0.06693*%
%ADD152C,0.03400*%
%ADD153C,0.02400*%
%ADD154C,0.05000*%
G36*
X319705Y252419D02*
X319156Y252192D01*
X317490Y251171D01*
X316005Y249902D01*
X314736Y248417D01*
X313715Y246751D01*
X312968Y244946D01*
X312512Y243047D01*
X312358Y241099D01*
X312512Y239152D01*
X312968Y237252D01*
X313715Y235447D01*
X314736Y233782D01*
X316005Y232296D01*
X317490Y231027D01*
X319156Y230007D01*
X320961Y229259D01*
X322860Y228803D01*
X324808Y228650D01*
X326755Y228803D01*
X328655Y229259D01*
X330460Y230007D01*
X332125Y231027D01*
X333611Y232296D01*
X334880Y233782D01*
X335900Y235447D01*
X336150Y236049D01*
X336650Y235949D01*
X336650Y33650D01*
X336150Y33551D01*
X335900Y34153D01*
X334880Y35818D01*
X333611Y37304D01*
X332125Y38573D01*
X330460Y39593D01*
X328655Y40341D01*
X326755Y40797D01*
X324808Y40950D01*
X322860Y40797D01*
X320961Y40341D01*
X319156Y39593D01*
X317490Y38573D01*
X316005Y37304D01*
X314736Y35818D01*
X313715Y34153D01*
X312968Y32348D01*
X312512Y30448D01*
X312358Y28501D01*
X312512Y26553D01*
X312968Y24654D01*
X313715Y22849D01*
X314736Y21183D01*
X316005Y19698D01*
X317490Y18429D01*
X319156Y17408D01*
X319709Y17179D01*
X319611Y16689D01*
X38666Y16689D01*
X38568Y17179D01*
X39121Y17408D01*
X40787Y18429D01*
X42272Y19698D01*
X43541Y21183D01*
X44562Y22849D01*
X45309Y24654D01*
X45765Y26553D01*
X45919Y28501D01*
X45765Y30448D01*
X45309Y32348D01*
X44562Y34153D01*
X43541Y35818D01*
X42272Y37304D01*
X40787Y38573D01*
X39121Y39593D01*
X37316Y40341D01*
X35417Y40797D01*
X33469Y40950D01*
X31522Y40797D01*
X29622Y40341D01*
X27817Y39593D01*
X26152Y38573D01*
X24666Y37304D01*
X23397Y35818D01*
X22377Y34153D01*
X22179Y33676D01*
X21689Y33774D01*
X21689Y235826D01*
X22179Y235924D01*
X22377Y235447D01*
X23397Y233782D01*
X24666Y232296D01*
X26152Y231027D01*
X27817Y230007D01*
X29622Y229259D01*
X31522Y228803D01*
X33469Y228650D01*
X35417Y228803D01*
X37316Y229259D01*
X39121Y230007D01*
X40787Y231027D01*
X42272Y232296D01*
X43541Y233782D01*
X44562Y235447D01*
X45309Y237252D01*
X45765Y239152D01*
X45919Y241099D01*
X45765Y243047D01*
X45309Y244946D01*
X44562Y246751D01*
X43541Y248417D01*
X42272Y249902D01*
X40787Y251171D01*
X39121Y252192D01*
X38572Y252419D01*
X38670Y252909D01*
X319607D01*
X319705Y252419D01*
D02*
G37*
%LPC*%
G36*
X187032Y251478D02*
X184661D01*
X183672Y250489D01*
Y248511D01*
X184661Y247522D01*
X184776D01*
Y245450D01*
X182150D01*
Y244021D01*
X179950D01*
X179950Y244021D01*
X179540Y243939D01*
X179193Y243707D01*
X179193Y243707D01*
X162057Y226571D01*
X159031D01*
Y228251D01*
X159740D01*
Y236151D01*
X156180D01*
Y228251D01*
X156889D01*
Y226086D01*
X156971Y225676D01*
X157203Y225329D01*
X157789Y224743D01*
X158136Y224511D01*
X158546Y224429D01*
X162500D01*
X162910Y224511D01*
X163257Y224743D01*
X180393Y241879D01*
X182150D01*
Y240450D01*
X186850D01*
Y240622D01*
X190954D01*
X191002Y240550D01*
X191526Y240200D01*
X192145Y240077D01*
X196081D01*
X196700Y240200D01*
X197224Y240550D01*
X197574Y241074D01*
X197697Y241692D01*
X197574Y242311D01*
X197224Y242835D01*
X196700Y243185D01*
X196081Y243308D01*
X192145D01*
X191526Y243185D01*
X191002Y242835D01*
X190954Y242763D01*
X186850D01*
Y244110D01*
X186917Y244446D01*
X186917Y244446D01*
Y247522D01*
X187032D01*
X188021Y248511D01*
Y250489D01*
X187032Y251478D01*
D02*
G37*
G36*
X57500Y251282D02*
X56521Y251153D01*
X55609Y250775D01*
X54826Y250174D01*
X54225Y249391D01*
X53847Y248479D01*
X53718Y247500D01*
X53847Y246521D01*
X54225Y245609D01*
X54826Y244826D01*
X55609Y244225D01*
X56521Y243847D01*
X57500Y243718D01*
X58479Y243847D01*
X59391Y244225D01*
X60174Y244826D01*
X60775Y245609D01*
X61153Y246521D01*
X61282Y247500D01*
X61153Y248479D01*
X60775Y249391D01*
X60174Y250174D01*
X59391Y250775D01*
X58479Y251153D01*
X57500Y251282D01*
D02*
G37*
G36*
X67500Y251282D02*
X66521Y251153D01*
X65609Y250775D01*
X64826Y250174D01*
X64225Y249391D01*
X63847Y248479D01*
X63718Y247500D01*
X63847Y246521D01*
X64225Y245609D01*
X64826Y244826D01*
X65609Y244225D01*
X66521Y243847D01*
X67500Y243718D01*
X68479Y243847D01*
X69391Y244225D01*
X70174Y244826D01*
X70775Y245609D01*
X71153Y246521D01*
X71282Y247500D01*
X71153Y248479D01*
X70775Y249391D01*
X70174Y250174D01*
X69391Y250775D01*
X68479Y251153D01*
X67500Y251282D01*
D02*
G37*
G36*
X121336Y249014D02*
X121154Y248886D01*
X103286D01*
X102291Y248688D01*
X101448Y248125D01*
X83944Y230621D01*
X83500Y230679D01*
X82418Y230537D01*
X81410Y230119D01*
X80545Y229455D01*
X79881Y228590D01*
X79463Y227582D01*
X79371Y226884D01*
X75588Y223100D01*
X70591D01*
Y223600D01*
X70590D01*
Y225009D01*
X70393Y226005D01*
X69829Y226848D01*
X66338Y230339D01*
X65495Y230902D01*
X64500Y231100D01*
X46500D01*
X45505Y230902D01*
X44662Y230339D01*
X37044Y222721D01*
X36481Y221878D01*
X36283Y220883D01*
Y218210D01*
X35932Y217941D01*
X35355Y217190D01*
X34993Y216314D01*
X34869Y215374D01*
X34993Y214434D01*
X35355Y213559D01*
X35932Y212806D01*
X36685Y212229D01*
X37560Y211867D01*
X38500Y211743D01*
X39440Y211867D01*
X40315Y212229D01*
X41067Y212806D01*
X41645Y213559D01*
X42007Y214434D01*
X42131Y215374D01*
X42007Y216314D01*
X41645Y217190D01*
X41483Y217401D01*
Y219806D01*
X47577Y225900D01*
X63423D01*
X65390Y223933D01*
Y220750D01*
X65588Y219755D01*
X65891Y219303D01*
Y217400D01*
X70591D01*
Y217900D01*
X76665D01*
X77660Y218098D01*
X78503Y218662D01*
X82338Y222497D01*
X82418Y222463D01*
X83500Y222321D01*
X84582Y222463D01*
X85589Y222881D01*
X86455Y223545D01*
X87119Y224411D01*
X87537Y225418D01*
X87679Y226500D01*
X87621Y226944D01*
X104363Y243686D01*
X121777D01*
X122501Y243559D01*
X124283Y244806D01*
X124550Y246320D01*
X124497Y246396D01*
X124321Y247281D01*
X123757Y248125D01*
X122914Y248688D01*
X122888Y248693D01*
X122851Y248747D01*
X121336Y249014D01*
D02*
G37*
G36*
X127389Y242265D02*
X126264Y241477D01*
X126081Y241514D01*
X124835D01*
X123840Y241316D01*
X122996Y240752D01*
X122433Y239909D01*
X122254Y239010D01*
X113865Y230621D01*
X113421Y230679D01*
X112339Y230537D01*
X111331Y230119D01*
X110466Y229455D01*
X109802Y228590D01*
X109384Y227582D01*
X109242Y226500D01*
X109300Y226056D01*
X103662Y220417D01*
X103098Y219574D01*
X102900Y218579D01*
Y195538D01*
X103098Y194543D01*
X103662Y193699D01*
X103916Y193529D01*
Y192576D01*
X105577D01*
X105784Y192076D01*
X103208Y189500D01*
X100176D01*
Y183576D01*
X103344D01*
Y186608D01*
X107166Y190429D01*
X113058D01*
X113468Y190511D01*
X113815Y190743D01*
X116914Y193841D01*
X119600D01*
Y198041D01*
X115400D01*
Y195355D01*
X112615Y192571D01*
X107582D01*
X107084Y192576D01*
X107084Y193529D01*
X107338Y193699D01*
X107902Y194543D01*
X108100Y195538D01*
Y217502D01*
X112977Y222379D01*
X113421Y222321D01*
X114503Y222463D01*
X115510Y222881D01*
X116376Y223545D01*
X117040Y224411D01*
X117457Y225418D01*
X117600Y226500D01*
X117542Y226944D01*
X126245Y235648D01*
X126744Y235604D01*
X126773Y235562D01*
X130336Y238057D01*
X127389Y242265D01*
D02*
G37*
G36*
X298965Y249016D02*
X297934Y248880D01*
X296974Y248483D01*
X296150Y247850D01*
X295517Y247026D01*
X295120Y246066D01*
X294984Y245036D01*
X295120Y244005D01*
X295517Y243045D01*
X296150Y242221D01*
X296974Y241588D01*
X297934Y241191D01*
X298965Y241055D01*
X299995Y241191D01*
X300955Y241588D01*
X301779Y242221D01*
X302412Y243045D01*
X302809Y244005D01*
X302945Y245036D01*
X302809Y246066D01*
X302412Y247026D01*
X301779Y247850D01*
X300955Y248483D01*
X299995Y248880D01*
X298965Y249016D01*
D02*
G37*
G36*
X215767Y248308D02*
X211830D01*
X211211Y248185D01*
X210687Y247835D01*
X210337Y247311D01*
X210214Y246692D01*
X210337Y246074D01*
X210687Y245550D01*
X211211Y245200D01*
X211830Y245077D01*
X215767D01*
X215942Y245112D01*
X226591D01*
X228250Y243453D01*
Y240838D01*
X233250D01*
Y245538D01*
X230635D01*
X228363Y247810D01*
X227851Y248153D01*
X227246Y248273D01*
X215942D01*
X215767Y248308D01*
D02*
G37*
G36*
X196081D02*
X192145D01*
X191526Y248185D01*
X191002Y247835D01*
X190652Y247311D01*
X190529Y246692D01*
X190652Y246074D01*
X191002Y245550D01*
X191526Y245200D01*
X192145Y245077D01*
X196081D01*
X196166Y245094D01*
X198429Y242831D01*
Y237067D01*
X198119Y236822D01*
X197634Y237007D01*
X197574Y237311D01*
X197224Y237835D01*
X196700Y238185D01*
X196081Y238308D01*
X192145D01*
X191526Y238185D01*
X191002Y237835D01*
X190954Y237763D01*
X186850D01*
Y238550D01*
X182150D01*
Y237121D01*
X177050D01*
X176640Y237039D01*
X176293Y236807D01*
X176293Y236807D01*
X163057Y223571D01*
X156944D01*
X154111Y226403D01*
Y228251D01*
X154820D01*
Y236151D01*
X151260D01*
Y228251D01*
X151969D01*
Y225960D01*
X152051Y225550D01*
X152283Y225203D01*
X155273Y222213D01*
X155081Y221751D01*
X124681Y221751D01*
X124271Y221670D01*
X123924Y221438D01*
X116743Y214257D01*
X116511Y213909D01*
X116429Y213500D01*
Y203159D01*
X115400D01*
Y198959D01*
X119600D01*
Y203159D01*
X118570D01*
Y213056D01*
X125124Y219610D01*
X160443Y219610D01*
X160634Y219148D01*
X157828Y216342D01*
X151139Y216288D01*
X150798Y216798D01*
X150202Y217196D01*
X149500Y217335D01*
X148798Y217196D01*
X148202Y216798D01*
X147844Y216261D01*
X147160Y216255D01*
X146798Y216798D01*
X146202Y217196D01*
X145500Y217335D01*
X144798Y217196D01*
X144202Y216798D01*
X143822Y216228D01*
X143182Y216223D01*
X142798Y216798D01*
X142202Y217196D01*
X141500Y217335D01*
X140798Y217196D01*
X140202Y216798D01*
X139804Y216202D01*
X139803Y216195D01*
X139198Y216190D01*
X139196Y216202D01*
X138798Y216798D01*
X138202Y217196D01*
X137500Y217335D01*
X136798Y217196D01*
X136202Y216798D01*
X135804Y216202D01*
X135796Y216162D01*
X128926Y216107D01*
X128571Y216459D01*
Y217500D01*
X128489Y217910D01*
X128257Y218257D01*
X127910Y218489D01*
X127500Y218571D01*
X127090Y218489D01*
X126743Y218257D01*
X126511Y217910D01*
X126429Y217500D01*
Y216086D01*
X124755Y216073D01*
Y210352D01*
X124650Y210195D01*
X124512Y209500D01*
X124650Y208805D01*
X124755Y208647D01*
Y205352D01*
X124650Y205195D01*
X124512Y204500D01*
X124562Y204248D01*
X121743Y201429D01*
X121511Y201082D01*
X121429Y200672D01*
Y193944D01*
X116743Y189257D01*
X116511Y188910D01*
X116429Y188500D01*
Y174943D01*
X94768Y153282D01*
X94500Y153335D01*
X93798Y153196D01*
X93202Y152798D01*
X92804Y152202D01*
X92665Y151500D01*
X92804Y150798D01*
X93202Y150202D01*
X93798Y149804D01*
X94500Y149665D01*
X95202Y149804D01*
X95798Y150202D01*
X96196Y150798D01*
X96335Y151500D01*
X96282Y151768D01*
X100429Y155915D01*
X100929Y155708D01*
Y152444D01*
X98768Y150282D01*
X98500Y150335D01*
X97798Y150196D01*
X97202Y149798D01*
X96804Y149202D01*
X96665Y148500D01*
X96804Y147798D01*
X97202Y147202D01*
X97798Y146804D01*
X98500Y146665D01*
X99202Y146804D01*
X99798Y147202D01*
X100196Y147798D01*
X100335Y148500D01*
X100282Y148768D01*
X102757Y151243D01*
X102929Y151501D01*
X103359Y151445D01*
X103429Y151418D01*
Y146943D01*
X99743Y143257D01*
X99511Y142910D01*
X99429Y142500D01*
Y131949D01*
X99202Y131798D01*
X98804Y131202D01*
X98665Y130500D01*
X98804Y129798D01*
X99202Y129202D01*
X99798Y128804D01*
X100500Y128665D01*
X101202Y128804D01*
X101798Y129202D01*
X102196Y129798D01*
X102335Y130500D01*
X102196Y131202D01*
X101798Y131798D01*
X101571Y131949D01*
Y142057D01*
X105257Y145743D01*
X105257Y145743D01*
X105489Y146090D01*
X105571Y146500D01*
Y155057D01*
X111929Y161415D01*
X112429Y161208D01*
Y123950D01*
X112202Y123798D01*
X111804Y123202D01*
X111665Y122500D01*
X111804Y121798D01*
X112202Y121202D01*
X112798Y120804D01*
X113500Y120665D01*
X114202Y120804D01*
X114798Y121202D01*
X115196Y121798D01*
X115335Y122500D01*
X115196Y123202D01*
X114798Y123798D01*
X114571Y123950D01*
Y161229D01*
X124293Y170951D01*
X124755Y170760D01*
Y167928D01*
X149429D01*
Y150225D01*
X149511Y149815D01*
X149743Y149468D01*
X156391Y142819D01*
Y139590D01*
X157889D01*
Y131089D01*
X157009D01*
Y127921D01*
X159928D01*
X159987Y127909D01*
X164859D01*
Y127224D01*
X165019D01*
X165079Y127079D01*
X165500Y126905D01*
X177150D01*
Y126650D01*
X181850D01*
Y127050D01*
X181921Y127079D01*
X181958Y127170D01*
X185095D01*
X190003Y122262D01*
X189685Y121873D01*
X189202Y122196D01*
X188500Y122335D01*
X187798Y122196D01*
X187202Y121798D01*
X186804Y121202D01*
X186665Y120500D01*
X186804Y119798D01*
X187202Y119202D01*
X187429Y119051D01*
Y114761D01*
X186715Y114047D01*
X186241Y114155D01*
X186183Y114222D01*
X185798Y114798D01*
X185202Y115196D01*
X184500Y115335D01*
X183798Y115196D01*
X183202Y114798D01*
X183051Y114571D01*
X169500D01*
X169500Y114571D01*
X169090Y114489D01*
X168743Y114257D01*
X163743Y109257D01*
X163625Y109080D01*
X163202Y108798D01*
X162804Y108202D01*
X162665Y107500D01*
X162804Y106798D01*
X163202Y106202D01*
X163798Y105804D01*
X164500Y105665D01*
X165202Y105804D01*
X165798Y106202D01*
X166196Y106798D01*
X166335Y107500D01*
X166196Y108202D01*
X166004Y108490D01*
X169943Y112429D01*
X173225D01*
X173348Y112235D01*
X173415Y111929D01*
X167768Y106282D01*
X167500Y106335D01*
X166798Y106196D01*
X166202Y105798D01*
X165804Y105202D01*
X165665Y104500D01*
X165804Y103798D01*
X166202Y103202D01*
X166798Y102804D01*
X167500Y102665D01*
X168202Y102804D01*
X168798Y103202D01*
X169196Y103798D01*
X169335Y104500D01*
X169282Y104768D01*
X174694Y110179D01*
X185432D01*
X185842Y110261D01*
X186189Y110493D01*
X189257Y113561D01*
X189257Y113561D01*
X189489Y113908D01*
X189571Y114318D01*
X189571Y114318D01*
Y119051D01*
X189798Y119202D01*
X189920Y119385D01*
X190420Y119233D01*
Y114500D01*
X190540Y113895D01*
X190883Y113382D01*
X191906Y112359D01*
X191911Y112324D01*
X191559Y112028D01*
X191497Y111999D01*
X191202Y112196D01*
X190500Y112335D01*
X189798Y112196D01*
X189202Y111798D01*
X188804Y111202D01*
X188665Y110500D01*
X188750Y110071D01*
X188401Y109571D01*
X177500D01*
X177090Y109489D01*
X176743Y109257D01*
X176743Y109257D01*
X170768Y103282D01*
X170500Y103335D01*
X169798Y103196D01*
X169202Y102798D01*
X168804Y102202D01*
X168665Y101500D01*
X168804Y100798D01*
X169202Y100202D01*
X169798Y99804D01*
X170500Y99665D01*
X171202Y99804D01*
X171798Y100202D01*
X172196Y100798D01*
X172335Y101500D01*
X172282Y101768D01*
X177943Y107429D01*
X189487D01*
X189514Y107402D01*
X189731Y106965D01*
X186741Y103976D01*
X186280Y104222D01*
X186335Y104500D01*
X186196Y105202D01*
X185798Y105798D01*
X185202Y106196D01*
X184500Y106335D01*
X183798Y106196D01*
X183202Y105798D01*
X182804Y105202D01*
X182665Y104500D01*
X182804Y103798D01*
X183202Y103202D01*
X183798Y102804D01*
X184500Y102665D01*
X184778Y102720D01*
X185024Y102259D01*
X177883Y95117D01*
X177540Y94605D01*
X177420Y94000D01*
Y90695D01*
X176789Y90211D01*
X176292Y89563D01*
X175980Y88809D01*
X175873Y88000D01*
X175980Y87191D01*
X176141Y86801D01*
X175717Y86518D01*
X161618Y100618D01*
X161105Y100960D01*
X160500Y101080D01*
X154617D01*
X154447Y101490D01*
X153815Y102315D01*
X152990Y102947D01*
X152030Y103345D01*
X151000Y103481D01*
X149970Y103345D01*
X149010Y102947D01*
X148185Y102315D01*
X147553Y101490D01*
X147155Y100530D01*
X147020Y99500D01*
X147155Y98470D01*
X147553Y97510D01*
X148185Y96685D01*
X149010Y96053D01*
X149970Y95655D01*
X151000Y95520D01*
X152030Y95655D01*
X152990Y96053D01*
X153815Y96685D01*
X154447Y97510D01*
X154617Y97920D01*
X159845D01*
X176470Y81295D01*
Y67850D01*
X175550D01*
Y63150D01*
X176470D01*
Y60850D01*
X175550D01*
Y59469D01*
X174807D01*
X174436Y59395D01*
X174122Y59185D01*
X157699Y42761D01*
X153931D01*
Y37624D01*
X159069D01*
Y41392D01*
X175050Y57373D01*
X175550Y57166D01*
Y56150D01*
X180531D01*
Y45193D01*
X180605Y44822D01*
X180815Y44508D01*
X183932Y41392D01*
Y37624D01*
X189068D01*
Y42761D01*
X185301D01*
X182469Y45594D01*
Y56150D01*
X187450D01*
Y58615D01*
X187717Y58882D01*
X189638D01*
Y58681D01*
X195169D01*
Y62243D01*
X195169D01*
Y62421D01*
X195169D01*
Y65661D01*
X195169Y65983D01*
X195169Y66483D01*
Y68209D01*
X195698Y68738D01*
X195698Y68738D01*
X195930Y69086D01*
X196012Y69495D01*
X196012Y69495D01*
Y73400D01*
X197041D01*
Y77600D01*
X196012D01*
Y79149D01*
X196388Y79400D01*
X197041D01*
Y79923D01*
X197147Y80029D01*
X197711Y80873D01*
X197909Y81868D01*
Y83547D01*
X198208Y83937D01*
X198520Y84691D01*
X198627Y85500D01*
X198520Y86309D01*
X198208Y87063D01*
X197711Y87711D01*
X197063Y88208D01*
X196309Y88520D01*
X195500Y88627D01*
X194691Y88520D01*
X193937Y88208D01*
X193289Y87711D01*
X192792Y87063D01*
X192480Y86309D01*
X192373Y85500D01*
X192480Y84691D01*
X192709Y84138D01*
Y82749D01*
X192539Y82495D01*
X192341Y81500D01*
X192539Y80505D01*
X192841Y80053D01*
Y79400D01*
X193494D01*
X193871Y79149D01*
Y77600D01*
X192841D01*
Y73400D01*
X193871D01*
Y69939D01*
X193655Y69723D01*
X189638D01*
Y66483D01*
X189638Y66161D01*
X189345Y65782D01*
X187450D01*
Y67850D01*
X182469D01*
Y71099D01*
X186626Y75256D01*
X186836Y75571D01*
X186910Y75941D01*
Y77424D01*
X187239Y77644D01*
X187637Y78239D01*
X187777Y78941D01*
X187637Y79644D01*
X187239Y80239D01*
X186644Y80637D01*
X185941Y80777D01*
X185239Y80637D01*
X184643Y80239D01*
X184246Y79644D01*
X184106Y78941D01*
X184246Y78239D01*
X184643Y77644D01*
X184973Y77424D01*
Y76342D01*
X180815Y72185D01*
X180605Y71871D01*
X180531Y71500D01*
Y67850D01*
X179630D01*
Y81950D01*
X179510Y82555D01*
X179167Y83068D01*
X177517Y84717D01*
X177801Y85141D01*
X178191Y84980D01*
X179000Y84873D01*
X179809Y84980D01*
X180563Y85292D01*
X181211Y85789D01*
X181708Y86437D01*
X182020Y87191D01*
X182127Y88000D01*
X182020Y88809D01*
X181708Y89563D01*
X181211Y90211D01*
X180580Y90695D01*
Y93345D01*
X189946Y102711D01*
X190026Y102671D01*
X190381Y102439D01*
X190480Y101691D01*
X190792Y100937D01*
X191289Y100289D01*
X191937Y99792D01*
X192691Y99480D01*
X193500Y99373D01*
X194309Y99480D01*
X195063Y99792D01*
X195711Y100289D01*
X196208Y100937D01*
X196520Y101691D01*
X196627Y102500D01*
X196520Y103309D01*
X196208Y104063D01*
X195711Y104711D01*
X195063Y105208D01*
X194309Y105520D01*
X193561Y105619D01*
X193329Y105974D01*
X193289Y106054D01*
X195617Y108382D01*
X195960Y108895D01*
X196080Y109500D01*
Y112000D01*
X195960Y112605D01*
X195617Y113118D01*
X193580Y115155D01*
Y121234D01*
X194080Y121386D01*
X194203Y121203D01*
X194798Y120805D01*
X195500Y120665D01*
X196203Y120805D01*
X196798Y121203D01*
X197196Y121798D01*
X197336Y122500D01*
X197196Y123203D01*
X197081Y123375D01*
Y129500D01*
X196960Y130104D01*
X196618Y130617D01*
X194279Y132956D01*
X196490Y135167D01*
X193167Y138490D01*
X190956Y136279D01*
X187236Y139999D01*
X187196Y140202D01*
X186798Y140798D01*
X186650Y140896D01*
X186700Y141465D01*
X191155Y145920D01*
X213845D01*
X227370Y132395D01*
Y124850D01*
X226450D01*
Y120150D01*
X229215D01*
X244420Y104945D01*
Y94155D01*
X239882Y89618D01*
X239540Y89105D01*
X239420Y88500D01*
Y84655D01*
X224382Y69617D01*
X224040Y69105D01*
X223920Y68500D01*
Y66100D01*
X222341D01*
Y54900D01*
X228659D01*
Y66100D01*
X227080D01*
Y67845D01*
X242118Y82882D01*
X242460Y83395D01*
X242580Y84000D01*
Y87845D01*
X244183Y89448D01*
X244711Y89269D01*
X244804Y88798D01*
X245202Y88202D01*
X245798Y87804D01*
X246500Y87665D01*
X247202Y87804D01*
X247798Y88202D01*
X247902Y88359D01*
X248125Y88346D01*
X248321Y87835D01*
X230743Y70257D01*
X230511Y69910D01*
X230429Y69500D01*
Y45384D01*
X217145Y32100D01*
X212341D01*
Y20900D01*
X218659D01*
Y30586D01*
X224069Y35996D01*
X224531Y35805D01*
Y32100D01*
X222341D01*
Y20900D01*
X228659D01*
Y29929D01*
X231442D01*
X231851Y30011D01*
X232199Y30243D01*
X239914Y37959D01*
X242600D01*
Y42159D01*
X238400D01*
Y39473D01*
X230998Y32071D01*
X228659D01*
Y32100D01*
X226469D01*
Y36560D01*
X233675Y43766D01*
X233885Y44080D01*
X233959Y44451D01*
Y67589D01*
X234688Y68318D01*
X235150Y68127D01*
Y64000D01*
X239850D01*
Y64429D01*
X241051D01*
X241202Y64202D01*
X241798Y63804D01*
X242500Y63665D01*
X243202Y63804D01*
X243798Y64202D01*
X244196Y64798D01*
X244335Y65500D01*
X244196Y66202D01*
X243798Y66798D01*
X243202Y67196D01*
X242500Y67335D01*
X241798Y67196D01*
X241202Y66798D01*
X241051Y66571D01*
X239850D01*
Y69000D01*
X236023D01*
X235832Y69462D01*
X250901Y84531D01*
X251982D01*
X252202Y84202D01*
X252798Y83804D01*
X253500Y83665D01*
X254202Y83804D01*
X254798Y84202D01*
X255196Y84798D01*
X255335Y85500D01*
X255196Y86202D01*
X254798Y86798D01*
X254202Y87196D01*
X253500Y87335D01*
X252798Y87196D01*
X252202Y86798D01*
X251982Y86469D01*
X250690D01*
X250470Y86956D01*
X260257Y96743D01*
X260489Y97090D01*
X260571Y97500D01*
Y116057D01*
X275257Y130743D01*
X275257Y130743D01*
X275489Y131090D01*
X275571Y131500D01*
Y139050D01*
X275798Y139202D01*
X276196Y139798D01*
X276335Y140500D01*
X276196Y141202D01*
X275798Y141798D01*
X275920Y142317D01*
X276099Y142444D01*
X276151Y142432D01*
X276342Y142304D01*
X276783Y142216D01*
X277225Y142304D01*
X277417Y142432D01*
X277768Y142514D01*
X278119Y142432D01*
X278311Y142304D01*
X278752Y142216D01*
X279150Y142295D01*
X279222Y142285D01*
X279650Y142007D01*
Y136950D01*
X278150D01*
Y131950D01*
X282850D01*
Y136950D01*
X281791D01*
Y142008D01*
X282222Y142287D01*
X282291Y142295D01*
X282689Y142216D01*
X283087Y142295D01*
X283159Y142285D01*
X283587Y142007D01*
Y140342D01*
X283668Y139933D01*
X283900Y139585D01*
X297429Y126057D01*
Y92657D01*
X297511Y92247D01*
X297743Y91900D01*
X314104Y75539D01*
Y74571D01*
X306943D01*
X298257Y83257D01*
X297910Y83489D01*
X297500Y83571D01*
X284450D01*
X284450Y83571D01*
X284040Y83489D01*
X283693Y83257D01*
X283693Y83257D01*
X278825Y78389D01*
X278350Y78621D01*
X278350Y78879D01*
Y83450D01*
X277580D01*
Y85125D01*
X277696Y85298D01*
X277835Y86000D01*
X277696Y86702D01*
X277298Y87298D01*
X276702Y87696D01*
X276000Y87835D01*
X275298Y87696D01*
X274702Y87298D01*
X274304Y86702D01*
X274165Y86000D01*
X274304Y85298D01*
X274420Y85125D01*
Y83450D01*
X273650D01*
Y78450D01*
X277885D01*
X278179Y78450D01*
X278411Y77975D01*
X276986Y76550D01*
X273650D01*
Y71550D01*
X278350D01*
Y74886D01*
X284893Y81429D01*
X297057D01*
X305743Y72743D01*
X306090Y72511D01*
X306500Y72429D01*
X314104D01*
Y69947D01*
X315791D01*
X316138Y69447D01*
X315722Y68078D01*
X314896Y66532D01*
X313784Y65177D01*
X312428Y64064D01*
X310882Y63238D01*
X309205Y62729D01*
X308530Y62663D01*
X308159Y62998D01*
Y63600D01*
X303959D01*
Y59400D01*
X308159D01*
Y60471D01*
X309194Y60553D01*
X310885Y60959D01*
X312492Y61624D01*
X313975Y62533D01*
X315298Y63663D01*
X316427Y64985D01*
X317336Y66468D01*
X318002Y68075D01*
X318408Y69766D01*
X318422Y69947D01*
X320816D01*
Y77053D01*
X315618D01*
X299571Y93100D01*
Y126500D01*
X299489Y126910D01*
X299257Y127257D01*
X288585Y137929D01*
X288792Y138429D01*
X293438D01*
X296933Y134934D01*
X297281Y134702D01*
X297691Y134620D01*
X298100Y134702D01*
X298447Y134934D01*
X298680Y135281D01*
X298761Y135691D01*
X298680Y136101D01*
X298447Y136448D01*
X298447Y136448D01*
X294966Y139929D01*
X295173Y140429D01*
X298676D01*
X299068Y140038D01*
X298340Y139310D01*
X301309Y136340D01*
X303209Y138239D01*
X304126D01*
X305521Y136844D01*
X304510Y135833D01*
X307833Y132510D01*
X311369Y136046D01*
X308046Y139369D01*
X307035Y138358D01*
X305326Y140067D01*
X304979Y140299D01*
X304569Y140381D01*
X303209D01*
X301309Y142280D01*
X300582Y141552D01*
X299876Y142257D01*
X299529Y142489D01*
X299119Y142571D01*
X295883D01*
X295595Y143071D01*
X295654Y143370D01*
Y148212D01*
X295571Y148630D01*
Y152051D01*
X295798Y152202D01*
X296196Y152798D01*
X296335Y153500D01*
X296302Y153666D01*
X296565Y154003D01*
X296834Y153681D01*
X296831Y153665D01*
X296918Y153224D01*
X297168Y152849D01*
Y152512D01*
X296918Y152137D01*
X296831Y151696D01*
X296918Y151254D01*
X297168Y150880D01*
X297543Y150630D01*
X297984Y150542D01*
X302583D01*
X302630Y150511D01*
X303040Y150429D01*
X303040Y150429D01*
X310550D01*
Y148150D01*
X315550D01*
Y152594D01*
X317450D01*
Y148150D01*
X318429D01*
Y146950D01*
X318202Y146798D01*
X317804Y146202D01*
X317665Y145500D01*
X317804Y144798D01*
X318202Y144202D01*
X318798Y143804D01*
X319500Y143665D01*
X320202Y143804D01*
X320798Y144202D01*
X321196Y144798D01*
X321335Y145500D01*
X321196Y146202D01*
X320798Y146798D01*
X320571Y146950D01*
Y148150D01*
X322450D01*
Y152594D01*
X322940D01*
X323202Y152202D01*
X323798Y151804D01*
X324500Y151665D01*
X325202Y151804D01*
X325798Y152202D01*
X326196Y152798D01*
X326335Y153500D01*
X326196Y154202D01*
X325798Y154798D01*
X325202Y155196D01*
X324500Y155335D01*
X323798Y155196D01*
X323202Y154798D01*
X323161Y154736D01*
X315999D01*
X315859Y155061D01*
X315820Y155236D01*
X316196Y155798D01*
X316335Y156500D01*
X316196Y157202D01*
X315798Y157798D01*
X315798Y157798D01*
X315793Y157803D01*
X315550Y158150D01*
Y162850D01*
X310550D01*
Y160471D01*
X308760D01*
X306934Y162296D01*
X306587Y162528D01*
X306508Y162544D01*
X306344Y163086D01*
X309687Y166429D01*
X310550D01*
Y165150D01*
X315550D01*
Y169850D01*
X311071D01*
X310864Y170350D01*
X316943Y176429D01*
X323050D01*
X323202Y176202D01*
X323798Y175804D01*
X324500Y175665D01*
X325202Y175804D01*
X325798Y176202D01*
X326196Y176798D01*
X326335Y177500D01*
X326196Y178202D01*
X325798Y178798D01*
X325202Y179196D01*
X324500Y179335D01*
X323798Y179196D01*
X323202Y178798D01*
X323050Y178571D01*
X316913D01*
X316706Y179071D01*
X322065Y184429D01*
X323050D01*
X323202Y184202D01*
X323798Y183804D01*
X324500Y183665D01*
X325202Y183804D01*
X325798Y184202D01*
X326196Y184798D01*
X326335Y185500D01*
X326196Y186202D01*
X325798Y186798D01*
X325202Y187196D01*
X324500Y187335D01*
X323798Y187196D01*
X323202Y186798D01*
X323050Y186571D01*
X321621D01*
X321212Y186489D01*
X320864Y186257D01*
X310842Y176235D01*
X310381Y176426D01*
Y181191D01*
X310299Y181600D01*
X310067Y181948D01*
X309720Y182179D01*
X309310Y182261D01*
X307190D01*
X306781Y182179D01*
X306651Y182093D01*
X306333Y182482D01*
X308661Y184810D01*
X305691Y187779D01*
X302721Y184810D01*
X303449Y184082D01*
X301324Y181957D01*
X301108Y182101D01*
X300406Y182241D01*
X299703Y182101D01*
X299108Y181703D01*
X298710Y181108D01*
X298570Y180405D01*
X298710Y179703D01*
X299108Y179108D01*
X299335Y178956D01*
Y174504D01*
X297984D01*
X297543Y174416D01*
X297168Y174166D01*
X296918Y173792D01*
X296831Y173350D01*
X296918Y172908D01*
X297168Y172534D01*
X297543Y172284D01*
X297984Y172196D01*
X299086D01*
X299218Y172034D01*
X299398Y171696D01*
X299335Y171381D01*
X299397Y171067D01*
X299217Y170727D01*
X299085Y170567D01*
X297984D01*
X297543Y170479D01*
X297168Y170229D01*
X296918Y169854D01*
X296831Y169413D01*
X296918Y168972D01*
X297047Y168780D01*
X297129Y168429D01*
X297047Y168077D01*
X296918Y167885D01*
X296831Y167444D01*
X296910Y167047D01*
X296900Y166974D01*
X296622Y166547D01*
X292617D01*
X292544Y166590D01*
X292335Y166821D01*
X292238Y167009D01*
X292335Y167500D01*
X292196Y168202D01*
X291798Y168798D01*
X291668Y168885D01*
Y169756D01*
X292197Y170286D01*
X292740Y170122D01*
X292804Y169798D01*
X293202Y169202D01*
X293798Y168804D01*
X294500Y168665D01*
X295202Y168804D01*
X295798Y169202D01*
X296196Y169798D01*
X296335Y170500D01*
X296196Y171202D01*
X295798Y171798D01*
X295571Y171949D01*
Y176415D01*
X295654Y176834D01*
Y181676D01*
X295566Y182118D01*
X295316Y182492D01*
X294942Y182742D01*
X294500Y182830D01*
X294059Y182742D01*
X293867Y182614D01*
X293516Y182532D01*
X293165Y182614D01*
X292973Y182742D01*
X292531Y182830D01*
X292090Y182742D01*
X291716Y182492D01*
X291379D01*
X291005Y182742D01*
X290564Y182830D01*
X290122Y182742D01*
X289930Y182614D01*
X289579Y182532D01*
X289228Y182614D01*
X289036Y182742D01*
X288595Y182830D01*
X288209Y182753D01*
X288095Y182782D01*
X287709Y183047D01*
Y186195D01*
X293783Y192269D01*
X294150Y192550D01*
Y192550D01*
X294150Y192550D01*
X298850D01*
Y197550D01*
X294150D01*
Y195664D01*
X291350Y192864D01*
X290850Y193071D01*
Y197550D01*
X286150D01*
Y194214D01*
X284030Y192094D01*
X283542Y192072D01*
X283399Y192115D01*
X282850Y192664D01*
Y197550D01*
X278150D01*
Y192550D01*
X279936D01*
X281619Y190867D01*
Y188152D01*
X281119Y187945D01*
X274850Y194214D01*
Y197550D01*
X270150D01*
Y192550D01*
X273486D01*
X274411Y191625D01*
X274322Y191441D01*
X274116Y191213D01*
X273500Y191335D01*
X272798Y191196D01*
X272202Y190798D01*
X271804Y190202D01*
X271665Y189500D01*
X271804Y188798D01*
X272202Y188202D01*
X272429Y188050D01*
Y186500D01*
X272511Y186090D01*
X272743Y185743D01*
X273442Y185044D01*
X273305Y184689D01*
X273208Y184571D01*
X271943D01*
X268571Y187943D01*
Y190618D01*
X268489Y191028D01*
X268257Y191375D01*
X265257Y194375D01*
X264910Y194607D01*
X264500Y194689D01*
X264090Y194607D01*
X263743Y194375D01*
X263511Y194028D01*
X263429Y193618D01*
X263511Y193208D01*
X263743Y192861D01*
X265542Y191062D01*
X265351Y190600D01*
X262400D01*
Y186821D01*
X261900Y186614D01*
X261571Y186943D01*
Y219500D01*
X261571Y219500D01*
X261489Y219910D01*
X261257Y220257D01*
X245257Y236257D01*
X244910Y236489D01*
X244500Y236571D01*
X240150D01*
Y237850D01*
X235469D01*
Y239637D01*
X236670Y240838D01*
X240150D01*
Y245538D01*
X235150D01*
Y242058D01*
X233815Y240723D01*
X233605Y240409D01*
X233531Y240038D01*
Y238233D01*
X233250Y237850D01*
X233031Y237850D01*
X228250D01*
Y235235D01*
X226288Y233273D01*
X217351D01*
Y233277D01*
X210245D01*
Y230108D01*
X217351D01*
Y230112D01*
X226356D01*
X226389Y229612D01*
X226134Y229579D01*
X225691Y229520D01*
X224937Y229208D01*
X224289Y228711D01*
X223792Y228063D01*
X223480Y227309D01*
X223373Y226500D01*
X223480Y225691D01*
X223766Y225001D01*
X219000Y220235D01*
X205080Y234155D01*
Y236845D01*
X208331Y240096D01*
X211733D01*
X211830Y240077D01*
X215767D01*
X216385Y240200D01*
X216909Y240550D01*
X216957Y240622D01*
X221400D01*
Y239959D01*
X225600D01*
Y244159D01*
X221400D01*
Y242763D01*
X216957D01*
X216909Y242835D01*
X216385Y243185D01*
X215767Y243308D01*
X211830D01*
X211575Y243257D01*
X207677D01*
X207072Y243137D01*
X206559Y242794D01*
X202382Y238617D01*
X202040Y238105D01*
X201920Y237500D01*
Y233500D01*
X202040Y232895D01*
X202382Y232382D01*
X216765Y218000D01*
X215081Y216316D01*
X212154D01*
X211459Y216178D01*
X210870Y215784D01*
X210476Y215195D01*
X210338Y214500D01*
X210476Y213805D01*
X210870Y213216D01*
X211459Y212822D01*
X212154Y212684D01*
X218847D01*
X219541Y212822D01*
X220130Y213216D01*
X220524Y213805D01*
X220662Y214500D01*
X220524Y215195D01*
X220130Y215784D01*
X219888Y215946D01*
X219825Y216590D01*
X220618Y217383D01*
X226625Y223390D01*
X227309Y223480D01*
X228063Y223792D01*
X228711Y224289D01*
X229208Y224937D01*
X229520Y225691D01*
X229627Y226500D01*
X229520Y227309D01*
X229208Y228063D01*
X228711Y228711D01*
X228063Y229208D01*
X227309Y229520D01*
X226866Y229579D01*
X226611Y229612D01*
X226644Y230112D01*
X226942D01*
X227547Y230233D01*
X228060Y230575D01*
X230635Y233150D01*
X233031D01*
X233250Y233150D01*
X233531Y232767D01*
Y232500D01*
X233605Y232129D01*
X233815Y231815D01*
X236815Y228815D01*
X237129Y228605D01*
X237500Y228531D01*
X247099D01*
X256531Y219099D01*
Y200590D01*
X256031Y200439D01*
X255791Y200798D01*
X255196Y201196D01*
X254494Y201335D01*
X253791Y201196D01*
X253196Y200798D01*
X252798Y200202D01*
X252659Y199500D01*
X252688Y199352D01*
X252186Y198850D01*
X249150D01*
Y194150D01*
X254150D01*
Y197383D01*
X254494Y197665D01*
X255196Y197804D01*
X255791Y198202D01*
X256031Y198561D01*
X256531Y198410D01*
Y187308D01*
X256605Y186937D01*
X256815Y186623D01*
X268473Y174966D01*
X268281Y174504D01*
X265981D01*
Y175381D01*
X265981Y175382D01*
X265899Y175791D01*
X265667Y176138D01*
X254150Y187655D01*
Y190850D01*
X249150D01*
Y186150D01*
X252627D01*
X263839Y174938D01*
Y174256D01*
X263704Y174166D01*
X263454Y173792D01*
X263367Y173350D01*
X263454Y172908D01*
X263676Y172577D01*
X263533Y172146D01*
X263052Y172155D01*
X262798Y172535D01*
X262202Y172933D01*
X261500Y173073D01*
X260798Y172933D01*
X260202Y172535D01*
X259804Y171940D01*
X259665Y171237D01*
X259804Y170535D01*
X260043Y170178D01*
X259654Y169860D01*
X256571Y172943D01*
Y177092D01*
X256489Y177502D01*
X256257Y177849D01*
X254150Y179956D01*
Y183292D01*
X249150D01*
Y178592D01*
X252486D01*
X254429Y176649D01*
Y175988D01*
X254150Y175604D01*
X249150D01*
Y170904D01*
X252636D01*
X258462Y165078D01*
X258255Y164578D01*
X254402D01*
X254150Y164829D01*
Y168015D01*
X249150D01*
Y163315D01*
X252636D01*
X253201Y162750D01*
X253201Y162750D01*
X253549Y162518D01*
X253958Y162436D01*
X253958Y162436D01*
X254138D01*
X254346Y161936D01*
X252636Y160227D01*
X249559D01*
X249335Y160500D01*
X249196Y161202D01*
X248798Y161798D01*
X248202Y162196D01*
X247500Y162335D01*
X246798Y162196D01*
X246202Y161798D01*
X245804Y161202D01*
X245665Y160500D01*
X245441Y160227D01*
X242250D01*
Y156917D01*
X241788Y156726D01*
X240507Y158007D01*
X240160Y158239D01*
X239750Y158321D01*
X185452D01*
X185194Y158732D01*
X185200Y158821D01*
X185335Y159500D01*
X185196Y160202D01*
X184798Y160798D01*
X184202Y161196D01*
X183500Y161335D01*
X182798Y161196D01*
X182202Y160798D01*
X181804Y160202D01*
X181665Y159500D01*
X181800Y158821D01*
X181806Y158732D01*
X181548Y158321D01*
X169193D01*
X165282Y162232D01*
X165335Y162500D01*
X165196Y163202D01*
X164798Y163798D01*
X164202Y164196D01*
X163500Y164335D01*
X162798Y164196D01*
X162202Y163798D01*
X161804Y163202D01*
X161674Y162547D01*
X161502Y162440D01*
X161190Y162324D01*
X160571Y162943D01*
Y166403D01*
X161902Y167734D01*
X162153Y167684D01*
X168846D01*
X169541Y167822D01*
X169699Y167928D01*
X173267D01*
X173339Y167819D01*
X176478Y164681D01*
X176825Y164448D01*
X177235Y164367D01*
X177235Y164367D01*
X181734D01*
X181886Y164140D01*
X182481Y163742D01*
X183184Y163602D01*
X183886Y163742D01*
X184481Y164140D01*
X184879Y164735D01*
X185019Y165437D01*
X184879Y166140D01*
X184481Y166735D01*
X183886Y167133D01*
X183184Y167273D01*
X182481Y167133D01*
X181886Y166735D01*
X181734Y166508D01*
X177678D01*
X176721Y167466D01*
X176912Y167928D01*
X184593D01*
X184553Y167967D01*
X184744Y168429D01*
X187500D01*
X187910Y168511D01*
X188257Y168743D01*
X188489Y169090D01*
X188571Y169500D01*
X188489Y169910D01*
X188257Y170257D01*
X187910Y170489D01*
X187500Y170571D01*
X183871D01*
Y172926D01*
X184304Y173216D01*
X184447Y173429D01*
X187050D01*
X187202Y173202D01*
X187798Y172804D01*
X188500Y172665D01*
X189202Y172804D01*
X189798Y173202D01*
X190196Y173798D01*
X190219Y173917D01*
X190681Y174109D01*
X190784Y174040D01*
X191389Y173920D01*
X195625D01*
X195798Y173804D01*
X196500Y173665D01*
X197202Y173804D01*
X197798Y174202D01*
X198196Y174798D01*
X198335Y175500D01*
X198196Y176202D01*
X197798Y176798D01*
X197202Y177196D01*
X196500Y177335D01*
X195798Y177196D01*
X195625Y177080D01*
X192044D01*
X190757Y178367D01*
X190244Y178710D01*
X189639Y178830D01*
X187512D01*
X187239Y179239D01*
X186643Y179637D01*
X185941Y179776D01*
X185413Y179671D01*
X185166Y180132D01*
X193279Y188244D01*
X193821Y188080D01*
X193877Y187798D01*
X194275Y187202D01*
X194870Y186804D01*
X195573Y186665D01*
X196275Y186804D01*
X196871Y187202D01*
X197268Y187798D01*
X197408Y188500D01*
X197268Y189202D01*
X196871Y189798D01*
X196275Y190196D01*
X195993Y190252D01*
X195829Y190794D01*
X196257Y191223D01*
X196489Y191570D01*
X196571Y191980D01*
Y214057D01*
X202232Y219718D01*
X202500Y219665D01*
X203202Y219804D01*
X203798Y220202D01*
X204196Y220798D01*
X204335Y221500D01*
X204196Y222202D01*
X203798Y222798D01*
X203202Y223196D01*
X202500Y223335D01*
X201798Y223196D01*
X201202Y222798D01*
X200804Y222202D01*
X200665Y221500D01*
X200718Y221232D01*
X194743Y215257D01*
X194511Y214910D01*
X194429Y214500D01*
Y192423D01*
X184456Y182449D01*
X183966Y182648D01*
X183952Y182980D01*
X184304Y183216D01*
X184698Y183805D01*
X184836Y184500D01*
X184698Y185195D01*
X184304Y185784D01*
X183871Y186074D01*
Y187926D01*
X184304Y188216D01*
X184447Y188429D01*
X187500D01*
X187910Y188511D01*
X188257Y188743D01*
X193257Y193743D01*
X193489Y194090D01*
X193571Y194500D01*
X193571Y194500D01*
Y220057D01*
X198232Y224718D01*
X198500Y224665D01*
X199202Y224804D01*
X199798Y225202D01*
X200196Y225798D01*
X200335Y226500D01*
X200196Y227202D01*
X199798Y227798D01*
X199202Y228196D01*
X198500Y228335D01*
X197798Y228196D01*
X197202Y227798D01*
X196804Y227202D01*
X196665Y226500D01*
X196718Y226232D01*
X191743Y221257D01*
X191511Y220910D01*
X191429Y220500D01*
Y194943D01*
X187057Y190571D01*
X184447D01*
X184304Y190784D01*
X183871Y191074D01*
Y192927D01*
X184304Y193216D01*
X184698Y193805D01*
X184836Y194500D01*
X184698Y195195D01*
X184304Y195784D01*
X183871Y196073D01*
Y197926D01*
X184304Y198216D01*
X184447Y198429D01*
X185500D01*
X185910Y198511D01*
X186257Y198743D01*
X188232Y200718D01*
X188500Y200665D01*
X189202Y200804D01*
X189798Y201202D01*
X190196Y201798D01*
X190335Y202500D01*
X190196Y203202D01*
X189798Y203798D01*
X189202Y204196D01*
X188500Y204335D01*
X187798Y204196D01*
X187202Y203798D01*
X186804Y203202D01*
X186665Y202500D01*
X186718Y202232D01*
X185056Y200571D01*
X184447D01*
X184304Y200784D01*
X183871Y201074D01*
Y202926D01*
X184304Y203216D01*
X184698Y203805D01*
X184836Y204500D01*
X184698Y205195D01*
X184304Y205784D01*
X183871Y206073D01*
Y207927D01*
X184304Y208216D01*
X184447Y208429D01*
X186050D01*
X186202Y208202D01*
X186798Y207804D01*
X187500Y207665D01*
X188202Y207804D01*
X188798Y208202D01*
X189196Y208798D01*
X189335Y209500D01*
X189196Y210202D01*
X188798Y210798D01*
X188202Y211196D01*
X187500Y211335D01*
X186798Y211196D01*
X186202Y210798D01*
X186050Y210571D01*
X184447D01*
X184304Y210784D01*
X183871Y211073D01*
Y213429D01*
X185500D01*
X185910Y213511D01*
X186257Y213743D01*
X186489Y214090D01*
X186571Y214500D01*
X186489Y214910D01*
X186257Y215257D01*
X185910Y215489D01*
X185500Y215571D01*
X183871D01*
Y216555D01*
X183775Y216554D01*
X183566Y217052D01*
X190257Y223743D01*
X190257Y223743D01*
X190489Y224090D01*
X190571Y224500D01*
Y232057D01*
X191743Y233229D01*
X193895D01*
X193943Y232733D01*
X193841Y232709D01*
X193944Y232729D01*
Y232729D01*
X193703Y232682D01*
X193356Y232450D01*
X193124Y232102D01*
X193043Y231693D01*
X193124Y231283D01*
X193356Y230936D01*
X193549Y230743D01*
X193896Y230511D01*
X194306Y230429D01*
X198500D01*
X198910Y230511D01*
X199257Y230743D01*
X199489Y231090D01*
X199571Y231500D01*
X199489Y231910D01*
X199257Y232257D01*
X198910Y232489D01*
X198500Y232571D01*
X194721D01*
X194444Y232729D01*
X194577Y233229D01*
X197300D01*
X197710Y233311D01*
X198057Y233543D01*
X200257Y235743D01*
X200489Y236090D01*
X200571Y236500D01*
Y243274D01*
X200489Y243684D01*
X200257Y244031D01*
X200257Y244031D01*
X197680Y246608D01*
X197697Y246692D01*
X197574Y247311D01*
X197224Y247835D01*
X196700Y248185D01*
X196081Y248308D01*
D02*
G37*
G36*
X223500Y238011D02*
X223091Y237930D01*
X222841Y237763D01*
X207693D01*
X207283Y237682D01*
X206936Y237450D01*
X206703Y237102D01*
X206622Y236693D01*
X206703Y236283D01*
X206936Y235935D01*
X207283Y235703D01*
X207693Y235622D01*
X223252D01*
X223662Y235703D01*
X224009Y235935D01*
X224257Y236184D01*
X224489Y236531D01*
X224571Y236941D01*
X224489Y237350D01*
X224257Y237698D01*
X223910Y237930D01*
X223500Y238011D01*
D02*
G37*
G36*
X145362Y245870D02*
X144952Y245788D01*
X144605Y245556D01*
X144373Y245209D01*
X144291Y244799D01*
X144373Y244389D01*
X144429Y244305D01*
Y235500D01*
X144511Y235090D01*
X144743Y234743D01*
X145090Y234511D01*
X145500Y234429D01*
X145910Y234511D01*
X146257Y234743D01*
X146489Y235090D01*
X146571Y235500D01*
Y244661D01*
X146571Y244661D01*
X146489Y245071D01*
X146257Y245418D01*
X146119Y245556D01*
X145772Y245788D01*
X145362Y245870D01*
D02*
G37*
G36*
X61250Y241250D02*
X53750D01*
Y233750D01*
X61250D01*
Y241250D01*
D02*
G37*
G36*
X67500Y241282D02*
X66521Y241153D01*
X65609Y240775D01*
X64826Y240174D01*
X64225Y239391D01*
X63847Y238479D01*
X63718Y237500D01*
X63847Y236521D01*
X64225Y235609D01*
X64826Y234826D01*
X65609Y234225D01*
X66521Y233847D01*
X67500Y233718D01*
X68479Y233847D01*
X69391Y234225D01*
X70174Y234826D01*
X70775Y235609D01*
X71153Y236521D01*
X71282Y237500D01*
X71153Y238479D01*
X70775Y239391D01*
X70174Y240174D01*
X69391Y240775D01*
X68479Y241153D01*
X67500Y241282D01*
D02*
G37*
G36*
X298500Y236335D02*
X297798Y236196D01*
X297202Y235798D01*
X296804Y235202D01*
X296665Y234500D01*
X296804Y233798D01*
X297202Y233202D01*
X297798Y232804D01*
X298500Y232665D01*
X299202Y232804D01*
X299798Y233202D01*
X300196Y233798D01*
X300335Y234500D01*
X300196Y235202D01*
X299798Y235798D01*
X299202Y236196D01*
X298500Y236335D01*
D02*
G37*
G36*
X258500D02*
X257798Y236196D01*
X257202Y235798D01*
X256804Y235202D01*
X256665Y234500D01*
X256804Y233798D01*
X257202Y233202D01*
X257798Y232804D01*
X258500Y232665D01*
X259202Y232804D01*
X259798Y233202D01*
X260196Y233798D01*
X260335Y234500D01*
X260196Y235202D01*
X259798Y235798D01*
X259202Y236196D01*
X258500Y236335D01*
D02*
G37*
G36*
X306036Y243546D02*
X300454Y237965D01*
X306036Y232383D01*
X311617Y237965D01*
X306036Y243546D01*
D02*
G37*
G36*
X253500Y233335D02*
X252798Y233196D01*
X252202Y232798D01*
X251804Y232202D01*
X251665Y231500D01*
X251804Y230798D01*
X252202Y230202D01*
X252798Y229804D01*
X253500Y229665D01*
X254202Y229804D01*
X254798Y230202D01*
X255196Y230798D01*
X255335Y231500D01*
X255196Y232202D01*
X254798Y232798D01*
X254202Y233196D01*
X253500Y233335D01*
D02*
G37*
G36*
X275136Y235738D02*
X270786D01*
Y228338D01*
X270400Y228021D01*
X270000Y228100D01*
X265718D01*
Y231791D01*
X265520Y232786D01*
X265293Y233127D01*
Y235738D01*
X260943D01*
Y233127D01*
X260716Y232786D01*
X260518Y231791D01*
Y224382D01*
X260716Y223387D01*
X261280Y222544D01*
X262662Y221162D01*
X262725Y221119D01*
X263413Y220431D01*
X264342D01*
X264500Y220400D01*
X264658Y220431D01*
X265587D01*
X266275Y221119D01*
X266338Y221162D01*
X266381Y221225D01*
X266675Y221519D01*
Y221665D01*
X266902Y222005D01*
X267080Y222900D01*
X270000D01*
X270995Y223098D01*
X271335Y223325D01*
X272568D01*
X272965Y223076D01*
Y217479D01*
X264768Y209282D01*
X264500Y209335D01*
X263798Y209196D01*
X263202Y208798D01*
X262804Y208202D01*
X262665Y207500D01*
X262804Y206798D01*
X263202Y206202D01*
X263798Y205804D01*
X264500Y205665D01*
X265202Y205804D01*
X265798Y206202D01*
X266196Y206798D01*
X266335Y207500D01*
X266282Y207768D01*
X274793Y216279D01*
X275025Y216626D01*
X275106Y217036D01*
X275106Y217036D01*
Y227845D01*
X275136D01*
Y235738D01*
D02*
G37*
G36*
X306500Y227335D02*
X305798Y227196D01*
X305202Y226798D01*
X304804Y226202D01*
X304665Y225500D01*
X304724Y225201D01*
X304274Y224901D01*
X304185Y224960D01*
X303580Y225080D01*
X301569D01*
Y225675D01*
X296431D01*
Y221325D01*
X301569D01*
Y221920D01*
X302926D01*
X310251Y214595D01*
Y211100D01*
X318151D01*
Y214660D01*
X313431D01*
Y215230D01*
X313311Y215834D01*
X312968Y216347D01*
X306076Y223239D01*
X306323Y223700D01*
X306500Y223665D01*
X307202Y223804D01*
X307798Y224202D01*
X308196Y224798D01*
X308335Y225500D01*
X308196Y226202D01*
X307798Y226798D01*
X307202Y227196D01*
X306500Y227335D01*
D02*
G37*
G36*
X206500Y216335D02*
X205798Y216196D01*
X205202Y215798D01*
X204804Y215202D01*
X204665Y214500D01*
X204804Y213798D01*
X205202Y213202D01*
X205798Y212804D01*
X206500Y212665D01*
X207202Y212804D01*
X207798Y213202D01*
X208196Y213798D01*
X208335Y214500D01*
X208196Y215202D01*
X207798Y215798D01*
X207202Y216196D01*
X206500Y216335D01*
D02*
G37*
G36*
X245446Y217947D02*
X237554D01*
Y210053D01*
X245446D01*
Y217947D01*
D02*
G37*
G36*
X231500Y217981D02*
X230470Y217845D01*
X229510Y217447D01*
X228685Y216815D01*
X228053Y215990D01*
X227655Y215030D01*
X227519Y214000D01*
X227655Y212970D01*
X228053Y212010D01*
X228685Y211185D01*
X229510Y210553D01*
X230470Y210155D01*
X231500Y210019D01*
X232530Y210155D01*
X233490Y210553D01*
X234315Y211185D01*
X234947Y212010D01*
X235345Y212970D01*
X235480Y214000D01*
X235345Y215030D01*
X234947Y215990D01*
X234315Y216815D01*
X233490Y217447D01*
X232530Y217845D01*
X231500Y217981D01*
D02*
G37*
G36*
X222500Y211571D02*
X222090Y211489D01*
X221743Y211257D01*
X221057Y210571D01*
X215500D01*
X215090Y210489D01*
X214743Y210257D01*
X214511Y209910D01*
X214429Y209500D01*
X214511Y209090D01*
X214743Y208743D01*
X215090Y208511D01*
X215500Y208429D01*
X221500D01*
X221910Y208511D01*
X222257Y208743D01*
X223257Y209743D01*
X223489Y210090D01*
X223571Y210500D01*
X223489Y210910D01*
X223257Y211257D01*
X222910Y211489D01*
X222500Y211571D01*
D02*
G37*
G36*
X324500Y209030D02*
X314201D01*
X313791Y208949D01*
X313444Y208717D01*
X313212Y208369D01*
X313130Y207960D01*
X313212Y207550D01*
X313444Y207203D01*
X313791Y206970D01*
X314201Y206889D01*
X324500D01*
X324910Y206970D01*
X325257Y207203D01*
X325489Y207550D01*
X325571Y207960D01*
X325489Y208369D01*
X325257Y208717D01*
X324910Y208949D01*
X324500Y209030D01*
D02*
G37*
G36*
X247500Y209335D02*
X246798Y209196D01*
X246202Y208798D01*
X246051Y208571D01*
X245682D01*
X245272Y208489D01*
X244925Y208257D01*
X244925Y208257D01*
X238715Y202047D01*
X238241Y202155D01*
X238183Y202222D01*
X237798Y202798D01*
X237202Y203196D01*
X236500Y203335D01*
X235798Y203196D01*
X235202Y202798D01*
X234804Y202202D01*
X234665Y201500D01*
X234804Y200798D01*
X235202Y200202D01*
X235798Y199804D01*
X236500Y199665D01*
X236929Y199750D01*
X237429Y199401D01*
Y194750D01*
X237511Y194340D01*
X237743Y193993D01*
X242250Y189486D01*
Y186150D01*
X247250D01*
Y190850D01*
X243914D01*
X239571Y195194D01*
Y199875D01*
X245925Y206229D01*
X246202Y206202D01*
X246798Y205804D01*
X247500Y205665D01*
X248202Y205804D01*
X248798Y206202D01*
X249196Y206798D01*
X249335Y207500D01*
X249196Y208202D01*
X248798Y208798D01*
X248202Y209196D01*
X247500Y209335D01*
D02*
G37*
G36*
X299500Y219335D02*
X298798Y219196D01*
X298202Y218798D01*
X297804Y218202D01*
X297665Y217500D01*
X297804Y216798D01*
X298202Y216202D01*
X298798Y215804D01*
X299500Y215665D01*
X299768Y215718D01*
X303429Y212057D01*
Y210568D01*
X302325D01*
Y205432D01*
X306675D01*
Y210568D01*
X305571D01*
Y212500D01*
X305571Y212500D01*
X305489Y212910D01*
X305257Y213257D01*
X301282Y217232D01*
X301335Y217500D01*
X301196Y218202D01*
X300798Y218798D01*
X300202Y219196D01*
X299500Y219335D01*
D02*
G37*
G36*
X280057Y235738D02*
X275707D01*
Y227845D01*
X276982D01*
X277189Y227345D01*
X276431Y226587D01*
Y224413D01*
X277519Y223325D01*
X280481D01*
X281076Y223920D01*
X283770D01*
X283937Y223792D01*
X284691Y223480D01*
X285500Y223373D01*
X286309Y223480D01*
X286333Y223490D01*
X288161Y221661D01*
X288225Y221619D01*
X288519Y221325D01*
X288665D01*
X289005Y221098D01*
X290000Y220900D01*
X290995Y221098D01*
X291335Y221325D01*
X291481D01*
X291775Y221619D01*
X291839Y221661D01*
X291881Y221725D01*
X292568Y222413D01*
Y223342D01*
X292600Y223500D01*
X292568Y223658D01*
Y224587D01*
X291881Y225275D01*
X291839Y225339D01*
X288839Y228339D01*
X287995Y228902D01*
X287275Y229045D01*
X287063Y229208D01*
X286309Y229520D01*
X285500Y229627D01*
X284691Y229520D01*
X283937Y229208D01*
X283289Y228711D01*
X282792Y228063D01*
X282480Y227309D01*
X282450Y227080D01*
X281076D01*
X280485Y227671D01*
X280481Y227675D01*
X280057Y227858D01*
X280057Y228175D01*
Y230721D01*
X288765D01*
X293429Y226057D01*
Y219943D01*
X290057Y216571D01*
X279500D01*
X279090Y216489D01*
X278743Y216257D01*
X275743Y213257D01*
X275511Y212910D01*
X275429Y212500D01*
Y207949D01*
X275202Y207798D01*
X274804Y207202D01*
X274665Y206500D01*
X274804Y205798D01*
X275202Y205202D01*
X275798Y204804D01*
X276500Y204665D01*
X277202Y204804D01*
X277798Y205202D01*
X278196Y205798D01*
X278335Y206500D01*
X278196Y207202D01*
X277798Y207798D01*
X277571Y207949D01*
Y212057D01*
X279943Y214429D01*
X290500D01*
X290910Y214511D01*
X291257Y214743D01*
X295257Y218743D01*
X295257Y218743D01*
X295489Y219090D01*
X295571Y219500D01*
Y226500D01*
X295489Y226910D01*
X295257Y227257D01*
X289966Y232548D01*
X289618Y232781D01*
X289209Y232862D01*
X280057D01*
Y235738D01*
D02*
G37*
G36*
X321960Y204875D02*
X321258Y204735D01*
X320663Y204337D01*
X320511Y204110D01*
X318151D01*
Y204819D01*
X310251D01*
Y201259D01*
X318151D01*
Y201969D01*
X320511D01*
X320663Y201742D01*
X321258Y201344D01*
X321960Y201204D01*
X322663Y201344D01*
X323258Y201742D01*
X323656Y202337D01*
X323796Y203040D01*
X323656Y203742D01*
X323258Y204337D01*
X322663Y204735D01*
X321960Y204875D01*
D02*
G37*
G36*
X200500Y215335D02*
X199798Y215196D01*
X199202Y214798D01*
X198804Y214202D01*
X198665Y213500D01*
X198804Y212798D01*
X199202Y212202D01*
X199798Y211804D01*
X200500Y211665D01*
X200768Y211718D01*
X208743Y203743D01*
X209090Y203511D01*
X209500Y203429D01*
X210727D01*
X210870Y203216D01*
X211459Y202822D01*
X212154Y202684D01*
X218847D01*
X219541Y202822D01*
X220130Y203216D01*
X220524Y203805D01*
X220662Y204500D01*
X220524Y205195D01*
X220130Y205784D01*
X219541Y206178D01*
X218847Y206316D01*
X212154D01*
X211459Y206178D01*
X210870Y205784D01*
X210727Y205571D01*
X209943D01*
X202282Y213232D01*
X202335Y213500D01*
X202196Y214202D01*
X201798Y214798D01*
X201202Y215196D01*
X200500Y215335D01*
D02*
G37*
G36*
X296500Y212335D02*
X295798Y212195D01*
X295202Y211798D01*
X294804Y211202D01*
X294665Y210500D01*
X294804Y209798D01*
X295202Y209202D01*
X295429Y209050D01*
Y204450D01*
X294150D01*
Y199450D01*
X298850D01*
Y204450D01*
X297571D01*
Y209050D01*
X297798Y209202D01*
X298196Y209798D01*
X298335Y210500D01*
X298196Y211202D01*
X297798Y211798D01*
X297202Y212195D01*
X296500Y212335D01*
D02*
G37*
G36*
X288500D02*
X287798Y212195D01*
X287202Y211798D01*
X286804Y211202D01*
X286665Y210500D01*
X286804Y209798D01*
X287202Y209202D01*
X287429Y209050D01*
Y204450D01*
X286150D01*
Y199450D01*
X290850D01*
Y204450D01*
X289571D01*
Y209050D01*
X289798Y209202D01*
X290195Y209798D01*
X290335Y210500D01*
X290195Y211202D01*
X289798Y211798D01*
X289202Y212195D01*
X288500Y212335D01*
D02*
G37*
G36*
X280500Y212335D02*
X279798Y212196D01*
X279202Y211798D01*
X278804Y211202D01*
X278665Y210500D01*
X278804Y209798D01*
X279202Y209202D01*
X279429Y209050D01*
Y204450D01*
X278150D01*
Y199450D01*
X282850D01*
Y204450D01*
X281571D01*
Y209050D01*
X281798Y209202D01*
X282196Y209798D01*
X282335Y210500D01*
X282196Y211202D01*
X281798Y211798D01*
X281202Y212196D01*
X280500Y212335D01*
D02*
G37*
G36*
X272500Y212335D02*
X271798Y212196D01*
X271202Y211798D01*
X270804Y211202D01*
X270665Y210500D01*
X270804Y209798D01*
X271202Y209202D01*
X271429Y209050D01*
Y204450D01*
X270150D01*
Y199450D01*
X274850D01*
Y204450D01*
X273571D01*
Y209050D01*
X273798Y209202D01*
X274196Y209798D01*
X274335Y210500D01*
X274196Y211202D01*
X273798Y211798D01*
X273202Y212196D01*
X272500Y212335D01*
D02*
G37*
G36*
X200309Y202144D02*
X199607Y202005D01*
X199011Y201607D01*
X198614Y201011D01*
X198474Y200309D01*
X198614Y199607D01*
X199011Y199011D01*
X199607Y198614D01*
X200309Y198474D01*
X201011Y198614D01*
X201607Y199011D01*
X202005Y199607D01*
X202144Y200309D01*
X202005Y201011D01*
X201607Y201607D01*
X201011Y202005D01*
X200309Y202144D01*
D02*
G37*
G36*
X205500Y201335D02*
X204798Y201196D01*
X204202Y200798D01*
X203804Y200202D01*
X203665Y199500D01*
X203804Y198798D01*
X204202Y198202D01*
X204798Y197804D01*
X205500Y197665D01*
X206202Y197804D01*
X206798Y198202D01*
X206949Y198429D01*
X210727D01*
X210869Y198216D01*
X211459Y197822D01*
X212154Y197684D01*
X218846D01*
X219541Y197822D01*
X220130Y198216D01*
X220524Y198805D01*
X220662Y199500D01*
X220524Y200195D01*
X220130Y200784D01*
X219541Y201178D01*
X218846Y201316D01*
X212154D01*
X211459Y201178D01*
X210869Y200784D01*
X210727Y200571D01*
X206949D01*
X206798Y200798D01*
X206202Y201196D01*
X205500Y201335D01*
D02*
G37*
G36*
X305587Y201569D02*
X303413D01*
X302325Y200481D01*
Y197519D01*
X303413Y196432D01*
X305587D01*
X306205Y197049D01*
X310251D01*
Y196339D01*
X318151D01*
Y199899D01*
X310251D01*
Y199190D01*
X306675D01*
Y200481D01*
X305587Y201569D01*
D02*
G37*
G36*
X253500Y212335D02*
X252798Y212196D01*
X252202Y211798D01*
X251804Y211202D01*
X251665Y210500D01*
X251804Y209798D01*
X252202Y209202D01*
X252133Y208647D01*
X243993Y200507D01*
X243761Y200160D01*
X243679Y199750D01*
Y198850D01*
X242250D01*
Y194150D01*
X247250D01*
Y198850D01*
X245925D01*
X245864Y199350D01*
X254257Y207743D01*
X254489Y208090D01*
X254571Y208500D01*
Y209050D01*
X254798Y209202D01*
X255196Y209798D01*
X255335Y210500D01*
X255196Y211202D01*
X254798Y211798D01*
X254202Y212196D01*
X253500Y212335D01*
D02*
G37*
G36*
X218846Y196316D02*
X212154D01*
X211459Y196178D01*
X210869Y195784D01*
X210476Y195195D01*
X210338Y194500D01*
X210388Y194248D01*
X199743Y183604D01*
X199511Y183256D01*
X199429Y182846D01*
Y172950D01*
X199202Y172798D01*
X198804Y172202D01*
X198665Y171500D01*
X198804Y170798D01*
X199202Y170202D01*
X199798Y169804D01*
X200500Y169665D01*
X201202Y169804D01*
X201798Y170202D01*
X202196Y170798D01*
X202335Y171500D01*
X202196Y172202D01*
X201798Y172798D01*
X201571Y172950D01*
Y175248D01*
X202071Y175399D01*
X202202Y175202D01*
X202798Y174804D01*
X203500Y174665D01*
X204202Y174804D01*
X204798Y175202D01*
X205196Y175798D01*
X205335Y176500D01*
X205196Y177202D01*
X204798Y177798D01*
X204779Y177989D01*
X210220Y183429D01*
X210727D01*
X210869Y183216D01*
X211459Y182822D01*
X212154Y182684D01*
X218846D01*
X219541Y182822D01*
X220130Y183216D01*
X220524Y183805D01*
X220662Y184500D01*
X220524Y185195D01*
X220130Y185784D01*
X219541Y186178D01*
X218846Y186316D01*
X212154D01*
X211459Y186178D01*
X210869Y185784D01*
X210727Y185571D01*
X209776D01*
X209366Y185489D01*
X209019Y185257D01*
X209019Y185257D01*
X202743Y178981D01*
X202511Y178634D01*
X202429Y178224D01*
Y177950D01*
X202202Y177798D01*
X202071Y177601D01*
X201571Y177752D01*
Y182403D01*
X211902Y192734D01*
X212154Y192684D01*
X218846D01*
X219541Y192822D01*
X220130Y193216D01*
X220524Y193805D01*
X220662Y194500D01*
X220524Y195195D01*
X220130Y195784D01*
X219541Y196178D01*
X218846Y196316D01*
D02*
G37*
G36*
X49974Y218974D02*
X42774D01*
Y211774D01*
X48549D01*
X53662Y206662D01*
X54505Y206098D01*
X55500Y205900D01*
X76745D01*
X88946Y193699D01*
X89789Y193136D01*
X89854Y193123D01*
Y192576D01*
X93022D01*
Y193529D01*
X93276Y193699D01*
X93840Y194543D01*
X94038Y195538D01*
X93840Y196533D01*
X93276Y197376D01*
X93022Y197546D01*
Y198500D01*
X91499D01*
X79661Y210338D01*
X78817Y210902D01*
X77822Y211100D01*
X56577D01*
X50464Y217212D01*
X49974Y217540D01*
Y218974D01*
D02*
G37*
G36*
X46374Y211131D02*
X45434Y211007D01*
X44559Y210645D01*
X43806Y210068D01*
X43229Y209315D01*
X42867Y208440D01*
X42743Y207500D01*
X42867Y206560D01*
X43229Y205684D01*
X43806Y204932D01*
X44559Y204355D01*
X45257Y204066D01*
X48662Y200662D01*
X49505Y200098D01*
X50500Y199900D01*
X68968D01*
X75169Y193699D01*
X76012Y193136D01*
X76077Y193123D01*
Y192576D01*
X79245D01*
Y194297D01*
X79409Y194543D01*
X79607Y195538D01*
X79409Y196533D01*
X79245Y196779D01*
Y198500D01*
X77722D01*
X71883Y204338D01*
X71040Y204902D01*
X70045Y205100D01*
X51577D01*
X49909Y206768D01*
X50005Y207500D01*
X49881Y208440D01*
X49519Y209315D01*
X48942Y210068D01*
X48189Y210645D01*
X47314Y211007D01*
X46374Y211131D01*
D02*
G37*
G36*
X38500D02*
X37560Y211007D01*
X36685Y210645D01*
X35932Y210068D01*
X35355Y209315D01*
X34993Y208440D01*
X34869Y207500D01*
X34993Y206560D01*
X35355Y205684D01*
X35932Y204932D01*
X36283Y204664D01*
Y202117D01*
X36481Y201122D01*
X37044Y200279D01*
X43624Y193699D01*
X44467Y193136D01*
X45462Y192938D01*
X62299D01*
Y192576D01*
X65468D01*
Y195376D01*
X65500Y195538D01*
X65468Y195700D01*
Y198500D01*
X62299D01*
Y198138D01*
X46539D01*
X41483Y203194D01*
Y205473D01*
X41645Y205684D01*
X42007Y206560D01*
X42131Y207500D01*
X42007Y208440D01*
X41645Y209315D01*
X41067Y210068D01*
X40315Y210645D01*
X39440Y211007D01*
X38500Y211131D01*
D02*
G37*
G36*
X234500Y193335D02*
X233798Y193196D01*
X233202Y192798D01*
X233050Y192571D01*
X220847D01*
X220847Y192571D01*
X220437Y192489D01*
X220089Y192257D01*
X219098Y191266D01*
X218847Y191316D01*
X212154D01*
X211459Y191178D01*
X210870Y190784D01*
X210476Y190195D01*
X210338Y189500D01*
X210476Y188805D01*
X210870Y188216D01*
X211459Y187822D01*
X212154Y187684D01*
X218847D01*
X219541Y187822D01*
X220130Y188216D01*
X220524Y188805D01*
X220662Y189500D01*
X220612Y189752D01*
X221290Y190429D01*
X233050D01*
X233202Y190202D01*
X233798Y189804D01*
X234500Y189665D01*
X235202Y189804D01*
X235798Y190202D01*
X236196Y190798D01*
X236335Y191500D01*
X236196Y192202D01*
X235798Y192798D01*
X235202Y193196D01*
X234500Y193335D01*
D02*
G37*
G36*
X237500Y186335D02*
X236798Y186196D01*
X236202Y185798D01*
X236051Y185571D01*
X223847D01*
X223847Y185571D01*
X223437Y185489D01*
X223089Y185257D01*
X219098Y181266D01*
X218847Y181316D01*
X212154D01*
X211459Y181178D01*
X210870Y180784D01*
X210476Y180195D01*
X210338Y179500D01*
X210476Y178805D01*
X210870Y178216D01*
X211459Y177822D01*
X212154Y177684D01*
X218847D01*
X219541Y177822D01*
X220130Y178216D01*
X220524Y178805D01*
X220662Y179500D01*
X220612Y179752D01*
X224290Y183429D01*
X228248D01*
X228399Y182929D01*
X228202Y182798D01*
X227804Y182202D01*
X227665Y181500D01*
X227804Y180798D01*
X228202Y180202D01*
X228798Y179804D01*
X229500Y179665D01*
X230202Y179804D01*
X230798Y180202D01*
X230949Y180429D01*
X242250D01*
Y178592D01*
X247250D01*
Y183292D01*
X242250D01*
Y182571D01*
X238752D01*
X238601Y183071D01*
X238798Y183202D01*
X239196Y183798D01*
X239335Y184500D01*
X239196Y185202D01*
X238798Y185798D01*
X238202Y186196D01*
X237500Y186335D01*
D02*
G37*
G36*
X38500Y191636D02*
X37560Y191513D01*
X36685Y191150D01*
X35932Y190573D01*
X35355Y189821D01*
X34993Y188945D01*
X34869Y188005D01*
X34993Y187065D01*
X35355Y186190D01*
X35932Y185438D01*
X36685Y184861D01*
X37560Y184498D01*
X38500Y184374D01*
X39440Y184498D01*
X40315Y184861D01*
X41067Y185438D01*
X41645Y186190D01*
X42007Y187065D01*
X42131Y188005D01*
X42007Y188945D01*
X41645Y189821D01*
X41067Y190573D01*
X40315Y191150D01*
X39440Y191513D01*
X38500Y191636D01*
D02*
G37*
G36*
X89282Y189500D02*
X86114D01*
Y183576D01*
X89282D01*
Y184034D01*
X89682Y184386D01*
X90106Y184346D01*
X90202Y184202D01*
X90798Y183804D01*
X91500Y183665D01*
X92202Y183804D01*
X92798Y184202D01*
X93196Y184798D01*
X93335Y185500D01*
X93196Y186202D01*
X92798Y186798D01*
X92202Y187196D01*
X91500Y187335D01*
X90798Y187196D01*
X90202Y186798D01*
X89876Y186766D01*
X89385Y187257D01*
X89282Y187326D01*
Y189500D01*
D02*
G37*
G36*
X218846Y176316D02*
X212154D01*
X211459Y176178D01*
X210869Y175784D01*
X210727Y175571D01*
X207500D01*
X207090Y175489D01*
X206743Y175257D01*
X206743Y175257D01*
X205743Y174257D01*
X205511Y173910D01*
X205429Y173500D01*
Y172950D01*
X205202Y172798D01*
X204804Y172202D01*
X204665Y171500D01*
X204804Y170798D01*
X205202Y170202D01*
X205798Y169804D01*
X206500Y169665D01*
X207202Y169804D01*
X207798Y170202D01*
X208196Y170798D01*
X208335Y171500D01*
X208196Y172202D01*
X207798Y172798D01*
X207867Y173353D01*
X207943Y173429D01*
X210727D01*
X210869Y173216D01*
X211459Y172822D01*
X212154Y172684D01*
X218846D01*
X219541Y172822D01*
X220130Y173216D01*
X220524Y173805D01*
X220662Y174500D01*
X220524Y175195D01*
X220130Y175784D01*
X219541Y176178D01*
X218846Y176316D01*
D02*
G37*
G36*
X237500Y178335D02*
X236798Y178196D01*
X236202Y177798D01*
X236051Y177571D01*
X225846D01*
X225437Y177489D01*
X225089Y177257D01*
X225089Y177257D01*
X219098Y171266D01*
X218846Y171316D01*
X212154D01*
X211459Y171178D01*
X210869Y170784D01*
X210476Y170195D01*
X210338Y169500D01*
X210476Y168805D01*
X210869Y168216D01*
X211459Y167822D01*
X212154Y167684D01*
X218846D01*
X219541Y167822D01*
X220130Y168216D01*
X220524Y168805D01*
X220662Y169500D01*
X220612Y169752D01*
X226290Y175429D01*
X228248D01*
X228399Y174929D01*
X228202Y174798D01*
X227804Y174202D01*
X227665Y173500D01*
X227804Y172798D01*
X228202Y172202D01*
X228798Y171804D01*
X229500Y171665D01*
X230202Y171804D01*
X230798Y172202D01*
X230949Y172429D01*
X242250D01*
Y170904D01*
X247250D01*
Y175604D01*
X242250D01*
Y174571D01*
X238752D01*
X238601Y175071D01*
X238798Y175202D01*
X239196Y175798D01*
X239335Y176500D01*
X239196Y177202D01*
X238798Y177798D01*
X238202Y178196D01*
X237500Y178335D01*
D02*
G37*
G36*
X247250Y168015D02*
X242250D01*
Y167021D01*
X241974Y166885D01*
X241750Y166830D01*
X241202Y167196D01*
X240500Y167335D01*
X239798Y167196D01*
X239202Y166798D01*
X238804Y166202D01*
X238665Y165500D01*
X238804Y164798D01*
X239202Y164202D01*
X239798Y163804D01*
X240500Y163665D01*
X241202Y163804D01*
X241750Y164170D01*
X241974Y164116D01*
X242250Y163979D01*
Y163315D01*
X247250D01*
Y168015D01*
D02*
G37*
G36*
X49974Y191605D02*
X42774D01*
Y184405D01*
X48585D01*
X53662Y179328D01*
X54505Y178765D01*
X55500Y178567D01*
X76745D01*
X88946Y166366D01*
X89789Y165802D01*
X89854Y165790D01*
Y165242D01*
X93022D01*
Y166196D01*
X93276Y166366D01*
X93840Y167209D01*
X94038Y168204D01*
X93840Y169199D01*
X93276Y170043D01*
X93022Y170213D01*
Y171167D01*
X91499D01*
X79661Y183005D01*
X78817Y183569D01*
X78765Y183579D01*
X78659Y184110D01*
X78798Y184202D01*
X79196Y184798D01*
X79335Y185500D01*
X79196Y186202D01*
X78798Y186798D01*
X78202Y187196D01*
X77500Y187335D01*
X76798Y187196D01*
X76202Y186798D01*
X75876Y186766D01*
X75505Y187137D01*
Y189500D01*
X72336D01*
Y183767D01*
X65046D01*
X64914Y183998D01*
X64841Y184267D01*
X65196Y184798D01*
X65335Y185500D01*
X65196Y186202D01*
X64798Y186798D01*
X64202Y187196D01*
X63500Y187335D01*
X62798Y187196D01*
X62202Y186798D01*
X62147Y186792D01*
X61728Y187142D01*
Y189500D01*
X58559D01*
Y183767D01*
X56577D01*
X50464Y189879D01*
X49974Y190207D01*
Y191605D01*
D02*
G37*
G36*
X46374Y183762D02*
X45434Y183639D01*
X44559Y183276D01*
X43806Y182699D01*
X43229Y181947D01*
X42867Y181071D01*
X42743Y180131D01*
X42867Y179191D01*
X43229Y178316D01*
X43806Y177564D01*
X44559Y176987D01*
X45318Y176672D01*
X48662Y173328D01*
X49505Y172765D01*
X50500Y172567D01*
X68968D01*
X75169Y166366D01*
X76012Y165802D01*
X76077Y165790D01*
Y165242D01*
X79245D01*
Y166964D01*
X79409Y167209D01*
X79607Y168204D01*
X79409Y169199D01*
X79245Y169445D01*
Y171167D01*
X77722D01*
X71883Y177005D01*
X71040Y177569D01*
X70045Y177767D01*
X51577D01*
X49913Y179431D01*
X50005Y180131D01*
X49881Y181071D01*
X49519Y181947D01*
X48942Y182699D01*
X48189Y183276D01*
X47314Y183639D01*
X46374Y183762D01*
D02*
G37*
G36*
X38500D02*
X37560Y183639D01*
X36685Y183276D01*
X35932Y182699D01*
X35355Y181947D01*
X34993Y181071D01*
X34869Y180131D01*
X34993Y179191D01*
X35355Y178316D01*
X35932Y177564D01*
X36283Y177295D01*
Y174784D01*
X36481Y173789D01*
X37044Y172946D01*
X43624Y166366D01*
X44467Y165802D01*
X45462Y165604D01*
X62299D01*
Y165242D01*
X65468D01*
Y171167D01*
X62299D01*
Y170804D01*
X46539D01*
X41483Y175861D01*
Y178105D01*
X41645Y178316D01*
X42007Y179191D01*
X42131Y180131D01*
X42007Y181071D01*
X41645Y181947D01*
X41067Y182699D01*
X40315Y183276D01*
X39440Y183639D01*
X38500Y183762D01*
D02*
G37*
G36*
X235375Y168210D02*
X234673Y168071D01*
X234077Y167673D01*
X233679Y167077D01*
X233540Y166375D01*
X233679Y165673D01*
X234077Y165077D01*
X234673Y164679D01*
X235375Y164540D01*
X236077Y164679D01*
X236673Y165077D01*
X237071Y165673D01*
X237210Y166375D01*
X237071Y167077D01*
X236673Y167673D01*
X236077Y168071D01*
X235375Y168210D01*
D02*
G37*
G36*
X128500Y167335D02*
X127798Y167196D01*
X127202Y166798D01*
X126804Y166202D01*
X126665Y165500D01*
X126804Y164798D01*
X127202Y164202D01*
X127798Y163804D01*
X128500Y163665D01*
X129202Y163804D01*
X129798Y164202D01*
X130196Y164798D01*
X130335Y165500D01*
X130196Y166202D01*
X129798Y166798D01*
X129202Y167196D01*
X128500Y167335D01*
D02*
G37*
G36*
X188500Y166335D02*
X187798Y166196D01*
X187202Y165798D01*
X186804Y165202D01*
X186665Y164500D01*
X186804Y163798D01*
X187202Y163202D01*
X187798Y162804D01*
X188500Y162665D01*
X189202Y162804D01*
X189798Y163202D01*
X190196Y163798D01*
X190335Y164500D01*
X190196Y165202D01*
X189798Y165798D01*
X189202Y166196D01*
X188500Y166335D01*
D02*
G37*
G36*
X329500Y184335D02*
X328798Y184196D01*
X328202Y183798D01*
X327804Y183202D01*
X327665Y182500D01*
X327804Y181798D01*
X328202Y181202D01*
X328429Y181051D01*
Y177494D01*
X320786Y169850D01*
X317450D01*
Y165150D01*
X322450D01*
Y168486D01*
X330206Y176242D01*
X330437Y176228D01*
X330741Y176117D01*
X330804Y175798D01*
X331202Y175202D01*
X331429Y175050D01*
Y172394D01*
X321886Y162850D01*
X317450D01*
Y158150D01*
X322450D01*
Y160386D01*
X333257Y171193D01*
X333489Y171540D01*
X333571Y171950D01*
Y175050D01*
X333798Y175202D01*
X334196Y175798D01*
X334335Y176500D01*
X334196Y177202D01*
X333798Y177798D01*
X333202Y178196D01*
X332500Y178335D01*
X331798Y178196D01*
X331202Y177798D01*
X331071Y177601D01*
X330571Y177752D01*
Y181051D01*
X330798Y181202D01*
X331196Y181798D01*
X331335Y182500D01*
X331196Y183202D01*
X330798Y183798D01*
X330202Y184196D01*
X329500Y184335D01*
D02*
G37*
G36*
X38500Y164268D02*
X37560Y164144D01*
X36685Y163781D01*
X35932Y163204D01*
X35355Y162452D01*
X34993Y161576D01*
X34869Y160636D01*
X34993Y159697D01*
X35355Y158821D01*
X35932Y158069D01*
X36685Y157492D01*
X37560Y157129D01*
X38500Y157005D01*
X39440Y157129D01*
X40315Y157492D01*
X41067Y158069D01*
X41645Y158821D01*
X42007Y159697D01*
X42131Y160636D01*
X42007Y161576D01*
X41645Y162452D01*
X41067Y163204D01*
X40315Y163781D01*
X39440Y164144D01*
X38500Y164268D01*
D02*
G37*
G36*
X89282Y162167D02*
X86114D01*
Y156242D01*
X89282D01*
Y157429D01*
X90051D01*
X90202Y157202D01*
X90798Y156804D01*
X91500Y156665D01*
X92202Y156804D01*
X92798Y157202D01*
X93196Y157798D01*
X93335Y158500D01*
X93196Y159202D01*
X92798Y159798D01*
X92202Y160196D01*
X91500Y160335D01*
X90798Y160196D01*
X90202Y159798D01*
X90051Y159571D01*
X89282D01*
Y162167D01*
D02*
G37*
G36*
X124446Y156447D02*
X116554D01*
Y148554D01*
X124446D01*
Y156447D01*
D02*
G37*
G36*
X130500Y156481D02*
X129470Y156345D01*
X128510Y155947D01*
X127685Y155315D01*
X127053Y154490D01*
X126655Y153530D01*
X126520Y152500D01*
X126655Y151470D01*
X127053Y150510D01*
X127685Y149685D01*
X128510Y149053D01*
X129470Y148655D01*
X130500Y148520D01*
X131530Y148655D01*
X132490Y149053D01*
X133315Y149685D01*
X133947Y150510D01*
X134345Y151470D01*
X134481Y152500D01*
X134345Y153530D01*
X133947Y154490D01*
X133315Y155315D01*
X132490Y155947D01*
X131530Y156345D01*
X130500Y156481D01*
D02*
G37*
G36*
X209500Y145080D02*
X201500D01*
X200895Y144960D01*
X200382Y144617D01*
X196822Y141057D01*
X196479Y140544D01*
X196359Y139939D01*
X196479Y139335D01*
X196822Y138822D01*
X197335Y138479D01*
X197940Y138359D01*
X198544Y138479D01*
X199057Y138822D01*
X202155Y141920D01*
X209500D01*
X210105Y142040D01*
X210617Y142383D01*
X210960Y142895D01*
X211080Y143500D01*
X210960Y144105D01*
X210617Y144617D01*
X210105Y144960D01*
X209500Y145080D01*
D02*
G37*
G36*
X49974Y164236D02*
X42774D01*
Y157036D01*
X48620D01*
X53662Y151995D01*
X54505Y151431D01*
X55500Y151233D01*
X76745D01*
X88946Y139033D01*
X89789Y138469D01*
X89854Y138456D01*
Y137909D01*
X93022D01*
Y138863D01*
X93276Y139033D01*
X93840Y139876D01*
X94038Y140871D01*
X93840Y141866D01*
X93276Y142710D01*
X93022Y142879D01*
Y143833D01*
X91499D01*
X79661Y155672D01*
X78817Y156235D01*
X78328Y156333D01*
X78268Y156557D01*
X78275Y156853D01*
X78798Y157202D01*
X79196Y157798D01*
X79335Y158500D01*
X79196Y159202D01*
X78798Y159798D01*
X78202Y160196D01*
X77500Y160335D01*
X76798Y160196D01*
X76202Y159798D01*
X76051Y159571D01*
X75505D01*
Y162167D01*
X72336D01*
Y156433D01*
X64547D01*
X64395Y156933D01*
X64798Y157202D01*
X65196Y157798D01*
X65335Y158500D01*
X65196Y159202D01*
X64798Y159798D01*
X64202Y160196D01*
X63500Y160335D01*
X62798Y160196D01*
X62228Y159815D01*
X62086Y159844D01*
X61728Y159987D01*
Y162167D01*
X58559D01*
Y156433D01*
X56577D01*
X50464Y162546D01*
X49974Y162873D01*
Y164236D01*
D02*
G37*
G36*
X38500Y156394D02*
X37560Y156270D01*
X36685Y155907D01*
X35932Y155330D01*
X35355Y154578D01*
X34993Y153702D01*
X34869Y152762D01*
X34993Y151823D01*
X35355Y150947D01*
X35932Y150195D01*
X36283Y149926D01*
Y147451D01*
X36481Y146456D01*
X37044Y145612D01*
X43624Y139033D01*
X44467Y138469D01*
X45462Y138271D01*
X62299D01*
Y137909D01*
X65468D01*
Y143833D01*
X62299D01*
Y143471D01*
X46539D01*
X41483Y148528D01*
Y150736D01*
X41645Y150947D01*
X42007Y151823D01*
X42131Y152762D01*
X42007Y153702D01*
X41645Y154578D01*
X41067Y155330D01*
X40315Y155907D01*
X39440Y156270D01*
X38500Y156394D01*
D02*
G37*
G36*
X46374D02*
X45434Y156270D01*
X44559Y155907D01*
X43806Y155330D01*
X43229Y154578D01*
X42867Y153702D01*
X42743Y152762D01*
X42867Y151823D01*
X43229Y150947D01*
X43806Y150195D01*
X44559Y149618D01*
X45378Y149278D01*
X48662Y145995D01*
X49505Y145431D01*
X50500Y145233D01*
X68968D01*
X75169Y139033D01*
X76012Y138469D01*
X76076Y138456D01*
Y137909D01*
X79245D01*
Y139630D01*
X79409Y139876D01*
X79607Y140871D01*
X79409Y141866D01*
X79245Y142112D01*
Y143833D01*
X77722D01*
X71883Y149672D01*
X71040Y150235D01*
X70045Y150433D01*
X51577D01*
X49917Y152093D01*
X50005Y152762D01*
X49881Y153702D01*
X49519Y154578D01*
X48942Y155330D01*
X48189Y155907D01*
X47314Y156270D01*
X46374Y156394D01*
D02*
G37*
G36*
X209000Y138335D02*
X208298Y138196D01*
X207702Y137798D01*
X207304Y137202D01*
X207165Y136500D01*
X207304Y135798D01*
X207702Y135202D01*
X208298Y134804D01*
X209000Y134665D01*
X209702Y134804D01*
X210298Y135202D01*
X210696Y135798D01*
X210835Y136500D01*
X210696Y137202D01*
X210298Y137798D01*
X209702Y138196D01*
X209000Y138335D01*
D02*
G37*
G36*
X151441Y143940D02*
X148479D01*
X147391Y142852D01*
Y140677D01*
X148479Y139590D01*
X148889D01*
Y131089D01*
X147500D01*
X145942Y132647D01*
X145595Y132879D01*
X145185Y132961D01*
X144052D01*
X143801Y133337D01*
Y133990D01*
X143148D01*
X142696Y134292D01*
X141701Y134490D01*
X141701Y134490D01*
X136659D01*
X135056Y136094D01*
X134212Y136657D01*
X133217Y136855D01*
X131559D01*
Y136855D01*
X129532D01*
X129454Y136907D01*
X128459Y137105D01*
X127464Y136907D01*
X127386Y136855D01*
X125359D01*
Y136855D01*
X122255D01*
X121260Y136657D01*
X120417Y136094D01*
X117662Y133338D01*
X117098Y132495D01*
X116900Y131500D01*
Y113577D01*
X88423Y85100D01*
X64095D01*
Y91500D01*
X63921Y91921D01*
X60921Y94921D01*
X60500Y95095D01*
X52500D01*
X52079Y94921D01*
X47261Y90103D01*
X47210Y89979D01*
X47121Y89880D01*
X45111Y84187D01*
X45097Y84172D01*
Y84146D01*
X44939Y83698D01*
X44944Y83595D01*
X44905Y83500D01*
X44956Y83377D01*
X44963Y83243D01*
X45040Y83174D01*
X45079Y83079D01*
X45097Y83061D01*
Y82635D01*
X46635Y81097D01*
X47061D01*
X49079Y79079D01*
X49500Y78905D01*
X60500D01*
X60921Y79079D01*
X61868Y80026D01*
X62500Y79900D01*
X88423D01*
X115636Y52687D01*
X115480Y52309D01*
X115373Y51500D01*
X115480Y50691D01*
X115792Y49937D01*
X115900Y49796D01*
Y34500D01*
X116098Y33505D01*
X116662Y32662D01*
X119662Y29662D01*
X120505Y29098D01*
X121500Y28900D01*
X132500D01*
X132658Y28931D01*
X133554D01*
X143743Y18743D01*
X144090Y18511D01*
X144500Y18429D01*
X165500D01*
X165910Y18511D01*
X166257Y18743D01*
X173257Y25743D01*
X173257Y25743D01*
X173489Y26090D01*
X173571Y26500D01*
Y30596D01*
X173932Y30931D01*
X174071Y30931D01*
X175429D01*
Y28949D01*
X175202Y28798D01*
X174804Y28202D01*
X174665Y27500D01*
X174804Y26798D01*
X175202Y26202D01*
X175798Y25804D01*
X176500Y25665D01*
X177202Y25804D01*
X177798Y26202D01*
X178196Y26798D01*
X178335Y27500D01*
X178196Y28202D01*
X177798Y28798D01*
X177571Y28949D01*
Y30931D01*
X179069D01*
Y36068D01*
X174597D01*
X174390Y36568D01*
X175445Y37624D01*
X179069D01*
Y42761D01*
X173932D01*
Y39138D01*
X171743Y36950D01*
X171511Y36603D01*
X171429Y36193D01*
Y26943D01*
X165057Y20571D01*
X144943D01*
X134920Y30594D01*
X135100Y31500D01*
X134902Y32495D01*
X134478Y33130D01*
Y34069D01*
X133966D01*
Y38498D01*
X134478D01*
Y41400D01*
X138997Y45920D01*
X148000D01*
X148605Y46040D01*
X149118Y46382D01*
X155773Y53038D01*
X158084D01*
Y58962D01*
X154916D01*
Y56651D01*
X147345Y49080D01*
X139869D01*
X139662Y49580D01*
X143119Y53038D01*
X144084D01*
Y58962D01*
X140916D01*
Y55304D01*
X137692Y52080D01*
X134500D01*
X133895Y51960D01*
X133382Y51617D01*
X127902Y46137D01*
X127559Y45624D01*
X127439Y45020D01*
Y43635D01*
X126761D01*
Y43636D01*
X126364D01*
Y45635D01*
X129618Y48889D01*
X129960Y49401D01*
X130080Y50006D01*
Y53038D01*
X130084D01*
Y58962D01*
X126916D01*
Y53038D01*
X126920D01*
Y50661D01*
X123666Y47407D01*
X123323Y46894D01*
X123203Y46289D01*
Y43636D01*
X122805D01*
Y38499D01*
X123317D01*
Y34100D01*
X122577D01*
X121100Y35577D01*
Y49796D01*
X121208Y49937D01*
X121520Y50691D01*
X121627Y51500D01*
X121520Y52309D01*
X121208Y53063D01*
X121100Y53204D01*
Y53500D01*
X120902Y54495D01*
X120338Y55339D01*
X93177Y82500D01*
X121338Y110662D01*
X121902Y111505D01*
X122100Y112500D01*
Y130423D01*
X123332Y131655D01*
X128209D01*
X128459Y131705D01*
X128709Y131655D01*
X132140D01*
X133483Y130313D01*
Y129790D01*
X134135D01*
X134588Y129488D01*
X135582Y129290D01*
X141701D01*
X142696Y129488D01*
X143148Y129790D01*
X143801D01*
Y130443D01*
X144052Y130819D01*
X144741D01*
X145986Y129575D01*
Y127921D01*
X150396D01*
X153429Y124887D01*
Y117799D01*
X149746Y114115D01*
X146410D01*
Y109415D01*
X151410D01*
Y112751D01*
X155257Y116598D01*
X155489Y116946D01*
X155571Y117355D01*
X155571Y117355D01*
Y125331D01*
X155571Y125331D01*
X155489Y125741D01*
X155257Y126088D01*
X151910Y129435D01*
Y131089D01*
X151030D01*
Y139590D01*
X151441D01*
X152528Y140677D01*
Y142852D01*
X151441Y143940D01*
D02*
G37*
G36*
X89282Y134833D02*
X86114D01*
Y128909D01*
X89282D01*
Y130429D01*
X90051D01*
X90202Y130202D01*
X90798Y129804D01*
X91500Y129665D01*
X92202Y129804D01*
X92798Y130202D01*
X93196Y130798D01*
X93335Y131500D01*
X93196Y132202D01*
X92798Y132798D01*
X92202Y133196D01*
X91500Y133335D01*
X90798Y133196D01*
X90202Y132798D01*
X90051Y132571D01*
X89282D01*
Y134833D01*
D02*
G37*
G36*
X49974Y136868D02*
X42774D01*
Y129668D01*
X48655D01*
X53662Y124662D01*
X54505Y124098D01*
X55500Y123900D01*
X76745D01*
X88946Y111699D01*
X89789Y111136D01*
X89854Y111123D01*
Y110576D01*
X93022D01*
Y112297D01*
X93186Y112543D01*
X93384Y113538D01*
X93186Y114533D01*
X93022Y114779D01*
Y116500D01*
X91499D01*
X79661Y128339D01*
X78817Y128902D01*
X77822Y129100D01*
X75505D01*
Y130429D01*
X76051D01*
X76202Y130202D01*
X76798Y129804D01*
X77500Y129665D01*
X78202Y129804D01*
X78798Y130202D01*
X79196Y130798D01*
X79335Y131500D01*
X79196Y132202D01*
X78798Y132798D01*
X78202Y133196D01*
X77500Y133335D01*
X76798Y133196D01*
X76202Y132798D01*
X76051Y132571D01*
X75505D01*
Y134833D01*
X72336D01*
Y129100D01*
X61728D01*
Y130013D01*
X62086Y130156D01*
X62228Y130185D01*
X62798Y129804D01*
X63500Y129665D01*
X64202Y129804D01*
X64798Y130202D01*
X65196Y130798D01*
X65335Y131500D01*
X65196Y132202D01*
X64798Y132798D01*
X64202Y133196D01*
X63500Y133335D01*
X62798Y133196D01*
X62228Y132815D01*
X62086Y132844D01*
X61728Y132987D01*
Y134833D01*
X58559D01*
Y129100D01*
X56577D01*
X50464Y135212D01*
X49974Y135540D01*
Y136868D01*
D02*
G37*
G36*
X38500Y136899D02*
X37560Y136775D01*
X36685Y136412D01*
X35932Y135835D01*
X35355Y135083D01*
X34993Y134207D01*
X34869Y133268D01*
X34993Y132328D01*
X35355Y131452D01*
X35932Y130700D01*
X36685Y130123D01*
X37560Y129760D01*
X38500Y129637D01*
X39440Y129760D01*
X40315Y130123D01*
X41067Y130700D01*
X41645Y131452D01*
X42007Y132328D01*
X42131Y133268D01*
X42007Y134207D01*
X41645Y135083D01*
X41067Y135835D01*
X40315Y136412D01*
X39440Y136775D01*
X38500Y136899D01*
D02*
G37*
G36*
X303167Y134490D02*
X299631Y130954D01*
X302954Y127631D01*
X304277Y128953D01*
X304759Y128855D01*
X304814Y128783D01*
X305202Y128202D01*
X305798Y127804D01*
X306500Y127665D01*
X307202Y127804D01*
X307798Y128202D01*
X308196Y128798D01*
X308335Y129500D01*
X308196Y130202D01*
X307798Y130798D01*
X307202Y131196D01*
X306500Y131335D01*
X306351Y131306D01*
X303167Y134490D01*
D02*
G37*
G36*
X108500Y128335D02*
X107798Y128196D01*
X107202Y127798D01*
X106804Y127202D01*
X106665Y126500D01*
X106804Y125798D01*
X107202Y125202D01*
X107798Y124804D01*
X108500Y124665D01*
X109202Y124804D01*
X109798Y125202D01*
X110196Y125798D01*
X110335Y126500D01*
X110196Y127202D01*
X109798Y127798D01*
X109202Y128196D01*
X108500Y128335D01*
D02*
G37*
G36*
X216500Y138335D02*
X215798Y138196D01*
X215202Y137798D01*
X214804Y137202D01*
X214665Y136500D01*
X214804Y135798D01*
X214920Y135625D01*
Y132155D01*
X213677Y130912D01*
X213335Y130399D01*
X213214Y129795D01*
Y125159D01*
X212695D01*
Y124640D01*
X210777D01*
Y125159D01*
X206577D01*
Y124640D01*
X204059D01*
X203455Y124520D01*
X202942Y124177D01*
X201382Y122617D01*
X201040Y122105D01*
X200920Y121500D01*
Y105195D01*
X200289Y104711D01*
X199792Y104063D01*
X199480Y103309D01*
X199373Y102500D01*
X199480Y101691D01*
X199792Y100937D01*
X200289Y100289D01*
X200937Y99792D01*
X201691Y99480D01*
X202500Y99373D01*
X203309Y99480D01*
X204063Y99792D01*
X204711Y100289D01*
X205208Y100937D01*
X205520Y101691D01*
X205627Y102500D01*
X205520Y103309D01*
X205208Y104063D01*
X204711Y104711D01*
X204080Y105195D01*
Y120845D01*
X204714Y121479D01*
X206577D01*
Y120959D01*
X210777D01*
Y121479D01*
X212695D01*
Y120959D01*
X216895D01*
Y121199D01*
X219550D01*
Y120150D01*
X224550D01*
Y124850D01*
X219550D01*
Y124360D01*
X216895D01*
Y125159D01*
X216375D01*
Y129140D01*
X217618Y130383D01*
X217960Y130895D01*
X218080Y131500D01*
Y135625D01*
X218196Y135798D01*
X218335Y136500D01*
X218196Y137202D01*
X217798Y137798D01*
X217202Y138196D01*
X216500Y138335D01*
D02*
G37*
G36*
X282850Y130050D02*
X278150D01*
Y125050D01*
X278796D01*
Y121904D01*
X278502Y121798D01*
X278046Y122122D01*
X277989Y122410D01*
X277757Y122757D01*
X277410Y122989D01*
X277000Y123071D01*
X276590Y122989D01*
X276243Y122757D01*
X276057Y122571D01*
X270500D01*
Y122581D01*
X269573Y122459D01*
X268710Y122101D01*
X267968Y121532D01*
X267399Y120790D01*
X267041Y119927D01*
X266919Y119000D01*
X266929D01*
Y115027D01*
X266921Y114982D01*
X266929D01*
Y113723D01*
Y108000D01*
X266902D01*
X267093Y106551D01*
X267652Y105201D01*
X268542Y104042D01*
X269701Y103152D01*
X271051Y102593D01*
X272500Y102402D01*
Y102429D01*
X274750D01*
X275160Y102511D01*
X275507Y102743D01*
X275739Y103090D01*
X275821Y103500D01*
X276231Y104000D01*
X278400D01*
Y102225D01*
X276867D01*
Y97525D01*
X278400D01*
Y94725D01*
X276967D01*
Y90025D01*
X281667D01*
Y94725D01*
X280541D01*
Y97525D01*
X281867D01*
Y102225D01*
X280541D01*
Y104000D01*
X285093D01*
Y102225D01*
X283767D01*
Y97525D01*
X288767D01*
Y102225D01*
X287234D01*
Y103105D01*
X287734Y103256D01*
X287743Y103243D01*
X288090Y103011D01*
X288500Y102929D01*
Y102906D01*
X289818Y103080D01*
X291047Y103589D01*
X291481Y103922D01*
X291929Y103701D01*
Y97559D01*
X292011Y97150D01*
X292243Y96802D01*
X292590Y96570D01*
X293000Y96489D01*
X293409Y96570D01*
X293757Y96802D01*
X293989Y97150D01*
X294070Y97559D01*
Y106411D01*
X294082D01*
X293953Y107062D01*
X293584Y107614D01*
X293546Y107639D01*
X293594Y108000D01*
X293571D01*
Y110500D01*
Y113000D01*
Y115500D01*
Y118000D01*
X293594D01*
X293420Y119318D01*
X292911Y120547D01*
X292102Y121602D01*
X291047Y122411D01*
X289818Y122920D01*
X288500Y123094D01*
Y123071D01*
X283500D01*
X283090Y122989D01*
X282743Y122757D01*
X282511Y122410D01*
X282429Y122000D01*
X282446Y121915D01*
X282114Y121352D01*
X281319Y121220D01*
X280938Y121543D01*
Y125050D01*
X282850D01*
Y130050D01*
D02*
G37*
G36*
X162934Y123609D02*
X157009D01*
Y120440D01*
X162934D01*
Y123609D01*
D02*
G37*
G36*
X181850Y124350D02*
X177150D01*
Y121885D01*
X174345Y119080D01*
X170375D01*
X170202Y119196D01*
X169500Y119335D01*
X168798Y119196D01*
X168202Y118798D01*
X167804Y118202D01*
X167665Y117500D01*
X167804Y116798D01*
X168202Y116202D01*
X168798Y115804D01*
X169500Y115665D01*
X170202Y115804D01*
X170375Y115920D01*
X175000D01*
X175605Y116040D01*
X176118Y116383D01*
X179385Y119650D01*
X181850D01*
Y124350D01*
D02*
G37*
G36*
X303500Y145335D02*
X302798Y145196D01*
X302202Y144798D01*
X301804Y144202D01*
X301665Y143500D01*
X301804Y142798D01*
X302202Y142202D01*
X302798Y141804D01*
X303500Y141665D01*
X304202Y141804D01*
X304798Y142202D01*
X304949Y142429D01*
X307057D01*
X315429Y134056D01*
Y132083D01*
X309679Y126332D01*
X304284D01*
Y119620D01*
X306366D01*
X306512Y119209D01*
X306529Y119120D01*
X306141Y118539D01*
X306001Y117837D01*
X306141Y117134D01*
X306539Y116539D01*
X307134Y116141D01*
X307837Y116001D01*
X308539Y116141D01*
X309134Y116539D01*
X309532Y117134D01*
X309672Y117837D01*
X309532Y118539D01*
X309144Y119120D01*
X309161Y119209D01*
X309308Y119620D01*
X311389D01*
Y125015D01*
X317257Y130882D01*
X317257Y130882D01*
X317489Y131229D01*
X317571Y131639D01*
Y134500D01*
X317489Y134910D01*
X317257Y135257D01*
X308257Y144257D01*
X307910Y144489D01*
X307500Y144571D01*
X304949D01*
X304798Y144798D01*
X304202Y145196D01*
X303500Y145335D01*
D02*
G37*
G36*
X307500Y149335D02*
X306798Y149196D01*
X306202Y148798D01*
X305804Y148202D01*
X305665Y147500D01*
X305804Y146798D01*
X306202Y146202D01*
X306798Y145804D01*
X307500Y145665D01*
X307768Y145718D01*
X324429Y129057D01*
Y126332D01*
X321947D01*
Y119620D01*
X324429D01*
Y118949D01*
X324202Y118798D01*
X323804Y118202D01*
X323665Y117500D01*
X323804Y116798D01*
X324202Y116202D01*
X324798Y115804D01*
X325500Y115665D01*
X326202Y115804D01*
X326798Y116202D01*
X327196Y116798D01*
X327335Y117500D01*
X327196Y118202D01*
X326798Y118798D01*
X326571Y118949D01*
Y119620D01*
X329053D01*
Y126332D01*
X326571D01*
Y129500D01*
X326489Y129910D01*
X326257Y130257D01*
X326257Y130257D01*
X309282Y147232D01*
X309335Y147500D01*
X309196Y148202D01*
X308798Y148798D01*
X308202Y149196D01*
X307500Y149335D01*
D02*
G37*
G36*
X46374Y129025D02*
X45434Y128901D01*
X44559Y128538D01*
X43806Y127961D01*
X43229Y127209D01*
X42867Y126333D01*
X42743Y125394D01*
X42867Y124454D01*
X43229Y123578D01*
X43806Y122826D01*
X44559Y122249D01*
X45434Y121886D01*
X45437Y121886D01*
X48662Y118662D01*
X49505Y118098D01*
X50500Y117900D01*
X68968D01*
X75169Y111699D01*
X76012Y111136D01*
X76076Y111123D01*
Y110576D01*
X79245D01*
Y112297D01*
X79409Y112543D01*
X79607Y113538D01*
X79409Y114533D01*
X79245Y114779D01*
Y116500D01*
X77722D01*
X71883Y122338D01*
X71040Y122902D01*
X70045Y123100D01*
X51577D01*
X49921Y124756D01*
X50005Y125394D01*
X49881Y126333D01*
X49519Y127209D01*
X48942Y127961D01*
X48189Y128538D01*
X47314Y128901D01*
X46374Y129025D01*
D02*
G37*
G36*
X38500D02*
X37560Y128901D01*
X36685Y128538D01*
X35932Y127961D01*
X35355Y127209D01*
X34993Y126333D01*
X34869Y125394D01*
X34993Y124454D01*
X35355Y123578D01*
X35932Y122826D01*
X36283Y122557D01*
Y120117D01*
X36481Y119122D01*
X37044Y118279D01*
X43624Y111699D01*
X44467Y111136D01*
X45462Y110938D01*
X62299D01*
Y110576D01*
X65468D01*
Y116500D01*
X62299D01*
Y116138D01*
X46539D01*
X41483Y121194D01*
Y123367D01*
X41645Y123578D01*
X42007Y124454D01*
X42131Y125394D01*
X42007Y126333D01*
X41645Y127209D01*
X41067Y127961D01*
X40315Y128538D01*
X39440Y128901D01*
X38500Y129025D01*
D02*
G37*
G36*
X151910Y123609D02*
X145986D01*
Y121955D01*
X141253Y117221D01*
X141021Y116874D01*
X140939Y116464D01*
Y114115D01*
X139510D01*
Y109415D01*
X144510D01*
Y114115D01*
X143080D01*
Y116021D01*
X147500Y120440D01*
X151910D01*
Y123609D01*
D02*
G37*
G36*
X89282Y107500D02*
X86114D01*
Y101576D01*
X89282D01*
Y101619D01*
X89723Y101854D01*
X89798Y101804D01*
X90500Y101665D01*
X91202Y101804D01*
X91798Y102202D01*
X92196Y102798D01*
X92335Y103500D01*
X92196Y104202D01*
X91798Y104798D01*
X91202Y105196D01*
X90500Y105335D01*
X89798Y105196D01*
X89723Y105146D01*
X89282Y105381D01*
Y107500D01*
D02*
G37*
G36*
X75505D02*
X72336D01*
Y101576D01*
X75505D01*
Y101916D01*
X75993Y102356D01*
X76107Y102346D01*
X76202Y102202D01*
X76798Y101804D01*
X77500Y101665D01*
X78202Y101804D01*
X78798Y102202D01*
X79196Y102798D01*
X79335Y103500D01*
X79196Y104202D01*
X78798Y104798D01*
X78202Y105196D01*
X77500Y105335D01*
X76798Y105196D01*
X76202Y104798D01*
X75876Y104766D01*
X75505Y105137D01*
Y107500D01*
D02*
G37*
G36*
X61727D02*
X58559D01*
Y101576D01*
X61727D01*
Y102429D01*
X63051D01*
X63202Y102202D01*
X63798Y101804D01*
X64500Y101665D01*
X65202Y101804D01*
X65798Y102202D01*
X66196Y102798D01*
X66335Y103500D01*
X66196Y104202D01*
X65798Y104798D01*
X65202Y105196D01*
X64500Y105335D01*
X63798Y105196D01*
X63202Y104798D01*
X63051Y104571D01*
X62071D01*
X61727Y104914D01*
Y107500D01*
D02*
G37*
G36*
X124946Y103446D02*
X117054D01*
Y95553D01*
X124946D01*
Y103446D01*
D02*
G37*
G36*
X131000Y103481D02*
X129970Y103345D01*
X129010Y102947D01*
X128185Y102315D01*
X127553Y101490D01*
X127155Y100530D01*
X127020Y99500D01*
X127155Y98470D01*
X127553Y97510D01*
X128185Y96685D01*
X129010Y96053D01*
X129970Y95655D01*
X131000Y95520D01*
X132030Y95655D01*
X132990Y96053D01*
X133815Y96685D01*
X134447Y97510D01*
X134845Y98470D01*
X134980Y99500D01*
X134845Y100530D01*
X134447Y101490D01*
X133815Y102315D01*
X132990Y102947D01*
X132030Y103345D01*
X131000Y103481D01*
D02*
G37*
G36*
X315444Y94126D02*
X307837D01*
X307427Y94045D01*
X307080Y93813D01*
X306848Y93466D01*
X306766Y93056D01*
X306848Y92646D01*
X307080Y92299D01*
X307427Y92067D01*
X307837Y91985D01*
X315444D01*
X315854Y92067D01*
X316201Y92299D01*
X316433Y92646D01*
X316515Y93056D01*
X316433Y93466D01*
X316201Y93813D01*
X315854Y94045D01*
X315444Y94126D01*
D02*
G37*
G36*
X288667Y94725D02*
X283967D01*
Y90025D01*
X288667D01*
Y91304D01*
X290900D01*
Y90341D01*
X291129D01*
X291397Y89841D01*
X291304Y89703D01*
X291164Y89000D01*
X291304Y88298D01*
X291702Y87703D01*
X292297Y87305D01*
X293000Y87165D01*
X293702Y87305D01*
X294297Y87703D01*
X294695Y88298D01*
X294835Y89000D01*
X294695Y89703D01*
X294603Y89841D01*
X294870Y90341D01*
X295100D01*
Y94541D01*
X290900D01*
Y93445D01*
X288667D01*
Y94725D01*
D02*
G37*
G36*
X145950Y88630D02*
X145345Y88510D01*
X144833Y88168D01*
X144490Y87655D01*
X144370Y87050D01*
Y81080D01*
X136100D01*
X135495Y80960D01*
X134983Y80617D01*
X131835Y77469D01*
X131383Y77167D01*
X130833Y76617D01*
X130490Y76105D01*
X130370Y75500D01*
X130490Y74895D01*
X130833Y74383D01*
X131345Y74040D01*
X131950Y73920D01*
X132555Y74040D01*
X133068Y74383D01*
X133315Y74630D01*
X133767Y74932D01*
X136088Y77253D01*
X136550Y77062D01*
Y73150D01*
X137195D01*
Y67962D01*
X137176D01*
Y62038D01*
X140344D01*
Y64956D01*
X140356Y65016D01*
Y73150D01*
X141550D01*
Y77850D01*
X142021Y77920D01*
X144370D01*
Y75500D01*
X144490Y74895D01*
X144833Y74383D01*
X145345Y74040D01*
X145950Y73920D01*
X146555Y74040D01*
X147067Y74383D01*
X147410Y74895D01*
X147530Y75500D01*
Y77920D01*
X150079D01*
X150550Y77850D01*
Y73150D01*
X151195D01*
Y67962D01*
X151176D01*
Y62038D01*
X154344D01*
Y64956D01*
X154356Y65016D01*
Y73150D01*
X155550D01*
Y76862D01*
X156012Y77053D01*
X158683Y74383D01*
X159195Y74040D01*
X159800Y73920D01*
X159950D01*
X160555Y74040D01*
X161067Y74383D01*
X161410Y74895D01*
X161530Y75500D01*
X161410Y76105D01*
X161067Y76617D01*
X160616Y76920D01*
X156918Y80617D01*
X156405Y80960D01*
X155800Y81080D01*
X147530D01*
Y87050D01*
X147410Y87655D01*
X147067Y88168D01*
X146555Y88510D01*
X145950Y88630D01*
D02*
G37*
G36*
X160240Y71075D02*
X159538Y70936D01*
X158942Y70538D01*
X158545Y69942D01*
X158405Y69240D01*
X158545Y68538D01*
X158777Y68190D01*
X158656Y67962D01*
X158656D01*
Y62038D01*
X161824D01*
Y67962D01*
X161824D01*
X161703Y68190D01*
X161936Y68538D01*
X162075Y69240D01*
X161936Y69942D01*
X161538Y70538D01*
X160942Y70936D01*
X160240Y71075D01*
D02*
G37*
G36*
X132240D02*
X131538Y70936D01*
X130942Y70538D01*
X130545Y69942D01*
X130405Y69240D01*
X130545Y68538D01*
X130777Y68190D01*
X130656Y67962D01*
X130656D01*
Y62038D01*
X133824D01*
Y67962D01*
X133824D01*
X133703Y68190D01*
X133936Y68538D01*
X134075Y69240D01*
X133936Y69942D01*
X133538Y70538D01*
X132942Y70936D01*
X132240Y71075D01*
D02*
G37*
G36*
X201500Y87571D02*
X201090Y87489D01*
X200743Y87257D01*
X200511Y86910D01*
X200429Y86500D01*
Y83384D01*
X199302Y82257D01*
X199070Y81910D01*
X198989Y81500D01*
Y74503D01*
X197743Y73257D01*
X197511Y72910D01*
X197429Y72500D01*
Y66500D01*
X197511Y66090D01*
X197743Y65743D01*
X199360Y64126D01*
X199707Y63894D01*
X200117Y63813D01*
X201909D01*
X201963Y63759D01*
Y60462D01*
X202045Y60052D01*
X202277Y59705D01*
X202624Y59473D01*
X203034Y59391D01*
X203444Y59473D01*
X203791Y59705D01*
X204023Y60052D01*
X204104Y60462D01*
Y64202D01*
X204023Y64612D01*
X203791Y64959D01*
X203110Y65640D01*
X203079Y65661D01*
X203230Y66161D01*
X205799D01*
X205799Y66161D01*
Y66161D01*
X206299Y66247D01*
X206466Y66136D01*
X207169Y65996D01*
X207871Y66136D01*
X208466Y66534D01*
X208864Y67129D01*
X209004Y67831D01*
X208864Y68534D01*
X208466Y69129D01*
X207871Y69527D01*
X207169Y69667D01*
X206466Y69527D01*
X206299Y69415D01*
X205799Y69683D01*
Y69723D01*
X200269D01*
Y67220D01*
X199768Y66973D01*
X199571Y67125D01*
Y72057D01*
X200816Y73302D01*
X200816Y73302D01*
X201048Y73650D01*
X201130Y74059D01*
X201130Y74059D01*
Y75500D01*
Y81057D01*
X202257Y82184D01*
X202257Y82184D01*
X202489Y82531D01*
X202571Y82941D01*
Y86500D01*
X202489Y86910D01*
X202257Y87257D01*
X201910Y87489D01*
X201500Y87571D01*
D02*
G37*
G36*
X146240Y70595D02*
X145538Y70455D01*
X144942Y70058D01*
X144545Y69462D01*
X144405Y68760D01*
X144545Y68058D01*
X144656Y67891D01*
Y62038D01*
X147824D01*
Y67891D01*
X147936Y68058D01*
X148075Y68760D01*
X147936Y69462D01*
X147538Y70058D01*
X146942Y70455D01*
X146240Y70595D01*
D02*
G37*
G36*
X127550Y77850D02*
X122550D01*
Y73150D01*
X123195D01*
Y67962D01*
X123176D01*
Y62038D01*
X126344D01*
Y64956D01*
X126356Y65016D01*
Y73150D01*
X127550D01*
Y77850D01*
D02*
G37*
G36*
X285040Y75071D02*
X282500D01*
X282090Y74989D01*
X281743Y74757D01*
X281511Y74410D01*
X281429Y74000D01*
X281511Y73590D01*
X281743Y73243D01*
X282090Y73011D01*
X282500Y72929D01*
X284597D01*
X286492Y71034D01*
X286592Y69766D01*
X286998Y68075D01*
X287664Y66468D01*
X288573Y64985D01*
X289702Y63663D01*
X291025Y62533D01*
X292508Y61624D01*
X294115Y60959D01*
X295806Y60553D01*
X297540Y60416D01*
Y60430D01*
X300941D01*
X301351Y60511D01*
X301698Y60743D01*
X301930Y61091D01*
X302012Y61500D01*
X301930Y61910D01*
X301698Y62257D01*
X301351Y62489D01*
X300941Y62571D01*
X297540D01*
X297494Y62562D01*
X295795Y62729D01*
X294118Y63238D01*
X292571Y64064D01*
X291216Y65177D01*
X290104Y66532D01*
X289278Y68078D01*
X288769Y69756D01*
X288601Y71455D01*
X288611Y71500D01*
X288529Y71910D01*
X288297Y72257D01*
X285797Y74757D01*
X285450Y74989D01*
X285040Y75071D01*
D02*
G37*
G36*
X216041Y73600D02*
X211841D01*
Y69400D01*
X212599D01*
Y66100D01*
X212341D01*
Y54900D01*
X218659D01*
Y66100D01*
X214740D01*
Y69400D01*
X216041D01*
Y73600D01*
D02*
G37*
G36*
X98050Y61350D02*
X93050D01*
Y56650D01*
X94225D01*
Y52850D01*
X93050D01*
Y52217D01*
X92550Y51963D01*
X92202Y52196D01*
X91500Y52335D01*
X90798Y52196D01*
X90202Y51798D01*
X89804Y51202D01*
X89665Y50500D01*
X89804Y49798D01*
X90202Y49202D01*
X90798Y48804D01*
X91500Y48665D01*
X92202Y48804D01*
X92550Y49037D01*
X93050Y48783D01*
Y48150D01*
X98050D01*
Y52850D01*
X96876D01*
Y56650D01*
X98050D01*
Y61350D01*
D02*
G37*
G36*
X251500Y82335D02*
X250798Y82196D01*
X250202Y81798D01*
X249804Y81202D01*
X249665Y80500D01*
X249804Y79798D01*
X249920Y79625D01*
Y62500D01*
X250040Y61895D01*
X250382Y61383D01*
X252382Y59382D01*
X252895Y59040D01*
X253500Y58920D01*
X272845D01*
X275920Y55845D01*
Y42177D01*
X276040Y41572D01*
X276382Y41059D01*
X283655Y33786D01*
Y32459D01*
X289068D01*
Y33170D01*
X291400D01*
Y30959D01*
X295600D01*
Y31988D01*
X298150D01*
Y31450D01*
X302850D01*
Y36450D01*
X298150D01*
Y34129D01*
X295600D01*
Y35159D01*
X292834D01*
X292728Y35229D01*
X292319Y35311D01*
X289068D01*
Y36021D01*
X285890D01*
X279080Y42831D01*
Y56500D01*
X278960Y57105D01*
X278618Y57617D01*
X274618Y61617D01*
X274544Y61667D01*
X274422Y62346D01*
X274482Y62429D01*
X285507D01*
X298150Y49786D01*
Y46450D01*
X302850D01*
Y47879D01*
X306400D01*
Y45959D01*
X310600D01*
Y50159D01*
X306400D01*
Y50021D01*
X302850D01*
Y51450D01*
X299514D01*
X286707Y64257D01*
X286360Y64489D01*
X285950Y64571D01*
X257949D01*
X257798Y64798D01*
X257202Y65196D01*
X256500Y65335D01*
X255798Y65196D01*
X255202Y64798D01*
X254804Y64202D01*
X254665Y63500D01*
X254804Y62798D01*
X254950Y62580D01*
X254682Y62080D01*
X254155D01*
X253080Y63155D01*
Y79625D01*
X253196Y79798D01*
X253335Y80500D01*
X253196Y81202D01*
X252798Y81798D01*
X252202Y82196D01*
X251500Y82335D01*
D02*
G37*
G36*
X237500Y60671D02*
X237090Y60589D01*
X236743Y60357D01*
X236511Y60010D01*
X236429Y59600D01*
Y59450D01*
X236511Y59040D01*
X236743Y58693D01*
X250593Y44843D01*
X250940Y44611D01*
X251350Y44529D01*
X251350Y44529D01*
X251500D01*
X251910Y44611D01*
X252257Y44843D01*
X252489Y45190D01*
X252571Y45600D01*
X252489Y46010D01*
X252257Y46357D01*
X251910Y46589D01*
X251866Y46598D01*
X238498Y59966D01*
X238489Y60010D01*
X238257Y60357D01*
X237910Y60589D01*
X237500Y60671D01*
D02*
G37*
G36*
X64720Y42261D02*
X64207Y42159D01*
X63906Y41957D01*
X63642Y41883D01*
D01*
D01*
X63321Y41921D01*
X62900Y42095D01*
X62768D01*
X62673Y42159D01*
X62160Y42261D01*
X61647Y42159D01*
X61552Y42095D01*
X61500D01*
X61079Y41921D01*
X60905Y41500D01*
Y41350D01*
X60819Y40920D01*
Y37540D01*
X60905Y37110D01*
Y34947D01*
X57908Y31950D01*
D01*
X57808Y31850D01*
X57450D01*
Y31492D01*
X57079Y31121D01*
X56905Y30700D01*
Y20200D01*
X56959Y20069D01*
Y19900D01*
X57029D01*
X57079Y19779D01*
X57500Y19605D01*
X69000D01*
X69109Y19650D01*
X69550D01*
Y20091D01*
X69595Y20200D01*
Y23700D01*
X69550Y23809D01*
Y24350D01*
X65292D01*
X63595Y26047D01*
Y30604D01*
X64095Y30791D01*
X64550Y30336D01*
Y27150D01*
X69550D01*
Y27300D01*
Y31850D01*
X66064D01*
X65791Y32124D01*
Y36775D01*
X65959Y37027D01*
X66061Y37540D01*
Y40920D01*
X66033Y41059D01*
X65959Y41433D01*
X65668Y41868D01*
X65233Y42159D01*
X65110Y42183D01*
D01*
X64720Y42261D01*
D02*
G37*
G36*
X146500Y45335D02*
X145798Y45196D01*
X145202Y44798D01*
X144804Y44202D01*
X144665Y43500D01*
X144712Y43261D01*
X144302Y42761D01*
X143931D01*
Y37624D01*
X149068D01*
Y42761D01*
X148698D01*
X148288Y43261D01*
X148335Y43500D01*
X148196Y44202D01*
X147798Y44798D01*
X147202Y45196D01*
X146500Y45335D01*
D02*
G37*
G36*
X166500Y46335D02*
X165798Y46196D01*
X165202Y45798D01*
X164804Y45202D01*
X164665Y44500D01*
X164804Y43798D01*
X165163Y43261D01*
X165097Y43007D01*
X164963Y42761D01*
X163932D01*
Y37624D01*
X169069D01*
Y42761D01*
X168037D01*
X167903Y43007D01*
X167837Y43261D01*
X168196Y43798D01*
X168335Y44500D01*
X168196Y45202D01*
X167798Y45798D01*
X167202Y46196D01*
X166500Y46335D01*
D02*
G37*
G36*
X272836Y54416D02*
X263576D01*
Y44584D01*
X266626D01*
Y39809D01*
X260900D01*
Y37080D01*
X255447D01*
Y39446D01*
X247554D01*
Y31554D01*
X255447D01*
Y33920D01*
X260900D01*
Y32609D01*
X269865D01*
X272910Y29564D01*
X273423Y29221D01*
X273931Y29120D01*
Y28719D01*
X279344D01*
Y32281D01*
X274662D01*
X272100Y34844D01*
Y39809D01*
X269786D01*
Y44584D01*
X272836D01*
Y54416D01*
D02*
G37*
G36*
X41596Y80672D02*
X39020Y78095D01*
X35500D01*
X35079Y77921D01*
X34905Y77500D01*
Y55659D01*
X34900D01*
Y51459D01*
X39100D01*
Y53905D01*
X41900D01*
Y53609D01*
X53100D01*
Y53905D01*
X55500D01*
X55921Y54079D01*
X57523Y55681D01*
X57911Y55362D01*
X57804Y55202D01*
X57665Y54500D01*
X57804Y53798D01*
X58202Y53202D01*
X58347Y53106D01*
Y52878D01*
X58448Y52371D01*
X58735Y51941D01*
X60819Y49856D01*
Y47080D01*
X60921Y46567D01*
X61212Y46132D01*
X61647Y45841D01*
X62160Y45739D01*
X62673Y45841D01*
X63108Y46132D01*
X63139Y46179D01*
X63741D01*
X63772Y46132D01*
X64207Y45841D01*
X64720Y45739D01*
X65233Y45841D01*
X65668Y46132D01*
X65699Y46179D01*
X66301D01*
X66332Y46132D01*
X66767Y45841D01*
X67280Y45739D01*
X67793Y45841D01*
X68173Y46095D01*
X68329Y46121D01*
X68788Y46070D01*
X69079Y45779D01*
X69500Y45605D01*
X74353D01*
X83805Y36153D01*
Y32800D01*
X83900Y32570D01*
Y32109D01*
X95100D01*
Y32424D01*
X97554D01*
Y31554D01*
X105447D01*
Y32424D01*
X108400D01*
Y31890D01*
X114600D01*
Y36590D01*
X114349D01*
X114164Y37038D01*
X113675Y37675D01*
X113038Y38164D01*
X112296Y38471D01*
X111500Y38576D01*
X105447D01*
Y39446D01*
X103776D01*
Y48150D01*
X104950D01*
Y52850D01*
X99950D01*
Y48150D01*
X101125D01*
Y39446D01*
X97554D01*
Y38576D01*
X95100D01*
Y39309D01*
X94633D01*
X88892Y45050D01*
X88600Y45410D01*
X88600D01*
X88600Y45410D01*
Y50109D01*
X83832D01*
X82421Y51521D01*
X82000Y51695D01*
X79600D01*
Y52041D01*
X75400D01*
Y51695D01*
X70358D01*
X70353Y51699D01*
X69840Y51801D01*
X69327Y51699D01*
X69312Y51720D01*
X69129Y52195D01*
X69834Y52900D01*
X72159D01*
Y57100D01*
X72149D01*
Y59510D01*
X74549D01*
Y74490D01*
X67050D01*
Y59510D01*
X67969D01*
Y57100D01*
X67959D01*
Y54775D01*
X67503Y54319D01*
X67041Y54510D01*
Y57100D01*
X62841D01*
Y52900D01*
X63649D01*
Y51498D01*
X63171Y51353D01*
X63139Y51361D01*
X63108Y51408D01*
X62832Y51592D01*
X60998Y53427D01*
Y53501D01*
X61196Y53798D01*
X61335Y54500D01*
X61196Y55202D01*
X60798Y55798D01*
X60202Y56196D01*
X59500Y56335D01*
X58798Y56196D01*
X58638Y56089D01*
X58319Y56477D01*
X61352Y59510D01*
X61950D01*
Y60150D01*
X62095Y60500D01*
Y77500D01*
X61921Y77921D01*
X61500Y78095D01*
X44173D01*
X41596Y80672D01*
D02*
G37*
G36*
X240500Y36011D02*
X240091Y35930D01*
X239743Y35698D01*
X239511Y35350D01*
X239430Y34941D01*
Y29500D01*
X239511Y29091D01*
X239743Y28743D01*
X240091Y28511D01*
X240500Y28430D01*
X240910Y28511D01*
X241257Y28743D01*
X241489Y29091D01*
X241571Y29500D01*
Y34941D01*
X241489Y35350D01*
X241257Y35698D01*
X240910Y35930D01*
X240500Y36011D01*
D02*
G37*
G36*
X302850Y44550D02*
X298150D01*
Y39550D01*
X301336D01*
X303429Y37457D01*
Y28120D01*
X302850D01*
Y29550D01*
X298150D01*
Y24550D01*
X302850D01*
Y25979D01*
X306150D01*
Y24550D01*
X310850D01*
Y29550D01*
X306150D01*
Y28120D01*
X305571D01*
Y37900D01*
X305489Y38310D01*
X305257Y38657D01*
X302850Y41064D01*
Y44550D01*
D02*
G37*
G36*
X149068Y36068D02*
X143931D01*
Y30931D01*
X145429D01*
Y29500D01*
X145202Y29348D01*
X144804Y28752D01*
X144665Y28050D01*
X144804Y27348D01*
X145202Y26752D01*
X145798Y26354D01*
X146500Y26215D01*
X147202Y26354D01*
X147798Y26752D01*
X148196Y27348D01*
X148335Y28050D01*
X148196Y28752D01*
X147798Y29348D01*
X147571Y29500D01*
Y30931D01*
X149068D01*
Y36068D01*
D02*
G37*
G36*
X159069Y36068D02*
X153931D01*
Y30931D01*
X155429D01*
Y29474D01*
X155202Y29323D01*
X154804Y28727D01*
X154665Y28025D01*
X154804Y27323D01*
X155202Y26727D01*
X155798Y26329D01*
X156500Y26190D01*
X157202Y26329D01*
X157798Y26727D01*
X158196Y27323D01*
X158335Y28025D01*
X158196Y28727D01*
X157798Y29323D01*
X157571Y29474D01*
Y30931D01*
X159069D01*
Y36068D01*
D02*
G37*
G36*
X189068D02*
X183932D01*
Y30931D01*
X185429D01*
Y28949D01*
X185202Y28798D01*
X184804Y28202D01*
X184665Y27500D01*
X184804Y26798D01*
X185202Y26202D01*
X185798Y25804D01*
X186500Y25665D01*
X187202Y25804D01*
X187798Y26202D01*
X188196Y26798D01*
X188335Y27500D01*
X188196Y28202D01*
X187798Y28798D01*
X187571Y28949D01*
Y30931D01*
X189068D01*
Y36068D01*
D02*
G37*
G36*
X169069Y36068D02*
X163932D01*
Y30931D01*
X165429D01*
Y28949D01*
X165202Y28798D01*
X164804Y28202D01*
X164665Y27500D01*
X164804Y26798D01*
X165202Y26202D01*
X165798Y25804D01*
X166500Y25665D01*
X167202Y25804D01*
X167798Y26202D01*
X168196Y26798D01*
X168335Y27500D01*
X168196Y28202D01*
X167798Y28798D01*
X167571Y28949D01*
Y30931D01*
X169069D01*
Y36068D01*
D02*
G37*
G36*
X75021Y27300D02*
X72879D01*
Y22000D01*
X72961Y21590D01*
X73193Y21243D01*
X73540Y21011D01*
X73950Y20929D01*
X74360Y21011D01*
X74707Y21243D01*
X74939Y21590D01*
X75021Y22000D01*
Y27300D01*
D02*
G37*
G36*
X55500Y33095D02*
X47500D01*
X47079Y32921D01*
X46905Y32500D01*
Y19500D01*
X47079Y19079D01*
X47500Y18905D01*
X55500D01*
X55921Y19079D01*
X56095Y19500D01*
Y32500D01*
X55921Y32921D01*
X55500Y33095D01*
D02*
G37*
%LPD*%
G36*
X247530Y230956D02*
X247310Y230469D01*
X237901D01*
X235720Y232650D01*
X235927Y233150D01*
X240150D01*
Y234429D01*
X244057D01*
X247530Y230956D01*
D02*
G37*
G36*
X182150Y233550D02*
X184776D01*
Y231478D01*
X184661D01*
X183672Y230489D01*
Y228511D01*
X184661Y227522D01*
X187032D01*
X187929Y228419D01*
X188429Y228289D01*
Y224943D01*
X182056Y218571D01*
X180752D01*
X180601Y219071D01*
X180798Y219202D01*
X181196Y219798D01*
X181335Y220500D01*
X181196Y221202D01*
X180798Y221798D01*
X180202Y222196D01*
X179500Y222335D01*
X178798Y222196D01*
X178202Y221798D01*
X178171Y221751D01*
X164919D01*
X164727Y222213D01*
X177493Y234979D01*
X182150D01*
Y233550D01*
D02*
G37*
G36*
X259429Y219057D02*
Y187402D01*
X258967Y187210D01*
X258469Y187709D01*
Y219310D01*
X258956Y219530D01*
X259429Y219057D01*
D02*
G37*
G36*
X282248Y175768D02*
X282689Y175680D01*
X283131Y175768D01*
X283505Y176018D01*
X283842D01*
X284216Y175768D01*
X284658Y175680D01*
X285099Y175768D01*
X285291Y175896D01*
X285642Y175978D01*
X285993Y175896D01*
X286185Y175768D01*
X286627Y175680D01*
X287068Y175768D01*
X287442Y176018D01*
X287779D01*
X288153Y175768D01*
X288558Y175687D01*
X288605Y175666D01*
X288925Y175270D01*
X288907Y175217D01*
X288798Y175196D01*
X288202Y174798D01*
X287804Y174202D01*
X287665Y173500D01*
X287804Y172798D01*
X288202Y172202D01*
X288798Y171804D01*
X289500Y171665D01*
X289925Y171749D01*
X290172Y171289D01*
X289840Y170957D01*
X289608Y170610D01*
X289527Y170200D01*
Y169014D01*
X289202Y168798D01*
X288804Y168202D01*
X288665Y167500D01*
X288804Y166798D01*
X289202Y166202D01*
X289798Y165804D01*
X290453Y165674D01*
X290561Y165501D01*
X290676Y165190D01*
X283768Y158282D01*
X283500Y158335D01*
X282798Y158196D01*
X282202Y157798D01*
X281804Y157202D01*
X281665Y156500D01*
X281804Y155798D01*
X282202Y155202D01*
X282798Y154804D01*
X283500Y154665D01*
X283514Y154667D01*
X283815Y154218D01*
X283804Y154202D01*
X283665Y153500D01*
X283804Y152798D01*
X284202Y152202D01*
X284485Y152013D01*
X284333Y151513D01*
X283001D01*
X277257Y157257D01*
X276910Y157489D01*
X276500Y157571D01*
X276090Y157489D01*
X275743Y157257D01*
X275743Y157257D01*
X273221Y154736D01*
X271957D01*
X271750Y155236D01*
X278257Y161743D01*
X278489Y162090D01*
X278571Y162500D01*
X278571Y162500D01*
Y169500D01*
X278489Y169910D01*
X278257Y170257D01*
X273301Y175213D01*
X273389Y175700D01*
X273843Y175915D01*
X274097Y175769D01*
X280429Y169437D01*
Y164500D01*
X280511Y164090D01*
X280743Y163743D01*
X281090Y163511D01*
X281500Y163429D01*
X281910Y163511D01*
X282257Y163743D01*
X282489Y164090D01*
X282571Y164500D01*
Y169881D01*
X282489Y170290D01*
X282257Y170638D01*
X277757Y175137D01*
X277822Y175746D01*
X278074Y175907D01*
X278119Y175896D01*
X278311Y175768D01*
X278752Y175680D01*
X279194Y175768D01*
X279568Y176018D01*
X279905D01*
X280279Y175768D01*
X280720Y175680D01*
X281162Y175768D01*
X281536Y176018D01*
X281874D01*
X282248Y175768D01*
D02*
G37*
G36*
X305213Y182318D02*
X305691Y181840D01*
X305921Y181435D01*
X302743Y178257D01*
X302511Y177910D01*
X302429Y177500D01*
X302511Y177090D01*
X302743Y176743D01*
X303090Y176511D01*
X303500Y176429D01*
X303910Y176511D01*
X304257Y176743D01*
X307634Y180120D01*
X308239D01*
Y175753D01*
X304938Y172452D01*
X304189D01*
X303910Y172882D01*
X303901Y172952D01*
X303980Y173350D01*
X303893Y173792D01*
X303643Y174166D01*
X303268Y174416D01*
X302827Y174504D01*
X301476D01*
Y178956D01*
X301703Y179108D01*
X302101Y179703D01*
X302102Y179706D01*
X304713Y182318D01*
X305213Y182318D01*
D02*
G37*
G36*
X296901Y163975D02*
X296910Y163905D01*
X296831Y163507D01*
X296918Y163066D01*
X297046Y162874D01*
X297129Y162523D01*
X297046Y162172D01*
X296918Y161980D01*
X296831Y161539D01*
X296912Y161128D01*
X296912Y161087D01*
X296630Y160628D01*
X295911D01*
X295798Y160798D01*
X295202Y161196D01*
X294500Y161335D01*
X293798Y161196D01*
X293202Y160798D01*
X292804Y160202D01*
X292665Y159500D01*
X292804Y158798D01*
X293202Y158202D01*
X293399Y158071D01*
X293248Y157571D01*
X291950D01*
X291798Y157798D01*
X291202Y158196D01*
X290500Y158335D01*
X289798Y158196D01*
X289202Y157798D01*
X288804Y157202D01*
X288665Y156500D01*
X288804Y155798D01*
X288881Y155683D01*
X288665Y155107D01*
X288202Y154798D01*
X287804Y154202D01*
X287755Y153953D01*
X287245D01*
X287196Y154202D01*
X286798Y154798D01*
X286202Y155196D01*
X285500Y155335D01*
X285486Y155333D01*
X285185Y155782D01*
X285196Y155798D01*
X285335Y156500D01*
X285282Y156768D01*
X292919Y164405D01*
X296622D01*
X296901Y163975D01*
D02*
G37*
G36*
X258429Y159950D02*
X258202Y159798D01*
X257804Y159202D01*
X257665Y158500D01*
X257804Y157798D01*
X258202Y157202D01*
X258798Y156804D01*
X259500Y156665D01*
X259610Y156686D01*
X259856Y156226D01*
X254866Y151235D01*
X254656Y150921D01*
X254582Y150551D01*
Y145707D01*
X254120Y145515D01*
X252378Y147257D01*
X252031Y147489D01*
X251621Y147571D01*
X250943D01*
X243449Y155065D01*
X243640Y155527D01*
X247250D01*
Y158205D01*
X247500Y158665D01*
X248202Y158804D01*
X248650Y159104D01*
X249150Y158898D01*
Y155527D01*
X254150D01*
Y158713D01*
X255906Y160468D01*
X258429D01*
Y159950D01*
D02*
G37*
G36*
X281577Y149908D02*
X281570Y149309D01*
X281540Y149259D01*
X281383Y149143D01*
X281354Y149150D01*
X281162Y149278D01*
X280720Y149366D01*
X280279Y149278D01*
X280088Y149150D01*
X279736Y149068D01*
X279385Y149150D01*
X279194Y149278D01*
X278752Y149366D01*
X278311Y149278D01*
X278119Y149150D01*
X277768Y149068D01*
X277417Y149150D01*
X277225Y149278D01*
X276783Y149366D01*
X276342Y149278D01*
X276151Y149150D01*
X275799Y149068D01*
X275448Y149150D01*
X275257Y149278D01*
X274816Y149366D01*
X274374Y149278D01*
X274182Y149150D01*
X273831Y149068D01*
X273480Y149150D01*
X273288Y149278D01*
X272847Y149366D01*
X272405Y149278D01*
X272031Y149028D01*
X271781Y148654D01*
X271693Y148212D01*
Y143370D01*
X271781Y142928D01*
X272031Y142554D01*
X272405Y142304D01*
X272847Y142216D01*
X272963Y142239D01*
X273160Y141876D01*
X273186Y141774D01*
X272816Y141220D01*
X272759Y141152D01*
X272284Y141046D01*
X272144Y141185D01*
X271830Y141395D01*
X271460Y141469D01*
X269500D01*
X269129Y141395D01*
X268815Y141185D01*
X265573Y137943D01*
X265275Y137978D01*
X265081Y138492D01*
X266780Y140190D01*
X264880Y142090D01*
Y149500D01*
Y150525D01*
X264898Y150542D01*
X269363D01*
X269804Y150630D01*
X270179Y150880D01*
X270429Y151254D01*
X270516Y151696D01*
X270437Y152094D01*
X270446Y152164D01*
X270725Y152594D01*
X273665D01*
X274075Y152676D01*
X274422Y152908D01*
X276500Y154986D01*
X281577Y149908D01*
D02*
G37*
G36*
X152429Y161500D02*
X152511Y161090D01*
X152743Y160743D01*
X163743Y149743D01*
X164090Y149511D01*
X164500Y149429D01*
X189518D01*
X189578Y149346D01*
X189456Y148667D01*
X189383Y148617D01*
X185741Y144976D01*
X185280Y145222D01*
X185335Y145500D01*
X185196Y146202D01*
X184798Y146798D01*
X184202Y147196D01*
X183500Y147335D01*
X182798Y147196D01*
X182202Y146798D01*
X181804Y146202D01*
X181665Y145500D01*
X181804Y144798D01*
X181950Y144580D01*
X181682Y144080D01*
X178991D01*
X178386Y143960D01*
X177873Y143617D01*
X173365Y139110D01*
X169400D01*
Y139054D01*
X169079Y138921D01*
X165079Y134921D01*
X164905Y134500D01*
Y131424D01*
X164859D01*
Y131070D01*
X162934D01*
Y131089D01*
X160030D01*
Y139590D01*
X161528D01*
Y143940D01*
X158282D01*
X158248Y143990D01*
X151571Y150668D01*
Y167928D01*
X152429D01*
Y161500D01*
D02*
G37*
G36*
X181500Y132500D02*
Y127500D01*
X165500D01*
Y134500D01*
X169500Y138500D01*
X175500D01*
X181500Y132500D01*
D02*
G37*
G36*
X183950Y140420D02*
X183804Y140202D01*
X183665Y139500D01*
X183804Y138798D01*
X184202Y138202D01*
X184798Y137804D01*
X185001Y137764D01*
X193920Y128845D01*
Y123375D01*
X193887Y123326D01*
X193449Y123283D01*
X193322Y123311D01*
X193117Y123617D01*
X186999Y129736D01*
X186885Y129999D01*
X186942Y130419D01*
X187196Y130798D01*
X187335Y131500D01*
X187196Y132202D01*
X186798Y132798D01*
X186202Y133196D01*
X185500Y133335D01*
X184798Y133196D01*
X184202Y132798D01*
X183804Y132202D01*
X183665Y131500D01*
X183798Y130830D01*
X183795Y130721D01*
X183586Y130330D01*
X182095D01*
Y132500D01*
X181921Y132921D01*
X176784Y138058D01*
X179645Y140920D01*
X183682D01*
X183950Y140420D01*
D02*
G37*
G36*
X238429Y146556D02*
Y138450D01*
X237150D01*
Y133450D01*
X241850D01*
Y138450D01*
X240571D01*
Y146330D01*
X241071Y146537D01*
X245837Y141770D01*
Y138450D01*
X244557D01*
Y133450D01*
X249257D01*
Y138450D01*
X247978D01*
Y141801D01*
X248478Y142008D01*
X252150Y138336D01*
Y133450D01*
X256850D01*
Y136568D01*
X257312Y136759D01*
X263328Y130743D01*
X263675Y130511D01*
X264085Y130429D01*
X266051D01*
X266202Y130202D01*
X266798Y129804D01*
X267500Y129665D01*
X268202Y129804D01*
X268798Y130202D01*
X269196Y130798D01*
X269335Y131500D01*
X269196Y132202D01*
X268798Y132798D01*
X268202Y133196D01*
X267500Y133335D01*
X266798Y133196D01*
X266202Y132798D01*
X266051Y132571D01*
X264528D01*
X263131Y133967D01*
X263323Y134429D01*
X268500D01*
X268910Y134511D01*
X269257Y134743D01*
X270232Y135718D01*
X270500Y135665D01*
X271202Y135804D01*
X271631Y136091D01*
X272131Y135870D01*
Y132501D01*
X257415Y117785D01*
X257205Y117471D01*
X257131Y117100D01*
Y98481D01*
X249119Y90469D01*
X248018D01*
X247798Y90798D01*
X247202Y91196D01*
X246731Y91289D01*
X246551Y91817D01*
X247117Y92383D01*
X247460Y92895D01*
X247580Y93500D01*
Y103801D01*
X248102Y103904D01*
X248698Y104302D01*
X249096Y104898D01*
X249235Y105600D01*
X249096Y106302D01*
X248698Y106898D01*
X248102Y107296D01*
X247400Y107435D01*
X246698Y107296D01*
X246603Y107232D01*
X231450Y122385D01*
Y124850D01*
X230530D01*
Y133050D01*
X230410Y133655D01*
X230067Y134168D01*
X215617Y148617D01*
X215544Y148667D01*
X215422Y149346D01*
X215482Y149429D01*
X235557D01*
X238429Y146556D01*
D02*
G37*
%LPC*%
G36*
X179154Y230571D02*
X175500D01*
X175090Y230489D01*
X174743Y230257D01*
X174511Y229910D01*
X174429Y229500D01*
X174511Y229090D01*
X174743Y228743D01*
X175090Y228511D01*
X175500Y228429D01*
X179154D01*
X179563Y228511D01*
X179911Y228743D01*
X180143Y229090D01*
X180224Y229500D01*
X180143Y229910D01*
X179911Y230257D01*
X179563Y230489D01*
X179154Y230571D01*
D02*
G37*
G36*
X249500Y154335D02*
X248798Y154196D01*
X248202Y153798D01*
X247804Y153202D01*
X247665Y152500D01*
X247804Y151798D01*
X248202Y151202D01*
X248798Y150804D01*
X249500Y150665D01*
X250202Y150804D01*
X250798Y151202D01*
X251196Y151798D01*
X251335Y152500D01*
X251196Y153202D01*
X250798Y153798D01*
X250202Y154196D01*
X249500Y154335D01*
D02*
G37*
G36*
X159500Y152335D02*
X158798Y152196D01*
X158202Y151798D01*
X157804Y151202D01*
X157665Y150500D01*
X157804Y149798D01*
X158202Y149202D01*
X158798Y148804D01*
X159500Y148665D01*
X160202Y148804D01*
X160798Y149202D01*
X161196Y149798D01*
X161335Y150500D01*
X161196Y151202D01*
X160798Y151798D01*
X160202Y152196D01*
X159500Y152335D01*
D02*
G37*
G36*
X256850Y131550D02*
X252150D01*
Y126550D01*
X253429D01*
Y124950D01*
X253202Y124798D01*
X252804Y124202D01*
X252665Y123500D01*
X252804Y122798D01*
X253202Y122202D01*
X253798Y121804D01*
X254500Y121665D01*
X255202Y121804D01*
X255798Y122202D01*
X256196Y122798D01*
X256335Y123500D01*
X256196Y124202D01*
X255798Y124798D01*
X255571Y124950D01*
Y126550D01*
X256850D01*
Y131550D01*
D02*
G37*
G36*
X249257Y131550D02*
X244557D01*
Y126550D01*
X245429D01*
Y124950D01*
X245202Y124798D01*
X244804Y124202D01*
X244665Y123500D01*
X244804Y122798D01*
X245202Y122202D01*
X245798Y121804D01*
X246500Y121665D01*
X247202Y121804D01*
X247798Y122202D01*
X248196Y122798D01*
X248335Y123500D01*
X248196Y124202D01*
X247798Y124798D01*
X247571Y124950D01*
Y126550D01*
X249257D01*
Y131550D01*
D02*
G37*
G36*
X241850Y131550D02*
X237150D01*
Y126550D01*
X238429D01*
Y124950D01*
X238202Y124798D01*
X237804Y124202D01*
X237665Y123500D01*
X237804Y122798D01*
X238202Y122202D01*
X238798Y121804D01*
X239500Y121665D01*
X240202Y121804D01*
X240798Y122202D01*
X241196Y122798D01*
X241335Y123500D01*
X241196Y124202D01*
X240798Y124798D01*
X240571Y124950D01*
Y126550D01*
X241850D01*
Y131550D01*
D02*
G37*
%LPD*%
G36*
X63500Y91500D02*
Y82500D01*
X60500Y79500D01*
X49500D01*
X46500Y82500D01*
X45500Y83500D01*
X47682Y89682D01*
X52500Y94500D01*
X60500D01*
X63500Y91500D01*
D02*
G37*
G36*
X63000Y41400D02*
Y25800D01*
X65100Y23700D01*
X69000D01*
Y20200D01*
X57500D01*
Y30700D01*
X61500Y34700D01*
Y41500D01*
X62900D01*
X63000Y41400D01*
D02*
G37*
G36*
X61500Y60500D02*
X55500Y54500D01*
X35500D01*
Y77500D01*
X61500D01*
Y60500D01*
D02*
G37*
G36*
X94400Y38700D02*
Y32800D01*
X84400D01*
Y36400D01*
X74600Y46200D01*
X69500D01*
X69100Y46600D01*
Y51100D01*
X82000D01*
X94400Y38700D01*
D02*
G37*
G36*
X55500Y19500D02*
X47500D01*
Y32500D01*
X55500D01*
Y19500D01*
D02*
G37*
D10*
X317460Y73500D02*
G03*
X318010Y72950I550J0D01*
G01*
X292500Y118000D02*
G03*
X288500Y122000I-4000J0D01*
G01*
X270500Y121500D02*
G03*
X268000Y119000I0J-2500D01*
G01*
X268452Y115434D02*
G03*
X268000Y114982I0J-452D01*
G01*
X293000Y106411D02*
G03*
X292381Y107030I-619J0D01*
G01*
D02*
G03*
X292500Y108000I-3881J970D01*
G01*
X286000Y113000D02*
G03*
X286193Y113193I0J193D01*
G01*
X271817Y115434D02*
G03*
X274251Y113000I2434J0D01*
G01*
X288500Y104000D02*
G03*
X292381Y107030I0J4000D01*
G01*
X268000Y108000D02*
G03*
X272500Y103500I4500J0D01*
G01*
X287540Y71500D02*
G03*
X297540Y61500I10000J0D01*
G01*
X307460D02*
G03*
X317460Y71500I0J10000D01*
G01*
X280500Y134450D02*
G03*
X280720Y134670I0J221D01*
G01*
X317460Y71500D02*
Y73500D01*
Y73697D01*
X306500Y73500D02*
X317460D01*
X284450Y82500D02*
X297500D01*
X306500Y73500D01*
X276000Y74050D02*
Y74200D01*
X277250Y75450D01*
X277400D01*
X284450Y82500D01*
X64720Y48770D02*
Y54779D01*
X64941Y55000D01*
X87628Y103500D02*
X90500D01*
X307837Y93056D02*
X315444D01*
X239500Y135950D02*
Y147000D01*
X236000Y150500D02*
X239500Y147000D01*
X164500Y150500D02*
X236000D01*
X282500Y74000D02*
X285040D01*
X287540Y71500D01*
X197300Y234300D02*
X199500Y236500D01*
X191300Y234300D02*
X197300D01*
X189500Y232500D02*
X191300Y234300D01*
X199500Y236500D02*
Y243274D01*
X194113Y246692D02*
X196082D01*
X199500Y243274D01*
X189500Y224500D02*
Y232500D01*
X182500Y217500D02*
X189500Y224500D01*
X176500Y217500D02*
X182500D01*
X174819Y219181D02*
X176500Y217500D01*
X162181Y219181D02*
X174819D01*
X150500Y207500D02*
X162181Y219181D01*
X150500Y150225D02*
Y207500D01*
X158566Y141765D02*
X158960D01*
X157491Y142840D02*
X158566Y141765D01*
X157491Y142840D02*
Y143233D01*
X150500Y150225D02*
X157491Y143233D01*
X153500Y195500D02*
X157500Y199500D01*
X153500Y161500D02*
Y195500D01*
Y161500D02*
X164500Y150500D01*
X155500Y187500D02*
X157500Y189500D01*
X155500Y162257D02*
Y187500D01*
Y162257D02*
X165257Y152500D01*
X157500Y175500D02*
X161500Y179500D01*
X157500Y162379D02*
Y175500D01*
Y162379D02*
X165629Y154250D01*
X161500Y179500D02*
X165500D01*
X139500Y205500D02*
X149500Y215500D01*
X139500Y184500D02*
Y205500D01*
X134500Y179500D02*
X139500Y184500D01*
X145500Y214500D02*
Y215500D01*
X137500Y206500D02*
X145500Y214500D01*
X137500Y192500D02*
Y206500D01*
X134500Y189500D02*
X137500Y192500D01*
X141500Y213500D02*
Y215500D01*
X135500Y207500D02*
X141500Y213500D01*
X135500Y200500D02*
Y207500D01*
X134500Y199500D02*
X135500Y200500D01*
X129674Y179500D02*
X134500D01*
X244750Y157877D02*
X244900D01*
X247500Y160477D01*
Y160500D01*
X228950Y122500D02*
X230200Y121250D01*
X231500Y69500D02*
X259500Y97500D01*
Y116500D01*
X274500Y131500D02*
Y140500D01*
X300406Y179524D02*
X305691Y184810D01*
X266000Y186879D02*
X271190Y181688D01*
X286317Y92375D02*
X293000D01*
X261847Y153665D02*
X266941D01*
X257500Y149318D02*
X261847Y153665D01*
X257500Y146501D02*
Y149318D01*
X262621Y135500D02*
X268500D01*
X270500Y137500D01*
X251621Y146500D02*
X262621Y135500D01*
X146500Y40193D02*
Y43500D01*
X321350Y168900D02*
X329500Y177050D01*
Y182500D01*
X263324Y169413D02*
X266941D01*
X261500Y171237D02*
X263324Y169413D01*
X259500Y161539D02*
X266941D01*
X255462D02*
X259500D01*
Y158500D02*
Y161539D01*
X244585Y165500D02*
X244750Y165665D01*
X240500Y165500D02*
X244585D01*
X244750Y199750D02*
X253500Y208500D01*
Y210500D01*
X244750Y196500D02*
Y199750D01*
X245682Y207500D02*
X247500D01*
X238500Y200318D02*
X245682Y207500D01*
X238500Y194750D02*
Y200318D01*
Y194750D02*
X243350Y189900D01*
Y189750D02*
Y189900D01*
Y189750D02*
X244600Y188500D01*
X254350Y199500D02*
X254494D01*
X251500Y196650D02*
X254350Y199500D01*
X273500Y186500D02*
Y189500D01*
Y186500D02*
X276783Y183217D01*
X299500Y217500D02*
X304500Y212500D01*
Y208000D02*
Y212500D01*
X314201Y203040D02*
X321960D01*
X239750Y157250D02*
X250500Y146500D01*
X168750Y157250D02*
X239750D01*
X250500Y146500D02*
X251621D01*
X276783Y179255D02*
Y183217D01*
X264500Y193618D02*
X267500Y190618D01*
Y187500D02*
Y190618D01*
X295050Y195050D02*
X296500D01*
X286639Y186639D02*
X295050Y195050D01*
X286639Y179267D02*
Y186639D01*
X280720Y179255D02*
Y186829D01*
X272500Y195050D02*
X280720Y186829D01*
X284658Y191208D02*
X288500Y195050D01*
X284658Y179255D02*
Y191208D01*
X282689Y179255D02*
Y191311D01*
X280500Y193500D02*
X282689Y191311D01*
X280500Y193500D02*
Y195050D01*
X292500Y115500D02*
Y118000D01*
X283500Y122000D02*
X288500D01*
X270500Y121500D02*
X272500D01*
X268452Y115434D02*
X271817D01*
X268000Y114982D02*
Y119000D01*
X293000Y97559D02*
Y106411D01*
X286000Y113000D02*
X292500D01*
X274251D02*
X286000D01*
X297540Y61500D02*
X300941D01*
X272500Y103500D02*
X274750D01*
X268000Y108000D02*
Y113723D01*
Y114982D01*
X274816Y176565D02*
Y179255D01*
X300406Y167444D02*
X306444D01*
X316500Y177500D01*
X324500D01*
X321621Y185500D02*
X324500D01*
X305534Y169413D02*
X321621Y185500D01*
X300406Y169413D02*
X305534D01*
X293000Y89000D02*
Y92375D01*
X259500Y116500D02*
X274500Y131500D01*
X304884Y131116D02*
X306500Y129500D01*
X303940Y131061D02*
X303995Y131116D01*
X304884D01*
X303061Y131061D02*
X303940D01*
X298500Y92657D02*
X317460Y73697D01*
X298500Y92657D02*
Y126500D01*
X263810Y149500D02*
Y150969D01*
Y140190D02*
Y149500D01*
X261500D02*
X263810D01*
X300406Y179524D02*
Y180405D01*
X269688Y181688D02*
X271190D01*
X313902Y156281D02*
Y156500D01*
X179674Y169500D02*
X187500D01*
X132500Y30909D02*
Y31500D01*
Y30909D02*
X133378Y30031D01*
X133968D01*
X144500Y19500D01*
X165500D01*
X172500Y26500D01*
Y36193D01*
X176500Y40193D01*
X166250Y155750D02*
X238371D01*
X237750Y154250D02*
X253250Y138750D01*
X163500Y162500D02*
X168750Y157250D01*
X165629Y154250D02*
X237750D01*
X159500Y162500D02*
X166250Y155750D01*
X238371D02*
X249987Y144134D01*
X177235Y165437D02*
X183184D01*
X174097Y168576D02*
X177235Y165437D01*
X170500Y101500D02*
X177500Y108500D01*
X167500Y104500D02*
X174250Y111250D01*
X185432D01*
X164500Y107500D02*
Y108500D01*
X190500Y109500D02*
Y110500D01*
X201500Y82941D02*
Y86500D01*
X200059Y81500D02*
X201500Y82941D01*
X240500Y29500D02*
Y34941D01*
X221500Y209500D02*
X222500Y210500D01*
X215500Y209500D02*
X221500D01*
X175500Y229500D02*
X179154D01*
X194306Y231500D02*
X198500D01*
X194113Y231693D02*
X194306Y231500D01*
X207693Y236693D02*
X213798D01*
X158960Y129989D02*
Y141765D01*
Y129989D02*
X159444Y129505D01*
X159971D01*
X149475D02*
X150326D01*
X149960Y129989D02*
Y141765D01*
X149475Y129505D02*
X149960Y129989D01*
X148948Y129505D02*
X149475D01*
X147570D02*
X148948D01*
X145185Y131890D02*
X147570Y129505D01*
X141701Y131890D02*
X145185D01*
X300406Y153665D02*
X324500D01*
X313853Y156232D02*
X313902Y156281D01*
X313634Y156232D02*
X313853D01*
X312902Y155500D02*
X313634Y156232D01*
X305500Y155500D02*
X312902D01*
X303410Y157590D02*
X305500Y155500D01*
X300406Y157602D02*
X300418Y157590D01*
X303410D01*
X314500Y156500D02*
Y156879D01*
X313902Y156500D02*
X314500D01*
X295549Y155633D02*
X300406D01*
X294682Y156500D02*
X295549Y155633D01*
X290500Y156500D02*
X294682D01*
X294500Y153500D02*
X294500Y153499D01*
Y145791D02*
Y153499D01*
X319500Y145500D02*
Y151050D01*
X249987Y144134D02*
X251451D01*
X253250Y137200D02*
Y138750D01*
X251451Y144134D02*
X264085Y131500D01*
X267500D01*
X165257Y152500D02*
X236621D01*
X159500Y162500D02*
Y166847D01*
X236621Y152500D02*
X246907Y142214D01*
X306177Y161539D02*
X308316Y159400D01*
X300406Y161539D02*
X306177D01*
X308316Y159400D02*
X313050D01*
X283500Y156500D02*
X292476Y165476D01*
X300406D01*
X325500Y122976D02*
Y129500D01*
X307500Y147500D02*
X325500Y129500D01*
X316500Y131639D02*
Y134500D01*
X307500Y143500D02*
X316500Y134500D01*
X303500Y143500D02*
X307500D01*
X200500Y182846D02*
X212154Y194500D01*
X200500Y171500D02*
Y182846D01*
X209776Y184500D02*
X215500D01*
X203500Y178224D02*
X209776Y184500D01*
X203500Y176500D02*
Y178224D01*
X212154Y194500D02*
X215500D01*
X213669Y64799D02*
Y71771D01*
X189500Y108500D02*
X190500Y109500D01*
X177500Y108500D02*
X189500D01*
X185432Y111250D02*
X188500Y114318D01*
Y120500D01*
X301309Y139310D02*
X301309D01*
X299119Y141500D02*
X301309Y139310D01*
X289500Y141500D02*
X299119D01*
X288607Y142393D02*
X289500Y141500D01*
X288595Y145791D02*
X288607Y145779D01*
Y142393D02*
Y145779D01*
X286627Y145791D02*
X286639Y145779D01*
X286614Y145803D02*
X286627Y145791D01*
X286639Y141361D02*
Y145779D01*
Y141361D02*
X288500Y139500D01*
X293881D01*
X297691Y135691D02*
X297691D01*
X293881Y139500D02*
X297691Y135691D01*
X301309Y139310D02*
X304569D01*
X307940Y135940D01*
X281500Y164500D02*
Y169881D01*
X274816Y176565D02*
X281500Y169881D01*
X303500Y177500D02*
X307190Y181191D01*
X309310D01*
X305691Y184810D02*
Y184810D01*
X300406Y173350D02*
Y179524D01*
X309310Y175310D02*
Y181191D01*
X305381Y171381D02*
X309310Y175310D01*
X300406Y171381D02*
X305381D01*
X294500Y170500D02*
X294500Y170500D01*
X292531Y172134D02*
Y179255D01*
X290597Y170200D02*
X292531Y172134D01*
X290597Y167597D02*
Y170200D01*
X290500Y167500D02*
X290597Y167597D01*
X294500Y170500D02*
Y179255D01*
X276500Y156500D02*
X282557Y150443D01*
X285557D02*
X286614Y149385D01*
X282557Y150443D02*
X285557D01*
X286614Y145803D02*
Y149385D01*
X273665Y153665D02*
X276500Y156500D01*
X266941Y153665D02*
X273665D01*
X307837Y122976D02*
X308034D01*
X310289Y125232D01*
Y125429D01*
X316500Y131639D01*
X285500Y153500D02*
X285543D01*
X290564Y148480D01*
X289500Y153500D02*
X292531Y150469D01*
X272500Y164500D02*
Y169500D01*
X270631Y171369D02*
X272500Y169500D01*
X266941Y171381D02*
X266954Y171369D01*
X270631D01*
X260500Y186500D02*
X277500Y169500D01*
Y162500D02*
Y169500D01*
X270645Y155645D02*
X277500Y162500D01*
X260556Y167444D02*
X266941D01*
X255500Y172500D02*
X260556Y167444D01*
X255500Y172500D02*
Y177092D01*
X325500Y117500D02*
Y122976D01*
X307837Y117837D02*
Y122976D01*
X284658Y140342D02*
X298500Y126500D01*
X284658Y140342D02*
Y145791D01*
X231500Y44941D02*
Y69500D01*
X215500Y26500D02*
Y28941D01*
X231500Y44941D01*
X225500Y28941D02*
X227559Y31000D01*
X231442D01*
X240500Y40059D01*
X238500Y65500D02*
X242500D01*
X237500Y66500D02*
X238500Y65500D01*
X256500Y63500D02*
X285950D01*
X299100Y50350D01*
X274036Y217036D02*
Y230717D01*
X264500Y207500D02*
X274036Y217036D01*
X276500Y206500D02*
Y212500D01*
X279500Y215500D01*
X290500D01*
X294500Y219500D01*
Y226500D01*
X289209Y231791D02*
X294500Y226500D01*
X277882Y231791D02*
X289209D01*
X272961D02*
X274036Y230717D01*
X244600Y188500D02*
X244750D01*
X220847Y191500D02*
X234500D01*
X218847Y189500D02*
X220847Y191500D01*
X251500Y196650D02*
X251650Y196500D01*
X260500Y186500D02*
Y219500D01*
X244500Y235500D02*
X260500Y219500D01*
X237650Y235500D02*
X244500D01*
X203034Y67942D02*
X207058D01*
X203034D02*
X203715Y67261D01*
X207058Y67942D02*
X207169Y67831D01*
X160240Y65000D02*
Y69240D01*
X113500Y122500D02*
Y161672D01*
X126328Y174500D01*
X142010Y111765D02*
Y116464D01*
X147570Y122025D01*
X148948D01*
X150326Y129505D02*
X154500Y125331D01*
Y117355D02*
Y125331D01*
X148910Y111765D02*
X149060D01*
X150310Y113015D01*
Y113165D01*
X154500Y117355D01*
X169500Y113500D02*
X184500D01*
X164500Y108500D02*
X169500Y113500D01*
X73950Y22000D02*
Y29500D01*
X179674Y214500D02*
X185500D01*
X129674Y169500D02*
X136500D01*
X128129Y214500D02*
X129674D01*
X127500Y215129D02*
X128129Y214500D01*
X127500Y215129D02*
Y217500D01*
X145362Y244799D02*
X145500Y244661D01*
Y235500D02*
Y244661D01*
X175959Y214500D02*
X179674D01*
X172959Y211500D02*
X175959Y214500D01*
X172500Y211500D02*
X172959D01*
X165500Y209500D02*
X169215D01*
X170450Y210735D01*
X171735D01*
X172500Y211500D01*
X179674Y199500D02*
X185500D01*
X188500Y202500D01*
X156500Y204500D02*
X165500D01*
X153500Y201500D02*
X156500Y204500D01*
X179674Y194500D02*
X182500D01*
X179674Y204500D02*
X182500D01*
X171500Y174500D02*
X174097Y171904D01*
Y168576D02*
Y171904D01*
X165500Y174500D02*
X171500D01*
X179674D02*
X188500D01*
X179674Y184500D02*
X180500D01*
X158500D02*
X165500D01*
X157500Y199500D02*
X165500D01*
X157500Y189500D02*
X165500D01*
X158500Y194500D02*
X165500D01*
X100500Y130500D02*
Y142500D01*
X104500Y146500D01*
Y155500D02*
X121500Y172500D01*
X104500Y146500D02*
Y155500D01*
X98500Y148500D02*
X102000Y152000D01*
Y156000D01*
X94500Y151500D02*
X117500Y174500D01*
Y188500D01*
X122500Y193500D01*
Y200672D01*
X126328Y204500D02*
X129674D01*
X122500Y200672D02*
X126328Y204500D01*
X119783Y187956D02*
X126328Y194500D01*
X119783Y173783D02*
Y187956D01*
X102000Y156000D02*
X119783Y173783D01*
X124500Y184500D02*
X129674D01*
X121500Y181500D02*
X124500Y184500D01*
X121500Y172500D02*
Y181500D01*
X126328Y174500D02*
X129674D01*
X113058Y191500D02*
X117500Y195941D01*
X106722Y191500D02*
X113058D01*
X101760Y186538D02*
X106722Y191500D01*
X88628Y158500D02*
X91500D01*
X126328Y194500D02*
X129674D01*
X75628Y185500D02*
X77500D01*
X74628Y186500D02*
X75628Y185500D01*
X89628D02*
X91500D01*
X60628Y158500D02*
X63500D01*
X60143Y158984D02*
X60628Y158500D01*
X61628Y185500D02*
X63500D01*
X60628Y186500D02*
X61628Y185500D01*
X88628Y186500D02*
X89628Y185500D01*
X61628Y103500D02*
X64500D01*
X60628Y104500D02*
X61628Y103500D01*
X75628D02*
X77500D01*
X74628Y104500D02*
X75628Y103500D01*
X74628Y158500D02*
X77500D01*
X88628Y131500D02*
X91500D01*
X74628D02*
X77500D01*
X60628D02*
X63500D01*
X60143Y158984D02*
Y159204D01*
X319500Y151050D02*
X319950Y151500D01*
Y159400D02*
X320100D01*
X321350Y160650D01*
Y160800D01*
X332500Y171950D01*
Y176500D01*
X319950Y167500D02*
X320100D01*
X321350Y168750D01*
Y168900D01*
X195500Y214500D02*
X202500Y221500D01*
X192500Y220500D02*
X198500Y226500D01*
X192500Y194500D02*
Y220500D01*
X124681Y220681D02*
X179500Y220681D01*
X209500Y204500D02*
X215500D01*
X200500Y213500D02*
X209500Y204500D01*
X185143Y236693D02*
X194113D01*
X187500Y189500D02*
X192500Y194500D01*
X179674Y189500D02*
X187500D01*
X195500Y191980D02*
Y214500D01*
X183020Y179500D02*
X195500Y191980D01*
X179674Y209500D02*
X187500D01*
X117500Y201059D02*
Y213500D01*
X124681Y220681D01*
X229500Y181500D02*
X244192D01*
X244750Y180942D01*
X229500Y173500D02*
X244504D01*
X244750Y173254D01*
X205500Y199500D02*
X215500D01*
X223847Y184500D02*
X237500D01*
X296500Y201950D02*
Y210500D01*
X288500Y201950D02*
Y210500D01*
X280500Y201950D02*
Y210500D01*
X272500Y201950D02*
Y210500D01*
X137500Y215500D02*
Y215879D01*
Y212500D02*
Y215500D01*
X134500Y209500D02*
X137500Y212500D01*
X129674Y209500D02*
X134500D01*
X246500Y123500D02*
Y128643D01*
X246907Y129050D01*
X239500Y123500D02*
Y129050D01*
X254500Y123500D02*
Y129050D01*
X253250Y137200D02*
X254500Y135950D01*
X246907Y135950D02*
Y142214D01*
X292531Y145791D02*
Y150469D01*
X290564Y145791D02*
Y148480D01*
X207500Y174500D02*
X215500D01*
X206500Y171500D02*
Y173500D01*
X207500Y174500D01*
X129674Y189500D02*
X134500D01*
X129674Y199500D02*
X134500D01*
X159500Y166847D02*
X162153Y169500D01*
X165500D01*
X179674Y179500D02*
X183020D01*
X294500Y143370D02*
Y145791D01*
X289500Y173500D02*
X290551Y174551D01*
Y179243D01*
X305250Y163507D02*
X309243Y167500D01*
X300406Y163507D02*
X305250D01*
X309243Y167500D02*
X313050D01*
X303040Y151500D02*
X313050D01*
X302844Y151696D02*
X303040Y151500D01*
X300406Y151696D02*
X302844D01*
X290551Y179243D02*
X290564Y179255D01*
X279867Y117612D02*
Y126375D01*
X294500Y179255D02*
X294500Y179255D01*
X300394Y159558D02*
X300406Y159570D01*
X294558Y159558D02*
X300394D01*
X294500Y159500D02*
X294558Y159558D01*
X218847Y179500D02*
X223847Y184500D01*
X225846Y176500D02*
X237500D01*
X215500Y169500D02*
X218846D01*
X225846Y176500D01*
X215500Y179500D02*
X218847D01*
X215500Y189500D02*
X218847D01*
X203034Y60462D02*
Y64202D01*
X200059Y75500D02*
Y81500D01*
Y74059D02*
Y75500D01*
X202353Y64883D02*
X203034Y64202D01*
X200117Y64883D02*
X202353D01*
X198500Y66500D02*
X200117Y64883D01*
X198500Y66500D02*
Y72500D01*
X200059Y74059D01*
X194941Y75500D02*
Y81500D01*
Y69495D02*
Y75500D01*
X193388Y67942D02*
X194941Y69495D01*
X192404Y67942D02*
X193388D01*
X146240Y65000D02*
Y68760D01*
X132240Y65000D02*
Y69240D01*
X151000Y99500D02*
X151761Y98739D01*
X186500Y27500D02*
Y33500D01*
X176500Y27500D02*
Y33500D01*
X166500Y27500D02*
Y33499D01*
X156500Y28025D02*
Y33500D01*
X146500Y28050D02*
Y33500D01*
X253050Y187241D02*
X264910Y175382D01*
X253050Y187241D02*
Y187380D01*
X266941Y155633D02*
X266954Y155645D01*
X270645D01*
X253050Y179542D02*
X255500Y177092D01*
X179950Y242950D02*
X184500D01*
X162500Y225500D02*
X179950Y242950D01*
X157960Y226086D02*
X158546Y225500D01*
X162500D01*
X157960Y226086D02*
Y232201D01*
X177050Y236050D02*
X184500D01*
X163500Y222500D02*
X177050Y236050D01*
X156500Y222500D02*
X163500D01*
X153040Y225960D02*
X156500Y222500D01*
X153040Y225960D02*
Y232201D01*
X184500Y242950D02*
Y243100D01*
X183250Y244350D02*
X184500Y243100D01*
X185846Y244446D02*
Y249500D01*
X184500Y243100D02*
X185846Y244446D01*
Y229500D02*
Y234554D01*
X184500Y235900D02*
X185846Y234554D01*
X184500Y236050D02*
X184500Y235900D01*
X185750Y241692D02*
X194113D01*
X184500Y242943D02*
X185750Y241692D01*
X184500Y242950D02*
X184500Y242943D01*
X184500Y236050D02*
X185143Y236693D01*
X223252D02*
X223500Y236941D01*
X213798Y236693D02*
X223252D01*
X223134Y241692D02*
X223500Y242059D01*
X213798Y241692D02*
X223134D01*
X263810Y150969D02*
X264537Y151696D01*
X266941D01*
X260191Y143809D02*
Y143809D01*
X257500Y146501D02*
X260191Y143809D01*
X266930Y155621D02*
X266941Y155633D01*
X251800Y157877D02*
X255462Y161539D01*
X251650Y157877D02*
X251800D01*
X253958Y163507D02*
X266941D01*
X251800Y165665D02*
X253958Y163507D01*
X251650Y165665D02*
X251800D01*
X259578Y165476D02*
X266941D01*
X251800Y173254D02*
X259578Y165476D01*
X251650Y173254D02*
X251800D01*
X251650Y180942D02*
X251800D01*
X253050Y179692D01*
Y179542D02*
Y179692D01*
X251650Y188630D02*
X251800D01*
X253050Y187380D01*
X264910Y173379D02*
Y175382D01*
Y173379D02*
X264939Y173350D01*
X266941D01*
X274816Y179255D02*
Y181944D01*
X273259Y183500D02*
X274816Y181944D01*
X272847Y179255D02*
Y181659D01*
X272817Y181688D02*
X272847Y181659D01*
X271190Y181688D02*
X272817D01*
X271500Y183500D02*
X273259D01*
X267500Y187500D02*
X271500Y183500D01*
X264500Y188500D02*
X266000Y187000D01*
Y186879D02*
Y187000D01*
X286627Y179255D02*
X286639Y179267D01*
X304500Y198119D02*
X314201D01*
X304500D02*
Y199000D01*
X314201Y207960D02*
X324500D01*
X306059Y61500D02*
X307460D01*
X272500Y121500D02*
X276500D01*
X277000Y122000D01*
X280720Y134670D02*
Y145791D01*
X292500Y113000D02*
Y115500D01*
Y110500D02*
Y113000D01*
Y108000D02*
Y110500D01*
X293000Y92375D02*
Y92441D01*
X286193Y113193D02*
Y117009D01*
X279367Y117112D02*
X279470Y117009D01*
X286163Y99978D02*
X286267Y99875D01*
X286163Y99978D02*
Y108741D01*
X279317Y92375D02*
X279470Y92528D01*
X271817Y110316D02*
X273392Y108741D01*
X279470D01*
Y92528D02*
Y108741D01*
X279367Y117112D02*
X279867Y117612D01*
X251350Y45600D02*
X251500D01*
X237500Y59450D02*
X251350Y45600D01*
X237500Y59450D02*
Y59600D01*
X285437Y34240D02*
X286362D01*
X300500Y48950D02*
Y49100D01*
X299250Y50350D02*
X300500Y49100D01*
X299100Y50350D02*
X299250D01*
X300500Y48950D02*
X307609D01*
X308500Y48059D01*
X304500Y27050D02*
X308500D01*
X300500D02*
X304500D01*
X300500Y41900D02*
Y42050D01*
Y41900D02*
X304500Y37900D01*
Y27050D02*
Y37900D01*
X308500Y27050D02*
X308500Y27050D01*
X293500Y33059D02*
X299609D01*
X300500Y33950D01*
X286362Y34240D02*
X292319D01*
X293500Y33059D01*
X64720Y31680D02*
Y39230D01*
Y31680D02*
X66900Y29500D01*
X67050D01*
D12*
X246500Y89500D02*
X249520D01*
X225500Y28941D02*
Y36961D01*
Y26500D02*
Y28941D01*
X250500Y85500D02*
X253500D01*
X232990Y67990D02*
X250500Y85500D01*
X232990Y44451D02*
Y67990D01*
X225500Y36961D02*
X232990Y44451D01*
X258100Y117100D02*
X273100Y132100D01*
X258100Y98080D02*
Y117100D01*
X249520Y89500D02*
X258100Y98080D01*
X273100Y132100D02*
Y138859D01*
X271460Y140500D02*
X273100Y138859D01*
X269500Y140500D02*
X271460D01*
X265900Y136900D02*
X269500Y140500D01*
X263201Y136900D02*
X265900D01*
X255551Y144551D02*
X263201Y136900D01*
X255551Y144551D02*
Y150551D01*
X262500Y157500D01*
Y158500D01*
X263520Y159520D01*
X266891D02*
X266941Y159570D01*
X263520Y159520D02*
X266891D01*
X156500Y40193D02*
X174807Y58500D01*
X178050D01*
X166500Y40192D02*
Y44500D01*
X181500Y45193D02*
X186500Y40193D01*
X181500Y45193D02*
Y71500D01*
X185941Y75941D01*
Y78941D01*
X257500Y187308D02*
Y219500D01*
Y187308D02*
X275500Y169308D01*
X247500Y229500D02*
X257500Y219500D01*
X275500Y163612D02*
Y169308D01*
X269976Y158089D02*
X275500Y163612D01*
X237500Y243188D02*
X237650D01*
X236150Y241838D02*
X237500Y243188D01*
X236150Y241688D02*
Y241838D01*
X234500Y240038D02*
X236150Y241688D01*
X234500Y232500D02*
Y240038D01*
Y232500D02*
X237500Y229500D01*
X247500D01*
X266941Y157602D02*
X269434D01*
X269920Y158089D01*
X269976D01*
D35*
X225500Y60500D02*
D03*
X215500D02*
D03*
Y26500D02*
D03*
X225500D02*
D03*
D43*
X325500Y93056D02*
D03*
Y122976D02*
D03*
X307837Y93056D02*
D03*
Y122976D02*
D03*
D44*
X192404Y60462D02*
D03*
Y64202D02*
D03*
Y67942D02*
D03*
X203034D02*
D03*
Y64202D02*
D03*
Y60462D02*
D03*
D62*
X146500Y33500D02*
D03*
Y40193D02*
D03*
X166500Y40192D02*
D03*
Y33499D02*
D03*
X176500Y40193D02*
D03*
Y33500D02*
D03*
X186500Y40193D02*
D03*
Y33500D02*
D03*
X156500Y40193D02*
D03*
Y33500D02*
D03*
D65*
X272847Y145791D02*
D03*
X274816Y145791D02*
D03*
X276783D02*
D03*
X278752D02*
D03*
X280720D02*
D03*
X282689D02*
D03*
X284658D02*
D03*
X286627D02*
D03*
X288595D02*
D03*
X290564D02*
D03*
X292531D02*
D03*
X294500Y145791D02*
D03*
Y179255D02*
D03*
X292531Y179255D02*
D03*
X290564D02*
D03*
X288595D02*
D03*
X286627D02*
D03*
X284658D02*
D03*
X282689D02*
D03*
X280720D02*
D03*
X278752D02*
D03*
X276783D02*
D03*
X274816D02*
D03*
X272847Y179255D02*
D03*
D66*
X300406Y151696D02*
D03*
X300406Y153665D02*
D03*
Y155633D02*
D03*
Y157602D02*
D03*
Y159570D02*
D03*
Y161539D02*
D03*
Y163507D02*
D03*
Y165476D02*
D03*
Y167444D02*
D03*
Y169413D02*
D03*
Y171381D02*
D03*
X300406Y173350D02*
D03*
X266941D02*
D03*
X266941Y171381D02*
D03*
Y169413D02*
D03*
Y167444D02*
D03*
Y165476D02*
D03*
Y163507D02*
D03*
Y161539D02*
D03*
Y159570D02*
D03*
Y157602D02*
D03*
Y155633D02*
D03*
Y153665D02*
D03*
X266941Y151696D02*
D03*
D73*
X317460Y73500D02*
D03*
X287540D02*
D03*
D76*
X286794Y49500D02*
D03*
X268206D02*
D03*
D98*
X253276Y243208D02*
D03*
X287724D02*
D03*
D99*
X263118Y231792D02*
D03*
X268039D02*
D03*
X272961D02*
D03*
X277882D02*
D03*
D100*
X157960Y232201D02*
D03*
X153040Y232201D02*
D03*
D101*
X145362Y244799D02*
D03*
X165638D02*
D03*
D102*
X303061Y131061D02*
D03*
X307940Y135940D02*
D03*
X197940Y139939D02*
D03*
X193061Y135061D02*
D03*
D103*
X297691Y135691D02*
D03*
X301309Y139310D02*
D03*
D104*
X91438Y195538D02*
D03*
X95178Y186538D02*
D03*
X87698D02*
D03*
X156500Y56000D02*
D03*
X152760Y65000D02*
D03*
X160240D02*
D03*
X142500Y56000D02*
D03*
X138760Y65000D02*
D03*
X146240D02*
D03*
X128500Y56000D02*
D03*
X124760Y65000D02*
D03*
X132240D02*
D03*
X101760Y186538D02*
D03*
X109240D02*
D03*
X105500Y195538D02*
D03*
X73921Y104538D02*
D03*
X81401D02*
D03*
X77661Y113538D02*
D03*
X73921Y131871D02*
D03*
X81401D02*
D03*
X77661Y140871D02*
D03*
X87698Y104538D02*
D03*
X95178D02*
D03*
X91438Y113538D02*
D03*
X87698Y131871D02*
D03*
X95178D02*
D03*
X91438Y140871D02*
D03*
X60143Y104538D02*
D03*
X67624D02*
D03*
X63884Y113538D02*
D03*
X60143Y131871D02*
D03*
X67624D02*
D03*
X63884Y140871D02*
D03*
X73921Y186538D02*
D03*
X81401D02*
D03*
X77661Y195538D02*
D03*
X73921Y159204D02*
D03*
X81401D02*
D03*
X77661Y168204D02*
D03*
X87698Y159204D02*
D03*
X95178D02*
D03*
X91438Y168204D02*
D03*
X60143Y186538D02*
D03*
X67624D02*
D03*
X63884Y195538D02*
D03*
X60143Y159204D02*
D03*
X67624D02*
D03*
X63884Y168204D02*
D03*
D105*
X300941Y61500D02*
D03*
X306059D02*
D03*
X200059Y81500D02*
D03*
X194941D02*
D03*
X200059Y75500D02*
D03*
X194941D02*
D03*
X70059Y55000D02*
D03*
X64941D02*
D03*
X53941Y22000D02*
D03*
X59059D02*
D03*
X213941Y71500D02*
D03*
X219059D02*
D03*
D106*
X208677Y117941D02*
D03*
X208677Y123059D02*
D03*
X214795D02*
D03*
X214795Y117941D02*
D03*
X223500Y242059D02*
D03*
X223500Y236941D02*
D03*
X271817Y115434D02*
D03*
Y110316D02*
D03*
X293000Y92441D02*
D03*
Y97559D02*
D03*
X166959Y129324D02*
D03*
Y124206D02*
D03*
X173189Y124206D02*
D03*
Y129324D02*
D03*
X135582Y126772D02*
D03*
X135582Y131890D02*
D03*
X141701Y126772D02*
D03*
X141701Y131890D02*
D03*
X264500Y188500D02*
D03*
Y193618D02*
D03*
X117500Y195941D02*
D03*
Y201059D02*
D03*
X293500Y27941D02*
D03*
Y33059D02*
D03*
X37000Y53559D02*
D03*
Y48441D02*
D03*
X77500Y49941D02*
D03*
Y55059D02*
D03*
X308500Y42941D02*
D03*
Y48059D02*
D03*
X240500Y34941D02*
D03*
Y40059D02*
D03*
D107*
X222050Y122500D02*
D03*
X228950Y122500D02*
D03*
X251650Y188500D02*
D03*
X244750D02*
D03*
X251650Y196500D02*
D03*
X244750Y196500D02*
D03*
X313050Y160500D02*
D03*
X319950D02*
D03*
X313050Y167500D02*
D03*
X319950D02*
D03*
X313050Y150500D02*
D03*
X319950D02*
D03*
X237650Y235500D02*
D03*
X230750D02*
D03*
X237650Y243188D02*
D03*
X230750D02*
D03*
X251650Y157877D02*
D03*
X244750D02*
D03*
Y165665D02*
D03*
X251650D02*
D03*
Y173254D02*
D03*
X244750D02*
D03*
X251650Y180942D02*
D03*
X244750D02*
D03*
X286267Y99875D02*
D03*
X279367Y99875D02*
D03*
X184950Y58500D02*
D03*
X178050D02*
D03*
X184950Y65500D02*
D03*
X178050D02*
D03*
X102450Y50500D02*
D03*
X95550D02*
D03*
Y59000D02*
D03*
X102450D02*
D03*
X67050Y22000D02*
D03*
X73950D02*
D03*
X53050Y29500D02*
D03*
X59950D02*
D03*
X73950D02*
D03*
X67050D02*
D03*
X142010Y111765D02*
D03*
X148910Y111765D02*
D03*
X125050Y75500D02*
D03*
X131950Y75500D02*
D03*
X139050Y75500D02*
D03*
X145950D02*
D03*
X153050D02*
D03*
X159950D02*
D03*
D108*
X276000Y80950D02*
D03*
Y74050D02*
D03*
X280500Y134450D02*
D03*
Y127550D02*
D03*
X254500Y129050D02*
D03*
X254500Y135950D02*
D03*
X246907Y129050D02*
D03*
X246907Y135950D02*
D03*
X239500Y129050D02*
D03*
X239500Y135950D02*
D03*
X272500Y195050D02*
D03*
Y201950D02*
D03*
X296500Y195050D02*
D03*
Y201950D02*
D03*
X288500Y195050D02*
D03*
Y201950D02*
D03*
X280500Y195050D02*
D03*
Y201950D02*
D03*
X184500Y242950D02*
D03*
Y236050D02*
D03*
X308500Y33950D02*
D03*
Y27050D02*
D03*
X300500Y27050D02*
D03*
X300500Y33950D02*
D03*
X300500Y48950D02*
D03*
Y42050D02*
D03*
X237500Y66500D02*
D03*
Y59600D02*
D03*
D109*
X128642Y36284D02*
D03*
D110*
X132500Y31500D02*
D03*
X128642D02*
D03*
X124783D02*
D03*
Y41067D02*
D03*
X132500Y41067D02*
D03*
X128642D02*
D03*
D111*
X89500Y24291D02*
D03*
Y35709D02*
D03*
X266500Y36209D02*
D03*
Y24791D02*
D03*
X47500Y57209D02*
D03*
Y45791D02*
D03*
D112*
X264500Y214000D02*
D03*
X304500Y208000D02*
D03*
D113*
X264500Y223000D02*
D03*
X304500Y199000D02*
D03*
D114*
X194113Y246692D02*
D03*
X194113Y241692D02*
D03*
Y236693D02*
D03*
X194113Y231693D02*
D03*
X213798Y246692D02*
D03*
X213798Y241692D02*
D03*
Y236693D02*
D03*
D115*
X213798Y231693D02*
D03*
D116*
X41318Y77318D02*
D03*
D117*
X47682Y83682D02*
D03*
D118*
X279500Y108741D02*
D03*
Y117009D02*
D03*
X286193Y117009D02*
D03*
X286193Y108741D02*
D03*
D119*
X158960Y141765D02*
D03*
X270000Y225500D02*
D03*
X299000Y223500D02*
D03*
D120*
X149960Y141765D02*
D03*
X279000Y225500D02*
D03*
X290000Y223500D02*
D03*
D121*
X159971Y122025D02*
D03*
Y129505D02*
D03*
X148948Y125765D02*
D03*
Y129505D02*
D03*
Y122025D02*
D03*
D122*
X172500Y144240D02*
D03*
Y136759D02*
D03*
X128459Y127025D02*
D03*
X128459Y134505D02*
D03*
X111500Y34240D02*
D03*
X111500Y26760D02*
D03*
X85500Y47760D02*
D03*
X85500Y55240D02*
D03*
D123*
X260191Y143809D02*
D03*
X263810Y140190D02*
D03*
X309310Y181191D02*
D03*
X305691Y184810D02*
D03*
D124*
X179154Y229500D02*
D03*
X179154Y249500D02*
D03*
D125*
X185846Y229500D02*
D03*
Y249500D02*
D03*
D126*
X127081Y238914D02*
D03*
D127*
X121919Y246286D02*
D03*
D128*
X286317Y92375D02*
D03*
X279317D02*
D03*
D129*
X286362Y26760D02*
D03*
Y34240D02*
D03*
X276637Y30500D02*
D03*
D130*
X69840Y48770D02*
D03*
X67280D02*
D03*
X64720D02*
D03*
X62160D02*
D03*
X69840Y39230D02*
D03*
X67280D02*
D03*
X64720D02*
D03*
X62160D02*
D03*
D131*
X58201Y67000D02*
D03*
X70799D02*
D03*
D132*
X179500Y122000D02*
D03*
Y129000D02*
D03*
D133*
X165500Y169500D02*
D03*
Y174500D02*
D03*
X165500Y179500D02*
D03*
X165500Y184500D02*
D03*
X165500Y189500D02*
D03*
X165500Y194500D02*
D03*
Y199500D02*
D03*
X165500Y204500D02*
D03*
X165500Y209500D02*
D03*
Y214500D02*
D03*
X129674Y169500D02*
D03*
Y174500D02*
D03*
X129674Y179500D02*
D03*
X129674Y184500D02*
D03*
X129674Y189500D02*
D03*
X129674Y194500D02*
D03*
Y199500D02*
D03*
X129674Y204500D02*
D03*
X129674Y209500D02*
D03*
Y214500D02*
D03*
X215500Y169500D02*
D03*
Y174500D02*
D03*
X215500Y179500D02*
D03*
X215500Y184500D02*
D03*
X215500Y189500D02*
D03*
X215500Y194500D02*
D03*
Y199500D02*
D03*
X215500Y204500D02*
D03*
X215500Y209500D02*
D03*
X215500Y214500D02*
D03*
X179674Y169500D02*
D03*
Y174500D02*
D03*
Y179500D02*
D03*
Y184500D02*
D03*
Y189500D02*
D03*
Y194500D02*
D03*
Y199500D02*
D03*
Y204500D02*
D03*
Y209500D02*
D03*
Y214500D02*
D03*
D134*
X314201Y198119D02*
D03*
Y203040D02*
D03*
Y207960D02*
D03*
Y212879D02*
D03*
D135*
X326799Y220560D02*
D03*
Y190440D02*
D03*
D136*
X68240Y220500D02*
D03*
X60760Y220500D02*
D03*
D137*
X246000Y93500D02*
Y105600D01*
X159987Y129489D02*
X166959D01*
X179500Y129000D02*
X180000Y128500D01*
X179338Y129162D02*
X179500Y129000D01*
X180000Y128500D02*
X180250Y128750D01*
X173189Y129489D02*
X173516Y129162D01*
X173024Y129324D02*
X173189Y129489D01*
X166959D02*
X167124Y129324D01*
X214500Y147500D02*
X228950Y133050D01*
X190500Y147500D02*
X214500D01*
X185500Y142500D02*
X190500Y147500D01*
X214795Y123059D02*
X215074Y122780D01*
X221770D01*
X222050Y122500D01*
X167124Y129324D02*
X173024D01*
X173516Y129162D02*
X179338D01*
X179000Y88000D02*
Y94000D01*
X194500Y109500D01*
Y112000D01*
X185750Y128750D02*
X192000Y122500D01*
Y114500D02*
Y122500D01*
Y114500D02*
X194500Y112000D01*
X180250Y128750D02*
X185750D01*
X276000Y81100D02*
Y86000D01*
Y80950D02*
Y81100D01*
X275250Y81850D02*
X276000Y81100D01*
X246000Y105600D02*
X247400D01*
X229100Y122500D02*
X246000Y105600D01*
X241000Y88500D02*
X246000Y93500D01*
X225500Y60500D02*
Y68500D01*
X241000Y84000D01*
Y88500D01*
X228950Y122500D02*
X229100D01*
X286000Y225500D02*
X287000Y226500D01*
X279000Y225500D02*
X286000D01*
X167500Y214361D02*
Y214569D01*
X169500Y216361D02*
Y216931D01*
X167500Y214361D02*
X169500Y216361D01*
X148000Y47500D02*
X156500Y56000D01*
X138343Y47500D02*
X148000D01*
X132500Y41658D02*
X138343Y47500D01*
X178050Y58500D02*
Y81950D01*
X172500Y136759D02*
X173250D01*
X178991Y142500D01*
X185500D01*
X228950Y122500D02*
Y133050D01*
X169500Y117500D02*
X175000D01*
X179500Y122000D01*
X207677Y241677D02*
X213782D01*
X203500Y237500D02*
X207677Y241677D01*
X203500Y233500D02*
Y237500D01*
Y233500D02*
X218500Y218500D01*
X219500D02*
X226500Y225500D01*
X215500Y214500D02*
X219500Y218500D01*
X218500D02*
X219500D01*
X213782Y241677D02*
X213798Y241692D01*
X201500Y143500D02*
X209500D01*
X197940Y139939D02*
X201500Y143500D01*
X189639Y177250D02*
X191389Y175500D01*
X186632Y177250D02*
X189639D01*
X185941Y177941D02*
X186632Y177250D01*
X191389Y175500D02*
X196500D01*
X185500Y139500D02*
X195500Y129500D01*
Y122500D02*
Y129500D01*
X202500Y102500D02*
Y121500D01*
X204059Y123059D01*
X208677D01*
X159971Y129505D02*
X159987Y129489D01*
X208677Y123059D02*
X214795D01*
Y129795D01*
X216500Y131500D01*
Y136500D01*
X277500Y42177D02*
X285437Y34240D01*
X277500Y42177D02*
Y56500D01*
X251500Y62500D02*
X253500Y60500D01*
X273500D01*
X226942Y231693D02*
X230750Y235500D01*
X227246Y246692D02*
X230750Y243188D01*
X213798Y246692D02*
X227246D01*
X299000Y223500D02*
X303580D01*
X311851Y215230D01*
Y213059D02*
Y215230D01*
Y213059D02*
X312031Y212879D01*
X314201D01*
X132500Y41067D02*
Y41658D01*
X142500Y54654D02*
Y56000D01*
X138347Y50500D02*
X142500Y54654D01*
X134500Y50500D02*
X138347D01*
X129020Y45020D02*
X134500Y50500D01*
X128642Y41067D02*
X129020Y41445D01*
Y45020D01*
X128500Y50006D02*
Y56000D01*
X124783Y46289D02*
X128500Y50006D01*
X124783Y41067D02*
Y46289D01*
X165569Y214569D02*
X167500D01*
X165500Y214500D02*
X165569Y214569D01*
X187062Y60462D02*
X192404D01*
X185100Y58500D02*
X187062Y60462D01*
X184950Y58500D02*
X185100D01*
X186398Y64202D02*
X192404D01*
X185100Y65500D02*
X186398Y64202D01*
X184950Y65500D02*
X185100D01*
X160500Y99500D02*
X178050Y81950D01*
X151000Y99500D02*
X160500D01*
X251500Y62500D02*
Y80500D01*
X152760Y65000D02*
X152776Y65016D01*
Y75226D01*
X153050Y75500D01*
X138760Y65000D02*
X138776Y65016D01*
Y75226D01*
X139050Y75500D01*
X124760Y65000D02*
X124776Y65016D01*
Y75226D01*
X125050Y75500D01*
X145950Y79500D02*
Y87050D01*
Y79500D02*
X155800D01*
X136100D02*
X145950D01*
Y75500D02*
Y79500D01*
X159800Y75500D02*
X159950D01*
X155800Y79500D02*
X159800Y75500D01*
X132500Y76050D02*
X132650D01*
X136100Y79500D01*
X131950Y75500D02*
X132500Y76050D01*
X226500Y225500D02*
Y226500D01*
X213798Y231693D02*
X226942D01*
X211861Y241692D02*
X213798Y241692D01*
X273500Y60500D02*
X277500Y56500D01*
X268206Y37915D02*
Y49500D01*
X266500Y36209D02*
X268206Y37915D01*
X266500Y36209D02*
X268500D01*
X274028Y30681D01*
X276456D01*
X276637Y30500D01*
X251500Y35500D02*
X265791D01*
X266500Y36209D01*
D138*
X195309Y85309D02*
X195500Y85500D01*
X287000Y226500D02*
X290000Y223500D01*
X263118Y224382D02*
X264236Y225500D01*
X270000D01*
X263118Y224382D02*
Y231791D01*
Y224382D02*
X264500Y223000D01*
X194941Y81500D02*
X195309Y81868D01*
Y85309D01*
X118500Y51500D02*
Y53500D01*
Y34500D02*
Y51500D01*
X135582Y131890D02*
X141701D01*
X141701Y131890D01*
X128459Y134505D02*
X128709Y134255D01*
X133217D01*
X135582Y131890D01*
X128209Y134255D02*
X128459Y134505D01*
X122255Y134255D02*
X128209D01*
X119500Y131500D02*
X122255Y134255D01*
X119500Y112500D02*
Y131500D01*
X89500Y82500D02*
X119500Y112500D01*
X112921Y226000D02*
X125835Y238914D01*
X77822Y153833D02*
X90784Y140871D01*
X55500Y153833D02*
X77822D01*
X90784Y140871D02*
X91438D01*
X77822Y181167D02*
X90784Y168204D01*
X55500Y181167D02*
X77822D01*
X48626Y188041D02*
X55500Y181167D01*
X48626Y160707D02*
X55500Y153833D01*
X67990Y220750D02*
X68240Y220500D01*
X67990Y220750D02*
Y225009D01*
X64500Y228500D02*
X67990Y225009D01*
X46500Y228500D02*
X64500D01*
X38883Y220883D02*
X46500Y228500D01*
X38500Y215374D02*
X38883Y215757D01*
Y220883D01*
X89500Y82500D02*
X118500Y53500D01*
X62500Y82500D02*
X89500D01*
X59500Y85500D02*
X62500Y82500D01*
X128642Y31500D02*
X132500D01*
X124783D02*
X128642D01*
X121500D02*
X124783D01*
X118500Y34500D02*
X121500Y31500D01*
X125835Y238914D02*
X126081D01*
X124835D02*
X125835D01*
X112421Y226500D02*
Y226500D01*
X105500Y195538D02*
Y218579D01*
X76665Y220500D02*
X82665Y226500D01*
X68240Y220500D02*
X76665D01*
X105500Y218579D02*
X112921Y226000D01*
X103286Y246286D02*
X121919D01*
X83500Y226500D02*
X103286Y246286D01*
X45462Y113538D02*
X62800D01*
X50500Y202500D02*
X70045D01*
X46374Y206626D02*
X50500Y202500D01*
X70045D02*
X77007Y195538D01*
X48626Y133374D02*
X55500Y126500D01*
X77822D01*
X90784Y113538D01*
X90784Y168204D02*
X91438D01*
X77822Y208500D02*
X90784Y195538D01*
X55500Y208500D02*
X77822D01*
X48626Y215374D02*
X55500Y208500D01*
X90784Y195538D02*
X91438D01*
X70045Y120500D02*
X77007Y113538D01*
X50500Y120500D02*
X70045D01*
X46374Y124626D02*
X50500Y120500D01*
X70045Y147833D02*
X77007Y140871D01*
X50500Y147833D02*
X70045D01*
X46374Y151959D02*
X50500Y147833D01*
X70045Y175167D02*
X77007Y168204D01*
X50500Y175167D02*
X70045D01*
X46374Y179293D02*
X50500Y175167D01*
X46374Y206626D02*
Y207500D01*
X38883Y120117D02*
Y125117D01*
Y120117D02*
X45462Y113538D01*
X45462Y140871D02*
X62800D01*
X38883Y147451D02*
X45462Y140871D01*
X38883Y147451D02*
Y152451D01*
X38883Y174784D02*
Y179784D01*
Y174784D02*
X45462Y168204D01*
X62800D01*
X46374Y215374D02*
X48626D01*
X45462Y195538D02*
X62900D01*
X38883Y202117D02*
X45462Y195538D01*
X38500Y207500D02*
X38883Y207117D01*
Y202117D02*
Y207117D01*
D139*
X89000Y36209D02*
X91000D01*
X101500Y35500D02*
X111500D01*
X91000Y36209D02*
X91709Y35500D01*
X101500D01*
D140*
X91500Y50500D02*
X95550D01*
X67280Y48770D02*
Y52221D01*
X70059Y55000D01*
X62160Y48770D02*
Y50390D01*
X59672Y52878D02*
X62160Y50390D01*
X59672Y52878D02*
Y54328D01*
X59500Y54500D02*
X59672Y54328D01*
X95550Y50500D02*
Y59000D01*
X101500Y35500D02*
X102450Y36450D01*
Y50500D01*
D141*
X70059Y55000D02*
Y66260D01*
X70799Y67000D01*
D142*
X324808Y241099D02*
D03*
X33469D02*
D03*
Y28501D02*
D03*
X324808D02*
D03*
D143*
X113421Y226500D02*
D03*
X83500D02*
D03*
D144*
X38500Y180131D02*
D03*
X46374D02*
D03*
X38500Y188005D02*
D03*
Y207500D02*
D03*
X46374D02*
D03*
X38500Y215374D02*
D03*
Y152762D02*
D03*
X46374D02*
D03*
X38500Y160636D02*
D03*
Y125394D02*
D03*
X46374D02*
D03*
X38500Y133268D02*
D03*
D145*
X46374Y188005D02*
D03*
Y215374D02*
D03*
Y160636D02*
D03*
Y133268D02*
D03*
D146*
X67500Y247500D02*
D03*
Y237500D02*
D03*
X57500Y247500D02*
D03*
D147*
Y237500D02*
D03*
D148*
X298965Y245036D02*
D03*
X130500Y152500D02*
D03*
X101500Y25500D02*
D03*
X251500D02*
D03*
X131000Y99500D02*
D03*
X141000D02*
D03*
X151000D02*
D03*
X231500Y214000D02*
D03*
D149*
X306036Y237965D02*
D03*
D150*
X120500Y152500D02*
D03*
X121000Y99500D02*
D03*
X241500Y214000D02*
D03*
D151*
X101500Y35500D02*
D03*
X251500D02*
D03*
D152*
X324808Y231749D02*
D03*
Y250450D02*
D03*
X331418Y234489D02*
D03*
X318198D02*
D03*
X331418Y247709D02*
D03*
X315458Y241099D02*
D03*
X334158D02*
D03*
X318198Y247709D02*
D03*
X26859D02*
D03*
X42820Y241099D02*
D03*
X24119D02*
D03*
X40080Y247709D02*
D03*
X26859Y234489D02*
D03*
X40080D02*
D03*
X33469Y250450D02*
D03*
Y231749D02*
D03*
X26859Y35111D02*
D03*
X42820Y28501D02*
D03*
X24119D02*
D03*
X40080Y35111D02*
D03*
X26859Y21891D02*
D03*
X40080D02*
D03*
X33469Y37851D02*
D03*
Y19150D02*
D03*
X318198Y35111D02*
D03*
X334158Y28501D02*
D03*
X315458D02*
D03*
X331418Y35111D02*
D03*
X318198Y21891D02*
D03*
X331418D02*
D03*
X324808Y37851D02*
D03*
Y19150D02*
D03*
D153*
X288500Y104000D02*
D03*
X163500Y134000D02*
D03*
X161500Y132500D02*
D03*
X220500Y115500D02*
D03*
X164000Y117500D02*
D03*
X326000Y82500D02*
D03*
X331000Y92500D02*
D03*
X315444Y93056D02*
D03*
X31000Y49000D02*
D03*
X28500D02*
D03*
X31000Y51500D02*
D03*
X28500D02*
D03*
X31000Y54000D02*
D03*
X28500D02*
D03*
X67500Y44000D02*
D03*
X70000D02*
D03*
X78000Y27000D02*
D03*
X80000Y28500D02*
D03*
X192500Y161000D02*
D03*
X213500Y166500D02*
D03*
X235500Y161500D02*
D03*
X232000D02*
D03*
X135500Y124500D02*
D03*
X138000D02*
D03*
Y121500D02*
D03*
X135500D02*
D03*
X126000Y124500D02*
D03*
X128500D02*
D03*
Y121500D02*
D03*
X126000D02*
D03*
X287500Y79000D02*
D03*
X282500Y74000D02*
D03*
X279500Y61000D02*
D03*
X276000Y86000D02*
D03*
X247400Y105600D02*
D03*
X169500Y216931D02*
D03*
X247500Y160500D02*
D03*
X240500Y93500D02*
D03*
X246500Y89500D02*
D03*
X253500Y85500D02*
D03*
X274500Y140500D02*
D03*
X146500Y43500D02*
D03*
X166500Y44500D02*
D03*
X329500Y182500D02*
D03*
X261500Y171237D02*
D03*
X259500Y158500D02*
D03*
X240500Y165500D02*
D03*
X253500Y210500D02*
D03*
X247500Y207500D02*
D03*
X254494Y199500D02*
D03*
X273500Y189500D02*
D03*
X299500Y217500D02*
D03*
X321960Y203040D02*
D03*
X235375Y166375D02*
D03*
X249500Y152500D02*
D03*
X324500Y177500D02*
D03*
Y185500D02*
D03*
X293000Y89000D02*
D03*
X270500Y137500D02*
D03*
X306500Y129500D02*
D03*
X261500Y149500D02*
D03*
X300406Y180405D02*
D03*
X269688Y181688D02*
D03*
X200309Y200309D02*
D03*
X187500Y169500D02*
D03*
X183500Y159500D02*
D03*
X183184Y165437D02*
D03*
X188500Y164500D02*
D03*
X185500Y131500D02*
D03*
X185941Y78941D02*
D03*
X170500Y101500D02*
D03*
X167500Y104500D02*
D03*
X164500Y107500D02*
D03*
X190500Y110500D02*
D03*
X201500Y86500D02*
D03*
X169500Y117500D02*
D03*
X240500Y29500D02*
D03*
X222500Y210500D02*
D03*
X175500Y229500D02*
D03*
X198500Y231500D02*
D03*
X207693Y236693D02*
D03*
X209500Y143500D02*
D03*
X324500Y153500D02*
D03*
X206500Y214500D02*
D03*
X314500Y156500D02*
D03*
X236500Y201500D02*
D03*
X290500Y156500D02*
D03*
X294500Y153500D02*
D03*
X163500Y162500D02*
D03*
X196500Y175500D02*
D03*
X200500Y171500D02*
D03*
X203500Y176500D02*
D03*
X185941Y177941D02*
D03*
X159500Y150500D02*
D03*
X185500Y139500D02*
D03*
X184500Y104500D02*
D03*
X195500Y122500D02*
D03*
X281500Y164500D02*
D03*
X303500Y177500D02*
D03*
X294500Y170500D02*
D03*
X276500Y156500D02*
D03*
X216500Y136500D02*
D03*
X209000D02*
D03*
X303500Y143500D02*
D03*
X307500Y147500D02*
D03*
X283500Y156500D02*
D03*
X285500Y153500D02*
D03*
X289500D02*
D03*
X272500Y164500D02*
D03*
X325500Y117500D02*
D03*
X307837Y117837D02*
D03*
X242500Y65500D02*
D03*
X256500Y63500D02*
D03*
X264500Y207500D02*
D03*
X276500Y206500D02*
D03*
X234500Y191500D02*
D03*
X253500Y231500D02*
D03*
X207169Y67831D02*
D03*
X160240Y69240D02*
D03*
X183500Y145500D02*
D03*
X195573Y188500D02*
D03*
X184500Y113500D02*
D03*
X188500Y120500D02*
D03*
X238500Y90500D02*
D03*
X232500Y89500D02*
D03*
X240500Y99500D02*
D03*
Y105500D02*
D03*
X236500Y108500D02*
D03*
X232500D02*
D03*
X219500Y89500D02*
D03*
X214500Y92500D02*
D03*
X213500Y98500D02*
D03*
Y104500D02*
D03*
X217500Y108500D02*
D03*
X223500D02*
D03*
X185500Y214500D02*
D03*
X136500Y169500D02*
D03*
X127500Y217500D02*
D03*
X108500Y126500D02*
D03*
X113500Y122500D02*
D03*
X95277Y110000D02*
D03*
X81500Y107500D02*
D03*
Y110000D02*
D03*
X128500Y165500D02*
D03*
X188500Y202500D02*
D03*
X153500Y201500D02*
D03*
X65223Y189500D02*
D03*
X67723D02*
D03*
X182500Y194500D02*
D03*
Y204500D02*
D03*
X108500Y182500D02*
D03*
X113500Y185000D02*
D03*
X188500Y174500D02*
D03*
X180500Y184500D02*
D03*
X158500D02*
D03*
Y194500D02*
D03*
X100500Y130500D02*
D03*
X98500Y148500D02*
D03*
X94500Y151500D02*
D03*
X111500Y182500D02*
D03*
X91500Y158500D02*
D03*
X95277Y162167D02*
D03*
Y164667D02*
D03*
X77500Y185500D02*
D03*
X81500Y192000D02*
D03*
X79000Y189500D02*
D03*
X95277Y192000D02*
D03*
X92777Y189500D02*
D03*
X91500Y185500D02*
D03*
X81500Y189500D02*
D03*
X95277D02*
D03*
X67723Y192000D02*
D03*
X63500Y158500D02*
D03*
Y185500D02*
D03*
X90500Y103500D02*
D03*
X64500D02*
D03*
X77500D02*
D03*
Y158500D02*
D03*
X91500Y131500D02*
D03*
X77500D02*
D03*
X63500D02*
D03*
X113500Y188000D02*
D03*
X319500Y145500D02*
D03*
X267500Y131500D02*
D03*
X306500Y225500D02*
D03*
X332500Y176500D02*
D03*
X298500Y234500D02*
D03*
X258500D02*
D03*
X202500Y221500D02*
D03*
X198500Y226500D02*
D03*
X179500Y220500D02*
D03*
X200500Y213500D02*
D03*
X187500Y209500D02*
D03*
X229500Y181500D02*
D03*
Y173500D02*
D03*
X205500Y199500D02*
D03*
X237500Y184500D02*
D03*
X296500Y210500D02*
D03*
X288500D02*
D03*
X280500Y210500D02*
D03*
X272500Y210500D02*
D03*
X145500Y215500D02*
D03*
X149500D02*
D03*
X141500D02*
D03*
X137500D02*
D03*
X246500Y123500D02*
D03*
X239500D02*
D03*
X254500Y123500D02*
D03*
X206500Y171500D02*
D03*
X290500Y167500D02*
D03*
X289500Y173500D02*
D03*
X283500Y122000D02*
D03*
X294500Y159500D02*
D03*
X237500Y176500D02*
D03*
X146240Y68760D02*
D03*
X132240Y69240D02*
D03*
X131500Y36284D02*
D03*
X125500D02*
D03*
X128642D02*
D03*
X186500Y27500D02*
D03*
X176500D02*
D03*
X166500D02*
D03*
X156500Y28025D02*
D03*
X146500Y28050D02*
D03*
X54500Y91500D02*
D03*
X53500Y86500D02*
D03*
X56500Y83500D02*
D03*
X59500Y85500D02*
D03*
X51500Y89500D02*
D03*
X324500Y207960D02*
D03*
X91500Y50500D02*
D03*
X272500Y121500D02*
D03*
X274750Y103500D02*
D03*
X270500Y104000D02*
D03*
X268000Y107732D02*
D03*
X292500Y110500D02*
D03*
Y115500D02*
D03*
X292000Y120000D02*
D03*
X288500Y122000D02*
D03*
X268000Y113723D02*
D03*
X268500Y119500D02*
D03*
X277000Y122000D02*
D03*
X53400Y222100D02*
D03*
X56400D02*
D03*
X53400Y219100D02*
D03*
X56400D02*
D03*
X92777Y162167D02*
D03*
X95277Y134833D02*
D03*
X92777D02*
D03*
X95277Y137333D02*
D03*
X95277Y107500D02*
D03*
X92777D02*
D03*
X67723D02*
D03*
X65223D02*
D03*
X67723Y110000D02*
D03*
X67723Y134833D02*
D03*
X65223D02*
D03*
X67723Y137333D02*
D03*
Y162167D02*
D03*
X65223D02*
D03*
X67723Y164667D02*
D03*
X79000Y107500D02*
D03*
X81500Y134833D02*
D03*
X79000D02*
D03*
X81500Y137333D02*
D03*
X81500Y162167D02*
D03*
X79000D02*
D03*
X81500Y164667D02*
D03*
X251500Y45600D02*
D03*
Y80500D02*
D03*
X37500Y72500D02*
D03*
Y68500D02*
D03*
Y64500D02*
D03*
X49500Y22500D02*
D03*
Y26500D02*
D03*
Y30500D02*
D03*
X59500Y54500D02*
D03*
D154*
X179000Y88000D02*
D03*
X195500Y85500D02*
D03*
X202500Y102500D02*
D03*
X193500D02*
D03*
X285500Y226500D02*
D03*
X118500Y51500D02*
D03*
X145500Y235500D02*
D03*
X172500Y211500D02*
D03*
X145950Y87050D02*
D03*
X196500Y30500D02*
D03*
X226500Y226500D02*
D03*
M02*
