G04*
G04 #@! TF.GenerationSoftware,Altium Limited,Altium Designer,20.0.1 (14)*
G04*
G04 Layer_Physical_Order=2*
G04 Layer_Color=32768*
%FSLAX25Y25*%
%MOIN*%
G70*
G01*
G75*
%ADD10C,0.01000*%
%ADD137C,0.02000*%
%ADD138C,0.04000*%
%ADD155C,0.17779*%
%ADD156C,0.07937*%
%ADD157C,0.07600*%
%ADD158C,0.07543*%
G04:AMPARAMS|DCode=159|XSize=95.433mil|YSize=95.433mil|CornerRadius=0mil|HoleSize=0mil|Usage=FLASHONLY|Rotation=0.000|XOffset=0mil|YOffset=0mil|HoleType=Round|Shape=Relief|Width=25mil|Gap=10mil|Entries=4|*
%AMTHD159*
7,0,0,0.09543,0.07543,0.02500,45*
%
%ADD159THD159*%
%ADD160C,0.06200*%
%ADD161C,0.06800*%
%ADD162C,0.05200*%
D10*
X311500Y187500D02*
G03*
X306500Y192500I-5000J0D01*
G01*
Y134500D02*
G03*
X311500Y139500I0J5000D01*
G01*
X253500D02*
G03*
X258500Y134500I5000J0D01*
G01*
Y192500D02*
G03*
X253500Y187500I0J-5000D01*
G01*
X233500Y103500D02*
G03*
X229500Y107500I-4000J0D01*
G01*
X230500Y89500D02*
G03*
X233500Y92500I0J3000D01*
G01*
X217500D02*
G03*
X220500Y89500I3000J0D01*
G01*
Y107500D02*
G03*
X217500Y104500I0J-3000D01*
G01*
X289443Y119830D02*
G03*
X289273Y120000I-170J0D01*
G01*
X286500Y105500D02*
G03*
X289500Y108500I0J3000D01*
G01*
X276000Y108000D02*
G03*
X278500Y105500I2500J0D01*
G01*
X278000Y120000D02*
G03*
X276000Y118000I0J-2000D01*
G01*
X311500Y170500D02*
Y187500D01*
X258500Y192500D02*
X306500D01*
X311500Y139500D02*
Y163500D01*
X258500Y134500D02*
X306500D01*
X253500Y139500D02*
Y187500D01*
X226500Y107500D02*
X229500D01*
X233500Y92500D02*
Y103500D01*
X220500Y89500D02*
X230500D01*
X217500Y92500D02*
Y104500D01*
X220500Y107500D02*
X226500D01*
X289500Y108500D02*
Y119830D01*
X278500Y105500D02*
X286500D01*
X276000Y108000D02*
Y118000D01*
X278000Y120000D02*
X289273D01*
D137*
X110500Y34500D02*
G03*
X115000Y39000I0J4500D01*
G01*
X117000Y105500D02*
G03*
X115000Y103500I0J-2000D01*
G01*
X117000Y105500D02*
G03*
X120500Y109000I0J3500D01*
G01*
Y123500D02*
G03*
X118000Y126000I-2500J0D01*
G01*
X113000Y131000D02*
G03*
X118000Y126000I5000J0D01*
G01*
Y159000D02*
G03*
X113000Y154000I0J-5000D01*
G01*
X120000Y159000D02*
G03*
X125000Y164000I0J5000D01*
G01*
X115000Y39000D02*
Y103500D01*
X120500Y109000D02*
Y123500D01*
X113000Y131000D02*
Y154000D01*
X118000Y159000D02*
X120000D01*
X125000Y164000D02*
Y250500D01*
D138*
X26689Y252909D02*
G03*
X21689Y247909I0J-5000D01*
G01*
X336650D02*
G03*
X331650Y252909I-5000J0D01*
G01*
X331650Y16689D02*
G03*
X336650Y21689I0J5000D01*
G01*
X21689Y21689D02*
G03*
X26689Y16689I5000J0D01*
G01*
Y16689D01*
X331650Y16689D01*
X336650Y247909D02*
X336650Y21689D01*
X336650Y247909D02*
X336650D01*
X26689Y252909D02*
X331650D01*
X21689Y247909D02*
X21689D01*
X21689D02*
X21689Y21689D01*
D155*
X324808Y241099D02*
D03*
X33469D02*
D03*
Y28501D02*
D03*
X324808D02*
D03*
D156*
X113421Y226500D02*
D03*
X83500D02*
D03*
D157*
X38500Y180131D02*
D03*
X46374D02*
D03*
X38500Y188005D02*
D03*
X46374D02*
D03*
X38500Y207500D02*
D03*
X46374D02*
D03*
X38500Y215374D02*
D03*
X46374D02*
D03*
X38500Y152762D02*
D03*
X46374D02*
D03*
X38500Y160636D02*
D03*
X46374D02*
D03*
X38500Y125394D02*
D03*
X46374D02*
D03*
X38500Y133268D02*
D03*
X46374D02*
D03*
D158*
X67500Y247500D02*
D03*
X57500Y237500D02*
D03*
X298965Y245036D02*
D03*
X306036Y237965D02*
D03*
X130500Y152500D02*
D03*
X120500D02*
D03*
X101500Y35500D02*
D03*
X251500D02*
D03*
X121000Y99500D02*
D03*
X131000D02*
D03*
X151000D02*
D03*
X231500Y214000D02*
D03*
X241500D02*
D03*
X67500Y237500D02*
D03*
X57500Y247500D02*
D03*
D159*
X101500Y25500D02*
D03*
X251500D02*
D03*
X141000Y99500D02*
D03*
D160*
X324808Y231749D02*
D03*
Y250450D02*
D03*
X331418Y234489D02*
D03*
X318198D02*
D03*
X331418Y247709D02*
D03*
X315458Y241099D02*
D03*
X334158D02*
D03*
X318198Y247709D02*
D03*
X26859D02*
D03*
X42820Y241099D02*
D03*
X24119D02*
D03*
X40080Y247709D02*
D03*
X26859Y234489D02*
D03*
X40080D02*
D03*
X33469Y250450D02*
D03*
Y231749D02*
D03*
X26859Y35111D02*
D03*
X42820Y28501D02*
D03*
X24119D02*
D03*
X40080Y35111D02*
D03*
X26859Y21891D02*
D03*
X40080D02*
D03*
X33469Y37851D02*
D03*
Y19150D02*
D03*
X318198Y35111D02*
D03*
X334158Y28501D02*
D03*
X315458D02*
D03*
X331418Y35111D02*
D03*
X318198Y21891D02*
D03*
X331418D02*
D03*
X324808Y37851D02*
D03*
Y19150D02*
D03*
D161*
X179000Y88000D02*
D03*
X195500Y85500D02*
D03*
X202500Y102500D02*
D03*
X193500D02*
D03*
X285500Y226500D02*
D03*
X118500Y51500D02*
D03*
X226500Y226500D02*
D03*
D162*
X276000Y86000D02*
D03*
X247400Y105600D02*
D03*
X169500Y216931D02*
D03*
X247500Y160500D02*
D03*
X246500Y89500D02*
D03*
X253500Y85500D02*
D03*
X274500Y140500D02*
D03*
X146500Y43500D02*
D03*
X166500Y44500D02*
D03*
X329500Y182500D02*
D03*
X261500Y171237D02*
D03*
X259500Y158500D02*
D03*
X240500Y165500D02*
D03*
X253500Y210500D02*
D03*
X247500Y207500D02*
D03*
X254494Y199500D02*
D03*
X273500Y189500D02*
D03*
X299500Y217500D02*
D03*
X321960Y203040D02*
D03*
X235375Y166375D02*
D03*
X249500Y152500D02*
D03*
X324500Y177500D02*
D03*
Y185500D02*
D03*
X293000Y89000D02*
D03*
X270500Y137500D02*
D03*
X306500Y129500D02*
D03*
X261500Y149500D02*
D03*
X300406Y180405D02*
D03*
X269688Y181688D02*
D03*
X200309Y200309D02*
D03*
X183500Y159500D02*
D03*
X183184Y165437D02*
D03*
X188500Y164500D02*
D03*
X185500Y131500D02*
D03*
X185941Y78941D02*
D03*
X170500Y101500D02*
D03*
X167500Y104500D02*
D03*
X164500Y107500D02*
D03*
X190500Y110500D02*
D03*
X169500Y117500D02*
D03*
X324500Y153500D02*
D03*
X206500Y214500D02*
D03*
X314500Y156500D02*
D03*
X236500Y201500D02*
D03*
X290500Y156500D02*
D03*
X294500Y153500D02*
D03*
X163500Y162500D02*
D03*
X196500Y175500D02*
D03*
X200500Y171500D02*
D03*
X203500Y176500D02*
D03*
X185941Y177941D02*
D03*
X159500Y150500D02*
D03*
X185500Y139500D02*
D03*
X184500Y104500D02*
D03*
X195500Y122500D02*
D03*
X294500Y170500D02*
D03*
X216500Y136500D02*
D03*
X209000D02*
D03*
X303500Y143500D02*
D03*
X307500Y147500D02*
D03*
X283500Y156500D02*
D03*
X285500Y153500D02*
D03*
X289500D02*
D03*
X272500Y164500D02*
D03*
X325500Y117500D02*
D03*
X307837Y117837D02*
D03*
X242500Y65500D02*
D03*
X256500Y63500D02*
D03*
X264500Y207500D02*
D03*
X276500Y206500D02*
D03*
X234500Y191500D02*
D03*
X253500Y231500D02*
D03*
X207169Y67831D02*
D03*
X160240Y69240D02*
D03*
X183500Y145500D02*
D03*
X195573Y188500D02*
D03*
X184500Y113500D02*
D03*
X188500Y120500D02*
D03*
X108500Y126500D02*
D03*
X113500Y122500D02*
D03*
X128500Y165500D02*
D03*
X188500Y202500D02*
D03*
X153500Y201500D02*
D03*
X182500Y194500D02*
D03*
Y204500D02*
D03*
X188500Y174500D02*
D03*
X180500Y184500D02*
D03*
X158500D02*
D03*
Y194500D02*
D03*
X100500Y130500D02*
D03*
X98500Y148500D02*
D03*
X94500Y151500D02*
D03*
X91500Y158500D02*
D03*
X77500Y185500D02*
D03*
X91500D02*
D03*
X63500Y158500D02*
D03*
Y185500D02*
D03*
X90500Y103500D02*
D03*
X64500D02*
D03*
X77500D02*
D03*
Y158500D02*
D03*
X91500Y131500D02*
D03*
X77500D02*
D03*
X63500D02*
D03*
X319500Y145500D02*
D03*
X267500Y131500D02*
D03*
X306500Y225500D02*
D03*
X332500Y176500D02*
D03*
X298500Y234500D02*
D03*
X258500D02*
D03*
X202500Y221500D02*
D03*
X198500Y226500D02*
D03*
X179500Y220500D02*
D03*
X200500Y213500D02*
D03*
X187500Y209500D02*
D03*
X229500Y181500D02*
D03*
Y173500D02*
D03*
X205500Y199500D02*
D03*
X237500Y184500D02*
D03*
X296500Y210500D02*
D03*
X288500D02*
D03*
X280500Y210500D02*
D03*
X272500Y210500D02*
D03*
X145500Y215500D02*
D03*
X149500D02*
D03*
X141500D02*
D03*
X137500D02*
D03*
X246500Y123500D02*
D03*
X239500D02*
D03*
X254500Y123500D02*
D03*
X206500Y171500D02*
D03*
X290500Y167500D02*
D03*
X289500Y173500D02*
D03*
X294500Y159500D02*
D03*
X237500Y176500D02*
D03*
X146240Y68760D02*
D03*
X132240Y69240D02*
D03*
X131500Y36284D02*
D03*
X125500D02*
D03*
X128642D02*
D03*
X186500Y27500D02*
D03*
X176500D02*
D03*
X166500D02*
D03*
X156500Y28025D02*
D03*
X146500Y28050D02*
D03*
X54500Y91500D02*
D03*
X53500Y86500D02*
D03*
X56500Y83500D02*
D03*
X59500Y85500D02*
D03*
X51500Y89500D02*
D03*
X91500Y50500D02*
D03*
X251500Y80500D02*
D03*
X37500Y72500D02*
D03*
Y68500D02*
D03*
Y64500D02*
D03*
X49500Y22500D02*
D03*
Y26500D02*
D03*
Y30500D02*
D03*
X59500Y54500D02*
D03*
M02*
