M48
;Layer_Color=9474304
;FILE_FORMAT=2:5
INCH,LZ
;TYPE=PLATED
T1F00S00C0.01200
T2F00S00C0.02200
T3F00S00C0.02800
T4F00S00C0.03543
T5F00S00C0.03600
T6F00S00C0.03937
T7F00S00C0.13780
%
T01
X02795Y0061
X02825Y0074
X02875Y0079
X0293Y0089
X02885Y0104
X02925Y01105
Y01155
X0292Y012
X02885Y0122
X02835
X0277
X02725Y01215
X02685Y01195
X0268Y0113723
Y0107732
X02705Y0104
X027475Y01035
X0276Y0086
X0315444Y0093056
X0331Y00925
X0326Y00825
X03255Y01175
X0307837Y0117837
X03065Y01295
X02675Y01315
X02705Y01375
X02745Y01405
X02545Y01235
X02465Y01235
X02395
X02365Y01085
X02325
X02235
X02175
X02135Y01045
Y00985
X02145Y00925
X02195Y00895
X02325
X02385Y00905
X02405Y00935
Y00995
Y01055
X02474Y01056
X02465Y00895
X02535Y00855
X02515Y00805
X02565Y00635
X02425Y00655
X02515Y00456
X02405Y00295
X01865Y00275
X01765
X01665
X01565Y0028025
X01465Y002805
Y00435
X01665Y00445
X016024Y006924
X014624Y006876
X013224Y006924
X01315Y0036284
X0128642
X01255
X0126Y01215
X01285
Y01245
X0126
X01355
X0138
Y01215
X01355
X01135Y01225
X01085Y01265
X01615Y01325
X01635Y0134
X0164Y01175
X01695
X01675Y01045
X01705Y01015
X01645Y01075
X01845Y01045
Y01135
X01905Y01105
X01885Y01205
X01955Y01225
X01855Y01315
Y01395
X0209Y01365
X02165
X02205Y01155
X02015Y00865
X0185941Y0078941
X0207169Y0067831
X00915Y00505
X007Y0044
X00675
X00595Y00545
X0031Y0054
Y00515
Y0049
X00285
Y00515
Y0054
X00375Y00645
Y00685
Y00725
X00535Y00865
X00515Y00895
X00545Y00915
X00565Y00835
X00595Y00855
X00645Y01035
X0065223Y01075
X0067723
Y011
X00815
Y01075
X0079
X00775Y01035
X00905
X0092777Y01075
X0095277
Y011
X0095277Y0134833
X0092777
X00915Y01315
X0095277Y0137333
X01005Y01305
X00815Y0134833
X0079
X00775Y01315
X00815Y0137333
X0067723Y0137333
Y0134833
X0065223
X00635Y01315
X00495Y00305
Y00265
Y00225
X0078Y0027
X008Y00285
X00775Y01585
X0079Y0162167
X00815
Y0164667
X0095277
Y0162167
X0092777
X00915Y01585
X00945Y01515
X00985Y01485
X00915Y01855
X0092777Y01895
X0095277
Y0192
X00815
Y01895
X0079
X00775Y01855
X0067723Y01895
X0065223
X0067723Y0192
X00635Y01855
X0065223Y0162167
X0067723
Y0164667
X00635Y01585
X00564Y02191
Y02221
X00534
Y02191
X01275Y02175
X01375Y02155
X01415
X01455
X01495
X01535Y02015
X01585Y01945
Y01845
X01805
X0185941Y0177941
X01885Y01745
X01875Y01695
X01885Y01645
X0183184Y0165437
X01835Y01595
X01925Y0161
X01965Y01755
X02005Y01715
X02065
X02035Y01765
X0195573Y01885
X0200309Y0200309
X02055Y01995
X02065Y02145
X02005Y02135
X02025Y02215
X01985Y02265
Y02315
X0207693Y0236693
X01755Y02295
X01795Y02205
X01855Y02145
X01875Y02095
X01885Y02025
X01825Y02045
Y01945
X01695Y0216931
X02225Y02105
X02365Y02015
X02345Y01915
X02375Y01845
Y01765
X02295Y01735
Y01815
X0235375Y0166375
X02355Y01615
X0232
X02405Y01655
X02475Y01605
X02495Y01525
X02095Y01435
X02135Y01665
X01835Y01455
X01595Y01505
X01635Y01625
X01365Y01695
X01285Y01655
X01115Y01825
X01085
X01135Y0185
Y0188
X0254494Y01995
X02535Y02105
X02475Y02075
X02535Y02315
X02585Y02345
X02645Y02075
X02725Y02105
X02765Y02065
X02805Y02105
X02885Y02105
X02965
X02995Y02175
X03065Y02255
X02985Y02345
X03245Y020796
X032196Y020304
X03245Y01855
X03295Y01825
X03325Y01765
X03245Y01775
X03035
X0300406Y0180405
X02945Y01705
X02905Y01675
X02895Y01735
X02815Y01645
X02725
X02765Y01565
X02835
X02855Y01535
X02895
X02905Y01565
X02945Y01535
Y01595
X03145Y01565
X03245Y01535
X03195Y01455
X03075Y01475
X03035Y01435
X02615Y01495
X02595Y01585
X02615Y0171237
X0269688Y0181688
X02735Y01895
T02
X0318198Y0021891
X0324808Y001915
X0331418Y0021891
X0334158Y0028501
X0331418Y0035111
X0324808Y0037851
X0318198Y0035111
X0315458Y0028501
X004282
X004008Y0035111
X0033469Y0037851
X0026859Y0035111
X0024119Y0028501
X0026859Y0021891
X0033469Y001915
X004008Y0021891
Y0234489
X0033469Y0231749
X0026859Y0234489
X0024119Y0241099
X0026859Y0247709
X0033469Y025045
X004008Y0247709
X004282Y0241099
X0315458
X0318198Y0234489
X0324808Y0231749
X0331418Y0234489
X0334158Y0241099
X0331418Y0247709
X0324808Y025045
X0318198Y0247709
T03
X01185Y00515
X014595Y008705
X0179Y0088
X01955Y00855
X01935Y01025
X02025
X01965Y00305
X01725Y02115
X01455Y02355
X02265Y02265
X02855
T04
X01015Y00255
Y00355
X0121Y00995
X0131
X0141
X0151
X02515Y00355
Y00255
X00675Y02375
Y02475
X00575Y02475
Y02375
X01205Y01525
X01305
X02315Y0214
X02415
X0298965Y0245036
X0306036Y0237965
T05
X00385Y0125394
X0046374
Y0133268
X00385
Y0152762
X0046374
Y0160636
X00385
Y0180131
X0046374
Y0188005
X00385
Y02075
X0046374
Y0215374
X00385
T06
X00835Y02265
X0113421
T07
X0324808Y0028501
X0033469
Y0241099
X0324808
M30
