G04*
G04 #@! TF.GenerationSoftware,Altium Limited,Altium Designer,20.0.1 (14)*
G04*
G04 Layer_Color=2752767*
%FSLAX25Y25*%
%MOIN*%
G70*
G01*
G75*
%ADD173C,0.00200*%
%ADD177C,0.00267*%
D173*
X324008Y240299D02*
Y241899D01*
X325608D01*
Y240299D01*
X324008D01*
X38500Y179331D02*
X37700Y180931D01*
X39300D01*
X38500Y179331D01*
X46374D02*
X45574Y180931D01*
X47174D01*
X46374Y179331D01*
X38500Y187205D02*
X37700Y188805D01*
X39300D01*
X38500Y187205D01*
X46374D02*
X45574Y188805D01*
X47174D01*
X46374Y187205D01*
X38500Y206700D02*
X37700Y208300D01*
X39300D01*
X38500Y206700D01*
X46374D02*
X45574Y208300D01*
X47174D01*
X46374Y206700D01*
X38500Y214574D02*
X37700Y216174D01*
X39300D01*
X38500Y214574D01*
X46374D02*
X45574Y216174D01*
X47174D01*
X46374Y214574D01*
X38500Y151962D02*
X37700Y153562D01*
X39300D01*
X38500Y151962D01*
X46374D02*
X45574Y153562D01*
X47174D01*
X46374Y151962D01*
X38500Y159836D02*
X37700Y161436D01*
X39300D01*
X38500Y159836D01*
X46374D02*
X45574Y161436D01*
X47174D01*
X46374Y159836D01*
X38500Y124594D02*
X37700Y126194D01*
X39300D01*
X38500Y124594D01*
X46374D02*
X45574Y126194D01*
X47174D01*
X46374Y124594D01*
X38500Y132468D02*
X37700Y134068D01*
X39300D01*
X38500Y132468D01*
X46374D02*
X45574Y134068D01*
X47174D01*
X46374Y132468D01*
X67500Y246700D02*
X67900Y247100D01*
X68300D01*
X67900Y247500D01*
X68300Y247900D01*
X67900D01*
X67500Y248300D01*
X67100Y247900D01*
X66700D01*
X67100Y247500D01*
X66700Y247100D01*
X67100D01*
X67500Y246700D01*
X57500Y236700D02*
X57900Y237100D01*
X58300D01*
X57900Y237500D01*
X58300Y237900D01*
X57900D01*
X57500Y238300D01*
X57100Y237900D01*
X56700D01*
X57100Y237500D01*
X56700Y237100D01*
X57100D01*
X57500Y236700D01*
X298965Y244235D02*
X299364Y244636D01*
X299764D01*
X299364Y245036D01*
X299764Y245436D01*
X299364D01*
X298965Y245835D01*
X298565Y245436D01*
X298165D01*
X298565Y245036D01*
X298165Y244636D01*
X298565D01*
X298965Y244235D01*
X306036Y237164D02*
X306436Y237564D01*
X306836D01*
X306436Y237965D01*
X306836Y238365D01*
X306436D01*
X306036Y238765D01*
X305636Y238365D01*
X305236D01*
X305636Y237965D01*
X305236Y237564D01*
X305636D01*
X306036Y237164D01*
X130500Y151700D02*
X130900Y152100D01*
X131300D01*
X130900Y152500D01*
X131300Y152900D01*
X130900D01*
X130500Y153300D01*
X130100Y152900D01*
X129700D01*
X130100Y152500D01*
X129700Y152100D01*
X130100D01*
X130500Y151700D01*
X120500D02*
X120900Y152100D01*
X121300D01*
X120900Y152500D01*
X121300Y152900D01*
X120900D01*
X120500Y153300D01*
X120100Y152900D01*
X119700D01*
X120100Y152500D01*
X119700Y152100D01*
X120100D01*
X120500Y151700D01*
X101500Y34700D02*
X101900Y35100D01*
X102300D01*
X101900Y35500D01*
X102300Y35900D01*
X101900D01*
X101500Y36300D01*
X101100Y35900D01*
X100700D01*
X101100Y35500D01*
X100700Y35100D01*
X101100D01*
X101500Y34700D01*
Y24700D02*
X101900Y25100D01*
X102300D01*
X101900Y25500D01*
X102300Y25900D01*
X101900D01*
X101500Y26300D01*
X101100Y25900D01*
X100700D01*
X101100Y25500D01*
X100700Y25100D01*
X101100D01*
X101500Y24700D01*
X251500Y34700D02*
X251900Y35100D01*
X252300D01*
X251900Y35500D01*
X252300Y35900D01*
X251900D01*
X251500Y36300D01*
X251100Y35900D01*
X250700D01*
X251100Y35500D01*
X250700Y35100D01*
X251100D01*
X251500Y34700D01*
Y24700D02*
X251900Y25100D01*
X252300D01*
X251900Y25500D01*
X252300Y25900D01*
X251900D01*
X251500Y26300D01*
X251100Y25900D01*
X250700D01*
X251100Y25500D01*
X250700Y25100D01*
X251100D01*
X251500Y24700D01*
X121000Y98700D02*
X121400Y99100D01*
X121800D01*
X121400Y99500D01*
X121800Y99900D01*
X121400D01*
X121000Y100300D01*
X120600Y99900D01*
X120200D01*
X120600Y99500D01*
X120200Y99100D01*
X120600D01*
X121000Y98700D01*
X131000D02*
X131400Y99100D01*
X131800D01*
X131400Y99500D01*
X131800Y99900D01*
X131400D01*
X131000Y100300D01*
X130600Y99900D01*
X130200D01*
X130600Y99500D01*
X130200Y99100D01*
X130600D01*
X131000Y98700D01*
X141000D02*
X141400Y99100D01*
X141800D01*
X141400Y99500D01*
X141800Y99900D01*
X141400D01*
X141000Y100300D01*
X140600Y99900D01*
X140200D01*
X140600Y99500D01*
X140200Y99100D01*
X140600D01*
X141000Y98700D01*
X151000D02*
X151400Y99100D01*
X151800D01*
X151400Y99500D01*
X151800Y99900D01*
X151400D01*
X151000Y100300D01*
X150600Y99900D01*
X150200D01*
X150600Y99500D01*
X150200Y99100D01*
X150600D01*
X151000Y98700D01*
X231500Y213200D02*
X231900Y213600D01*
X232300D01*
X231900Y214000D01*
X232300Y214400D01*
X231900D01*
X231500Y214800D01*
X231100Y214400D01*
X230700D01*
X231100Y214000D01*
X230700Y213600D01*
X231100D01*
X231500Y213200D01*
X241500D02*
X241900Y213600D01*
X242300D01*
X241900Y214000D01*
X242300Y214400D01*
X241900D01*
X241500Y214800D01*
X241100Y214400D01*
X240700D01*
X241100Y214000D01*
X240700Y213600D01*
X241100D01*
X241500Y213200D01*
X67500Y236700D02*
X67900Y237100D01*
X68300D01*
X67900Y237500D01*
X68300Y237900D01*
X67900D01*
X67500Y238300D01*
X67100Y237900D01*
X66700D01*
X67100Y237500D01*
X66700Y237100D01*
X67100D01*
X67500Y236700D01*
X57500Y246700D02*
X57900Y247100D01*
X58300D01*
X57900Y247500D01*
X58300Y247900D01*
X57900D01*
X57500Y248300D01*
X57100Y247900D01*
X56700D01*
X57100Y247500D01*
X56700Y247100D01*
X57100D01*
X57500Y246700D01*
X32669Y240299D02*
Y241899D01*
X34269D01*
Y240299D01*
X32669D01*
Y27701D02*
Y29301D01*
X34269D01*
Y27701D01*
X32669D01*
X324008D02*
Y29301D01*
X325608D01*
Y27701D01*
X324008D01*
Y230949D02*
X324408Y231749D01*
X324008Y232549D01*
X324808Y232149D01*
X325608Y232549D01*
X325208Y231749D01*
X325608Y230949D01*
X324808Y231349D01*
X324008Y230949D01*
Y249650D02*
X324408Y250450D01*
X324008Y251250D01*
X324808Y250850D01*
X325608Y251250D01*
X325208Y250450D01*
X325608Y249650D01*
X324808Y250050D01*
X324008Y249650D01*
X330618Y233689D02*
X331018Y234489D01*
X330618Y235289D01*
X331418Y234889D01*
X332218Y235289D01*
X331818Y234489D01*
X332218Y233689D01*
X331418Y234089D01*
X330618Y233689D01*
X317398D02*
X317798Y234489D01*
X317398Y235289D01*
X318198Y234889D01*
X318998Y235289D01*
X318598Y234489D01*
X318998Y233689D01*
X318198Y234089D01*
X317398Y233689D01*
X330618Y246909D02*
X331018Y247709D01*
X330618Y248510D01*
X331418Y248110D01*
X332218Y248510D01*
X331818Y247709D01*
X332218Y246909D01*
X331418Y247309D01*
X330618Y246909D01*
X314657Y240299D02*
X315057Y241099D01*
X314657Y241899D01*
X315458Y241499D01*
X316258Y241899D01*
X315858Y241099D01*
X316258Y240299D01*
X315458Y240699D01*
X314657Y240299D01*
X333358D02*
X333758Y241099D01*
X333358Y241899D01*
X334158Y241499D01*
X334958Y241899D01*
X334558Y241099D01*
X334958Y240299D01*
X334158Y240699D01*
X333358Y240299D01*
X317398Y246909D02*
X317798Y247709D01*
X317398Y248510D01*
X318198Y248110D01*
X318998Y248510D01*
X318598Y247709D01*
X318998Y246909D01*
X318198Y247309D01*
X317398Y246909D01*
X288100Y103600D02*
Y103200D01*
X288900D01*
Y103600D01*
X289300D01*
Y104400D01*
X288900D01*
Y104800D01*
X288100D01*
Y104400D01*
X287700D01*
Y103600D01*
X288100D01*
X163100Y133600D02*
Y133200D01*
X163900D01*
Y133600D01*
X164300D01*
Y134400D01*
X163900D01*
Y134800D01*
X163100D01*
Y134400D01*
X162700D01*
Y133600D01*
X163100D01*
X161100Y132100D02*
Y131700D01*
X161900D01*
Y132100D01*
X162300D01*
Y132900D01*
X161900D01*
Y133300D01*
X161100D01*
Y132900D01*
X160700D01*
Y132100D01*
X161100D01*
X220100Y115100D02*
Y114700D01*
X220900D01*
Y115100D01*
X221300D01*
Y115900D01*
X220900D01*
Y116300D01*
X220100D01*
Y115900D01*
X219700D01*
Y115100D01*
X220100D01*
X163600Y117100D02*
Y116700D01*
X164400D01*
Y117100D01*
X164800D01*
Y117900D01*
X164400D01*
Y118300D01*
X163600D01*
Y117900D01*
X163200D01*
Y117100D01*
X163600D01*
X325600Y82100D02*
Y81700D01*
X326400D01*
Y82100D01*
X326800D01*
Y82900D01*
X326400D01*
Y83300D01*
X325600D01*
Y82900D01*
X325200D01*
Y82100D01*
X325600D01*
X330600Y92100D02*
Y91700D01*
X331400D01*
Y92100D01*
X331800D01*
Y92900D01*
X331400D01*
Y93300D01*
X330600D01*
Y92900D01*
X330200D01*
Y92100D01*
X330600D01*
X315044Y92656D02*
Y92256D01*
X315844D01*
Y92656D01*
X316244D01*
Y93456D01*
X315844D01*
Y93856D01*
X315044D01*
Y93456D01*
X314644D01*
Y92656D01*
X315044D01*
X30600Y48600D02*
Y48200D01*
X31400D01*
Y48600D01*
X31800D01*
Y49400D01*
X31400D01*
Y49800D01*
X30600D01*
Y49400D01*
X30200D01*
Y48600D01*
X30600D01*
X28100D02*
Y48200D01*
X28900D01*
Y48600D01*
X29300D01*
Y49400D01*
X28900D01*
Y49800D01*
X28100D01*
Y49400D01*
X27700D01*
Y48600D01*
X28100D01*
X30600Y51100D02*
Y50700D01*
X31400D01*
Y51100D01*
X31800D01*
Y51900D01*
X31400D01*
Y52300D01*
X30600D01*
Y51900D01*
X30200D01*
Y51100D01*
X30600D01*
X28100D02*
Y50700D01*
X28900D01*
Y51100D01*
X29300D01*
Y51900D01*
X28900D01*
Y52300D01*
X28100D01*
Y51900D01*
X27700D01*
Y51100D01*
X28100D01*
X30600Y53600D02*
Y53200D01*
X31400D01*
Y53600D01*
X31800D01*
Y54400D01*
X31400D01*
Y54800D01*
X30600D01*
Y54400D01*
X30200D01*
Y53600D01*
X30600D01*
X28100D02*
Y53200D01*
X28900D01*
Y53600D01*
X29300D01*
Y54400D01*
X28900D01*
Y54800D01*
X28100D01*
Y54400D01*
X27700D01*
Y53600D01*
X28100D01*
X67100Y43600D02*
Y43200D01*
X67900D01*
Y43600D01*
X68300D01*
Y44400D01*
X67900D01*
Y44800D01*
X67100D01*
Y44400D01*
X66700D01*
Y43600D01*
X67100D01*
X69600D02*
Y43200D01*
X70400D01*
Y43600D01*
X70800D01*
Y44400D01*
X70400D01*
Y44800D01*
X69600D01*
Y44400D01*
X69200D01*
Y43600D01*
X69600D01*
X77600Y26600D02*
Y26200D01*
X78400D01*
Y26600D01*
X78800D01*
Y27400D01*
X78400D01*
Y27800D01*
X77600D01*
Y27400D01*
X77200D01*
Y26600D01*
X77600D01*
X79600Y28100D02*
Y27700D01*
X80400D01*
Y28100D01*
X80800D01*
Y28900D01*
X80400D01*
Y29300D01*
X79600D01*
Y28900D01*
X79200D01*
Y28100D01*
X79600D01*
X192100Y160600D02*
Y160200D01*
X192900D01*
Y160600D01*
X193300D01*
Y161400D01*
X192900D01*
Y161800D01*
X192100D01*
Y161400D01*
X191700D01*
Y160600D01*
X192100D01*
X213100Y166100D02*
Y165700D01*
X213900D01*
Y166100D01*
X214300D01*
Y166900D01*
X213900D01*
Y167300D01*
X213100D01*
Y166900D01*
X212700D01*
Y166100D01*
X213100D01*
X235100Y161100D02*
Y160700D01*
X235900D01*
Y161100D01*
X236300D01*
Y161900D01*
X235900D01*
Y162300D01*
X235100D01*
Y161900D01*
X234700D01*
Y161100D01*
X235100D01*
X231600D02*
Y160700D01*
X232400D01*
Y161100D01*
X232800D01*
Y161900D01*
X232400D01*
Y162300D01*
X231600D01*
Y161900D01*
X231200D01*
Y161100D01*
X231600D01*
X135100Y124100D02*
Y123700D01*
X135900D01*
Y124100D01*
X136300D01*
Y124900D01*
X135900D01*
Y125300D01*
X135100D01*
Y124900D01*
X134700D01*
Y124100D01*
X135100D01*
X137600D02*
Y123700D01*
X138400D01*
Y124100D01*
X138800D01*
Y124900D01*
X138400D01*
Y125300D01*
X137600D01*
Y124900D01*
X137200D01*
Y124100D01*
X137600D01*
Y121100D02*
Y120700D01*
X138400D01*
Y121100D01*
X138800D01*
Y121900D01*
X138400D01*
Y122300D01*
X137600D01*
Y121900D01*
X137200D01*
Y121100D01*
X137600D01*
X135100D02*
Y120700D01*
X135900D01*
Y121100D01*
X136300D01*
Y121900D01*
X135900D01*
Y122300D01*
X135100D01*
Y121900D01*
X134700D01*
Y121100D01*
X135100D01*
X125600Y124100D02*
Y123700D01*
X126400D01*
Y124100D01*
X126800D01*
Y124900D01*
X126400D01*
Y125300D01*
X125600D01*
Y124900D01*
X125200D01*
Y124100D01*
X125600D01*
X128100D02*
Y123700D01*
X128900D01*
Y124100D01*
X129300D01*
Y124900D01*
X128900D01*
Y125300D01*
X128100D01*
Y124900D01*
X127700D01*
Y124100D01*
X128100D01*
Y121100D02*
Y120700D01*
X128900D01*
Y121100D01*
X129300D01*
Y121900D01*
X128900D01*
Y122300D01*
X128100D01*
Y121900D01*
X127700D01*
Y121100D01*
X128100D01*
X125600D02*
Y120700D01*
X126400D01*
Y121100D01*
X126800D01*
Y121900D01*
X126400D01*
Y122300D01*
X125600D01*
Y121900D01*
X125200D01*
Y121100D01*
X125600D01*
X178200Y87200D02*
X178600D01*
X179000Y87600D01*
X179400Y87200D01*
X179800D01*
Y87600D01*
X179400Y88000D01*
X179800Y88400D01*
Y88800D01*
X179400D01*
X179000Y88400D01*
X178600Y88800D01*
X178200D01*
Y88400D01*
X178600Y88000D01*
X178200Y87600D01*
Y87200D01*
X287100Y78600D02*
Y78200D01*
X287900D01*
Y78600D01*
X288300D01*
Y79400D01*
X287900D01*
Y79800D01*
X287100D01*
Y79400D01*
X286700D01*
Y78600D01*
X287100D01*
X282100Y73600D02*
Y73200D01*
X282900D01*
Y73600D01*
X283300D01*
Y74400D01*
X282900D01*
Y74800D01*
X282100D01*
Y74400D01*
X281700D01*
Y73600D01*
X282100D01*
X279100Y60600D02*
Y60200D01*
X279900D01*
Y60600D01*
X280300D01*
Y61400D01*
X279900D01*
Y61800D01*
X279100D01*
Y61400D01*
X278700D01*
Y60600D01*
X279100D01*
X275600Y85600D02*
Y85200D01*
X276400D01*
Y85600D01*
X276800D01*
Y86400D01*
X276400D01*
Y86800D01*
X275600D01*
Y86400D01*
X275200D01*
Y85600D01*
X275600D01*
X247000Y105200D02*
Y104800D01*
X247800D01*
Y105200D01*
X248200D01*
Y106000D01*
X247800D01*
Y106400D01*
X247000D01*
Y106000D01*
X246600D01*
Y105200D01*
X247000D01*
X169100Y216531D02*
Y216131D01*
X169900D01*
Y216531D01*
X170300D01*
Y217331D01*
X169900D01*
Y217731D01*
X169100D01*
Y217331D01*
X168700D01*
Y216531D01*
X169100D01*
X247100Y160100D02*
Y159700D01*
X247900D01*
Y160100D01*
X248300D01*
Y160900D01*
X247900D01*
Y161300D01*
X247100D01*
Y160900D01*
X246700D01*
Y160100D01*
X247100D01*
X240100Y93100D02*
Y92700D01*
X240900D01*
Y93100D01*
X241300D01*
Y93900D01*
X240900D01*
Y94300D01*
X240100D01*
Y93900D01*
X239700D01*
Y93100D01*
X240100D01*
X246100Y89100D02*
Y88700D01*
X246900D01*
Y89100D01*
X247300D01*
Y89900D01*
X246900D01*
Y90300D01*
X246100D01*
Y89900D01*
X245700D01*
Y89100D01*
X246100D01*
X253100Y85100D02*
Y84700D01*
X253900D01*
Y85100D01*
X254300D01*
Y85900D01*
X253900D01*
Y86300D01*
X253100D01*
Y85900D01*
X252700D01*
Y85100D01*
X253100D01*
X274100Y140100D02*
Y139700D01*
X274900D01*
Y140100D01*
X275300D01*
Y140900D01*
X274900D01*
Y141300D01*
X274100D01*
Y140900D01*
X273700D01*
Y140100D01*
X274100D01*
X146100Y43100D02*
Y42700D01*
X146900D01*
Y43100D01*
X147300D01*
Y43900D01*
X146900D01*
Y44300D01*
X146100D01*
Y43900D01*
X145700D01*
Y43100D01*
X146100D01*
X166100Y44100D02*
Y43700D01*
X166900D01*
Y44100D01*
X167300D01*
Y44900D01*
X166900D01*
Y45300D01*
X166100D01*
Y44900D01*
X165700D01*
Y44100D01*
X166100D01*
X329100Y182100D02*
Y181700D01*
X329900D01*
Y182100D01*
X330300D01*
Y182900D01*
X329900D01*
Y183300D01*
X329100D01*
Y182900D01*
X328700D01*
Y182100D01*
X329100D01*
X261100Y170837D02*
Y170437D01*
X261900D01*
Y170837D01*
X262300D01*
Y171637D01*
X261900D01*
Y172037D01*
X261100D01*
Y171637D01*
X260700D01*
Y170837D01*
X261100D01*
X259100Y158100D02*
Y157700D01*
X259900D01*
Y158100D01*
X260300D01*
Y158900D01*
X259900D01*
Y159300D01*
X259100D01*
Y158900D01*
X258700D01*
Y158100D01*
X259100D01*
X240100Y165100D02*
Y164700D01*
X240900D01*
Y165100D01*
X241300D01*
Y165900D01*
X240900D01*
Y166300D01*
X240100D01*
Y165900D01*
X239700D01*
Y165100D01*
X240100D01*
X253100Y210100D02*
Y209700D01*
X253900D01*
Y210100D01*
X254300D01*
Y210900D01*
X253900D01*
Y211300D01*
X253100D01*
Y210900D01*
X252700D01*
Y210100D01*
X253100D01*
X247100Y207100D02*
Y206700D01*
X247900D01*
Y207100D01*
X248300D01*
Y207900D01*
X247900D01*
Y208300D01*
X247100D01*
Y207900D01*
X246700D01*
Y207100D01*
X247100D01*
X254094Y199100D02*
Y198700D01*
X254894D01*
Y199100D01*
X255294D01*
Y199900D01*
X254894D01*
Y200300D01*
X254094D01*
Y199900D01*
X253694D01*
Y199100D01*
X254094D01*
X273100Y189100D02*
Y188700D01*
X273900D01*
Y189100D01*
X274300D01*
Y189900D01*
X273900D01*
Y190300D01*
X273100D01*
Y189900D01*
X272700D01*
Y189100D01*
X273100D01*
X299100Y217100D02*
Y216700D01*
X299900D01*
Y217100D01*
X300300D01*
Y217900D01*
X299900D01*
Y218300D01*
X299100D01*
Y217900D01*
X298700D01*
Y217100D01*
X299100D01*
X321561Y202640D02*
Y202239D01*
X322360D01*
Y202640D01*
X322761D01*
Y203439D01*
X322360D01*
Y203839D01*
X321561D01*
Y203439D01*
X321161D01*
Y202640D01*
X321561D01*
X234975Y165975D02*
Y165575D01*
X235775D01*
Y165975D01*
X236175D01*
Y166775D01*
X235775D01*
Y167175D01*
X234975D01*
Y166775D01*
X234575D01*
Y165975D01*
X234975D01*
X249100Y152100D02*
Y151700D01*
X249900D01*
Y152100D01*
X250300D01*
Y152900D01*
X249900D01*
Y153300D01*
X249100D01*
Y152900D01*
X248700D01*
Y152100D01*
X249100D01*
X324100Y177100D02*
Y176700D01*
X324900D01*
Y177100D01*
X325300D01*
Y177900D01*
X324900D01*
Y178300D01*
X324100D01*
Y177900D01*
X323700D01*
Y177100D01*
X324100D01*
Y185100D02*
Y184700D01*
X324900D01*
Y185100D01*
X325300D01*
Y185900D01*
X324900D01*
Y186300D01*
X324100D01*
Y185900D01*
X323700D01*
Y185100D01*
X324100D01*
X292600Y88600D02*
Y88200D01*
X293400D01*
Y88600D01*
X293800D01*
Y89400D01*
X293400D01*
Y89800D01*
X292600D01*
Y89400D01*
X292200D01*
Y88600D01*
X292600D01*
X270100Y137100D02*
Y136700D01*
X270900D01*
Y137100D01*
X271300D01*
Y137900D01*
X270900D01*
Y138300D01*
X270100D01*
Y137900D01*
X269700D01*
Y137100D01*
X270100D01*
X306100Y129100D02*
Y128700D01*
X306900D01*
Y129100D01*
X307300D01*
Y129900D01*
X306900D01*
Y130300D01*
X306100D01*
Y129900D01*
X305700D01*
Y129100D01*
X306100D01*
X261100Y149100D02*
Y148700D01*
X261900D01*
Y149100D01*
X262300D01*
Y149900D01*
X261900D01*
Y150300D01*
X261100D01*
Y149900D01*
X260700D01*
Y149100D01*
X261100D01*
X300006Y180006D02*
Y179605D01*
X300805D01*
Y180006D01*
X301205D01*
Y180806D01*
X300805D01*
Y181205D01*
X300006D01*
Y180806D01*
X299605D01*
Y180006D01*
X300006D01*
X269288Y181288D02*
Y180888D01*
X270088D01*
Y181288D01*
X270488D01*
Y182088D01*
X270088D01*
Y182488D01*
X269288D01*
Y182088D01*
X268888D01*
Y181288D01*
X269288D01*
X199909Y199909D02*
Y199509D01*
X200709D01*
Y199909D01*
X201109D01*
Y200709D01*
X200709D01*
Y201109D01*
X199909D01*
Y200709D01*
X199509D01*
Y199909D01*
X199909D01*
X187100Y169100D02*
Y168700D01*
X187900D01*
Y169100D01*
X188300D01*
Y169900D01*
X187900D01*
Y170300D01*
X187100D01*
Y169900D01*
X186700D01*
Y169100D01*
X187100D01*
X183100Y159100D02*
Y158700D01*
X183900D01*
Y159100D01*
X184300D01*
Y159900D01*
X183900D01*
Y160300D01*
X183100D01*
Y159900D01*
X182700D01*
Y159100D01*
X183100D01*
X182784Y165038D02*
Y164637D01*
X183584D01*
Y165038D01*
X183984D01*
Y165838D01*
X183584D01*
Y166237D01*
X182784D01*
Y165838D01*
X182384D01*
Y165038D01*
X182784D01*
X188100Y164100D02*
Y163700D01*
X188900D01*
Y164100D01*
X189300D01*
Y164900D01*
X188900D01*
Y165300D01*
X188100D01*
Y164900D01*
X187700D01*
Y164100D01*
X188100D01*
X185100Y131100D02*
Y130700D01*
X185900D01*
Y131100D01*
X186300D01*
Y131900D01*
X185900D01*
Y132300D01*
X185100D01*
Y131900D01*
X184700D01*
Y131100D01*
X185100D01*
X185541Y78541D02*
Y78141D01*
X186341D01*
Y78541D01*
X186741D01*
Y79341D01*
X186341D01*
Y79741D01*
X185541D01*
Y79341D01*
X185141D01*
Y78541D01*
X185541D01*
X170100Y101100D02*
Y100700D01*
X170900D01*
Y101100D01*
X171300D01*
Y101900D01*
X170900D01*
Y102300D01*
X170100D01*
Y101900D01*
X169700D01*
Y101100D01*
X170100D01*
X167100Y104100D02*
Y103700D01*
X167900D01*
Y104100D01*
X168300D01*
Y104900D01*
X167900D01*
Y105300D01*
X167100D01*
Y104900D01*
X166700D01*
Y104100D01*
X167100D01*
X164100Y107100D02*
Y106700D01*
X164900D01*
Y107100D01*
X165300D01*
Y107900D01*
X164900D01*
Y108300D01*
X164100D01*
Y107900D01*
X163700D01*
Y107100D01*
X164100D01*
X190100Y110100D02*
Y109700D01*
X190900D01*
Y110100D01*
X191300D01*
Y110900D01*
X190900D01*
Y111300D01*
X190100D01*
Y110900D01*
X189700D01*
Y110100D01*
X190100D01*
X201100Y86100D02*
Y85700D01*
X201900D01*
Y86100D01*
X202300D01*
Y86900D01*
X201900D01*
Y87300D01*
X201100D01*
Y86900D01*
X200700D01*
Y86100D01*
X201100D01*
X194700Y84700D02*
X195100D01*
X195500Y85100D01*
X195900Y84700D01*
X196300D01*
Y85100D01*
X195900Y85500D01*
X196300Y85900D01*
Y86300D01*
X195900D01*
X195500Y85900D01*
X195100Y86300D01*
X194700D01*
Y85900D01*
X195100Y85500D01*
X194700Y85100D01*
Y84700D01*
X169100Y117100D02*
Y116700D01*
X169900D01*
Y117100D01*
X170300D01*
Y117900D01*
X169900D01*
Y118300D01*
X169100D01*
Y117900D01*
X168700D01*
Y117100D01*
X169100D01*
X240100Y29100D02*
Y28700D01*
X240900D01*
Y29100D01*
X241300D01*
Y29900D01*
X240900D01*
Y30300D01*
X240100D01*
Y29900D01*
X239700D01*
Y29100D01*
X240100D01*
X222100Y210100D02*
Y209700D01*
X222900D01*
Y210100D01*
X223300D01*
Y210900D01*
X222900D01*
Y211300D01*
X222100D01*
Y210900D01*
X221700D01*
Y210100D01*
X222100D01*
X175100Y229100D02*
Y228700D01*
X175900D01*
Y229100D01*
X176300D01*
Y229900D01*
X175900D01*
Y230300D01*
X175100D01*
Y229900D01*
X174700D01*
Y229100D01*
X175100D01*
X198100Y231100D02*
Y230700D01*
X198900D01*
Y231100D01*
X199300D01*
Y231900D01*
X198900D01*
Y232300D01*
X198100D01*
Y231900D01*
X197700D01*
Y231100D01*
X198100D01*
X207293Y236293D02*
Y235893D01*
X208092D01*
Y236293D01*
X208492D01*
Y237092D01*
X208092D01*
Y237492D01*
X207293D01*
Y237092D01*
X206892D01*
Y236293D01*
X207293D01*
X209100Y143100D02*
Y142700D01*
X209900D01*
Y143100D01*
X210300D01*
Y143900D01*
X209900D01*
Y144300D01*
X209100D01*
Y143900D01*
X208700D01*
Y143100D01*
X209100D01*
X324100Y153100D02*
Y152700D01*
X324900D01*
Y153100D01*
X325300D01*
Y153900D01*
X324900D01*
Y154300D01*
X324100D01*
Y153900D01*
X323700D01*
Y153100D01*
X324100D01*
X206100Y214100D02*
Y213700D01*
X206900D01*
Y214100D01*
X207300D01*
Y214900D01*
X206900D01*
Y215300D01*
X206100D01*
Y214900D01*
X205700D01*
Y214100D01*
X206100D01*
X314100Y156100D02*
Y155700D01*
X314900D01*
Y156100D01*
X315300D01*
Y156900D01*
X314900D01*
Y157300D01*
X314100D01*
Y156900D01*
X313700D01*
Y156100D01*
X314100D01*
X236100Y201100D02*
Y200700D01*
X236900D01*
Y201100D01*
X237300D01*
Y201900D01*
X236900D01*
Y202300D01*
X236100D01*
Y201900D01*
X235700D01*
Y201100D01*
X236100D01*
X290100Y156100D02*
Y155700D01*
X290900D01*
Y156100D01*
X291300D01*
Y156900D01*
X290900D01*
Y157300D01*
X290100D01*
Y156900D01*
X289700D01*
Y156100D01*
X290100D01*
X294100Y153100D02*
Y152700D01*
X294900D01*
Y153100D01*
X295300D01*
Y153900D01*
X294900D01*
Y154300D01*
X294100D01*
Y153900D01*
X293700D01*
Y153100D01*
X294100D01*
X163100Y162100D02*
Y161700D01*
X163900D01*
Y162100D01*
X164300D01*
Y162900D01*
X163900D01*
Y163300D01*
X163100D01*
Y162900D01*
X162700D01*
Y162100D01*
X163100D01*
X196100Y175100D02*
Y174700D01*
X196900D01*
Y175100D01*
X197300D01*
Y175900D01*
X196900D01*
Y176300D01*
X196100D01*
Y175900D01*
X195700D01*
Y175100D01*
X196100D01*
X200100Y171100D02*
Y170700D01*
X200900D01*
Y171100D01*
X201300D01*
Y171900D01*
X200900D01*
Y172300D01*
X200100D01*
Y171900D01*
X199700D01*
Y171100D01*
X200100D01*
X203100Y176100D02*
Y175700D01*
X203900D01*
Y176100D01*
X204300D01*
Y176900D01*
X203900D01*
Y177300D01*
X203100D01*
Y176900D01*
X202700D01*
Y176100D01*
X203100D01*
X185541Y177541D02*
Y177141D01*
X186341D01*
Y177541D01*
X186741D01*
Y178341D01*
X186341D01*
Y178741D01*
X185541D01*
Y178341D01*
X185141D01*
Y177541D01*
X185541D01*
X159100Y150100D02*
Y149700D01*
X159900D01*
Y150100D01*
X160300D01*
Y150900D01*
X159900D01*
Y151300D01*
X159100D01*
Y150900D01*
X158700D01*
Y150100D01*
X159100D01*
X185100Y139100D02*
Y138700D01*
X185900D01*
Y139100D01*
X186300D01*
Y139900D01*
X185900D01*
Y140300D01*
X185100D01*
Y139900D01*
X184700D01*
Y139100D01*
X185100D01*
X184100Y104100D02*
Y103700D01*
X184900D01*
Y104100D01*
X185300D01*
Y104900D01*
X184900D01*
Y105300D01*
X184100D01*
Y104900D01*
X183700D01*
Y104100D01*
X184100D01*
X201700Y101700D02*
X202100D01*
X202500Y102100D01*
X202900Y101700D01*
X203300D01*
Y102100D01*
X202900Y102500D01*
X203300Y102900D01*
Y103300D01*
X202900D01*
X202500Y102900D01*
X202100Y103300D01*
X201700D01*
Y102900D01*
X202100Y102500D01*
X201700Y102100D01*
Y101700D01*
X195100Y122100D02*
Y121700D01*
X195900D01*
Y122100D01*
X196300D01*
Y122900D01*
X195900D01*
Y123300D01*
X195100D01*
Y122900D01*
X194700D01*
Y122100D01*
X195100D01*
X281100Y164100D02*
Y163700D01*
X281900D01*
Y164100D01*
X282300D01*
Y164900D01*
X281900D01*
Y165300D01*
X281100D01*
Y164900D01*
X280700D01*
Y164100D01*
X281100D01*
X303100Y177100D02*
Y176700D01*
X303900D01*
Y177100D01*
X304300D01*
Y177900D01*
X303900D01*
Y178300D01*
X303100D01*
Y177900D01*
X302700D01*
Y177100D01*
X303100D01*
X294100Y170100D02*
Y169700D01*
X294900D01*
Y170100D01*
X295300D01*
Y170900D01*
X294900D01*
Y171300D01*
X294100D01*
Y170900D01*
X293700D01*
Y170100D01*
X294100D01*
X276100Y156100D02*
Y155700D01*
X276900D01*
Y156100D01*
X277300D01*
Y156900D01*
X276900D01*
Y157300D01*
X276100D01*
Y156900D01*
X275700D01*
Y156100D01*
X276100D01*
X216100Y136100D02*
Y135700D01*
X216900D01*
Y136100D01*
X217300D01*
Y136900D01*
X216900D01*
Y137300D01*
X216100D01*
Y136900D01*
X215700D01*
Y136100D01*
X216100D01*
X192700Y101700D02*
X193100D01*
X193500Y102100D01*
X193900Y101700D01*
X194300D01*
Y102100D01*
X193900Y102500D01*
X194300Y102900D01*
Y103300D01*
X193900D01*
X193500Y102900D01*
X193100Y103300D01*
X192700D01*
Y102900D01*
X193100Y102500D01*
X192700Y102100D01*
Y101700D01*
X208600Y136100D02*
Y135700D01*
X209400D01*
Y136100D01*
X209800D01*
Y136900D01*
X209400D01*
Y137300D01*
X208600D01*
Y136900D01*
X208200D01*
Y136100D01*
X208600D01*
X303100Y143100D02*
Y142700D01*
X303900D01*
Y143100D01*
X304300D01*
Y143900D01*
X303900D01*
Y144300D01*
X303100D01*
Y143900D01*
X302700D01*
Y143100D01*
X303100D01*
X307100Y147100D02*
Y146700D01*
X307900D01*
Y147100D01*
X308300D01*
Y147900D01*
X307900D01*
Y148300D01*
X307100D01*
Y147900D01*
X306700D01*
Y147100D01*
X307100D01*
X283100Y156100D02*
Y155700D01*
X283900D01*
Y156100D01*
X284300D01*
Y156900D01*
X283900D01*
Y157300D01*
X283100D01*
Y156900D01*
X282700D01*
Y156100D01*
X283100D01*
X285100Y153100D02*
Y152700D01*
X285900D01*
Y153100D01*
X286300D01*
Y153900D01*
X285900D01*
Y154300D01*
X285100D01*
Y153900D01*
X284700D01*
Y153100D01*
X285100D01*
X289100D02*
Y152700D01*
X289900D01*
Y153100D01*
X290300D01*
Y153900D01*
X289900D01*
Y154300D01*
X289100D01*
Y153900D01*
X288700D01*
Y153100D01*
X289100D01*
X272100Y164100D02*
Y163700D01*
X272900D01*
Y164100D01*
X273300D01*
Y164900D01*
X272900D01*
Y165300D01*
X272100D01*
Y164900D01*
X271700D01*
Y164100D01*
X272100D01*
X325100Y117100D02*
Y116700D01*
X325900D01*
Y117100D01*
X326300D01*
Y117900D01*
X325900D01*
Y118300D01*
X325100D01*
Y117900D01*
X324700D01*
Y117100D01*
X325100D01*
X307437Y117437D02*
Y117037D01*
X308237D01*
Y117437D01*
X308637D01*
Y118237D01*
X308237D01*
Y118637D01*
X307437D01*
Y118237D01*
X307037D01*
Y117437D01*
X307437D01*
X242100Y65100D02*
Y64700D01*
X242900D01*
Y65100D01*
X243300D01*
Y65900D01*
X242900D01*
Y66300D01*
X242100D01*
Y65900D01*
X241700D01*
Y65100D01*
X242100D01*
X256100Y63100D02*
Y62700D01*
X256900D01*
Y63100D01*
X257300D01*
Y63900D01*
X256900D01*
Y64300D01*
X256100D01*
Y63900D01*
X255700D01*
Y63100D01*
X256100D01*
X264100Y207100D02*
Y206700D01*
X264900D01*
Y207100D01*
X265300D01*
Y207900D01*
X264900D01*
Y208300D01*
X264100D01*
Y207900D01*
X263700D01*
Y207100D01*
X264100D01*
X276100Y206100D02*
Y205700D01*
X276900D01*
Y206100D01*
X277300D01*
Y206900D01*
X276900D01*
Y207300D01*
X276100D01*
Y206900D01*
X275700D01*
Y206100D01*
X276100D01*
X284700Y225700D02*
X285100D01*
X285500Y226100D01*
X285900Y225700D01*
X286300D01*
Y226100D01*
X285900Y226500D01*
X286300Y226900D01*
Y227300D01*
X285900D01*
X285500Y226900D01*
X285100Y227300D01*
X284700D01*
Y226900D01*
X285100Y226500D01*
X284700Y226100D01*
Y225700D01*
X234100Y191100D02*
Y190700D01*
X234900D01*
Y191100D01*
X235300D01*
Y191900D01*
X234900D01*
Y192300D01*
X234100D01*
Y191900D01*
X233700D01*
Y191100D01*
X234100D01*
X253100Y231100D02*
Y230700D01*
X253900D01*
Y231100D01*
X254300D01*
Y231900D01*
X253900D01*
Y232300D01*
X253100D01*
Y231900D01*
X252700D01*
Y231100D01*
X253100D01*
X206768Y67431D02*
Y67032D01*
X207569D01*
Y67431D01*
X207968D01*
Y68231D01*
X207569D01*
Y68632D01*
X206768D01*
Y68231D01*
X206368D01*
Y67431D01*
X206768D01*
X117700Y50700D02*
X118100D01*
X118500Y51100D01*
X118900Y50700D01*
X119300D01*
Y51100D01*
X118900Y51500D01*
X119300Y51900D01*
Y52300D01*
X118900D01*
X118500Y51900D01*
X118100Y52300D01*
X117700D01*
Y51900D01*
X118100Y51500D01*
X117700Y51100D01*
Y50700D01*
X159840Y68840D02*
Y68440D01*
X160640D01*
Y68840D01*
X161040D01*
Y69640D01*
X160640D01*
Y70040D01*
X159840D01*
Y69640D01*
X159440D01*
Y68840D01*
X159840D01*
X183100Y145100D02*
Y144700D01*
X183900D01*
Y145100D01*
X184300D01*
Y145900D01*
X183900D01*
Y146300D01*
X183100D01*
Y145900D01*
X182700D01*
Y145100D01*
X183100D01*
X195173Y188100D02*
Y187700D01*
X195973D01*
Y188100D01*
X196373D01*
Y188900D01*
X195973D01*
Y189300D01*
X195173D01*
Y188900D01*
X194773D01*
Y188100D01*
X195173D01*
X184100Y113100D02*
Y112700D01*
X184900D01*
Y113100D01*
X185300D01*
Y113900D01*
X184900D01*
Y114300D01*
X184100D01*
Y113900D01*
X183700D01*
Y113100D01*
X184100D01*
X188100Y120100D02*
Y119700D01*
X188900D01*
Y120100D01*
X189300D01*
Y120900D01*
X188900D01*
Y121300D01*
X188100D01*
Y120900D01*
X187700D01*
Y120100D01*
X188100D01*
X238100Y90100D02*
Y89700D01*
X238900D01*
Y90100D01*
X239300D01*
Y90900D01*
X238900D01*
Y91300D01*
X238100D01*
Y90900D01*
X237700D01*
Y90100D01*
X238100D01*
X232100Y89100D02*
Y88700D01*
X232900D01*
Y89100D01*
X233300D01*
Y89900D01*
X232900D01*
Y90300D01*
X232100D01*
Y89900D01*
X231700D01*
Y89100D01*
X232100D01*
X240100Y99100D02*
Y98700D01*
X240900D01*
Y99100D01*
X241300D01*
Y99900D01*
X240900D01*
Y100300D01*
X240100D01*
Y99900D01*
X239700D01*
Y99100D01*
X240100D01*
Y105100D02*
Y104700D01*
X240900D01*
Y105100D01*
X241300D01*
Y105900D01*
X240900D01*
Y106300D01*
X240100D01*
Y105900D01*
X239700D01*
Y105100D01*
X240100D01*
X236100Y108100D02*
Y107700D01*
X236900D01*
Y108100D01*
X237300D01*
Y108900D01*
X236900D01*
Y109300D01*
X236100D01*
Y108900D01*
X235700D01*
Y108100D01*
X236100D01*
X232100D02*
Y107700D01*
X232900D01*
Y108100D01*
X233300D01*
Y108900D01*
X232900D01*
Y109300D01*
X232100D01*
Y108900D01*
X231700D01*
Y108100D01*
X232100D01*
X219100Y89100D02*
Y88700D01*
X219900D01*
Y89100D01*
X220300D01*
Y89900D01*
X219900D01*
Y90300D01*
X219100D01*
Y89900D01*
X218700D01*
Y89100D01*
X219100D01*
X214100Y92100D02*
Y91700D01*
X214900D01*
Y92100D01*
X215300D01*
Y92900D01*
X214900D01*
Y93300D01*
X214100D01*
Y92900D01*
X213700D01*
Y92100D01*
X214100D01*
X213100Y98100D02*
Y97700D01*
X213900D01*
Y98100D01*
X214300D01*
Y98900D01*
X213900D01*
Y99300D01*
X213100D01*
Y98900D01*
X212700D01*
Y98100D01*
X213100D01*
Y104100D02*
Y103700D01*
X213900D01*
Y104100D01*
X214300D01*
Y104900D01*
X213900D01*
Y105300D01*
X213100D01*
Y104900D01*
X212700D01*
Y104100D01*
X213100D01*
X217100Y108100D02*
Y107700D01*
X217900D01*
Y108100D01*
X218300D01*
Y108900D01*
X217900D01*
Y109300D01*
X217100D01*
Y108900D01*
X216700D01*
Y108100D01*
X217100D01*
X223100D02*
Y107700D01*
X223900D01*
Y108100D01*
X224300D01*
Y108900D01*
X223900D01*
Y109300D01*
X223100D01*
Y108900D01*
X222700D01*
Y108100D01*
X223100D01*
X185100Y214100D02*
Y213700D01*
X185900D01*
Y214100D01*
X186300D01*
Y214900D01*
X185900D01*
Y215300D01*
X185100D01*
Y214900D01*
X184700D01*
Y214100D01*
X185100D01*
X136100Y169100D02*
Y168700D01*
X136900D01*
Y169100D01*
X137300D01*
Y169900D01*
X136900D01*
Y170300D01*
X136100D01*
Y169900D01*
X135700D01*
Y169100D01*
X136100D01*
X127100Y217100D02*
Y216700D01*
X127900D01*
Y217100D01*
X128300D01*
Y217900D01*
X127900D01*
Y218300D01*
X127100D01*
Y217900D01*
X126700D01*
Y217100D01*
X127100D01*
X144700Y234700D02*
X145100D01*
X145500Y235100D01*
X145900Y234700D01*
X146300D01*
Y235100D01*
X145900Y235500D01*
X146300Y235900D01*
Y236300D01*
X145900D01*
X145500Y235900D01*
X145100Y236300D01*
X144700D01*
Y235900D01*
X145100Y235500D01*
X144700Y235100D01*
Y234700D01*
X171700Y210700D02*
X172100D01*
X172500Y211100D01*
X172900Y210700D01*
X173300D01*
Y211100D01*
X172900Y211500D01*
X173300Y211900D01*
Y212300D01*
X172900D01*
X172500Y211900D01*
X172100Y212300D01*
X171700D01*
Y211900D01*
X172100Y211500D01*
X171700Y211100D01*
Y210700D01*
X108100Y126100D02*
Y125700D01*
X108900D01*
Y126100D01*
X109300D01*
Y126900D01*
X108900D01*
Y127300D01*
X108100D01*
Y126900D01*
X107700D01*
Y126100D01*
X108100D01*
X113100Y122100D02*
Y121700D01*
X113900D01*
Y122100D01*
X114300D01*
Y122900D01*
X113900D01*
Y123300D01*
X113100D01*
Y122900D01*
X112700D01*
Y122100D01*
X113100D01*
X94877Y109600D02*
Y109200D01*
X95677D01*
Y109600D01*
X96077D01*
Y110400D01*
X95677D01*
Y110800D01*
X94877D01*
Y110400D01*
X94477D01*
Y109600D01*
X94877D01*
X81100Y107100D02*
Y106700D01*
X81900D01*
Y107100D01*
X82300D01*
Y107900D01*
X81900D01*
Y108300D01*
X81100D01*
Y107900D01*
X80700D01*
Y107100D01*
X81100D01*
Y109600D02*
Y109200D01*
X81900D01*
Y109600D01*
X82300D01*
Y110400D01*
X81900D01*
Y110800D01*
X81100D01*
Y110400D01*
X80700D01*
Y109600D01*
X81100D01*
X128100Y165100D02*
Y164700D01*
X128900D01*
Y165100D01*
X129300D01*
Y165900D01*
X128900D01*
Y166300D01*
X128100D01*
Y165900D01*
X127700D01*
Y165100D01*
X128100D01*
X188100Y202100D02*
Y201700D01*
X188900D01*
Y202100D01*
X189300D01*
Y202900D01*
X188900D01*
Y203300D01*
X188100D01*
Y202900D01*
X187700D01*
Y202100D01*
X188100D01*
X153100Y201100D02*
Y200700D01*
X153900D01*
Y201100D01*
X154300D01*
Y201900D01*
X153900D01*
Y202300D01*
X153100D01*
Y201900D01*
X152700D01*
Y201100D01*
X153100D01*
X64823Y189100D02*
Y188700D01*
X65623D01*
Y189100D01*
X66023D01*
Y189900D01*
X65623D01*
Y190300D01*
X64823D01*
Y189900D01*
X64423D01*
Y189100D01*
X64823D01*
X67323D02*
Y188700D01*
X68123D01*
Y189100D01*
X68523D01*
Y189900D01*
X68123D01*
Y190300D01*
X67323D01*
Y189900D01*
X66923D01*
Y189100D01*
X67323D01*
X182100Y194100D02*
Y193700D01*
X182900D01*
Y194100D01*
X183300D01*
Y194900D01*
X182900D01*
Y195300D01*
X182100D01*
Y194900D01*
X181700D01*
Y194100D01*
X182100D01*
Y204100D02*
Y203700D01*
X182900D01*
Y204100D01*
X183300D01*
Y204900D01*
X182900D01*
Y205300D01*
X182100D01*
Y204900D01*
X181700D01*
Y204100D01*
X182100D01*
X108100Y182100D02*
Y181700D01*
X108900D01*
Y182100D01*
X109300D01*
Y182900D01*
X108900D01*
Y183300D01*
X108100D01*
Y182900D01*
X107700D01*
Y182100D01*
X108100D01*
X113100Y184600D02*
Y184200D01*
X113900D01*
Y184600D01*
X114300D01*
Y185400D01*
X113900D01*
Y185800D01*
X113100D01*
Y185400D01*
X112700D01*
Y184600D01*
X113100D01*
X188100Y174100D02*
Y173700D01*
X188900D01*
Y174100D01*
X189300D01*
Y174900D01*
X188900D01*
Y175300D01*
X188100D01*
Y174900D01*
X187700D01*
Y174100D01*
X188100D01*
X180100Y184100D02*
Y183700D01*
X180900D01*
Y184100D01*
X181300D01*
Y184900D01*
X180900D01*
Y185300D01*
X180100D01*
Y184900D01*
X179700D01*
Y184100D01*
X180100D01*
X158100D02*
Y183700D01*
X158900D01*
Y184100D01*
X159300D01*
Y184900D01*
X158900D01*
Y185300D01*
X158100D01*
Y184900D01*
X157700D01*
Y184100D01*
X158100D01*
Y194100D02*
Y193700D01*
X158900D01*
Y194100D01*
X159300D01*
Y194900D01*
X158900D01*
Y195300D01*
X158100D01*
Y194900D01*
X157700D01*
Y194100D01*
X158100D01*
X100100Y130100D02*
Y129700D01*
X100900D01*
Y130100D01*
X101300D01*
Y130900D01*
X100900D01*
Y131300D01*
X100100D01*
Y130900D01*
X99700D01*
Y130100D01*
X100100D01*
X98100Y148100D02*
Y147700D01*
X98900D01*
Y148100D01*
X99300D01*
Y148900D01*
X98900D01*
Y149300D01*
X98100D01*
Y148900D01*
X97700D01*
Y148100D01*
X98100D01*
X94100Y151100D02*
Y150700D01*
X94900D01*
Y151100D01*
X95300D01*
Y151900D01*
X94900D01*
Y152300D01*
X94100D01*
Y151900D01*
X93700D01*
Y151100D01*
X94100D01*
X111100Y182100D02*
Y181700D01*
X111900D01*
Y182100D01*
X112300D01*
Y182900D01*
X111900D01*
Y183300D01*
X111100D01*
Y182900D01*
X110700D01*
Y182100D01*
X111100D01*
X91100Y158100D02*
Y157700D01*
X91900D01*
Y158100D01*
X92300D01*
Y158900D01*
X91900D01*
Y159300D01*
X91100D01*
Y158900D01*
X90700D01*
Y158100D01*
X91100D01*
X94877Y161767D02*
Y161367D01*
X95677D01*
Y161767D01*
X96077D01*
Y162567D01*
X95677D01*
Y162967D01*
X94877D01*
Y162567D01*
X94477D01*
Y161767D01*
X94877D01*
Y164267D02*
Y163867D01*
X95677D01*
Y164267D01*
X96077D01*
Y165067D01*
X95677D01*
Y165467D01*
X94877D01*
Y165067D01*
X94477D01*
Y164267D01*
X94877D01*
X77100Y185100D02*
Y184700D01*
X77900D01*
Y185100D01*
X78300D01*
Y185900D01*
X77900D01*
Y186300D01*
X77100D01*
Y185900D01*
X76700D01*
Y185100D01*
X77100D01*
X81100Y191600D02*
Y191200D01*
X81900D01*
Y191600D01*
X82300D01*
Y192400D01*
X81900D01*
Y192800D01*
X81100D01*
Y192400D01*
X80700D01*
Y191600D01*
X81100D01*
X78600Y189100D02*
Y188700D01*
X79400D01*
Y189100D01*
X79800D01*
Y189900D01*
X79400D01*
Y190300D01*
X78600D01*
Y189900D01*
X78200D01*
Y189100D01*
X78600D01*
X94877Y191600D02*
Y191200D01*
X95677D01*
Y191600D01*
X96077D01*
Y192400D01*
X95677D01*
Y192800D01*
X94877D01*
Y192400D01*
X94477D01*
Y191600D01*
X94877D01*
X92377Y189100D02*
Y188700D01*
X93177D01*
Y189100D01*
X93577D01*
Y189900D01*
X93177D01*
Y190300D01*
X92377D01*
Y189900D01*
X91977D01*
Y189100D01*
X92377D01*
X91100Y185100D02*
Y184700D01*
X91900D01*
Y185100D01*
X92300D01*
Y185900D01*
X91900D01*
Y186300D01*
X91100D01*
Y185900D01*
X90700D01*
Y185100D01*
X91100D01*
X81100Y189100D02*
Y188700D01*
X81900D01*
Y189100D01*
X82300D01*
Y189900D01*
X81900D01*
Y190300D01*
X81100D01*
Y189900D01*
X80700D01*
Y189100D01*
X81100D01*
X94877D02*
Y188700D01*
X95677D01*
Y189100D01*
X96077D01*
Y189900D01*
X95677D01*
Y190300D01*
X94877D01*
Y189900D01*
X94477D01*
Y189100D01*
X94877D01*
X67323Y191600D02*
Y191200D01*
X68123D01*
Y191600D01*
X68523D01*
Y192400D01*
X68123D01*
Y192800D01*
X67323D01*
Y192400D01*
X66923D01*
Y191600D01*
X67323D01*
X63100Y158100D02*
Y157700D01*
X63900D01*
Y158100D01*
X64300D01*
Y158900D01*
X63900D01*
Y159300D01*
X63100D01*
Y158900D01*
X62700D01*
Y158100D01*
X63100D01*
Y185100D02*
Y184700D01*
X63900D01*
Y185100D01*
X64300D01*
Y185900D01*
X63900D01*
Y186300D01*
X63100D01*
Y185900D01*
X62700D01*
Y185100D01*
X63100D01*
X90100Y103100D02*
Y102700D01*
X90900D01*
Y103100D01*
X91300D01*
Y103900D01*
X90900D01*
Y104300D01*
X90100D01*
Y103900D01*
X89700D01*
Y103100D01*
X90100D01*
X64100D02*
Y102700D01*
X64900D01*
Y103100D01*
X65300D01*
Y103900D01*
X64900D01*
Y104300D01*
X64100D01*
Y103900D01*
X63700D01*
Y103100D01*
X64100D01*
X77100D02*
Y102700D01*
X77900D01*
Y103100D01*
X78300D01*
Y103900D01*
X77900D01*
Y104300D01*
X77100D01*
Y103900D01*
X76700D01*
Y103100D01*
X77100D01*
Y158100D02*
Y157700D01*
X77900D01*
Y158100D01*
X78300D01*
Y158900D01*
X77900D01*
Y159300D01*
X77100D01*
Y158900D01*
X76700D01*
Y158100D01*
X77100D01*
X91100Y131100D02*
Y130700D01*
X91900D01*
Y131100D01*
X92300D01*
Y131900D01*
X91900D01*
Y132300D01*
X91100D01*
Y131900D01*
X90700D01*
Y131100D01*
X91100D01*
X77100D02*
Y130700D01*
X77900D01*
Y131100D01*
X78300D01*
Y131900D01*
X77900D01*
Y132300D01*
X77100D01*
Y131900D01*
X76700D01*
Y131100D01*
X77100D01*
X63100D02*
Y130700D01*
X63900D01*
Y131100D01*
X64300D01*
Y131900D01*
X63900D01*
Y132300D01*
X63100D01*
Y131900D01*
X62700D01*
Y131100D01*
X63100D01*
X113100Y187600D02*
Y187200D01*
X113900D01*
Y187600D01*
X114300D01*
Y188400D01*
X113900D01*
Y188800D01*
X113100D01*
Y188400D01*
X112700D01*
Y187600D01*
X113100D01*
X319100Y145100D02*
Y144700D01*
X319900D01*
Y145100D01*
X320300D01*
Y145900D01*
X319900D01*
Y146300D01*
X319100D01*
Y145900D01*
X318700D01*
Y145100D01*
X319100D01*
X267100Y131100D02*
Y130700D01*
X267900D01*
Y131100D01*
X268300D01*
Y131900D01*
X267900D01*
Y132300D01*
X267100D01*
Y131900D01*
X266700D01*
Y131100D01*
X267100D01*
X306100Y225100D02*
Y224700D01*
X306900D01*
Y225100D01*
X307300D01*
Y225900D01*
X306900D01*
Y226300D01*
X306100D01*
Y225900D01*
X305700D01*
Y225100D01*
X306100D01*
X332100Y176100D02*
Y175700D01*
X332900D01*
Y176100D01*
X333300D01*
Y176900D01*
X332900D01*
Y177300D01*
X332100D01*
Y176900D01*
X331700D01*
Y176100D01*
X332100D01*
X298100Y234100D02*
Y233700D01*
X298900D01*
Y234100D01*
X299300D01*
Y234900D01*
X298900D01*
Y235300D01*
X298100D01*
Y234900D01*
X297700D01*
Y234100D01*
X298100D01*
X258100D02*
Y233700D01*
X258900D01*
Y234100D01*
X259300D01*
Y234900D01*
X258900D01*
Y235300D01*
X258100D01*
Y234900D01*
X257700D01*
Y234100D01*
X258100D01*
X202100Y221100D02*
Y220700D01*
X202900D01*
Y221100D01*
X203300D01*
Y221900D01*
X202900D01*
Y222300D01*
X202100D01*
Y221900D01*
X201700D01*
Y221100D01*
X202100D01*
X198100Y226100D02*
Y225700D01*
X198900D01*
Y226100D01*
X199300D01*
Y226900D01*
X198900D01*
Y227300D01*
X198100D01*
Y226900D01*
X197700D01*
Y226100D01*
X198100D01*
X179100Y220100D02*
Y219700D01*
X179900D01*
Y220100D01*
X180300D01*
Y220900D01*
X179900D01*
Y221300D01*
X179100D01*
Y220900D01*
X178700D01*
Y220100D01*
X179100D01*
X200100Y213100D02*
Y212700D01*
X200900D01*
Y213100D01*
X201300D01*
Y213900D01*
X200900D01*
Y214300D01*
X200100D01*
Y213900D01*
X199700D01*
Y213100D01*
X200100D01*
X187100Y209100D02*
Y208700D01*
X187900D01*
Y209100D01*
X188300D01*
Y209900D01*
X187900D01*
Y210300D01*
X187100D01*
Y209900D01*
X186700D01*
Y209100D01*
X187100D01*
X229100Y181100D02*
Y180700D01*
X229900D01*
Y181100D01*
X230300D01*
Y181900D01*
X229900D01*
Y182300D01*
X229100D01*
Y181900D01*
X228700D01*
Y181100D01*
X229100D01*
Y173100D02*
Y172700D01*
X229900D01*
Y173100D01*
X230300D01*
Y173900D01*
X229900D01*
Y174300D01*
X229100D01*
Y173900D01*
X228700D01*
Y173100D01*
X229100D01*
X205100Y199100D02*
Y198700D01*
X205900D01*
Y199100D01*
X206300D01*
Y199900D01*
X205900D01*
Y200300D01*
X205100D01*
Y199900D01*
X204700D01*
Y199100D01*
X205100D01*
X237100Y184100D02*
Y183700D01*
X237900D01*
Y184100D01*
X238300D01*
Y184900D01*
X237900D01*
Y185300D01*
X237100D01*
Y184900D01*
X236700D01*
Y184100D01*
X237100D01*
X296100Y210100D02*
Y209700D01*
X296900D01*
Y210100D01*
X297300D01*
Y210900D01*
X296900D01*
Y211300D01*
X296100D01*
Y210900D01*
X295700D01*
Y210100D01*
X296100D01*
X288100D02*
Y209700D01*
X288900D01*
Y210100D01*
X289300D01*
Y210900D01*
X288900D01*
Y211300D01*
X288100D01*
Y210900D01*
X287700D01*
Y210100D01*
X288100D01*
X280100Y210100D02*
Y209700D01*
X280900D01*
Y210100D01*
X281300D01*
Y210900D01*
X280900D01*
Y211300D01*
X280100D01*
Y210900D01*
X279700D01*
Y210100D01*
X280100D01*
X272100Y210100D02*
Y209700D01*
X272900D01*
Y210100D01*
X273300D01*
Y210900D01*
X272900D01*
Y211300D01*
X272100D01*
Y210900D01*
X271700D01*
Y210100D01*
X272100D01*
X145100Y215100D02*
Y214700D01*
X145900D01*
Y215100D01*
X146300D01*
Y215900D01*
X145900D01*
Y216300D01*
X145100D01*
Y215900D01*
X144700D01*
Y215100D01*
X145100D01*
X149100D02*
Y214700D01*
X149900D01*
Y215100D01*
X150300D01*
Y215900D01*
X149900D01*
Y216300D01*
X149100D01*
Y215900D01*
X148700D01*
Y215100D01*
X149100D01*
X141100D02*
Y214700D01*
X141900D01*
Y215100D01*
X142300D01*
Y215900D01*
X141900D01*
Y216300D01*
X141100D01*
Y215900D01*
X140700D01*
Y215100D01*
X141100D01*
X137100D02*
Y214700D01*
X137900D01*
Y215100D01*
X138300D01*
Y215900D01*
X137900D01*
Y216300D01*
X137100D01*
Y215900D01*
X136700D01*
Y215100D01*
X137100D01*
X246100Y123100D02*
Y122700D01*
X246900D01*
Y123100D01*
X247300D01*
Y123900D01*
X246900D01*
Y124300D01*
X246100D01*
Y123900D01*
X245700D01*
Y123100D01*
X246100D01*
X239100D02*
Y122700D01*
X239900D01*
Y123100D01*
X240300D01*
Y123900D01*
X239900D01*
Y124300D01*
X239100D01*
Y123900D01*
X238700D01*
Y123100D01*
X239100D01*
X254100Y123100D02*
Y122700D01*
X254900D01*
Y123100D01*
X255300D01*
Y123900D01*
X254900D01*
Y124300D01*
X254100D01*
Y123900D01*
X253700D01*
Y123100D01*
X254100D01*
X206100Y171100D02*
Y170700D01*
X206900D01*
Y171100D01*
X207300D01*
Y171900D01*
X206900D01*
Y172300D01*
X206100D01*
Y171900D01*
X205700D01*
Y171100D01*
X206100D01*
X290100Y167100D02*
Y166700D01*
X290900D01*
Y167100D01*
X291300D01*
Y167900D01*
X290900D01*
Y168300D01*
X290100D01*
Y167900D01*
X289700D01*
Y167100D01*
X290100D01*
X289100Y173100D02*
Y172700D01*
X289900D01*
Y173100D01*
X290300D01*
Y173900D01*
X289900D01*
Y174300D01*
X289100D01*
Y173900D01*
X288700D01*
Y173100D01*
X289100D01*
X283100Y121600D02*
Y121200D01*
X283900D01*
Y121600D01*
X284300D01*
Y122400D01*
X283900D01*
Y122800D01*
X283100D01*
Y122400D01*
X282700D01*
Y121600D01*
X283100D01*
X294100Y159100D02*
Y158700D01*
X294900D01*
Y159100D01*
X295300D01*
Y159900D01*
X294900D01*
Y160300D01*
X294100D01*
Y159900D01*
X293700D01*
Y159100D01*
X294100D01*
X237100Y176100D02*
Y175700D01*
X237900D01*
Y176100D01*
X238300D01*
Y176900D01*
X237900D01*
Y177300D01*
X237100D01*
Y176900D01*
X236700D01*
Y176100D01*
X237100D01*
X145840Y68360D02*
Y67960D01*
X146640D01*
Y68360D01*
X147040D01*
Y69160D01*
X146640D01*
Y69560D01*
X145840D01*
Y69160D01*
X145440D01*
Y68360D01*
X145840D01*
X131840Y68840D02*
Y68440D01*
X132640D01*
Y68840D01*
X133040D01*
Y69640D01*
X132640D01*
Y70040D01*
X131840D01*
Y69640D01*
X131440D01*
Y68840D01*
X131840D01*
X145150Y86250D02*
X145550D01*
X145950Y86650D01*
X146350Y86250D01*
X146750D01*
Y86650D01*
X146350Y87050D01*
X146750Y87450D01*
Y87850D01*
X146350D01*
X145950Y87450D01*
X145550Y87850D01*
X145150D01*
Y87450D01*
X145550Y87050D01*
X145150Y86650D01*
Y86250D01*
X131100Y35884D02*
Y35484D01*
X131900D01*
Y35884D01*
X132300D01*
Y36684D01*
X131900D01*
Y37084D01*
X131100D01*
Y36684D01*
X130700D01*
Y35884D01*
X131100D01*
X125100D02*
Y35484D01*
X125900D01*
Y35884D01*
X126300D01*
Y36684D01*
X125900D01*
Y37084D01*
X125100D01*
Y36684D01*
X124700D01*
Y35884D01*
X125100D01*
X128242D02*
Y35484D01*
X129042D01*
Y35884D01*
X129442D01*
Y36684D01*
X129042D01*
Y37084D01*
X128242D01*
Y36684D01*
X127842D01*
Y35884D01*
X128242D01*
X195700Y29700D02*
X196100D01*
X196500Y30100D01*
X196900Y29700D01*
X197300D01*
Y30100D01*
X196900Y30500D01*
X197300Y30900D01*
Y31300D01*
X196900D01*
X196500Y30900D01*
X196100Y31300D01*
X195700D01*
Y30900D01*
X196100Y30500D01*
X195700Y30100D01*
Y29700D01*
X186100Y27100D02*
Y26700D01*
X186900D01*
Y27100D01*
X187300D01*
Y27900D01*
X186900D01*
Y28300D01*
X186100D01*
Y27900D01*
X185700D01*
Y27100D01*
X186100D01*
X176100D02*
Y26700D01*
X176900D01*
Y27100D01*
X177300D01*
Y27900D01*
X176900D01*
Y28300D01*
X176100D01*
Y27900D01*
X175700D01*
Y27100D01*
X176100D01*
X166100D02*
Y26700D01*
X166900D01*
Y27100D01*
X167300D01*
Y27900D01*
X166900D01*
Y28300D01*
X166100D01*
Y27900D01*
X165700D01*
Y27100D01*
X166100D01*
X156100Y27625D02*
Y27225D01*
X156900D01*
Y27625D01*
X157300D01*
Y28425D01*
X156900D01*
Y28825D01*
X156100D01*
Y28425D01*
X155700D01*
Y27625D01*
X156100D01*
X146100Y27650D02*
Y27250D01*
X146900D01*
Y27650D01*
X147300D01*
Y28450D01*
X146900D01*
Y28850D01*
X146100D01*
Y28450D01*
X145700D01*
Y27650D01*
X146100D01*
X225700Y225700D02*
X226100D01*
X226500Y226100D01*
X226900Y225700D01*
X227300D01*
Y226100D01*
X226900Y226500D01*
X227300Y226900D01*
Y227300D01*
X226900D01*
X226500Y226900D01*
X226100Y227300D01*
X225700D01*
Y226900D01*
X226100Y226500D01*
X225700Y226100D01*
Y225700D01*
X54100Y91100D02*
Y90700D01*
X54900D01*
Y91100D01*
X55300D01*
Y91900D01*
X54900D01*
Y92300D01*
X54100D01*
Y91900D01*
X53700D01*
Y91100D01*
X54100D01*
X53100Y86100D02*
Y85700D01*
X53900D01*
Y86100D01*
X54300D01*
Y86900D01*
X53900D01*
Y87300D01*
X53100D01*
Y86900D01*
X52700D01*
Y86100D01*
X53100D01*
X56100Y83100D02*
Y82700D01*
X56900D01*
Y83100D01*
X57300D01*
Y83900D01*
X56900D01*
Y84300D01*
X56100D01*
Y83900D01*
X55700D01*
Y83100D01*
X56100D01*
X59100Y85100D02*
Y84700D01*
X59900D01*
Y85100D01*
X60300D01*
Y85900D01*
X59900D01*
Y86300D01*
X59100D01*
Y85900D01*
X58700D01*
Y85100D01*
X59100D01*
X51100Y89100D02*
Y88700D01*
X51900D01*
Y89100D01*
X52300D01*
Y89900D01*
X51900D01*
Y90300D01*
X51100D01*
Y89900D01*
X50700D01*
Y89100D01*
X51100D01*
X324100Y207559D02*
Y207159D01*
X324900D01*
Y207559D01*
X325300D01*
Y208360D01*
X324900D01*
Y208759D01*
X324100D01*
Y208360D01*
X323700D01*
Y207559D01*
X324100D01*
X91100Y50100D02*
Y49700D01*
X91900D01*
Y50100D01*
X92300D01*
Y50900D01*
X91900D01*
Y51300D01*
X91100D01*
Y50900D01*
X90700D01*
Y50100D01*
X91100D01*
X272100Y121100D02*
Y120700D01*
X272900D01*
Y121100D01*
X273300D01*
Y121900D01*
X272900D01*
Y122300D01*
X272100D01*
Y121900D01*
X271700D01*
Y121100D01*
X272100D01*
X274350Y103100D02*
Y102700D01*
X275150D01*
Y103100D01*
X275550D01*
Y103900D01*
X275150D01*
Y104300D01*
X274350D01*
Y103900D01*
X273950D01*
Y103100D01*
X274350D01*
X270100Y103600D02*
Y103200D01*
X270900D01*
Y103600D01*
X271300D01*
Y104400D01*
X270900D01*
Y104800D01*
X270100D01*
Y104400D01*
X269700D01*
Y103600D01*
X270100D01*
X267600Y107332D02*
Y106932D01*
X268400D01*
Y107332D01*
X268800D01*
Y108132D01*
X268400D01*
Y108532D01*
X267600D01*
Y108132D01*
X267200D01*
Y107332D01*
X267600D01*
X292100Y110100D02*
Y109700D01*
X292900D01*
Y110100D01*
X293300D01*
Y110900D01*
X292900D01*
Y111300D01*
X292100D01*
Y110900D01*
X291700D01*
Y110100D01*
X292100D01*
Y115100D02*
Y114700D01*
X292900D01*
Y115100D01*
X293300D01*
Y115900D01*
X292900D01*
Y116300D01*
X292100D01*
Y115900D01*
X291700D01*
Y115100D01*
X292100D01*
X291600Y119600D02*
Y119200D01*
X292400D01*
Y119600D01*
X292800D01*
Y120400D01*
X292400D01*
Y120800D01*
X291600D01*
Y120400D01*
X291200D01*
Y119600D01*
X291600D01*
X288100Y121600D02*
Y121200D01*
X288900D01*
Y121600D01*
X289300D01*
Y122400D01*
X288900D01*
Y122800D01*
X288100D01*
Y122400D01*
X287700D01*
Y121600D01*
X288100D01*
X267600Y113323D02*
Y112923D01*
X268400D01*
Y113323D01*
X268800D01*
Y114123D01*
X268400D01*
Y114523D01*
X267600D01*
Y114123D01*
X267200D01*
Y113323D01*
X267600D01*
X268100Y119100D02*
Y118700D01*
X268900D01*
Y119100D01*
X269300D01*
Y119900D01*
X268900D01*
Y120300D01*
X268100D01*
Y119900D01*
X267700D01*
Y119100D01*
X268100D01*
X276600Y121600D02*
Y121200D01*
X277400D01*
Y121600D01*
X277800D01*
Y122400D01*
X277400D01*
Y122800D01*
X276600D01*
Y122400D01*
X276200D01*
Y121600D01*
X276600D01*
X53000Y221700D02*
Y221300D01*
X53800D01*
Y221700D01*
X54200D01*
Y222500D01*
X53800D01*
Y222900D01*
X53000D01*
Y222500D01*
X52600D01*
Y221700D01*
X53000D01*
X56000D02*
Y221300D01*
X56800D01*
Y221700D01*
X57200D01*
Y222500D01*
X56800D01*
Y222900D01*
X56000D01*
Y222500D01*
X55600D01*
Y221700D01*
X56000D01*
X53000Y218700D02*
Y218300D01*
X53800D01*
Y218700D01*
X54200D01*
Y219500D01*
X53800D01*
Y219900D01*
X53000D01*
Y219500D01*
X52600D01*
Y218700D01*
X53000D01*
X56000D02*
Y218300D01*
X56800D01*
Y218700D01*
X57200D01*
Y219500D01*
X56800D01*
Y219900D01*
X56000D01*
Y219500D01*
X55600D01*
Y218700D01*
X56000D01*
X92377Y161767D02*
Y161367D01*
X93177D01*
Y161767D01*
X93577D01*
Y162567D01*
X93177D01*
Y162967D01*
X92377D01*
Y162567D01*
X91977D01*
Y161767D01*
X92377D01*
X94877Y134433D02*
Y134033D01*
X95677D01*
Y134433D01*
X96077D01*
Y135233D01*
X95677D01*
Y135633D01*
X94877D01*
Y135233D01*
X94477D01*
Y134433D01*
X94877D01*
X92377D02*
Y134033D01*
X93177D01*
Y134433D01*
X93577D01*
Y135233D01*
X93177D01*
Y135633D01*
X92377D01*
Y135233D01*
X91977D01*
Y134433D01*
X92377D01*
X94877Y136933D02*
Y136533D01*
X95677D01*
Y136933D01*
X96077D01*
Y137733D01*
X95677D01*
Y138133D01*
X94877D01*
Y137733D01*
X94477D01*
Y136933D01*
X94877D01*
X94877Y107100D02*
Y106700D01*
X95677D01*
Y107100D01*
X96077D01*
Y107900D01*
X95677D01*
Y108300D01*
X94877D01*
Y107900D01*
X94477D01*
Y107100D01*
X94877D01*
X92377D02*
Y106700D01*
X93177D01*
Y107100D01*
X93577D01*
Y107900D01*
X93177D01*
Y108300D01*
X92377D01*
Y107900D01*
X91977D01*
Y107100D01*
X92377D01*
X67323D02*
Y106700D01*
X68123D01*
Y107100D01*
X68523D01*
Y107900D01*
X68123D01*
Y108300D01*
X67323D01*
Y107900D01*
X66923D01*
Y107100D01*
X67323D01*
X64823D02*
Y106700D01*
X65623D01*
Y107100D01*
X66023D01*
Y107900D01*
X65623D01*
Y108300D01*
X64823D01*
Y107900D01*
X64423D01*
Y107100D01*
X64823D01*
X67323Y109600D02*
Y109200D01*
X68123D01*
Y109600D01*
X68523D01*
Y110400D01*
X68123D01*
Y110800D01*
X67323D01*
Y110400D01*
X66923D01*
Y109600D01*
X67323D01*
X67323Y134433D02*
Y134033D01*
X68123D01*
Y134433D01*
X68523D01*
Y135233D01*
X68123D01*
Y135633D01*
X67323D01*
Y135233D01*
X66923D01*
Y134433D01*
X67323D01*
X64823D02*
Y134033D01*
X65623D01*
Y134433D01*
X66023D01*
Y135233D01*
X65623D01*
Y135633D01*
X64823D01*
Y135233D01*
X64423D01*
Y134433D01*
X64823D01*
X67323Y136933D02*
Y136533D01*
X68123D01*
Y136933D01*
X68523D01*
Y137733D01*
X68123D01*
Y138133D01*
X67323D01*
Y137733D01*
X66923D01*
Y136933D01*
X67323D01*
Y161767D02*
Y161367D01*
X68123D01*
Y161767D01*
X68523D01*
Y162567D01*
X68123D01*
Y162967D01*
X67323D01*
Y162567D01*
X66923D01*
Y161767D01*
X67323D01*
X64823D02*
Y161367D01*
X65623D01*
Y161767D01*
X66023D01*
Y162567D01*
X65623D01*
Y162967D01*
X64823D01*
Y162567D01*
X64423D01*
Y161767D01*
X64823D01*
X67323Y164267D02*
Y163867D01*
X68123D01*
Y164267D01*
X68523D01*
Y165067D01*
X68123D01*
Y165467D01*
X67323D01*
Y165067D01*
X66923D01*
Y164267D01*
X67323D01*
X78600Y107100D02*
Y106700D01*
X79400D01*
Y107100D01*
X79800D01*
Y107900D01*
X79400D01*
Y108300D01*
X78600D01*
Y107900D01*
X78200D01*
Y107100D01*
X78600D01*
X81100Y134433D02*
Y134033D01*
X81900D01*
Y134433D01*
X82300D01*
Y135233D01*
X81900D01*
Y135633D01*
X81100D01*
Y135233D01*
X80700D01*
Y134433D01*
X81100D01*
X78600D02*
Y134033D01*
X79400D01*
Y134433D01*
X79800D01*
Y135233D01*
X79400D01*
Y135633D01*
X78600D01*
Y135233D01*
X78200D01*
Y134433D01*
X78600D01*
X81100Y136933D02*
Y136533D01*
X81900D01*
Y136933D01*
X82300D01*
Y137733D01*
X81900D01*
Y138133D01*
X81100D01*
Y137733D01*
X80700D01*
Y136933D01*
X81100D01*
X81100Y161767D02*
Y161367D01*
X81900D01*
Y161767D01*
X82300D01*
Y162567D01*
X81900D01*
Y162967D01*
X81100D01*
Y162567D01*
X80700D01*
Y161767D01*
X81100D01*
X78600D02*
Y161367D01*
X79400D01*
Y161767D01*
X79800D01*
Y162567D01*
X79400D01*
Y162967D01*
X78600D01*
Y162567D01*
X78200D01*
Y161767D01*
X78600D01*
X81100Y164267D02*
Y163867D01*
X81900D01*
Y164267D01*
X82300D01*
Y165067D01*
X81900D01*
Y165467D01*
X81100D01*
Y165067D01*
X80700D01*
Y164267D01*
X81100D01*
X251100Y45200D02*
Y44800D01*
X251900D01*
Y45200D01*
X252300D01*
Y46000D01*
X251900D01*
Y46400D01*
X251100D01*
Y46000D01*
X250700D01*
Y45200D01*
X251100D01*
Y80100D02*
Y79700D01*
X251900D01*
Y80100D01*
X252300D01*
Y80900D01*
X251900D01*
Y81300D01*
X251100D01*
Y80900D01*
X250700D01*
Y80100D01*
X251100D01*
X37100Y72100D02*
Y71700D01*
X37900D01*
Y72100D01*
X38300D01*
Y72900D01*
X37900D01*
Y73300D01*
X37100D01*
Y72900D01*
X36700D01*
Y72100D01*
X37100D01*
Y68100D02*
Y67700D01*
X37900D01*
Y68100D01*
X38300D01*
Y68900D01*
X37900D01*
Y69300D01*
X37100D01*
Y68900D01*
X36700D01*
Y68100D01*
X37100D01*
Y64100D02*
Y63700D01*
X37900D01*
Y64100D01*
X38300D01*
Y64900D01*
X37900D01*
Y65300D01*
X37100D01*
Y64900D01*
X36700D01*
Y64100D01*
X37100D01*
X49100Y22100D02*
Y21700D01*
X49900D01*
Y22100D01*
X50300D01*
Y22900D01*
X49900D01*
Y23300D01*
X49100D01*
Y22900D01*
X48700D01*
Y22100D01*
X49100D01*
Y26100D02*
Y25700D01*
X49900D01*
Y26100D01*
X50300D01*
Y26900D01*
X49900D01*
Y27300D01*
X49100D01*
Y26900D01*
X48700D01*
Y26100D01*
X49100D01*
Y30100D02*
Y29700D01*
X49900D01*
Y30100D01*
X50300D01*
Y30900D01*
X49900D01*
Y31300D01*
X49100D01*
Y30900D01*
X48700D01*
Y30100D01*
X49100D01*
X59100Y54100D02*
Y53700D01*
X59900D01*
Y54100D01*
X60300D01*
Y54900D01*
X59900D01*
Y55300D01*
X59100D01*
Y54900D01*
X58700D01*
Y54100D01*
X59100D01*
X26059Y246909D02*
X26459Y247709D01*
X26059Y248510D01*
X26859Y248110D01*
X27659Y248510D01*
X27259Y247709D01*
X27659Y246909D01*
X26859Y247309D01*
X26059Y246909D01*
X42020Y240299D02*
X42420Y241099D01*
X42020Y241899D01*
X42820Y241499D01*
X43620Y241899D01*
X43220Y241099D01*
X43620Y240299D01*
X42820Y240699D01*
X42020Y240299D01*
X23319D02*
X23719Y241099D01*
X23319Y241899D01*
X24119Y241499D01*
X24919Y241899D01*
X24519Y241099D01*
X24919Y240299D01*
X24119Y240699D01*
X23319Y240299D01*
X39279Y246909D02*
X39680Y247709D01*
X39279Y248510D01*
X40080Y248110D01*
X40879Y248510D01*
X40479Y247709D01*
X40879Y246909D01*
X40080Y247309D01*
X39279Y246909D01*
X26059Y233689D02*
X26459Y234489D01*
X26059Y235289D01*
X26859Y234889D01*
X27659Y235289D01*
X27259Y234489D01*
X27659Y233689D01*
X26859Y234089D01*
X26059Y233689D01*
X39279D02*
X39680Y234489D01*
X39279Y235289D01*
X40080Y234889D01*
X40879Y235289D01*
X40479Y234489D01*
X40879Y233689D01*
X40080Y234089D01*
X39279Y233689D01*
X32669Y249650D02*
X33069Y250450D01*
X32669Y251250D01*
X33469Y250850D01*
X34269Y251250D01*
X33869Y250450D01*
X34269Y249650D01*
X33469Y250050D01*
X32669Y249650D01*
Y230949D02*
X33069Y231749D01*
X32669Y232549D01*
X33469Y232149D01*
X34269Y232549D01*
X33869Y231749D01*
X34269Y230949D01*
X33469Y231349D01*
X32669Y230949D01*
X26059Y34311D02*
X26459Y35111D01*
X26059Y35911D01*
X26859Y35511D01*
X27659Y35911D01*
X27259Y35111D01*
X27659Y34311D01*
X26859Y34711D01*
X26059Y34311D01*
X42020Y27701D02*
X42420Y28501D01*
X42020Y29301D01*
X42820Y28901D01*
X43620Y29301D01*
X43220Y28501D01*
X43620Y27701D01*
X42820Y28101D01*
X42020Y27701D01*
X23319D02*
X23719Y28501D01*
X23319Y29301D01*
X24119Y28901D01*
X24919Y29301D01*
X24519Y28501D01*
X24919Y27701D01*
X24119Y28101D01*
X23319Y27701D01*
X39279Y34311D02*
X39680Y35111D01*
X39279Y35911D01*
X40080Y35511D01*
X40879Y35911D01*
X40479Y35111D01*
X40879Y34311D01*
X40080Y34711D01*
X39279Y34311D01*
X26059Y21091D02*
X26459Y21891D01*
X26059Y22691D01*
X26859Y22291D01*
X27659Y22691D01*
X27259Y21891D01*
X27659Y21091D01*
X26859Y21491D01*
X26059Y21091D01*
X39279D02*
X39680Y21891D01*
X39279Y22691D01*
X40080Y22291D01*
X40879Y22691D01*
X40479Y21891D01*
X40879Y21091D01*
X40080Y21491D01*
X39279Y21091D01*
X32669Y37051D02*
X33069Y37851D01*
X32669Y38651D01*
X33469Y38251D01*
X34269Y38651D01*
X33869Y37851D01*
X34269Y37051D01*
X33469Y37451D01*
X32669Y37051D01*
Y18350D02*
X33069Y19150D01*
X32669Y19950D01*
X33469Y19550D01*
X34269Y19950D01*
X33869Y19150D01*
X34269Y18350D01*
X33469Y18750D01*
X32669Y18350D01*
X317398Y34311D02*
X317798Y35111D01*
X317398Y35911D01*
X318198Y35511D01*
X318998Y35911D01*
X318598Y35111D01*
X318998Y34311D01*
X318198Y34711D01*
X317398Y34311D01*
X333358Y27701D02*
X333758Y28501D01*
X333358Y29301D01*
X334158Y28901D01*
X334958Y29301D01*
X334558Y28501D01*
X334958Y27701D01*
X334158Y28101D01*
X333358Y27701D01*
X314657D02*
X315057Y28501D01*
X314657Y29301D01*
X315458Y28901D01*
X316258Y29301D01*
X315858Y28501D01*
X316258Y27701D01*
X315458Y28101D01*
X314657Y27701D01*
X330618Y34311D02*
X331018Y35111D01*
X330618Y35911D01*
X331418Y35511D01*
X332218Y35911D01*
X331818Y35111D01*
X332218Y34311D01*
X331418Y34711D01*
X330618Y34311D01*
X317398Y21091D02*
X317798Y21891D01*
X317398Y22691D01*
X318198Y22291D01*
X318998Y22691D01*
X318598Y21891D01*
X318998Y21091D01*
X318198Y21491D01*
X317398Y21091D01*
X330618D02*
X331018Y21891D01*
X330618Y22691D01*
X331418Y22291D01*
X332218Y22691D01*
X331818Y21891D01*
X332218Y21091D01*
X331418Y21491D01*
X330618Y21091D01*
X324008Y37051D02*
X324408Y37851D01*
X324008Y38651D01*
X324808Y38251D01*
X325608Y38651D01*
X325208Y37851D01*
X325608Y37051D01*
X324808Y37451D01*
X324008Y37051D01*
Y18350D02*
X324408Y19150D01*
X324008Y19950D01*
X324808Y19550D01*
X325608Y19950D01*
X325208Y19150D01*
X325608Y18350D01*
X324808Y18750D01*
X324008Y18350D01*
D177*
X114221Y226500D02*
G03*
X114221Y226500I-800J0D01*
G01*
X84300D02*
G03*
X84300Y226500I-800J0D01*
G01*
M02*
