G04*
G04 #@! TF.GenerationSoftware,Altium Limited,Altium Designer,20.0.1 (14)*
G04*
G04 Layer_Physical_Order=3*
G04 Layer_Color=36540*
%FSLAX25Y25*%
%MOIN*%
G70*
G01*
G75*
%ADD10C,0.01000*%
%ADD12C,0.00800*%
%ADD137C,0.02000*%
%ADD138C,0.04000*%
%ADD139C,0.05000*%
%ADD140C,0.01500*%
%ADD144C,0.06000*%
%ADD151R,0.06693X0.06693*%
%ADD153C,0.02400*%
%ADD154C,0.05000*%
%ADD163C,0.08000*%
%ADD164C,0.09000*%
G36*
X65500Y92500D02*
Y84500D01*
X60500Y79500D01*
X57500D01*
X47500Y89500D01*
Y97500D01*
X60500D01*
X65500Y92500D01*
D02*
G37*
D10*
X283000Y122500D02*
G03*
X283500Y122000I500J0D01*
G01*
X90500Y103500D02*
Y112000D01*
X93000Y114500D01*
X99370D01*
X247500Y160500D02*
X258500Y149500D01*
X261500D01*
X146500Y43500D02*
X147500D01*
X155500Y35500D01*
X251500D01*
X259500Y176500D02*
X268500Y167500D01*
X290500D01*
X237500Y176500D02*
X259500D01*
X270500Y206500D02*
X276500D01*
X266500Y210500D02*
X270500Y206500D01*
X253500Y210500D02*
X266500D01*
X247500Y207500D02*
X264500D01*
X235625Y166375D02*
X249500Y152500D01*
X235375Y166375D02*
X235625D01*
X226500Y169500D02*
X255500D01*
X205500Y190500D02*
X226500Y169500D01*
X255500D02*
X265500Y159500D01*
X294500D01*
X205500Y190500D02*
Y199500D01*
X293000Y89000D02*
Y106182D01*
X306500Y119682D01*
Y129500D01*
X270500Y137500D02*
Y141500D01*
X295250Y175750D02*
X314500Y156500D01*
X271250Y175750D02*
X295250D01*
X252500Y194500D02*
X271250Y175750D01*
X243500Y194500D02*
X252500D01*
X288500Y172500D02*
X289500Y173500D01*
X269500Y172500D02*
X288500D01*
X250500Y191500D02*
X269500Y172500D01*
X234500Y191500D02*
X250500D01*
X268500Y170500D02*
X294500D01*
X254500Y184500D02*
X268500Y170500D01*
X237500Y184500D02*
X254500D01*
X193500Y186427D02*
X195573Y188500D01*
X193500Y166318D02*
Y186427D01*
X186682Y159500D02*
X193500Y166318D01*
X188500Y202500D02*
X188559Y202559D01*
X206320D01*
X226500Y182379D01*
X183500Y159500D02*
X186682D01*
X183500Y145500D02*
Y159500D01*
X183121Y165500D02*
X183184Y165437D01*
X200500Y139500D02*
Y171500D01*
X184500Y123500D02*
X200500Y139500D01*
X184500Y113500D02*
Y123500D01*
X203500Y139500D02*
Y176500D01*
X188500Y124500D02*
X203500Y139500D01*
X188500Y120500D02*
Y124500D01*
X206500Y139500D02*
Y171500D01*
X191750Y124750D02*
X206500Y139500D01*
X191750Y111750D02*
Y124750D01*
X170500Y89500D02*
Y101500D01*
X160240Y79240D02*
X170500Y89500D01*
X167500Y90020D02*
Y104500D01*
X164500Y90500D02*
Y107500D01*
X154004Y80004D02*
X164500Y90500D01*
X146240Y68760D02*
X167500Y90020D01*
X190500Y110500D02*
X191750Y111750D01*
X318500Y159500D02*
X324500Y153500D01*
X314500Y159500D02*
X318500D01*
X295500Y178500D02*
X314500Y159500D01*
X276500Y178500D02*
X295500D01*
X258500Y196500D02*
X276500Y178500D01*
X245500Y196500D02*
X258500D01*
X237500Y204500D02*
X245500Y196500D01*
X216500Y204500D02*
X237500D01*
X206500Y214500D02*
X216500Y204500D01*
X236500Y201500D02*
X243500Y194500D01*
X290500Y156500D02*
X295500D01*
X290500Y149500D02*
X294500Y153500D01*
X274500Y149500D02*
X290500D01*
X295500Y156500D02*
X297500Y154500D01*
Y150500D02*
Y154500D01*
X292500Y145500D02*
X297500Y150500D01*
X274500Y145500D02*
X292500D01*
X270500Y141500D02*
X274500Y145500D01*
X128500Y165500D02*
X183121D01*
X269500Y153500D02*
X285500D01*
X287250Y151250D02*
X289500Y153500D01*
X271750Y151250D02*
X287250D01*
X246700Y126200D02*
X271750Y151250D01*
X254500Y129500D02*
X274500Y149500D01*
X246700Y123700D02*
Y126200D01*
X246500Y123500D02*
X246700Y123700D01*
X239500Y123500D02*
X269500Y153500D01*
X253500Y231500D02*
X300500D01*
X306500Y225500D01*
X160240Y69240D02*
Y79240D01*
X108500Y126500D02*
X109500Y127500D01*
Y159500D01*
X99370Y114500D02*
X104500Y119630D01*
X109500Y159500D02*
X144500Y194500D01*
X104500Y119630D02*
Y166500D01*
X139500Y201500D01*
X158500Y184500D02*
X162500Y180500D01*
X180500D01*
X185500Y185500D01*
Y195500D01*
X182500Y198500D02*
X185500Y195500D01*
X171500Y198500D02*
X182500D01*
X161000Y209000D02*
X171500Y198500D01*
X77500Y209000D02*
X161000D01*
X188500Y174500D02*
Y196500D01*
X183500Y201500D02*
X188500Y196500D01*
X171500Y201500D02*
X183500D01*
X162500Y210500D02*
X171500Y201500D01*
X172500Y194500D02*
X182500D01*
X160500Y206500D02*
X172500Y194500D01*
X81500Y206500D02*
X160500D01*
X178500Y184500D02*
X180500D01*
X158500Y204500D02*
X178500Y184500D01*
X97500Y204500D02*
X158500D01*
X73500Y198500D02*
X81500Y206500D01*
X87500Y194500D02*
X97500Y204500D01*
X139500Y201500D02*
X153500D01*
X70500Y202000D02*
X77500Y209000D01*
X70500Y165500D02*
Y202000D01*
X73500Y189500D02*
Y198500D01*
X70500Y165500D02*
X77500Y158500D01*
X59500Y189500D02*
X63500Y185500D01*
X59500Y193621D02*
X76379Y210500D01*
X59500Y189500D02*
Y193621D01*
X76379Y210500D02*
X162500D01*
X163811Y212500D02*
X171811Y204500D01*
X75500Y212500D02*
X163811D01*
X57500Y194500D02*
X75500Y212500D01*
X171811Y204500D02*
X182500D01*
X87500Y189500D02*
X91500Y185500D01*
X87500Y189500D02*
Y194500D01*
X73500Y189500D02*
X77500Y185500D01*
X57500Y164500D02*
Y194500D01*
Y164500D02*
X63500Y158500D01*
X144500Y194500D02*
X158500D01*
X63500Y131500D02*
X66500Y128500D01*
X98500D01*
X100500Y130500D01*
X89500Y139500D02*
X98500Y148500D01*
X89500Y133500D02*
Y139500D01*
Y133500D02*
X91500Y131500D01*
X77500D02*
X82500D01*
X84500Y133500D01*
Y141500D01*
X94500Y151500D01*
X258500Y234500D02*
X298500D01*
X193500Y220500D02*
X200500Y213500D01*
X179500Y220500D02*
X193500D01*
X201500Y209500D02*
X229500Y181500D01*
X187500Y209500D02*
X201500D01*
X226500Y176500D02*
Y182379D01*
Y176500D02*
X229500Y173500D01*
X254500Y123500D02*
Y129500D01*
X132240Y69240D02*
X143004Y80004D01*
X154004D01*
D12*
X246500Y89500D02*
X250500Y85500D01*
X253500D01*
X210500Y65500D02*
Y71500D01*
X189500Y44500D02*
X210500Y65500D01*
X166500Y44500D02*
X189500D01*
D137*
X267000Y86000D02*
X276000D01*
X247400Y105600D02*
X267000Y86000D01*
X171500Y218931D02*
Y246500D01*
X169500Y216931D02*
X171500Y218931D01*
X253500Y144500D02*
X258500Y149500D01*
X244500Y144500D02*
X253500D01*
X209500Y109500D02*
X244500Y144500D01*
X209500Y100500D02*
Y109500D01*
X202500Y93500D02*
X209500Y100500D01*
X189387Y93500D02*
X202500D01*
X185941Y90054D02*
X189387Y93500D01*
X169500Y117500D02*
X183423Y131423D01*
X185424D01*
X185500Y131500D01*
X185941Y78941D02*
Y90054D01*
X177500Y98495D02*
X185941Y90054D01*
X177500Y98495D02*
Y109500D01*
X169500Y117500D02*
X177500Y109500D01*
X159500Y150500D02*
X163500D01*
X174500Y139500D01*
X195500Y109500D02*
Y122500D01*
X193500Y107500D02*
X195500Y109500D01*
X187500Y107500D02*
X193500D01*
X196500Y150500D02*
Y175500D01*
X185500Y139500D02*
X196500Y150500D01*
X174500Y139500D02*
X185500D01*
X184500Y104500D02*
X187500Y107500D01*
X195500Y122500D02*
X195500Y122500D01*
X195500Y122500D02*
X195500Y122500D01*
X193700Y102500D02*
X209000Y117800D01*
Y136500D01*
D138*
X210500Y71500D02*
X242500D01*
X195500Y85500D02*
X209500Y71500D01*
X194941Y84941D02*
X195500Y85500D01*
X242500Y71500D02*
X251500Y80500D01*
D139*
X226500Y226500D02*
X285500D01*
X116500Y216500D02*
X146500Y246500D01*
X73500Y216500D02*
X116500D01*
X53500Y196500D02*
X73500Y216500D01*
X53500Y119500D02*
Y196500D01*
X50500Y116500D02*
X53500Y119500D01*
X171500Y246500D02*
X206500D01*
X146500D02*
X171500D01*
X206500D02*
X226500Y226500D01*
X50500Y94500D02*
Y116500D01*
D140*
X191000Y191000D02*
X200309Y200309D01*
X191000Y167000D02*
Y191000D01*
X188500Y164500D02*
X191000Y167000D01*
X177500Y162500D02*
X186500D01*
X188500Y164500D01*
X172500Y157500D02*
X177500Y162500D01*
X159500Y157500D02*
X172500D01*
X153500Y151500D02*
X159500Y157500D01*
X153500Y133500D02*
Y151500D01*
Y133500D02*
X169500Y117500D01*
D144*
X38500Y188005D02*
D03*
Y215374D02*
D03*
Y160636D02*
D03*
Y133268D02*
D03*
D151*
X101500Y35500D02*
D03*
X251500D02*
D03*
D153*
X276000Y86000D02*
D03*
X247400Y105600D02*
D03*
X169500Y216931D02*
D03*
X247500Y160500D02*
D03*
X246500Y89500D02*
D03*
X253500Y85500D02*
D03*
X146500Y43500D02*
D03*
X166500Y44500D02*
D03*
X253500Y210500D02*
D03*
X247500Y207500D02*
D03*
X235375Y166375D02*
D03*
X249500Y152500D02*
D03*
X293000Y89000D02*
D03*
X270500Y137500D02*
D03*
X306500Y129500D02*
D03*
X261500Y149500D02*
D03*
X200309Y200309D02*
D03*
X183500Y159500D02*
D03*
X183184Y165437D02*
D03*
X188500Y164500D02*
D03*
X185500Y131500D02*
D03*
X185941Y78941D02*
D03*
X170500Y101500D02*
D03*
X167500Y104500D02*
D03*
X164500Y107500D02*
D03*
X190500Y110500D02*
D03*
X169500Y117500D02*
D03*
X324500Y153500D02*
D03*
X206500Y214500D02*
D03*
X314500Y156500D02*
D03*
X236500Y201500D02*
D03*
X290500Y156500D02*
D03*
X294500Y153500D02*
D03*
X196500Y175500D02*
D03*
X200500Y171500D02*
D03*
X203500Y176500D02*
D03*
X159500Y150500D02*
D03*
X185500Y139500D02*
D03*
X184500Y104500D02*
D03*
X195500Y122500D02*
D03*
X294500Y170500D02*
D03*
X209000Y136500D02*
D03*
X285500Y153500D02*
D03*
X289500D02*
D03*
X264500Y207500D02*
D03*
X276500Y206500D02*
D03*
X234500Y191500D02*
D03*
X253500Y231500D02*
D03*
X160240Y69240D02*
D03*
X183500Y145500D02*
D03*
X195573Y188500D02*
D03*
X184500Y113500D02*
D03*
X188500Y120500D02*
D03*
X108500Y126500D02*
D03*
X128500Y165500D02*
D03*
X188500Y202500D02*
D03*
X153500Y201500D02*
D03*
X182500Y194500D02*
D03*
Y204500D02*
D03*
X188500Y174500D02*
D03*
X180500Y184500D02*
D03*
X158500D02*
D03*
Y194500D02*
D03*
X100500Y130500D02*
D03*
X98500Y148500D02*
D03*
X94500Y151500D02*
D03*
X77500Y185500D02*
D03*
X91500D02*
D03*
X63500Y158500D02*
D03*
Y185500D02*
D03*
X90500Y103500D02*
D03*
X77500Y158500D02*
D03*
X91500Y131500D02*
D03*
X77500D02*
D03*
X63500D02*
D03*
X306500Y225500D02*
D03*
X298500Y234500D02*
D03*
X258500D02*
D03*
X179500Y220500D02*
D03*
X200500Y213500D02*
D03*
X187500Y209500D02*
D03*
X229500Y181500D02*
D03*
Y173500D02*
D03*
X205500Y199500D02*
D03*
X237500Y184500D02*
D03*
X246500Y123500D02*
D03*
X239500D02*
D03*
X254500Y123500D02*
D03*
X206500Y171500D02*
D03*
X290500Y167500D02*
D03*
X289500Y173500D02*
D03*
X283500Y122000D02*
D03*
X294500Y159500D02*
D03*
X237500Y176500D02*
D03*
X146240Y68760D02*
D03*
X132240Y69240D02*
D03*
X54500Y91500D02*
D03*
X53500Y86500D02*
D03*
X56500Y83500D02*
D03*
X59500Y85500D02*
D03*
X51500Y89500D02*
D03*
X251500Y80500D02*
D03*
D154*
X195500Y85500D02*
D03*
X193500Y102500D02*
D03*
X285500Y226500D02*
D03*
X226500D02*
D03*
D163*
X31500Y215374D02*
X38500D01*
X29500Y188005D02*
X38500D01*
X29500Y133268D02*
Y133500D01*
Y133268D02*
X38500D01*
X29500Y160636D02*
Y161500D01*
Y160636D02*
X38500D01*
X29500Y187500D02*
Y188005D01*
D164*
Y215374D01*
Y133500D02*
Y160636D01*
Y161500D02*
Y187500D01*
Y95500D02*
Y133268D01*
Y95500D02*
X49500Y75500D01*
Y45500D02*
Y75500D01*
Y45500D02*
X59500Y35500D01*
X101500D01*
M02*
