G04*
G04 #@! TF.GenerationSoftware,Altium Limited,Altium Designer,20.0.1 (14)*
G04*
G04 Layer_Color=16711935*
%FSLAX25Y25*%
%MOIN*%
G70*
G01*
G75*
%ADD20C,0.00394*%
D20*
X209924Y232192D02*
G03*
X209924Y232192I-1969J0D01*
G01*
X154310Y129670D02*
G03*
X154310Y129670I-1000J0D01*
G01*
X167842Y136169D02*
X173158D01*
X167842Y144831D02*
X173158D01*
X167842Y136169D02*
Y144831D01*
X173158Y136169D02*
Y144831D01*
X167413Y169169D02*
X172728D01*
X167413Y177831D02*
X172728D01*
X167413Y169169D02*
Y177831D01*
X172728Y169169D02*
Y177831D01*
X97343Y188479D02*
Y193597D01*
X85532Y188479D02*
Y193597D01*
X97343D01*
X85532Y188479D02*
X97343D01*
X150594Y57941D02*
Y63059D01*
X162406Y57941D02*
Y63059D01*
X150594Y57941D02*
X162406D01*
X150594Y63059D02*
X162406D01*
X136594Y57941D02*
Y63059D01*
X148406Y57941D02*
Y63059D01*
X136594Y57941D02*
X148406D01*
X136594Y63059D02*
X148406D01*
X122594Y57941D02*
Y63059D01*
X134406Y57941D02*
Y63059D01*
X122594Y57941D02*
X134406D01*
X122594Y63059D02*
X134406D01*
X196869Y249035D02*
X211042D01*
X196869Y229350D02*
X211042D01*
X196869D02*
Y249035D01*
X211042Y229350D02*
Y249035D01*
X151310Y131670D02*
X157609D01*
X151310Y119859D02*
Y131670D01*
Y119859D02*
X157609D01*
Y131670D01*
X99594Y188479D02*
X111406D01*
X99594Y193597D02*
X111406D01*
X99594Y188479D02*
Y193597D01*
X111406Y188479D02*
Y193597D01*
X201842Y189169D02*
Y197831D01*
X207157Y189169D02*
Y197831D01*
X201842Y189169D02*
X207157D01*
X201842Y197831D02*
X207157D01*
X71755Y106479D02*
X83566D01*
X71755Y111597D02*
X83566D01*
X71755Y106479D02*
Y111597D01*
X83566Y106479D02*
Y111597D01*
X71755Y133812D02*
X83566D01*
X71755Y138930D02*
X83566D01*
X71755Y133812D02*
Y138930D01*
X83566Y133812D02*
Y138930D01*
X85532Y106479D02*
X97343D01*
X85532Y111597D02*
X97343D01*
X85532Y106479D02*
Y111597D01*
X97343Y106479D02*
Y111597D01*
X85532Y133812D02*
X97343D01*
X85532Y138930D02*
X97343D01*
X85532Y133812D02*
Y138930D01*
X97343Y133812D02*
Y138930D01*
X57978Y106479D02*
X69789D01*
X57978Y111597D02*
X69789D01*
X57978Y106479D02*
Y111597D01*
X69789Y106479D02*
Y111597D01*
X57978Y133812D02*
X69789D01*
X57978Y138930D02*
X69789D01*
X57978Y133812D02*
Y138930D01*
X69789Y133812D02*
Y138930D01*
X71755Y188479D02*
X83566D01*
X71755Y193597D02*
X83566D01*
X71755Y188479D02*
Y193597D01*
X83566Y188479D02*
Y193597D01*
X71755Y161145D02*
X83566D01*
X71755Y166263D02*
X83566D01*
X71755Y161145D02*
Y166263D01*
X83566Y161145D02*
Y166263D01*
X85532Y161145D02*
X97343D01*
X85532Y166263D02*
X97343D01*
X85532Y161145D02*
Y166263D01*
X97343Y161145D02*
Y166263D01*
X57978Y188479D02*
X69789D01*
X57978Y193597D02*
X69789D01*
X57978Y188479D02*
Y193597D01*
X69789Y188479D02*
Y193597D01*
X57978Y161145D02*
X69789D01*
X57978Y166263D02*
X69789D01*
X57978Y161145D02*
Y166263D01*
X69789Y161145D02*
Y166263D01*
M02*
