G04*
G04 #@! TF.GenerationSoftware,Altium Limited,Altium Designer,20.0.1 (14)*
G04*
G04 Layer_Color=255*
%FSLAX25Y25*%
%MOIN*%
G70*
G01*
G75*
G04:AMPARAMS|DCode=102|XSize=38mil|YSize=35mil|CornerRadius=0mil|HoleSize=0mil|Usage=FLASHONLY|Rotation=45.000|XOffset=0mil|YOffset=0mil|HoleType=Round|Shape=Rectangle|*
%AMROTATEDRECTD102*
4,1,4,-0.00106,-0.02581,-0.02581,-0.00106,0.00106,0.02581,0.02581,0.00106,-0.00106,-0.02581,0.0*
%
%ADD102ROTATEDRECTD102*%

%ADD105R,0.03000X0.03000*%
%ADD106R,0.03000X0.03000*%
%ADD107R,0.03800X0.03500*%
%ADD108R,0.03500X0.03800*%
%ADD128R,0.03500X0.03500*%
%ADD132R,0.03500X0.03500*%
%ADD142C,0.23622*%
%ADD143C,0.07087*%
%ADD144C,0.06000*%
%ADD145R,0.06000X0.06000*%
%ADD146C,0.06299*%
%ADD147R,0.06299X0.06299*%
%ADD148C,0.06693*%
%ADD149P,0.09465X4X180.0*%
%ADD150R,0.06693X0.06693*%
%ADD151R,0.06693X0.06693*%
%ADD165R,0.02362X0.04213*%
%ADD166R,0.03543X0.01575*%
%ADD167R,0.04724X0.05512*%
%ADD168O,0.02260X0.08024*%
D102*
X148061Y157061D02*
D03*
X152939Y161940D02*
D03*
X141060Y163060D02*
D03*
X145940Y167939D02*
D03*
D105*
X188941Y183500D02*
D03*
X194059Y183500D02*
D03*
X168941Y156500D02*
D03*
X174059D02*
D03*
X179059Y190500D02*
D03*
X173941D02*
D03*
X222059Y122500D02*
D03*
X216941D02*
D03*
X204059D02*
D03*
X198941D02*
D03*
D106*
X215500Y168059D02*
D03*
Y162941D02*
D03*
X181071Y168941D02*
D03*
Y174059D02*
D03*
X214500Y84059D02*
D03*
Y78941D02*
D03*
X158500Y142059D02*
D03*
Y136941D02*
D03*
X187500Y91941D02*
D03*
Y97059D02*
D03*
X193969Y91941D02*
D03*
X193969Y97059D02*
D03*
X200087Y91941D02*
D03*
X200087Y97059D02*
D03*
X236500Y95941D02*
D03*
Y101059D02*
D03*
X318500Y109941D02*
D03*
Y115059D02*
D03*
X300500Y109941D02*
D03*
Y115059D02*
D03*
X190500Y153941D02*
D03*
Y159059D02*
D03*
X193500Y192941D02*
D03*
Y198059D02*
D03*
X215500Y196059D02*
D03*
Y190941D02*
D03*
X181500Y141059D02*
D03*
Y135941D02*
D03*
X158071Y168941D02*
D03*
Y174059D02*
D03*
D107*
X167050Y149500D02*
D03*
X173950D02*
D03*
X166621Y184500D02*
D03*
X173521D02*
D03*
X173950Y162500D02*
D03*
X167050D02*
D03*
X222050Y168500D02*
D03*
X228950D02*
D03*
X207950Y184500D02*
D03*
X201050D02*
D03*
X319950Y175500D02*
D03*
X313050D02*
D03*
X222050Y161500D02*
D03*
X228950D02*
D03*
X216050Y180500D02*
D03*
X222950D02*
D03*
X313050Y183500D02*
D03*
X319950D02*
D03*
X222050Y85500D02*
D03*
X228950D02*
D03*
X144050Y133500D02*
D03*
X150950D02*
D03*
X144050Y144500D02*
D03*
X150950D02*
D03*
D108*
X178500Y100950D02*
D03*
Y94050D02*
D03*
X302500Y56950D02*
D03*
Y50050D02*
D03*
X295100Y56950D02*
D03*
Y50050D02*
D03*
X287700Y56900D02*
D03*
Y50000D02*
D03*
X280300Y56900D02*
D03*
Y50000D02*
D03*
X198275Y114950D02*
D03*
Y108050D02*
D03*
X141500Y39950D02*
D03*
Y33050D02*
D03*
X178500Y114950D02*
D03*
Y108050D02*
D03*
X325500D02*
D03*
Y114950D02*
D03*
X205500Y108050D02*
D03*
Y114950D02*
D03*
X228500Y112050D02*
D03*
Y118950D02*
D03*
X307500Y114950D02*
D03*
Y108050D02*
D03*
X173500Y205950D02*
D03*
Y199050D02*
D03*
X181500Y33050D02*
D03*
Y39950D02*
D03*
X171525Y33050D02*
D03*
Y39950D02*
D03*
X161450D02*
D03*
Y33050D02*
D03*
X151475Y39950D02*
D03*
Y33050D02*
D03*
X230500Y203950D02*
D03*
Y197050D02*
D03*
X222500Y203950D02*
D03*
Y197050D02*
D03*
D128*
X222000Y78500D02*
D03*
X229000D02*
D03*
D132*
X206500Y92000D02*
D03*
Y99000D02*
D03*
D142*
X324808Y241099D02*
D03*
X33469D02*
D03*
Y28501D02*
D03*
X324808D02*
D03*
D143*
X113421Y226500D02*
D03*
X83500D02*
D03*
D144*
X38500Y180131D02*
D03*
X46374D02*
D03*
X38500Y188005D02*
D03*
Y207500D02*
D03*
X46374D02*
D03*
X38500Y215374D02*
D03*
Y152762D02*
D03*
X46374D02*
D03*
X38500Y160636D02*
D03*
Y125394D02*
D03*
X46374D02*
D03*
X38500Y133268D02*
D03*
D145*
X46374Y188005D02*
D03*
Y215374D02*
D03*
Y160636D02*
D03*
Y133268D02*
D03*
D146*
X67500Y247500D02*
D03*
Y237500D02*
D03*
X57500Y247500D02*
D03*
D147*
Y237500D02*
D03*
D148*
X298965Y245036D02*
D03*
X130500Y152500D02*
D03*
X101500Y25500D02*
D03*
X251500D02*
D03*
X131000Y99500D02*
D03*
X141000D02*
D03*
X151000D02*
D03*
X231500Y214000D02*
D03*
D149*
X306036Y237965D02*
D03*
D150*
X120500Y152500D02*
D03*
X121000Y99500D02*
D03*
X241500Y214000D02*
D03*
D151*
X101500Y35500D02*
D03*
X251500D02*
D03*
D165*
X180240Y121638D02*
D03*
X172760D02*
D03*
X176500Y131363D02*
D03*
D166*
X166071Y143059D02*
D03*
Y140500D02*
D03*
Y137941D02*
D03*
X174929D02*
D03*
Y140500D02*
D03*
Y143059D02*
D03*
X165642Y176059D02*
D03*
X165642Y173500D02*
D03*
X165642Y170941D02*
D03*
X174500D02*
D03*
Y173500D02*
D03*
Y176059D02*
D03*
X200071Y190941D02*
D03*
Y193500D02*
D03*
Y196059D02*
D03*
X208929Y196059D02*
D03*
X208929Y193500D02*
D03*
X208929Y190941D02*
D03*
D167*
X222055Y94169D02*
D03*
Y102831D02*
D03*
X228945D02*
D03*
Y94169D02*
D03*
D168*
X231500Y130500D02*
D03*
X226500D02*
D03*
X221500D02*
D03*
X216500D02*
D03*
X211500D02*
D03*
X206500D02*
D03*
X201500D02*
D03*
X196500D02*
D03*
X231500Y152304D02*
D03*
X226500D02*
D03*
X221500D02*
D03*
X216500D02*
D03*
X211500D02*
D03*
X206500D02*
D03*
X201500D02*
D03*
X196500D02*
D03*
X266500Y51752D02*
D03*
X261500D02*
D03*
X256500D02*
D03*
X251500D02*
D03*
X246500D02*
D03*
X241500D02*
D03*
X236500D02*
D03*
X266500Y73556D02*
D03*
X261500D02*
D03*
X256500D02*
D03*
X251500D02*
D03*
X246500D02*
D03*
X241500D02*
D03*
X236500D02*
D03*
M02*
