G04*
G04 #@! TF.GenerationSoftware,Altium Limited,Altium Designer,20.0.1 (14)*
G04*
G04 Layer_Color=32768*
%FSLAX25Y25*%
%MOIN*%
G70*
G01*
G75*
%ADD14C,0.00787*%
%ADD16C,0.01575*%
%ADD20C,0.00394*%
%ADD173C,0.00200*%
%ADD174C,0.00100*%
%ADD175C,0.00197*%
%ADD176C,0.00158*%
G36*
X109190Y226502D02*
X109523Y226169D01*
X109702Y225735D01*
Y225500D01*
Y225265D01*
X109523Y224831D01*
X109190Y224498D01*
X108756Y224318D01*
X108286D01*
X107852Y224498D01*
X107519Y224831D01*
X107339Y225265D01*
Y225500D01*
Y225735D01*
X107519Y226169D01*
X107852Y226502D01*
X108286Y226682D01*
X108756D01*
X109190Y226502D01*
D02*
G37*
G36*
X79269D02*
X79602Y226169D01*
X79781Y225735D01*
Y225500D01*
Y225265D01*
X79602Y224831D01*
X79269Y224498D01*
X78835Y224318D01*
X78365D01*
X77931Y224498D01*
X77598Y224831D01*
X77418Y225265D01*
Y225500D01*
Y225735D01*
X77598Y226169D01*
X77931Y226502D01*
X78365Y226682D01*
X78835D01*
X79269Y226502D01*
D02*
G37*
G36*
X44890Y223240D02*
Y223044D01*
X44752Y222906D01*
X44556D01*
X44418Y223044D01*
Y223240D01*
X44556Y223378D01*
X44752D01*
X44890Y223240D01*
D02*
G37*
G36*
X42271Y215566D02*
X42666Y215171D01*
X42880Y214654D01*
Y214094D01*
X42666Y213577D01*
X42271Y213182D01*
X41754Y212968D01*
X41194D01*
X40677Y213182D01*
X40282Y213577D01*
X40068Y214094D01*
Y214654D01*
X40282Y215171D01*
X40677Y215566D01*
X41194Y215780D01*
X41754D01*
X42271Y215566D01*
D02*
G37*
G36*
X34397D02*
X34792Y215171D01*
X35006Y214654D01*
Y214094D01*
X34792Y213577D01*
X34397Y213182D01*
X33880Y212968D01*
X33600Y212968D01*
X33320Y212968D01*
X32803Y213182D01*
X32408Y213577D01*
X32194Y214094D01*
Y214654D01*
X32408Y215171D01*
X32803Y215566D01*
X33320Y215780D01*
X33880D01*
X34397Y215566D01*
D02*
G37*
G36*
X42271Y207692D02*
X42666Y207297D01*
X42880Y206780D01*
Y206220D01*
X42666Y205703D01*
X42271Y205308D01*
X41754Y205094D01*
X41194D01*
X40677Y205308D01*
X40282Y205703D01*
X40068Y206220D01*
Y206780D01*
X40282Y207297D01*
X40677Y207692D01*
X41194Y207906D01*
X41754D01*
X42271Y207692D01*
D02*
G37*
G36*
X34397D02*
X34792Y207297D01*
X35006Y206780D01*
Y206220D01*
X34792Y205703D01*
X34397Y205308D01*
X33880Y205094D01*
X33320D01*
X32803Y205308D01*
X32408Y205703D01*
X32194Y206220D01*
Y206780D01*
X32408Y207297D01*
X32803Y207692D01*
X33320Y207906D01*
X33600D01*
X33880Y207906D01*
X34397Y207692D01*
D02*
G37*
G36*
X70175Y201976D02*
Y201878D01*
Y201780D01*
X70036Y201642D01*
X69841D01*
X69702Y201780D01*
Y201878D01*
Y201976D01*
X69841Y202114D01*
X70036D01*
X70175Y201976D01*
D02*
G37*
G36*
X44890Y195871D02*
Y195675D01*
X44752Y195537D01*
X44556D01*
X44418Y195675D01*
Y195871D01*
X44556Y196009D01*
X44752D01*
X44890Y195871D01*
D02*
G37*
G36*
X42271Y188197D02*
X42666Y187802D01*
X42880Y187285D01*
Y186725D01*
X42666Y186209D01*
X42271Y185813D01*
X41754Y185599D01*
X41474Y185599D01*
X41194D01*
X40677Y185813D01*
X40282Y186209D01*
X40068Y186725D01*
Y187285D01*
X40282Y187802D01*
X40677Y188197D01*
X41194Y188411D01*
X41754D01*
X42271Y188197D01*
D02*
G37*
G36*
X34397D02*
X34792Y187802D01*
X35006Y187285D01*
Y186725D01*
X34792Y186209D01*
X34397Y185813D01*
X33880Y185599D01*
X33600Y185599D01*
X33320Y185599D01*
X32803Y185813D01*
X32408Y186209D01*
X32194Y186725D01*
Y187285D01*
X32408Y187802D01*
X32803Y188197D01*
X33320Y188411D01*
X33880D01*
X34397Y188197D01*
D02*
G37*
G36*
X42271Y180323D02*
X42666Y179928D01*
X42880Y179411D01*
Y178851D01*
X42666Y178335D01*
X42271Y177939D01*
X41754Y177725D01*
X41194D01*
X40677Y177939D01*
X40282Y178335D01*
X40068Y178851D01*
Y179411D01*
X40282Y179928D01*
X40677Y180323D01*
X41194Y180537D01*
X41754D01*
X42271Y180323D01*
D02*
G37*
G36*
X34397D02*
X34792Y179928D01*
X35006Y179411D01*
Y178851D01*
X34792Y178335D01*
X34397Y177939D01*
X33880Y177725D01*
X33320D01*
X32803Y177939D01*
X32408Y178335D01*
X32194Y178851D01*
Y179411D01*
X32408Y179928D01*
X32803Y180323D01*
X33320Y180537D01*
X33880D01*
X34397Y180323D01*
D02*
G37*
G36*
X290053Y176484D02*
Y175263D01*
X289148D01*
Y176484D01*
Y179239D01*
X290053D01*
Y176484D01*
D02*
G37*
G36*
X268399D02*
Y175263D01*
X267494D01*
Y176484D01*
Y179239D01*
X268399D01*
Y176484D01*
D02*
G37*
G36*
X288084D02*
Y175263D01*
X287179Y175263D01*
Y176484D01*
Y179239D01*
X288084D01*
Y176484D01*
D02*
G37*
G36*
X286116D02*
Y175263D01*
X285211Y175263D01*
Y176484D01*
Y179239D01*
X286116D01*
Y176484D01*
D02*
G37*
G36*
X284147D02*
Y175263D01*
X283242Y175263D01*
Y176484D01*
Y179239D01*
X284147D01*
Y176484D01*
D02*
G37*
G36*
X282179D02*
Y175263D01*
X281274Y175263D01*
Y176484D01*
Y179239D01*
X282179D01*
Y176484D01*
D02*
G37*
G36*
X280210D02*
Y175263D01*
X279305Y175263D01*
Y176484D01*
Y179239D01*
X280210D01*
Y176484D01*
D02*
G37*
G36*
X278242D02*
Y175263D01*
X277337Y175263D01*
Y176484D01*
Y179239D01*
X278242D01*
Y176484D01*
D02*
G37*
G36*
X276273D02*
Y175263D01*
X275368Y175263D01*
Y176484D01*
Y179239D01*
X276273D01*
Y176484D01*
D02*
G37*
G36*
X274305D02*
Y175263D01*
X273400Y175263D01*
Y176484D01*
Y179239D01*
X274305D01*
Y176484D01*
D02*
G37*
G36*
X272336D02*
Y175263D01*
X271431Y175263D01*
Y176484D01*
Y179239D01*
X272336D01*
Y176484D01*
D02*
G37*
G36*
X270368D02*
Y175263D01*
X269463Y175263D01*
Y176484D01*
Y179239D01*
X270368D01*
Y176484D01*
D02*
G37*
G36*
X296490Y171897D02*
X292514D01*
Y172803D01*
X296490D01*
Y171897D01*
D02*
G37*
G36*
X265033D02*
X261057D01*
Y172803D01*
X265033D01*
Y171897D01*
D02*
G37*
G36*
X296490Y169928D02*
X292514D01*
X292514Y170834D01*
X296490D01*
Y169928D01*
D02*
G37*
G36*
X265033D02*
X261057D01*
Y170834D01*
X265033D01*
X265033Y169928D01*
D02*
G37*
G36*
X44890Y168502D02*
Y168307D01*
X44752Y168168D01*
X44654Y168168D01*
X44556Y168168D01*
X44418Y168307D01*
Y168502D01*
X44556Y168641D01*
X44752D01*
X44890Y168502D01*
D02*
G37*
G36*
X296490Y167960D02*
X292514D01*
X292514Y168866D01*
X296490D01*
Y167960D01*
D02*
G37*
G36*
X265033D02*
X261057D01*
Y168866D01*
X265033D01*
X265033Y167960D01*
D02*
G37*
G36*
X296490Y165991D02*
X292514D01*
X292514Y166897D01*
X296490D01*
Y165991D01*
D02*
G37*
G36*
X265033D02*
X261057D01*
Y166897D01*
X265033D01*
X265033Y165991D01*
D02*
G37*
G36*
X296490Y164023D02*
X292514D01*
X292514Y164929D01*
X296490D01*
Y164023D01*
D02*
G37*
G36*
X265033D02*
X261057D01*
Y164929D01*
X265033D01*
X265033Y164023D01*
D02*
G37*
G36*
X296490Y162054D02*
X292514D01*
X292514Y162960D01*
X296490D01*
Y162054D01*
D02*
G37*
G36*
X265033D02*
X261057D01*
Y162960D01*
X265033D01*
X265033Y162054D01*
D02*
G37*
G36*
X296490Y160086D02*
X292514D01*
X292514Y160992D01*
X296490D01*
Y160086D01*
D02*
G37*
G36*
X265033D02*
X261057D01*
Y160992D01*
X265033D01*
X265033Y160086D01*
D02*
G37*
G36*
X42271Y160829D02*
X42666Y160433D01*
X42880Y159916D01*
Y159357D01*
X42666Y158840D01*
X42271Y158444D01*
X41754Y158230D01*
X41194D01*
X40677Y158444D01*
X40282Y158840D01*
X40068Y159357D01*
Y159916D01*
X40282Y160433D01*
X40677Y160829D01*
X41194Y161043D01*
X41754D01*
X42271Y160829D01*
D02*
G37*
G36*
X34397D02*
X34792Y160433D01*
X35006Y159916D01*
Y159357D01*
X34792Y158840D01*
X34397Y158444D01*
X33880Y158230D01*
X33600Y158230D01*
X33320D01*
X32803Y158444D01*
X32408Y158840D01*
X32194Y159357D01*
Y159916D01*
X32408Y160433D01*
X32803Y160829D01*
X33320Y161043D01*
X33880D01*
X34397Y160829D01*
D02*
G37*
G36*
X296490Y158117D02*
X292514D01*
X292514Y159023D01*
X296490D01*
Y158117D01*
D02*
G37*
G36*
X265033D02*
X261057D01*
Y159023D01*
X265033D01*
X265033Y158117D01*
D02*
G37*
G36*
X296490Y156149D02*
X292514D01*
X292514Y157055D01*
X296490D01*
Y156149D01*
D02*
G37*
G36*
X265033D02*
X261057D01*
Y157055D01*
X265033D01*
X265033Y156149D01*
D02*
G37*
G36*
X296490Y154180D02*
X292514D01*
X292514Y155086D01*
X296490D01*
Y154180D01*
D02*
G37*
G36*
X265033D02*
X261057D01*
Y155086D01*
X265033D01*
X265033Y154180D01*
D02*
G37*
G36*
X296490Y152212D02*
X292514D01*
X292514Y153118D01*
X296490D01*
Y152212D01*
D02*
G37*
G36*
X265033D02*
X261057D01*
Y153118D01*
X265033D01*
X265033Y152212D01*
D02*
G37*
G36*
X189848Y152311D02*
Y152213D01*
Y152115D01*
X189710Y151977D01*
X189514D01*
X189376Y152115D01*
Y152213D01*
Y152311D01*
X189514Y152449D01*
X189710Y152449D01*
X189848Y152311D01*
D02*
G37*
G36*
X42271Y152955D02*
X42666Y152559D01*
X42880Y152042D01*
Y151483D01*
X42666Y150966D01*
X42271Y150570D01*
X41754Y150356D01*
X41194D01*
X40677Y150570D01*
X40282Y150966D01*
X40068Y151483D01*
Y152042D01*
X40282Y152559D01*
X40677Y152955D01*
X41194Y153169D01*
X41754D01*
X42271Y152955D01*
D02*
G37*
G36*
X34397D02*
X34792Y152559D01*
X35006Y152042D01*
Y151483D01*
X34792Y150966D01*
X34397Y150570D01*
X33880Y150356D01*
X33320D01*
X32803Y150570D01*
X32408Y150966D01*
X32194Y151483D01*
Y152042D01*
X32408Y152559D01*
X32803Y152955D01*
X33320Y153169D01*
X33880D01*
X34397Y152955D01*
D02*
G37*
G36*
X296490Y150243D02*
X292514D01*
Y151149D01*
X296490D01*
Y150243D01*
D02*
G37*
G36*
X265033D02*
X261057D01*
Y151149D01*
X265033D01*
Y150243D01*
D02*
G37*
G36*
X227407Y148926D02*
D01*
X227407Y148040D01*
X225793D01*
Y148926D01*
Y152213D01*
X227407D01*
Y148926D01*
D02*
G37*
G36*
X222407Y148965D02*
D01*
Y148956D01*
Y148926D01*
D01*
X222407Y148040D01*
X220793D01*
X220793Y148926D01*
D01*
Y148956D01*
Y148965D01*
D01*
X220793Y152213D01*
X222407D01*
X222407Y148965D01*
D02*
G37*
G36*
X217407Y148926D02*
Y148040D01*
X215793Y148040D01*
Y148926D01*
Y152213D01*
X217407D01*
Y148926D01*
D02*
G37*
G36*
X212407D02*
Y148040D01*
X210793D01*
X210793Y148956D01*
X210793Y152213D01*
X212407D01*
Y148926D01*
D02*
G37*
G36*
X207407Y148956D02*
X207407Y148040D01*
X205793D01*
Y148926D01*
Y152213D01*
X207407D01*
X207407Y148956D01*
D02*
G37*
G36*
X202407Y148926D02*
Y148040D01*
X200793Y148040D01*
Y148926D01*
Y152213D01*
X202407D01*
Y148926D01*
D02*
G37*
G36*
X197407Y148965D02*
D01*
Y148956D01*
Y148926D01*
D01*
X197407Y148040D01*
X195793D01*
X195793Y148926D01*
D01*
Y148956D01*
Y148965D01*
D01*
X195793Y152213D01*
X197407D01*
X197407Y148965D01*
D02*
G37*
G36*
X192407Y148926D02*
Y148040D01*
X190793D01*
X190793Y148926D01*
D01*
Y152213D01*
X192407D01*
Y148926D01*
D02*
G37*
G36*
X290053Y146523D02*
Y143807D01*
X289148D01*
Y146523D01*
Y147783D01*
X290053D01*
Y146523D01*
D02*
G37*
G36*
X288084Y147783D02*
Y146523D01*
Y143807D01*
X287179D01*
Y146523D01*
Y147783D01*
X288084Y147783D01*
D02*
G37*
G36*
X286116Y146523D02*
Y143807D01*
X285211D01*
Y146523D01*
Y147783D01*
X286116Y147783D01*
Y146523D01*
D02*
G37*
G36*
X284147Y147783D02*
Y146523D01*
Y143807D01*
X283242D01*
Y146523D01*
Y147783D01*
X284147Y147783D01*
D02*
G37*
G36*
X282179Y146523D02*
Y143807D01*
X281274D01*
Y146523D01*
Y147783D01*
X282179Y147783D01*
Y146523D01*
D02*
G37*
G36*
X280210Y147783D02*
Y146523D01*
Y143807D01*
X279305D01*
Y146523D01*
Y147783D01*
X280210Y147783D01*
D02*
G37*
G36*
X278242Y146523D02*
Y143807D01*
X277337D01*
Y146523D01*
Y147783D01*
X278242Y147783D01*
Y146523D01*
D02*
G37*
G36*
X276273Y147783D02*
Y146523D01*
Y143807D01*
X275368D01*
Y146523D01*
Y147783D01*
X276273Y147783D01*
D02*
G37*
G36*
X274305Y146523D02*
Y143807D01*
X273400D01*
Y146523D01*
Y147783D01*
X274305Y147783D01*
Y146523D01*
D02*
G37*
G36*
X272336Y147783D02*
Y146523D01*
Y143807D01*
X271431D01*
Y146523D01*
Y147783D01*
X272336Y147783D01*
D02*
G37*
G36*
X270368Y146523D02*
Y143807D01*
X269463D01*
Y146523D01*
Y147783D01*
X270368Y147783D01*
Y146523D01*
D02*
G37*
G36*
X268399D02*
Y143807D01*
X267494D01*
Y146523D01*
Y147783D01*
X268399D01*
Y146523D01*
D02*
G37*
G36*
X261293Y143904D02*
Y143807D01*
Y143709D01*
X261155Y143570D01*
X260959Y143570D01*
X260821Y143709D01*
X260821Y143807D01*
Y143904D01*
X260959Y144043D01*
X261155D01*
X261293Y143904D01*
D02*
G37*
G36*
X44890Y141134D02*
Y140938D01*
X44752Y140799D01*
X44654Y140799D01*
X44556Y140799D01*
X44418Y140938D01*
Y141133D01*
X44556Y141272D01*
X44752D01*
X44890Y141134D01*
D02*
G37*
G36*
X42271Y133460D02*
X42666Y133064D01*
X42880Y132547D01*
Y131988D01*
X42666Y131471D01*
X42271Y131076D01*
X41754Y130861D01*
X41194D01*
X40677Y131076D01*
X40282Y131471D01*
X40068Y131988D01*
Y132547D01*
X40282Y133064D01*
X40677Y133460D01*
X41194Y133674D01*
X41754D01*
X42271Y133460D01*
D02*
G37*
G36*
X34397D02*
X34792Y133064D01*
X35006Y132547D01*
Y131988D01*
X34792Y131471D01*
X34397Y131076D01*
X33880Y130861D01*
X33600Y130861D01*
X33320D01*
X32803Y131076D01*
X32408Y131471D01*
X32194Y131988D01*
Y132547D01*
X32408Y133064D01*
X32803Y133460D01*
X33320Y133674D01*
X33880D01*
X34397Y133460D01*
D02*
G37*
G36*
X227407Y131878D02*
D01*
Y128591D01*
X225793D01*
Y131839D01*
Y132764D01*
X227407D01*
X227407Y131878D01*
D02*
G37*
G36*
X222407D02*
D01*
Y131848D01*
Y131839D01*
D01*
X222407Y128591D01*
X220793D01*
X220793Y131839D01*
D01*
Y131848D01*
Y131878D01*
D01*
X220793Y132764D01*
X222407D01*
X222407Y131878D01*
D02*
G37*
G36*
X217407Y131839D02*
Y128591D01*
X215793D01*
Y131839D01*
Y132764D01*
X217407Y132764D01*
Y131839D01*
D02*
G37*
G36*
X212407D02*
Y128591D01*
X210793D01*
X210793Y131848D01*
X210793Y132764D01*
X212407D01*
Y131839D01*
D02*
G37*
G36*
X207407Y131848D02*
X207407Y128591D01*
X205793D01*
Y131839D01*
Y132764D01*
X207407D01*
X207407Y131848D01*
D02*
G37*
G36*
X202407Y132764D02*
Y131839D01*
Y128591D01*
X200793D01*
Y131839D01*
Y132764D01*
X202407Y132764D01*
D02*
G37*
G36*
X197407Y131878D02*
D01*
Y131848D01*
Y131839D01*
D01*
X197407Y128591D01*
X195793D01*
X195793Y131839D01*
D01*
Y131848D01*
Y131878D01*
D01*
X195793Y132764D01*
X197407D01*
X197407Y131878D01*
D02*
G37*
G36*
X192407Y131839D02*
Y128591D01*
X190793D01*
Y131878D01*
D01*
X190793Y132764D01*
X192407D01*
Y131839D01*
D02*
G37*
G36*
X42271Y125586D02*
X42666Y125190D01*
X42880Y124673D01*
Y124114D01*
X42666Y123597D01*
X42271Y123202D01*
X41754Y122987D01*
X41194D01*
X40677Y123202D01*
X40282Y123597D01*
X40068Y124114D01*
Y124673D01*
X40282Y125190D01*
X40677Y125586D01*
X41194Y125800D01*
X41754D01*
X42271Y125586D01*
D02*
G37*
G36*
X34397D02*
X34792Y125190D01*
X35006Y124673D01*
Y124114D01*
X34792Y123597D01*
X34397Y123202D01*
X33880Y122987D01*
X33320D01*
X32803Y123202D01*
X32408Y123597D01*
X32194Y124114D01*
Y124673D01*
X32408Y125190D01*
X32803Y125586D01*
X33320Y125800D01*
X33880D01*
X34397Y125586D01*
D02*
G37*
G36*
X313749Y122862D02*
Y122666D01*
X313611Y122528D01*
X313415D01*
X313277Y122666D01*
Y122862D01*
X313415Y123000D01*
X313611D01*
X313749Y122862D01*
D02*
G37*
G36*
X296086Y122862D02*
Y122666D01*
X295948Y122528D01*
X295752D01*
X295614Y122666D01*
Y122862D01*
X295752Y123000D01*
X295948D01*
X296086Y122862D01*
D02*
G37*
G36*
X322372Y120008D02*
Y118788D01*
X318828D01*
X318828Y120047D01*
X318828D01*
Y122764D01*
X322372D01*
Y120008D01*
D02*
G37*
G36*
X304708D02*
Y118788D01*
X301165Y118788D01*
X301165Y120047D01*
X301165D01*
Y122764D01*
X304708D01*
Y120008D01*
D02*
G37*
G36*
X225518Y99862D02*
X222368D01*
Y103406D01*
X225518D01*
Y99862D01*
D02*
G37*
G36*
X218832D02*
X215683D01*
X215683Y103406D01*
X218832D01*
Y99862D01*
D02*
G37*
G36*
X225518Y91594D02*
X222368D01*
Y95138D01*
X225518D01*
Y91594D01*
D02*
G37*
G36*
X218832D02*
X215683D01*
X215683Y95138D01*
X218832D01*
Y91594D01*
D02*
G37*
G36*
X322372Y95244D02*
Y93984D01*
Y91268D01*
X318828D01*
Y93984D01*
Y95244D01*
X322372Y95244D01*
D02*
G37*
G36*
X304708Y93984D02*
Y91268D01*
X301165D01*
X301165Y94024D01*
Y95244D01*
X304708D01*
Y93984D01*
D02*
G37*
G36*
X215915Y91299D02*
Y91103D01*
X215777Y90965D01*
X215581D01*
X215443Y91103D01*
Y91299D01*
X215581Y91437D01*
X215777D01*
X215915Y91299D01*
D02*
G37*
G36*
X313584Y79685D02*
Y79587D01*
Y79489D01*
X313446Y79351D01*
X313250D01*
X313112Y79489D01*
X313112Y79587D01*
X313112Y79685D01*
X313250Y79823D01*
X313446D01*
X313584Y79685D01*
D02*
G37*
G36*
X229808Y73563D02*
X229808Y73465D01*
X229808Y73368D01*
X229670Y73229D01*
X229474D01*
X229336Y73368D01*
Y73465D01*
Y73563D01*
X229474Y73702D01*
X229670D01*
X229808Y73563D01*
D02*
G37*
G36*
X285828Y70728D02*
X281852D01*
Y74272D01*
X285828D01*
Y70728D01*
D02*
G37*
G36*
X310631Y74272D02*
X313348D01*
Y70728D01*
X309372D01*
Y74272D01*
X310631Y74272D01*
Y74272D01*
D02*
G37*
G36*
X247407Y70178D02*
Y69292D01*
X245793D01*
Y70178D01*
Y73465D01*
X247407D01*
Y70178D01*
D02*
G37*
G36*
X262407D02*
Y69292D01*
X260793Y69292D01*
Y70178D01*
Y73465D01*
X262407Y73465D01*
Y70178D01*
D02*
G37*
G36*
X257407Y70217D02*
D01*
Y70209D01*
Y70178D01*
D01*
X257407Y69292D01*
X255793D01*
Y70178D01*
Y73465D01*
X257407D01*
X257407Y70217D01*
D02*
G37*
G36*
X252407Y70217D02*
Y69292D01*
X250793D01*
Y70178D01*
Y73465D01*
X252407D01*
Y70217D01*
D02*
G37*
G36*
X242407Y70178D02*
Y69292D01*
X240793D01*
Y70178D01*
Y73465D01*
X242407D01*
Y70178D01*
D02*
G37*
G36*
X237407D02*
Y69292D01*
X235793D01*
X235793Y70178D01*
D01*
Y70209D01*
Y70217D01*
D01*
X235793Y73465D01*
X237407D01*
Y70178D01*
D02*
G37*
G36*
X232407Y73465D02*
Y70178D01*
Y69292D01*
X230793Y69292D01*
Y70178D01*
Y73465D01*
X232407Y73465D01*
D02*
G37*
G36*
X198567Y69009D02*
X198567Y68911D01*
X198567Y68813D01*
X198428Y68675D01*
X198233D01*
X198095Y68813D01*
Y68911D01*
Y69009D01*
X198233Y69147D01*
X198428Y69147D01*
X198567Y69009D01*
D02*
G37*
G36*
X198330Y66096D02*
X196500D01*
Y66096D01*
X195929D01*
Y67789D01*
X196460Y67789D01*
Y67789D01*
X198330D01*
Y66096D01*
D02*
G37*
G36*
X189177Y67788D02*
X189709D01*
Y66095D01*
X189138D01*
Y66096D01*
X187307D01*
Y67789D01*
X189177D01*
Y67788D01*
D02*
G37*
G36*
X198330Y62356D02*
X196500D01*
Y62356D01*
X195929D01*
Y64049D01*
X196460D01*
Y64049D01*
X198330D01*
Y62356D01*
D02*
G37*
G36*
X189177Y64048D02*
X189709D01*
Y62355D01*
X189138D01*
Y62356D01*
X187307D01*
Y64049D01*
X189177D01*
Y64048D01*
D02*
G37*
G36*
X229871Y62421D02*
X230009Y62283D01*
X230009Y62185D01*
Y62087D01*
X229871Y61949D01*
X229675D01*
X229537Y62087D01*
Y62185D01*
Y62283D01*
X229675Y62421D01*
X229871Y62421D01*
D02*
G37*
G36*
X198330Y58616D02*
X196460D01*
D01*
X195929Y58616D01*
Y60309D01*
X198330D01*
Y58616D01*
D02*
G37*
G36*
X189177Y60308D02*
X189709D01*
Y58615D01*
X189138D01*
Y58616D01*
X187307D01*
Y60309D01*
X189177D01*
Y60308D01*
D02*
G37*
G36*
X221584Y58248D02*
Y55847D01*
X219616D01*
Y58248D01*
Y62185D01*
X221584D01*
Y58248D01*
D02*
G37*
G36*
X211584D02*
Y55847D01*
X209616D01*
Y58248D01*
Y62185D01*
X211584D01*
Y58248D01*
D02*
G37*
G36*
X257407Y53131D02*
D01*
Y49843D01*
X255793D01*
Y53091D01*
Y54017D01*
X257407D01*
X257407Y53131D01*
D02*
G37*
G36*
X252407Y53131D02*
Y49843D01*
X250793D01*
Y53091D01*
Y53131D01*
Y54017D01*
X252407D01*
Y53131D01*
D02*
G37*
G36*
X247407Y53091D02*
Y49843D01*
X245793D01*
Y53091D01*
X245793Y54017D01*
X247407D01*
X247407Y53091D01*
D02*
G37*
G36*
X242407D02*
Y49843D01*
X240793D01*
Y53091D01*
Y54017D01*
X242407D01*
Y53091D01*
D02*
G37*
G36*
X237407D02*
Y49843D01*
X235793D01*
Y53131D01*
D01*
X235793Y54017D01*
X237407D01*
Y53091D01*
D02*
G37*
G36*
X232407Y53131D02*
D01*
Y49843D01*
X230793D01*
Y53091D01*
Y54017D01*
X232407D01*
X232407Y53131D01*
D02*
G37*
G36*
X65530Y46940D02*
Y46110D01*
X64350D01*
Y46940D01*
Y48510D01*
X65530D01*
Y46940D01*
D02*
G37*
G36*
X62970D02*
X62970D01*
X62970Y46110D01*
X61790D01*
Y46940D01*
X61790D01*
X61790Y48510D01*
X62970D01*
Y46940D01*
D02*
G37*
G36*
X60410D02*
X60410D01*
Y46110D01*
X59230D01*
X59230Y46940D01*
X59230D01*
Y48510D01*
X60410D01*
X60410Y46940D01*
D02*
G37*
G36*
X57850D02*
Y46110D01*
X56670D01*
Y46940D01*
Y48510D01*
X57850D01*
Y46940D01*
D02*
G37*
G36*
X283031Y44504D02*
X278543Y44504D01*
Y52496D01*
X283031Y52496D01*
Y44504D01*
D02*
G37*
G36*
X262407Y53091D02*
Y52496D01*
X266657Y52496D01*
Y44504D01*
X262169Y44504D01*
Y49843D01*
X260793D01*
Y53131D01*
D01*
X260793Y54017D01*
X262407D01*
Y53091D01*
D02*
G37*
G36*
X262405Y41511D02*
Y41413D01*
Y41315D01*
X262267Y41177D01*
X262071D01*
X261933Y41315D01*
X261933Y41413D01*
X261933Y41511D01*
X262071Y41649D01*
X262267D01*
X262405Y41511D01*
D02*
G37*
G36*
X119470Y44426D02*
X115730Y40489D01*
X115828Y44525D01*
X119470Y44426D01*
D02*
G37*
G36*
X121242Y41784D02*
Y40284D01*
X120742Y39784D01*
X120001Y39811D01*
X119242Y39784D01*
X118742D01*
X118242Y40284D01*
Y41784D01*
X118820Y41780D01*
X118820Y40205D01*
X119608Y40205D01*
Y41780D01*
X120001D01*
Y40205D01*
X120789Y40205D01*
X120742Y41784D01*
X118242D01*
Y42284D01*
X121242D01*
X121242Y41784D01*
D02*
G37*
G36*
X128742D02*
Y40284D01*
X128242Y39784D01*
Y41284D01*
Y41784D01*
X126742D01*
Y40284D01*
X127242D01*
X127242Y39784D01*
X125742D01*
X125742Y40284D01*
X126242D01*
Y41784D01*
X126742Y42284D01*
X128242D01*
X128742Y41784D01*
D02*
G37*
G36*
X127742Y39784D02*
X127242D01*
Y40784D01*
X127742Y40784D01*
Y39784D01*
D02*
G37*
G36*
X124742Y41784D02*
Y40284D01*
X124242Y39784D01*
X123742D01*
X123242Y40284D01*
Y40784D01*
X122242Y39284D01*
Y40284D01*
X123242Y41284D01*
Y41784D01*
X123492D01*
X122242Y41784D01*
Y42284D01*
X124742Y42284D01*
Y41784D01*
D02*
G37*
G36*
X119961Y39614D02*
Y38827D01*
X120749D01*
Y38237D01*
X119961Y38237D01*
Y37449D01*
X119371D01*
Y38237D01*
X118583Y38237D01*
Y38827D01*
X119371D01*
Y39614D01*
X119961Y39614D01*
D02*
G37*
G36*
X127679Y38826D02*
X128466D01*
Y38236D01*
X127679D01*
Y37449D01*
X127088D01*
Y38236D01*
X126300D01*
Y38826D01*
X127088D01*
Y39614D01*
X127679D01*
Y38826D01*
D02*
G37*
G36*
X65530Y39020D02*
Y37490D01*
X64350D01*
Y39020D01*
Y39890D01*
X65530D01*
Y39020D01*
D02*
G37*
G36*
X62970Y39060D02*
X62970D01*
Y37490D01*
X61790D01*
X61790Y39060D01*
X61790D01*
Y39890D01*
X62970D01*
X62970Y39060D01*
D02*
G37*
G36*
X60410D02*
X60410D01*
X60410Y37490D01*
X59230D01*
Y39060D01*
X59230D01*
X59230Y39890D01*
X60410D01*
Y39060D01*
D02*
G37*
G36*
X57850Y39020D02*
Y37490D01*
X56670D01*
Y39020D01*
Y39890D01*
X57850D01*
Y39020D01*
D02*
G37*
G36*
X123820Y38827D02*
X124608D01*
Y38236D01*
X123820D01*
Y37449D01*
X123230D01*
Y38236D01*
X122442D01*
Y38827D01*
X123230D01*
Y39614D01*
X123820D01*
Y38827D01*
D02*
G37*
G36*
X55630Y37589D02*
Y37391D01*
X55489Y37250D01*
X55291D01*
X55150Y37391D01*
Y37589D01*
X55291Y37730D01*
X55489D01*
X55630Y37589D01*
D02*
G37*
G36*
X121379Y32028D02*
Y30528D01*
X120879Y30028D01*
X120139Y30055D01*
X119379Y30028D01*
X118879D01*
X118379Y30528D01*
Y32028D01*
X118958Y32024D01*
Y30449D01*
X119746D01*
Y32024D01*
X120139D01*
Y30449D01*
X120926D01*
X120879Y32028D01*
X118379D01*
Y32528D01*
X121379D01*
Y32028D01*
D02*
G37*
G36*
X128879D02*
Y30528D01*
X128379Y30028D01*
Y31528D01*
Y32028D01*
X126879D01*
Y30528D01*
X127379D01*
Y31028D01*
X127879D01*
Y30028D01*
X125879D01*
Y30528D01*
X126379D01*
Y32028D01*
X126879Y32528D01*
X128379D01*
X128879Y32028D01*
D02*
G37*
G36*
X124879Y32528D02*
Y32028D01*
Y30528D01*
X124379Y30028D01*
X123879D01*
X123379Y30528D01*
Y31028D01*
X122379Y29528D01*
Y30528D01*
X123379Y31528D01*
Y32028D01*
X122379D01*
Y32528D01*
X124879Y32528D01*
D02*
G37*
G36*
X127679Y27410D02*
X127088D01*
Y29575D01*
X127679Y29575D01*
Y27410D01*
D02*
G37*
G36*
X123820Y29575D02*
X123820Y27410D01*
X123230D01*
Y29575D01*
X123820Y29575D01*
D02*
G37*
G36*
X119963Y27409D02*
X119372D01*
Y29574D01*
X119963D01*
Y27409D01*
D02*
G37*
G36*
X221584Y26713D02*
Y22815D01*
X219616D01*
Y26713D01*
Y29153D01*
X221584D01*
Y26713D01*
D02*
G37*
G36*
X211584D02*
Y22815D01*
X209616D01*
Y26713D01*
Y29153D01*
X211584D01*
Y26713D01*
D02*
G37*
%LPC*%
G36*
X123742Y41784D02*
Y40284D01*
X124242Y40284D01*
Y41784D01*
X124742D01*
X123742D01*
D02*
G37*
G36*
X124379Y32028D02*
X123879D01*
Y30528D01*
X124379D01*
Y32028D01*
D02*
G37*
%LPD*%
D14*
X175734Y119000D02*
G03*
X175734Y119000I-394J0D01*
G01*
X283494Y25760D02*
G03*
X283494Y25760I-394J0D01*
G01*
D16*
X124576Y213441D02*
G03*
X124576Y213441I-787J0D01*
G01*
X174576D02*
G03*
X174576Y213441I-787J0D01*
G01*
D20*
X271407Y233941D02*
X274557Y233941D01*
X271407Y233941D02*
X272982Y237091D01*
X274557Y233941D01*
X278888Y248902D02*
X284793D01*
Y237878D02*
Y248902D01*
X278888Y237878D02*
X284793Y237878D01*
X246407Y248902D02*
X252313Y248902D01*
X246407Y237878D02*
Y248902D01*
Y237878D02*
X252313Y237878D01*
Y250477D02*
X278888D01*
X252313Y233941D02*
Y250477D01*
Y233941D02*
X278888Y233941D01*
X278888Y250477D02*
X278888Y233941D01*
X165600Y137531D02*
Y141469D01*
X163631Y139500D02*
X167569D01*
X165171Y170531D02*
Y174469D01*
X163202Y172500D02*
X167139D01*
X92837Y182538D02*
Y197538D01*
X80239Y182538D02*
Y197538D01*
X92837D01*
X80239Y182538D02*
X92837D01*
X145301Y52000D02*
Y67000D01*
X157899Y52000D02*
Y67000D01*
X145301Y52000D02*
X157899D01*
X145301Y67000D02*
X157899D01*
X131301Y52000D02*
Y67000D01*
X143899Y52000D02*
Y67000D01*
X131301Y52000D02*
X143899D01*
X131301Y67000D02*
X143899D01*
X117301Y52000D02*
Y67000D01*
X129899Y52000D02*
Y67000D01*
X117301Y52000D02*
X129899D01*
X117301Y67000D02*
X129899D01*
X185056Y248429D02*
X213056D01*
X185056Y227956D02*
X213056D01*
X185056D02*
Y248429D01*
X213056Y227956D02*
Y248429D01*
X158060Y118265D02*
Y131265D01*
X141060Y118265D02*
X158060Y118265D01*
X141060Y131265D02*
X141060Y118265D01*
X141060Y131265D02*
X158060Y131265D01*
X94301Y182538D02*
X106899D01*
X94301Y197538D02*
X106899D01*
X94301Y182538D02*
Y197538D01*
X106899Y182538D02*
Y197538D01*
X197632Y192500D02*
X201569Y192500D01*
X199600Y190532D02*
Y194468D01*
X66461Y100538D02*
X79060D01*
X66461Y115538D02*
X79060D01*
X66461Y100538D02*
Y115538D01*
X79060Y100538D02*
Y115538D01*
X66461Y127871D02*
X79060D01*
X66461Y142871D02*
X79060D01*
X66461Y127871D02*
Y142871D01*
X79060Y127871D02*
Y142871D01*
X80239Y100538D02*
X92837D01*
X80239Y115538D02*
X92837D01*
X80239Y100538D02*
Y115538D01*
X92837Y100538D02*
Y115538D01*
X80239Y127871D02*
X92837D01*
X80239Y142871D02*
X92837D01*
X80239Y127871D02*
Y142871D01*
X92837Y127871D02*
Y142871D01*
X52684Y100538D02*
X65283D01*
X52684Y115538D02*
X65283D01*
X52684Y100538D02*
Y115538D01*
X65283Y100538D02*
Y115538D01*
X52684Y127871D02*
X65283D01*
X52684Y142871D02*
X65283D01*
X52684Y127871D02*
Y142871D01*
X65283Y127871D02*
Y142871D01*
X66461Y182538D02*
X79060D01*
X66461Y197538D02*
X79060D01*
X66461Y182538D02*
Y197538D01*
X79060Y182538D02*
Y197538D01*
X66461Y155204D02*
X79060D01*
X66461Y170204D02*
X79060D01*
X66461Y155204D02*
Y170204D01*
X79060Y155204D02*
Y170204D01*
X80239Y155204D02*
X92837D01*
X80239Y170204D02*
X92837D01*
X80239Y155204D02*
Y170204D01*
X92837Y155204D02*
Y170204D01*
X52684Y182538D02*
X65283D01*
X52684Y197538D02*
X65283D01*
X52684Y182538D02*
Y197538D01*
X65283Y182538D02*
Y197538D01*
X52684Y155204D02*
X65283D01*
X52684Y170204D02*
X65283D01*
X52684Y155204D02*
Y170204D01*
X65283Y155204D02*
Y170204D01*
D173*
X93560Y201878D02*
G03*
X117182Y225500I0J23622D01*
G01*
X69938D02*
G03*
X93560Y201878I23622J0D01*
G01*
Y249122D02*
G03*
X69938Y225500I0J-23622D01*
G01*
X117182D02*
G03*
X93560Y249122I-23622J0D01*
G01*
X229773Y29114D02*
Y55886D01*
X201427Y29114D02*
X229773D01*
X201427D02*
Y55886D01*
X229773D01*
X201600Y94500D02*
X202100D01*
X201100D02*
X201600D01*
Y94000D02*
Y95000D01*
X215679Y91201D02*
X225522D01*
Y103799D01*
X215679D02*
X225522D01*
X215679Y91201D02*
Y103799D01*
X220600Y77000D02*
Y77500D01*
Y78000D01*
X220100Y77500D02*
X221100D01*
X313513Y95205D02*
Y118827D01*
Y95205D02*
X327686D01*
Y118827D01*
X313513D02*
X327686D01*
X295850Y95205D02*
Y118827D01*
Y95205D02*
X310023D01*
Y118827D01*
X295850D02*
X310023D01*
X195968Y57493D02*
Y68911D01*
X189669Y57493D02*
X195968D01*
X189669D02*
Y68911D01*
X195968D01*
X264994Y175303D02*
X292553D01*
Y147743D02*
Y175303D01*
X264994Y147743D02*
X292553D01*
X264994D02*
Y175303D01*
X44654Y170363D02*
Y195773D01*
X4753Y170363D02*
X44654D01*
X4753D02*
Y195773D01*
X44654Y195773D01*
Y197732D02*
Y223142D01*
X4753Y197732D02*
X44654D01*
X4753D02*
Y223142D01*
X44654D01*
Y142995D02*
Y168404D01*
X4753Y142995D02*
X44654D01*
X4753D02*
Y168404D01*
X44654D01*
Y115626D02*
Y141036D01*
X4753Y115626D02*
X44654D01*
X4753D02*
Y141036D01*
X44654D01*
X189612Y148079D02*
X228588D01*
Y132725D02*
Y148079D01*
X189612Y132725D02*
X228588D01*
X189612D02*
Y148079D01*
X277917Y90875D02*
Y91375D01*
Y91875D01*
X277417Y91375D02*
X278417D01*
X229572Y69332D02*
X263628D01*
Y53977D02*
Y69332D01*
X229572Y53977D02*
X263628D01*
X229572D02*
Y69332D01*
X55390Y39850D02*
X66810D01*
Y46150D01*
X55390D02*
X66810D01*
X55390Y39850D02*
Y46150D01*
X174600Y124000D02*
Y125000D01*
X174100Y124500D02*
X174600D01*
X175100D01*
X309411Y65414D02*
Y79587D01*
X285789Y65414D02*
X309411D01*
X285789D02*
Y79587D01*
X309411D01*
X263545Y41413D02*
Y55587D01*
X281655D01*
Y41413D02*
Y55587D01*
X263545Y41413D02*
X281655D01*
D174*
X211100Y164500D02*
G03*
X211100Y164500I-500J0D01*
G01*
X187100Y182500D02*
G03*
X187100Y182500I-500J0D01*
G01*
X167100Y155500D02*
G03*
X167100Y155500I-500J0D01*
G01*
X172100Y189500D02*
G03*
X172100Y189500I-500J0D01*
G01*
X176671Y170500D02*
G03*
X176671Y170500I-500J0D01*
G01*
X210100Y80500D02*
G03*
X210100Y80500I-500J0D01*
G01*
X295100Y136500D02*
G03*
X295100Y136500I-500J0D01*
G01*
X154100Y138500D02*
G03*
X154100Y138500I-500J0D01*
G01*
X299100Y60500D02*
G03*
X299100Y60500I-500J0D01*
G01*
X204277Y119500D02*
G03*
X204277Y119500I-500J0D01*
G01*
X210395D02*
G03*
X210395Y119500I-500J0D01*
G01*
X183100Y93500D02*
G03*
X183100Y93500I-500J0D01*
G01*
X189569D02*
G03*
X189569Y93500I-500J0D01*
G01*
X195687D02*
G03*
X195687Y93500I-500J0D01*
G01*
X232100Y97500D02*
G03*
X232100Y97500I-500J0D01*
G01*
X314100Y111500D02*
G03*
X314100Y111500I-500J0D01*
G01*
X296100D02*
G03*
X296100Y111500I-500J0D01*
G01*
X219100Y238500D02*
G03*
X219100Y238500I-500J0D01*
G01*
X267417Y111875D02*
G03*
X267417Y111875I-500J0D01*
G01*
X288600Y94000D02*
G03*
X288600Y94000I-500J0D01*
G01*
X162560Y125765D02*
G03*
X162560Y125765I-500J0D01*
G01*
X168789Y125765D02*
G03*
X168789Y125765I-500J0D01*
G01*
X131183Y128331D02*
G03*
X131183Y128331I-500J0D01*
G01*
X137301Y128331D02*
G03*
X137301Y128331I-500J0D01*
G01*
X257600Y141000D02*
G03*
X257600Y141000I-500J0D01*
G01*
X260100Y190059D02*
G03*
X260100Y190059I-500J0D01*
G01*
X113100Y197500D02*
G03*
X113100Y197500I-500J0D01*
G01*
X215100Y121500D02*
G03*
X215100Y121500I-500J0D01*
G01*
X197100D02*
G03*
X197100Y121500I-500J0D01*
G01*
X186100Y155500D02*
G03*
X186100Y155500I-500J0D01*
G01*
X189100Y194500D02*
G03*
X189100Y194500I-500J0D01*
G01*
X211100Y192500D02*
G03*
X211100Y192500I-500J0D01*
G01*
X177100Y137500D02*
G03*
X177100Y137500I-500J0D01*
G01*
X153671Y170500D02*
G03*
X153671Y170500I-500J0D01*
G01*
X289100Y29500D02*
G03*
X289100Y29500I-500J0D01*
G01*
X193100Y80500D02*
G03*
X193100Y80500I-500J0D01*
G01*
Y74500D02*
G03*
X193100Y74500I-500J0D01*
G01*
X63100Y54000D02*
G03*
X63100Y54000I-500J0D01*
G01*
X32600Y50000D02*
G03*
X32600Y50000I-500J0D01*
G01*
X73100Y51500D02*
G03*
X73100Y51500I-500J0D01*
G01*
X52100Y21000D02*
G03*
X52100Y21000I-500J0D01*
G01*
X303100Y182000D02*
G03*
X303100Y182000I-500J0D01*
G01*
X304100Y44500D02*
G03*
X304100Y44500I-500J0D01*
G01*
X236100Y36500D02*
G03*
X236100Y36500I-500J0D01*
G01*
X212100Y70500D02*
G03*
X212100Y70500I-500J0D01*
G01*
X210600Y163713D02*
Y165287D01*
X209813Y164500D02*
X211387D01*
X185813Y182500D02*
X187387D01*
X186600Y181713D02*
Y183287D01*
X165813Y155500D02*
X167387D01*
X166600Y154713D02*
Y156287D01*
X170813Y189500D02*
X172387D01*
X171600Y188713D02*
Y190287D01*
X176171Y169713D02*
Y171287D01*
X175383Y170500D02*
X176958D01*
X208813Y80500D02*
X210387D01*
X209600Y79713D02*
Y81287D01*
X294043Y135943D02*
X295157Y137057D01*
X294043D02*
X295157Y135943D01*
X153600Y137713D02*
Y139287D01*
X152813Y138500D02*
X154387Y138500D01*
X297813Y60500D02*
X299387D01*
X298600Y59713D02*
Y61287D01*
X203777Y118713D02*
Y120287D01*
X202990Y119500D02*
X204564D01*
X209108D02*
X210682D01*
X209895Y118713D02*
X209895Y120287D01*
X182600Y92713D02*
Y94287D01*
X181813Y93500D02*
X183387Y93500D01*
X189069Y92713D02*
Y94287D01*
X188281Y93500D02*
X189856D01*
X195187Y92713D02*
Y94287D01*
X194399Y93500D02*
X195974D01*
X231600Y96713D02*
Y98287D01*
X230813Y97500D02*
X232387D01*
X313600Y110713D02*
Y112287D01*
X312813Y111500D02*
X314387D01*
X295600Y110713D02*
Y112287D01*
X294813Y111500D02*
X296387D01*
X218600Y237713D02*
Y239287D01*
X217813Y238500D02*
X219387D01*
X266129Y111875D02*
X267704Y111875D01*
X266917Y111087D02*
Y112662D01*
X288100Y93213D02*
Y94787D01*
X287313Y94000D02*
X288887D01*
X161272Y125765D02*
X162847D01*
X162060Y124978D02*
Y126552D01*
X168289Y124978D02*
Y126552D01*
X167502Y125765D02*
X169077D01*
X130683Y127543D02*
Y129118D01*
X129895Y128331D02*
X131470D01*
X136801Y127543D02*
Y129118D01*
X136013Y128331D02*
X137588Y128331D01*
X256543Y141557D02*
X257657Y140443D01*
X256543D02*
X257657Y141557D01*
X259600Y189271D02*
Y190846D01*
X258813Y190059D02*
X260388D01*
X112600Y196713D02*
Y198287D01*
X111813Y197500D02*
X113387D01*
X213813Y121500D02*
X215387D01*
X214600Y120713D02*
Y122287D01*
X195813Y121500D02*
X197387D01*
X196600Y120713D02*
Y122287D01*
X185600Y154713D02*
Y156287D01*
X184813Y155500D02*
X186387D01*
X187813Y194500D02*
X189387D01*
X188600Y193713D02*
X188600Y195287D01*
X209813Y192500D02*
X211387D01*
X210600Y191713D02*
Y193287D01*
X175813Y137500D02*
X177387D01*
X176600Y136713D02*
Y138287D01*
X152383Y170500D02*
X153958D01*
X153171Y169713D02*
Y171287D01*
X287813Y29500D02*
X289387D01*
X288600Y28713D02*
Y30287D01*
X192600Y79713D02*
Y81287D01*
X191813Y80500D02*
X193387D01*
X192600Y73713D02*
Y75287D01*
X191813Y74500D02*
X193387D01*
X62600Y53213D02*
Y54787D01*
X61813Y54000D02*
X63387D01*
X31313Y50000D02*
X32887D01*
X32100Y49213D02*
Y50787D01*
X71813Y51500D02*
X73387D01*
X72600Y50713D02*
Y52287D01*
X51600Y20213D02*
Y21787D01*
X50813Y21000D02*
X52387D01*
X302043Y181443D02*
X303157Y182557D01*
X302043D02*
X303157Y181443D01*
X302813Y44500D02*
X304387D01*
X303600Y43713D02*
Y45287D01*
X234813Y36500D02*
X236387D01*
X235600Y35713D02*
Y37287D01*
X211600Y69713D02*
Y71287D01*
X210813Y70500D02*
X212387D01*
D175*
X87916Y190038D02*
G03*
X87916Y190038I-1378J0D01*
G01*
X152978Y59500D02*
G03*
X152978Y59500I-1378J0D01*
G01*
X138978D02*
G03*
X138978Y59500I-1378J0D01*
G01*
X124978D02*
G03*
X124978Y59500I-1378J0D01*
G01*
X85978Y29000D02*
G03*
X85978Y29000I-1378J0D01*
G01*
X260978Y217500D02*
G03*
X260978Y217500I-1378J0D01*
G01*
X200433Y238193D02*
G03*
X200433Y238193I-1378J0D01*
G01*
X40978Y79500D02*
G03*
X40978Y79500I-1378J0D01*
G01*
X150938Y140765D02*
G03*
X150938Y140765I-1378J0D01*
G01*
Y124765D02*
G03*
X150938Y124765I-1378J0D01*
G01*
X168978Y139500D02*
G03*
X168978Y139500I-1378J0D01*
G01*
D02*
G03*
X168978Y139500I-1378J0D01*
G01*
X124938Y129765D02*
G03*
X124938Y129765I-1378J0D01*
G01*
D02*
G03*
X124938Y129765I-1378J0D01*
G01*
X178978Y228500D02*
G03*
X178978Y228500I-1378J0D01*
G01*
Y248500D02*
G03*
X178978Y248500I-1378J0D01*
G01*
X120978Y241600D02*
G03*
X120978Y241600I-1378J0D01*
G01*
X101978Y190038D02*
G03*
X101978Y190038I-1378J0D01*
G01*
X262978Y29500D02*
G03*
X262978Y29500I-1378J0D01*
G01*
X43978Y50500D02*
G03*
X43978Y50500I-1378J0D01*
G01*
X107978Y29500D02*
G03*
X107978Y29500I-1378J0D01*
G01*
D02*
G03*
X107978Y29500I-1378J0D01*
G01*
X81978Y50500D02*
G03*
X81978Y50500I-1378J0D01*
G01*
D02*
G03*
X81978Y50500I-1378J0D01*
G01*
X74139Y108038D02*
G03*
X74139Y108038I-1378J0D01*
G01*
Y135371D02*
G03*
X74139Y135371I-1378J0D01*
G01*
X270978Y224500D02*
G03*
X270978Y224500I-1378J0D01*
G01*
X87916Y108038D02*
G03*
X87916Y108038I-1378J0D01*
G01*
X87916Y135371D02*
G03*
X87916Y135371I-1378J0D01*
G01*
X290978Y222500D02*
G03*
X290978Y222500I-1378J0D01*
G01*
X60361Y108038D02*
G03*
X60361Y108038I-1378J0D01*
G01*
X60361Y135371D02*
G03*
X60361Y135371I-1378J0D01*
G01*
X74139Y190038D02*
G03*
X74139Y190038I-1378J0D01*
G01*
Y162705D02*
G03*
X74139Y162705I-1378J0D01*
G01*
X87916D02*
G03*
X87916Y162705I-1378J0D01*
G01*
X60361Y190038D02*
G03*
X60361Y190038I-1378J0D01*
G01*
Y162705D02*
G03*
X60361Y162705I-1378J0D01*
G01*
X300978Y202500D02*
G03*
X300978Y202500I-1378J0D01*
G01*
X60978Y219500D02*
G03*
X60978Y219500I-1378J0D01*
G01*
D02*
G03*
X60978Y219500I-1378J0D01*
G01*
X158513Y134185D02*
X172687D01*
X158513Y144815D02*
X172687D01*
X158513Y134185D02*
Y144815D01*
X172687Y134185D02*
Y144815D01*
X158084Y167185D02*
X172257Y167185D01*
X158084Y177815D02*
X172257D01*
X158084Y167185D02*
Y177815D01*
X172257Y167185D02*
Y177815D01*
X86538Y188069D02*
Y192006D01*
X84569Y190038D02*
X88506D01*
X151600Y57531D02*
Y61468D01*
X149632Y59500D02*
X153568D01*
X137600Y57531D02*
Y61468D01*
X135632Y59500D02*
X139568D01*
X123600Y57531D02*
Y61468D01*
X121632Y59500D02*
X125568D01*
X82631Y29000D02*
X86568D01*
X84600Y27031D02*
Y30968D01*
X257631Y217500D02*
X261568D01*
X259600Y215531D02*
Y219468D01*
X197087Y238193D02*
X201024D01*
X199056Y236224D02*
Y240161D01*
X38208Y80892D02*
X40992Y78108D01*
X38208D02*
X40992Y80892D01*
X149560Y138796D02*
Y142733D01*
X147591Y140765D02*
X151528D01*
X147591Y124765D02*
X151528D01*
X149560Y122796D02*
Y126733D01*
X165631Y139500D02*
X169569D01*
X167600Y137531D02*
Y141469D01*
Y137531D02*
Y141469D01*
X165631Y139500D02*
X169569D01*
X121591Y129765D02*
X125528D01*
X123560Y127796D02*
Y131733D01*
Y127796D02*
Y131733D01*
X121591Y129765D02*
X125528D01*
X177600Y226532D02*
Y230469D01*
X175631Y228500D02*
X179569D01*
X177600Y246532D02*
Y250468D01*
X175631Y248500D02*
X179569D01*
X117988Y240471D02*
X121212Y242729D01*
X118471Y243213D02*
X120729Y239987D01*
X98632Y190038D02*
X102568D01*
X100600Y188069D02*
Y192006D01*
X192513Y187185D02*
Y197815D01*
X206687Y187185D02*
Y197815D01*
X192513Y187185D02*
X206687D01*
X192513Y197815D02*
X206687Y197815D01*
X261600Y27531D02*
Y31468D01*
X259631Y29500D02*
X263568D01*
X42600Y48531D02*
Y52469D01*
X40631Y50500D02*
X44568D01*
X104631Y29500D02*
X108569D01*
X106600Y27531D02*
Y31468D01*
Y27531D02*
Y31468D01*
X104631Y29500D02*
X108569D01*
X78632Y50500D02*
X82569D01*
X80600Y48531D02*
Y52469D01*
Y48531D02*
Y52469D01*
X78632Y50500D02*
X82569D01*
X70792Y108038D02*
X74729D01*
X72761Y106069D02*
Y110006D01*
X70792Y135371D02*
X74729D01*
X72761Y133403D02*
Y137340D01*
X267632Y224500D02*
X271568D01*
X269600Y222532D02*
Y226468D01*
X84569Y108038D02*
X88506D01*
X86538Y106069D02*
Y110006D01*
X84569Y135371D02*
X88506D01*
X86538Y133403D02*
Y137340D01*
X287632Y222500D02*
X291568D01*
X289600Y220532D02*
Y224468D01*
X57015Y108038D02*
X60952D01*
X58983Y106069D02*
Y110006D01*
X57015Y135371D02*
X60952D01*
X58983Y133403D02*
Y137340D01*
X70792Y190038D02*
X74729D01*
X72761Y188069D02*
Y192006D01*
X70792Y162705D02*
X74729D01*
X72761Y160736D02*
Y164673D01*
X84569Y162705D02*
X88506D01*
X86538Y160736D02*
Y164673D01*
X57015Y190038D02*
X60952D01*
X58983Y188069D02*
Y192006D01*
X57015Y162705D02*
X60952D01*
X58983Y160736D02*
Y164673D01*
X299600Y200532D02*
Y204468D01*
X297632Y202500D02*
X301569D01*
X59600Y217531D02*
Y221468D01*
X57631Y219500D02*
X61568D01*
X57631D02*
X61568D01*
X59600Y217531D02*
Y221468D01*
D176*
X278654Y111875D02*
G03*
X278654Y111875I-707J0D01*
G01*
X277946Y110875D02*
Y112875D01*
X276946Y111875D02*
X278946D01*
M02*
