G04*
G04 #@! TF.GenerationSoftware,Altium Limited,Altium Designer,20.0.1 (14)*
G04*
G04 Layer_Color=2752767*
%FSLAX25Y25*%
%MOIN*%
G70*
G01*
G75*
%ADD173C,0.00200*%
%ADD177C,0.00267*%
D173*
X319108Y239299D02*
Y240899D01*
X320708D01*
Y239299D01*
X319108D01*
X33600Y178331D02*
X32800Y179931D01*
X34400D01*
X33600Y178331D01*
X41474D02*
X40674Y179931D01*
X42274D01*
X41474Y178331D01*
X33600Y186205D02*
X32800Y187805D01*
X34400D01*
X33600Y186205D01*
X41474D02*
X40674Y187805D01*
X42274D01*
X41474Y186205D01*
X33600Y205700D02*
X32800Y207300D01*
X34400D01*
X33600Y205700D01*
X41474D02*
X40674Y207300D01*
X42274D01*
X41474Y205700D01*
X33600Y213574D02*
X32800Y215174D01*
X34400D01*
X33600Y213574D01*
X41474D02*
X40674Y215174D01*
X42274D01*
X41474Y213574D01*
X33600Y150962D02*
X32800Y152562D01*
X34400D01*
X33600Y150962D01*
X41474D02*
X40674Y152562D01*
X42274D01*
X41474Y150962D01*
X33600Y158836D02*
X32800Y160436D01*
X34400D01*
X33600Y158836D01*
X41474D02*
X40674Y160436D01*
X42274D01*
X41474Y158836D01*
X33600Y123594D02*
X32800Y125194D01*
X34400D01*
X33600Y123594D01*
X41474D02*
X40674Y125194D01*
X42274D01*
X41474Y123594D01*
X33600Y131468D02*
X32800Y133068D01*
X34400D01*
X33600Y131468D01*
X41474D02*
X40674Y133068D01*
X42274D01*
X41474Y131468D01*
X62600Y245700D02*
X63000Y246100D01*
X63400D01*
X63000Y246500D01*
X63400Y246900D01*
X63000D01*
X62600Y247300D01*
X62200Y246900D01*
X61800D01*
X62200Y246500D01*
X61800Y246100D01*
X62200D01*
X62600Y245700D01*
X52600Y235700D02*
X53000Y236100D01*
X53400D01*
X53000Y236500D01*
X53400Y236900D01*
X53000D01*
X52600Y237300D01*
X52200Y236900D01*
X51800D01*
X52200Y236500D01*
X51800Y236100D01*
X52200D01*
X52600Y235700D01*
X294064Y243235D02*
X294464Y243636D01*
X294865D01*
X294464Y244036D01*
X294865Y244436D01*
X294464D01*
X294064Y244835D01*
X293665Y244436D01*
X293265D01*
X293665Y244036D01*
X293265Y243636D01*
X293665D01*
X294064Y243235D01*
X301136Y236164D02*
X301536Y236564D01*
X301936D01*
X301536Y236965D01*
X301936Y237365D01*
X301536D01*
X301136Y237765D01*
X300736Y237365D01*
X300336D01*
X300736Y236965D01*
X300336Y236564D01*
X300736D01*
X301136Y236164D01*
X125600Y150700D02*
X126000Y151100D01*
X126400D01*
X126000Y151500D01*
X126400Y151900D01*
X126000D01*
X125600Y152300D01*
X125200Y151900D01*
X124800D01*
X125200Y151500D01*
X124800Y151100D01*
X125200D01*
X125600Y150700D01*
X115600D02*
X116000Y151100D01*
X116400D01*
X116000Y151500D01*
X116400Y151900D01*
X116000D01*
X115600Y152300D01*
X115200Y151900D01*
X114800D01*
X115200Y151500D01*
X114800Y151100D01*
X115200D01*
X115600Y150700D01*
X96600Y33700D02*
X97000Y34100D01*
X97400D01*
X97000Y34500D01*
X97400Y34900D01*
X97000D01*
X96600Y35300D01*
X96200Y34900D01*
X95800D01*
X96200Y34500D01*
X95800Y34100D01*
X96200D01*
X96600Y33700D01*
Y23700D02*
X97000Y24100D01*
X97400D01*
X97000Y24500D01*
X97400Y24900D01*
X97000D01*
X96600Y25300D01*
X96200Y24900D01*
X95800D01*
X96200Y24500D01*
X95800Y24100D01*
X96200D01*
X96600Y23700D01*
X246600Y33700D02*
X247000Y34100D01*
X247400D01*
X247000Y34500D01*
X247400Y34900D01*
X247000D01*
X246600Y35300D01*
X246200Y34900D01*
X245800D01*
X246200Y34500D01*
X245800Y34100D01*
X246200D01*
X246600Y33700D01*
Y23700D02*
X247000Y24100D01*
X247400D01*
X247000Y24500D01*
X247400Y24900D01*
X247000D01*
X246600Y25300D01*
X246200Y24900D01*
X245800D01*
X246200Y24500D01*
X245800Y24100D01*
X246200D01*
X246600Y23700D01*
X116100Y97700D02*
X116500Y98100D01*
X116900D01*
X116500Y98500D01*
X116900Y98900D01*
X116500D01*
X116100Y99300D01*
X115700Y98900D01*
X115300D01*
X115700Y98500D01*
X115300Y98100D01*
X115700D01*
X116100Y97700D01*
X126100D02*
X126500Y98100D01*
X126900D01*
X126500Y98500D01*
X126900Y98900D01*
X126500D01*
X126100Y99300D01*
X125700Y98900D01*
X125300D01*
X125700Y98500D01*
X125300Y98100D01*
X125700D01*
X126100Y97700D01*
X136100D02*
X136500Y98100D01*
X136900D01*
X136500Y98500D01*
X136900Y98900D01*
X136500D01*
X136100Y99300D01*
X135700Y98900D01*
X135300D01*
X135700Y98500D01*
X135300Y98100D01*
X135700D01*
X136100Y97700D01*
X146100D02*
X146500Y98100D01*
X146900D01*
X146500Y98500D01*
X146900Y98900D01*
X146500D01*
X146100Y99300D01*
X145700Y98900D01*
X145300D01*
X145700Y98500D01*
X145300Y98100D01*
X145700D01*
X146100Y97700D01*
X226600Y212200D02*
X227000Y212600D01*
X227400D01*
X227000Y213000D01*
X227400Y213400D01*
X227000D01*
X226600Y213800D01*
X226200Y213400D01*
X225800D01*
X226200Y213000D01*
X225800Y212600D01*
X226200D01*
X226600Y212200D01*
X236600D02*
X237000Y212600D01*
X237400D01*
X237000Y213000D01*
X237400Y213400D01*
X237000D01*
X236600Y213800D01*
X236200Y213400D01*
X235800D01*
X236200Y213000D01*
X235800Y212600D01*
X236200D01*
X236600Y212200D01*
X62600Y235700D02*
X63000Y236100D01*
X63400D01*
X63000Y236500D01*
X63400Y236900D01*
X63000D01*
X62600Y237300D01*
X62200Y236900D01*
X61800D01*
X62200Y236500D01*
X61800Y236100D01*
X62200D01*
X62600Y235700D01*
X52600Y245700D02*
X53000Y246100D01*
X53400D01*
X53000Y246500D01*
X53400Y246900D01*
X53000D01*
X52600Y247300D01*
X52200Y246900D01*
X51800D01*
X52200Y246500D01*
X51800Y246100D01*
X52200D01*
X52600Y245700D01*
X27769Y239299D02*
Y240899D01*
X29369D01*
Y239299D01*
X27769D01*
Y26701D02*
Y28301D01*
X29369D01*
Y26701D01*
X27769D01*
X319108D02*
Y28301D01*
X320708D01*
Y26701D01*
X319108D01*
Y229949D02*
X319508Y230749D01*
X319108Y231549D01*
X319908Y231149D01*
X320708Y231549D01*
X320308Y230749D01*
X320708Y229949D01*
X319908Y230349D01*
X319108Y229949D01*
Y248650D02*
X319508Y249450D01*
X319108Y250250D01*
X319908Y249850D01*
X320708Y250250D01*
X320308Y249450D01*
X320708Y248650D01*
X319908Y249050D01*
X319108Y248650D01*
X325718Y232689D02*
X326118Y233489D01*
X325718Y234289D01*
X326518Y233889D01*
X327318Y234289D01*
X326918Y233489D01*
X327318Y232689D01*
X326518Y233089D01*
X325718Y232689D01*
X312498D02*
X312898Y233489D01*
X312498Y234289D01*
X313298Y233889D01*
X314098Y234289D01*
X313698Y233489D01*
X314098Y232689D01*
X313298Y233089D01*
X312498Y232689D01*
X325718Y245910D02*
X326118Y246709D01*
X325718Y247510D01*
X326518Y247110D01*
X327318Y247510D01*
X326918Y246709D01*
X327318Y245910D01*
X326518Y246309D01*
X325718Y245910D01*
X309757Y239299D02*
X310157Y240099D01*
X309757Y240899D01*
X310558Y240499D01*
X311357Y240899D01*
X310958Y240099D01*
X311357Y239299D01*
X310558Y239699D01*
X309757Y239299D01*
X328458D02*
X328858Y240099D01*
X328458Y240899D01*
X329258Y240499D01*
X330058Y240899D01*
X329658Y240099D01*
X330058Y239299D01*
X329258Y239699D01*
X328458Y239299D01*
X312498Y245910D02*
X312898Y246709D01*
X312498Y247510D01*
X313298Y247110D01*
X314098Y247510D01*
X313698Y246709D01*
X314098Y245910D01*
X313298Y246309D01*
X312498Y245910D01*
X283200Y102600D02*
Y102200D01*
X284000D01*
Y102600D01*
X284400D01*
Y103400D01*
X284000D01*
Y103800D01*
X283200D01*
Y103400D01*
X282800D01*
Y102600D01*
X283200D01*
X158200Y132600D02*
Y132200D01*
X159000D01*
Y132600D01*
X159400D01*
Y133400D01*
X159000D01*
Y133800D01*
X158200D01*
Y133400D01*
X157800D01*
Y132600D01*
X158200D01*
X156200Y131100D02*
Y130700D01*
X157000D01*
Y131100D01*
X157400D01*
Y131900D01*
X157000D01*
Y132300D01*
X156200D01*
Y131900D01*
X155800D01*
Y131100D01*
X156200D01*
X215200Y114100D02*
Y113700D01*
X216000D01*
Y114100D01*
X216400D01*
Y114900D01*
X216000D01*
Y115300D01*
X215200D01*
Y114900D01*
X214800D01*
Y114100D01*
X215200D01*
X158700Y116100D02*
Y115700D01*
X159500D01*
Y116100D01*
X159900D01*
Y116900D01*
X159500D01*
Y117300D01*
X158700D01*
Y116900D01*
X158300D01*
Y116100D01*
X158700D01*
X320700Y81100D02*
Y80700D01*
X321500D01*
Y81100D01*
X321900D01*
Y81900D01*
X321500D01*
Y82300D01*
X320700D01*
Y81900D01*
X320300D01*
Y81100D01*
X320700D01*
X325700Y91100D02*
Y90700D01*
X326500D01*
Y91100D01*
X326900D01*
Y91900D01*
X326500D01*
Y92300D01*
X325700D01*
Y91900D01*
X325300D01*
Y91100D01*
X325700D01*
X310144Y91656D02*
Y91256D01*
X310944D01*
Y91656D01*
X311344D01*
Y92456D01*
X310944D01*
Y92856D01*
X310144D01*
Y92456D01*
X309744D01*
Y91656D01*
X310144D01*
X25700Y47600D02*
Y47200D01*
X26500D01*
Y47600D01*
X26900D01*
Y48400D01*
X26500D01*
Y48800D01*
X25700D01*
Y48400D01*
X25300D01*
Y47600D01*
X25700D01*
X23200D02*
Y47200D01*
X24000D01*
Y47600D01*
X24400D01*
Y48400D01*
X24000D01*
Y48800D01*
X23200D01*
Y48400D01*
X22800D01*
Y47600D01*
X23200D01*
X25700Y50100D02*
Y49700D01*
X26500D01*
Y50100D01*
X26900D01*
Y50900D01*
X26500D01*
Y51300D01*
X25700D01*
Y50900D01*
X25300D01*
Y50100D01*
X25700D01*
X23200D02*
Y49700D01*
X24000D01*
Y50100D01*
X24400D01*
Y50900D01*
X24000D01*
Y51300D01*
X23200D01*
Y50900D01*
X22800D01*
Y50100D01*
X23200D01*
X25700Y52600D02*
Y52200D01*
X26500D01*
Y52600D01*
X26900D01*
Y53400D01*
X26500D01*
Y53800D01*
X25700D01*
Y53400D01*
X25300D01*
Y52600D01*
X25700D01*
X23200D02*
Y52200D01*
X24000D01*
Y52600D01*
X24400D01*
Y53400D01*
X24000D01*
Y53800D01*
X23200D01*
Y53400D01*
X22800D01*
Y52600D01*
X23200D01*
X62200Y42600D02*
Y42200D01*
X63000D01*
Y42600D01*
X63400D01*
Y43400D01*
X63000D01*
Y43800D01*
X62200D01*
Y43400D01*
X61800D01*
Y42600D01*
X62200D01*
X64700D02*
Y42200D01*
X65500D01*
Y42600D01*
X65900D01*
Y43400D01*
X65500D01*
Y43800D01*
X64700D01*
Y43400D01*
X64300D01*
Y42600D01*
X64700D01*
X72700Y25600D02*
Y25200D01*
X73500D01*
Y25600D01*
X73900D01*
Y26400D01*
X73500D01*
Y26800D01*
X72700D01*
Y26400D01*
X72300D01*
Y25600D01*
X72700D01*
X74700Y27100D02*
Y26700D01*
X75500D01*
Y27100D01*
X75900D01*
Y27900D01*
X75500D01*
Y28300D01*
X74700D01*
Y27900D01*
X74300D01*
Y27100D01*
X74700D01*
X187200Y159600D02*
Y159200D01*
X188000D01*
Y159600D01*
X188400D01*
Y160400D01*
X188000D01*
Y160800D01*
X187200D01*
Y160400D01*
X186800D01*
Y159600D01*
X187200D01*
X208200Y165100D02*
Y164700D01*
X209000D01*
Y165100D01*
X209400D01*
Y165900D01*
X209000D01*
Y166300D01*
X208200D01*
Y165900D01*
X207800D01*
Y165100D01*
X208200D01*
X230200Y160100D02*
Y159700D01*
X231000D01*
Y160100D01*
X231400D01*
Y160900D01*
X231000D01*
Y161300D01*
X230200D01*
Y160900D01*
X229800D01*
Y160100D01*
X230200D01*
X226700D02*
Y159700D01*
X227500D01*
Y160100D01*
X227900D01*
Y160900D01*
X227500D01*
Y161300D01*
X226700D01*
Y160900D01*
X226300D01*
Y160100D01*
X226700D01*
X130200Y123100D02*
Y122700D01*
X131000D01*
Y123100D01*
X131400D01*
Y123900D01*
X131000D01*
Y124300D01*
X130200D01*
Y123900D01*
X129800D01*
Y123100D01*
X130200D01*
X132700D02*
Y122700D01*
X133500D01*
Y123100D01*
X133900D01*
Y123900D01*
X133500D01*
Y124300D01*
X132700D01*
Y123900D01*
X132300D01*
Y123100D01*
X132700D01*
Y120100D02*
Y119700D01*
X133500D01*
Y120100D01*
X133900D01*
Y120900D01*
X133500D01*
Y121300D01*
X132700D01*
Y120900D01*
X132300D01*
Y120100D01*
X132700D01*
X130200D02*
Y119700D01*
X131000D01*
Y120100D01*
X131400D01*
Y120900D01*
X131000D01*
Y121300D01*
X130200D01*
Y120900D01*
X129800D01*
Y120100D01*
X130200D01*
X120700Y123100D02*
Y122700D01*
X121500D01*
Y123100D01*
X121900D01*
Y123900D01*
X121500D01*
Y124300D01*
X120700D01*
Y123900D01*
X120300D01*
Y123100D01*
X120700D01*
X123200D02*
Y122700D01*
X124000D01*
Y123100D01*
X124400D01*
Y123900D01*
X124000D01*
Y124300D01*
X123200D01*
Y123900D01*
X122800D01*
Y123100D01*
X123200D01*
Y120100D02*
Y119700D01*
X124000D01*
Y120100D01*
X124400D01*
Y120900D01*
X124000D01*
Y121300D01*
X123200D01*
Y120900D01*
X122800D01*
Y120100D01*
X123200D01*
X120700D02*
Y119700D01*
X121500D01*
Y120100D01*
X121900D01*
Y120900D01*
X121500D01*
Y121300D01*
X120700D01*
Y120900D01*
X120300D01*
Y120100D01*
X120700D01*
X173300Y86200D02*
X173700D01*
X174100Y86600D01*
X174500Y86200D01*
X174900D01*
Y86600D01*
X174500Y87000D01*
X174900Y87400D01*
Y87800D01*
X174500D01*
X174100Y87400D01*
X173700Y87800D01*
X173300D01*
Y87400D01*
X173700Y87000D01*
X173300Y86600D01*
Y86200D01*
X282200Y77600D02*
Y77200D01*
X283000D01*
Y77600D01*
X283400D01*
Y78400D01*
X283000D01*
Y78800D01*
X282200D01*
Y78400D01*
X281800D01*
Y77600D01*
X282200D01*
X277200Y72600D02*
Y72200D01*
X278000D01*
Y72600D01*
X278400D01*
Y73400D01*
X278000D01*
Y73800D01*
X277200D01*
Y73400D01*
X276800D01*
Y72600D01*
X277200D01*
X274200Y59600D02*
Y59200D01*
X275000D01*
Y59600D01*
X275400D01*
Y60400D01*
X275000D01*
Y60800D01*
X274200D01*
Y60400D01*
X273800D01*
Y59600D01*
X274200D01*
X270700Y84600D02*
Y84200D01*
X271500D01*
Y84600D01*
X271900D01*
Y85400D01*
X271500D01*
Y85800D01*
X270700D01*
Y85400D01*
X270300D01*
Y84600D01*
X270700D01*
X242100Y104200D02*
Y103800D01*
X242900D01*
Y104200D01*
X243300D01*
Y105000D01*
X242900D01*
Y105400D01*
X242100D01*
Y105000D01*
X241700D01*
Y104200D01*
X242100D01*
X164200Y215531D02*
Y215131D01*
X165000D01*
Y215531D01*
X165400D01*
Y216331D01*
X165000D01*
Y216731D01*
X164200D01*
Y216331D01*
X163800D01*
Y215531D01*
X164200D01*
X242200Y159100D02*
Y158700D01*
X243000D01*
Y159100D01*
X243400D01*
Y159900D01*
X243000D01*
Y160300D01*
X242200D01*
Y159900D01*
X241800D01*
Y159100D01*
X242200D01*
X235200Y92100D02*
Y91700D01*
X236000D01*
Y92100D01*
X236400D01*
Y92900D01*
X236000D01*
Y93300D01*
X235200D01*
Y92900D01*
X234800D01*
Y92100D01*
X235200D01*
X241200Y88100D02*
Y87700D01*
X242000D01*
Y88100D01*
X242400D01*
Y88900D01*
X242000D01*
Y89300D01*
X241200D01*
Y88900D01*
X240800D01*
Y88100D01*
X241200D01*
X248200Y84100D02*
Y83700D01*
X249000D01*
Y84100D01*
X249400D01*
Y84900D01*
X249000D01*
Y85300D01*
X248200D01*
Y84900D01*
X247800D01*
Y84100D01*
X248200D01*
X269200Y139100D02*
Y138700D01*
X270000D01*
Y139100D01*
X270400D01*
Y139900D01*
X270000D01*
Y140300D01*
X269200D01*
Y139900D01*
X268800D01*
Y139100D01*
X269200D01*
X141200Y42100D02*
Y41700D01*
X142000D01*
Y42100D01*
X142400D01*
Y42900D01*
X142000D01*
Y43300D01*
X141200D01*
Y42900D01*
X140800D01*
Y42100D01*
X141200D01*
X161200Y43100D02*
Y42700D01*
X162000D01*
Y43100D01*
X162400D01*
Y43900D01*
X162000D01*
Y44300D01*
X161200D01*
Y43900D01*
X160800D01*
Y43100D01*
X161200D01*
X324200Y181100D02*
Y180700D01*
X325000D01*
Y181100D01*
X325400D01*
Y181900D01*
X325000D01*
Y182300D01*
X324200D01*
Y181900D01*
X323800D01*
Y181100D01*
X324200D01*
X256200Y169837D02*
Y169437D01*
X257000D01*
Y169837D01*
X257400D01*
Y170637D01*
X257000D01*
Y171037D01*
X256200D01*
Y170637D01*
X255800D01*
Y169837D01*
X256200D01*
X254200Y157100D02*
Y156700D01*
X255000D01*
Y157100D01*
X255400D01*
Y157900D01*
X255000D01*
Y158300D01*
X254200D01*
Y157900D01*
X253800D01*
Y157100D01*
X254200D01*
X235200Y164100D02*
Y163700D01*
X236000D01*
Y164100D01*
X236400D01*
Y164900D01*
X236000D01*
Y165300D01*
X235200D01*
Y164900D01*
X234800D01*
Y164100D01*
X235200D01*
X248200Y209100D02*
Y208700D01*
X249000D01*
Y209100D01*
X249400D01*
Y209900D01*
X249000D01*
Y210300D01*
X248200D01*
Y209900D01*
X247800D01*
Y209100D01*
X248200D01*
X242200Y206100D02*
Y205700D01*
X243000D01*
Y206100D01*
X243400D01*
Y206900D01*
X243000D01*
Y207300D01*
X242200D01*
Y206900D01*
X241800D01*
Y206100D01*
X242200D01*
X249194Y198100D02*
Y197700D01*
X249994D01*
Y198100D01*
X250394D01*
Y198900D01*
X249994D01*
Y199300D01*
X249194D01*
Y198900D01*
X248794D01*
Y198100D01*
X249194D01*
X268200Y188100D02*
Y187700D01*
X269000D01*
Y188100D01*
X269400D01*
Y188900D01*
X269000D01*
Y189300D01*
X268200D01*
Y188900D01*
X267800D01*
Y188100D01*
X268200D01*
X294200Y216100D02*
Y215700D01*
X295000D01*
Y216100D01*
X295400D01*
Y216900D01*
X295000D01*
Y217300D01*
X294200D01*
Y216900D01*
X293800D01*
Y216100D01*
X294200D01*
X316660Y201640D02*
Y201239D01*
X317460D01*
Y201640D01*
X317861D01*
Y202439D01*
X317460D01*
Y202839D01*
X316660D01*
Y202439D01*
X316261D01*
Y201640D01*
X316660D01*
X230075Y164975D02*
Y164575D01*
X230875D01*
Y164975D01*
X231275D01*
Y165775D01*
X230875D01*
Y166175D01*
X230075D01*
Y165775D01*
X229675D01*
Y164975D01*
X230075D01*
X244200Y151100D02*
Y150700D01*
X245000D01*
Y151100D01*
X245400D01*
Y151900D01*
X245000D01*
Y152300D01*
X244200D01*
Y151900D01*
X243800D01*
Y151100D01*
X244200D01*
X319200Y176100D02*
Y175700D01*
X320000D01*
Y176100D01*
X320400D01*
Y176900D01*
X320000D01*
Y177300D01*
X319200D01*
Y176900D01*
X318800D01*
Y176100D01*
X319200D01*
Y184100D02*
Y183700D01*
X320000D01*
Y184100D01*
X320400D01*
Y184900D01*
X320000D01*
Y185300D01*
X319200D01*
Y184900D01*
X318800D01*
Y184100D01*
X319200D01*
X287700Y87600D02*
Y87200D01*
X288500D01*
Y87600D01*
X288900D01*
Y88400D01*
X288500D01*
Y88800D01*
X287700D01*
Y88400D01*
X287300D01*
Y87600D01*
X287700D01*
X265200Y136100D02*
Y135700D01*
X266000D01*
Y136100D01*
X266400D01*
Y136900D01*
X266000D01*
Y137300D01*
X265200D01*
Y136900D01*
X264800D01*
Y136100D01*
X265200D01*
X301200Y128100D02*
Y127700D01*
X302000D01*
Y128100D01*
X302400D01*
Y128900D01*
X302000D01*
Y129300D01*
X301200D01*
Y128900D01*
X300800D01*
Y128100D01*
X301200D01*
X256200Y148100D02*
Y147700D01*
X257000D01*
Y148100D01*
X257400D01*
Y148900D01*
X257000D01*
Y149300D01*
X256200D01*
Y148900D01*
X255800D01*
Y148100D01*
X256200D01*
X295106Y179006D02*
Y178605D01*
X295905D01*
Y179006D01*
X296305D01*
Y179806D01*
X295905D01*
Y180206D01*
X295106D01*
Y179806D01*
X294706D01*
Y179006D01*
X295106D01*
X264388Y180288D02*
Y179888D01*
X265188D01*
Y180288D01*
X265588D01*
Y181088D01*
X265188D01*
Y181488D01*
X264388D01*
Y181088D01*
X263988D01*
Y180288D01*
X264388D01*
X195009Y198909D02*
Y198509D01*
X195809D01*
Y198909D01*
X196209D01*
Y199709D01*
X195809D01*
Y200109D01*
X195009D01*
Y199709D01*
X194609D01*
Y198909D01*
X195009D01*
X182200Y168100D02*
Y167700D01*
X183000D01*
Y168100D01*
X183400D01*
Y168900D01*
X183000D01*
Y169300D01*
X182200D01*
Y168900D01*
X181800D01*
Y168100D01*
X182200D01*
X178200Y158100D02*
Y157700D01*
X179000D01*
Y158100D01*
X179400D01*
Y158900D01*
X179000D01*
Y159300D01*
X178200D01*
Y158900D01*
X177800D01*
Y158100D01*
X178200D01*
X177884Y164038D02*
Y163637D01*
X178684D01*
Y164038D01*
X179084D01*
Y164838D01*
X178684D01*
Y165237D01*
X177884D01*
Y164838D01*
X177484D01*
Y164038D01*
X177884D01*
X183200Y163100D02*
Y162700D01*
X184000D01*
Y163100D01*
X184400D01*
Y163900D01*
X184000D01*
Y164300D01*
X183200D01*
Y163900D01*
X182800D01*
Y163100D01*
X183200D01*
X180200Y130100D02*
Y129700D01*
X181000D01*
Y130100D01*
X181400D01*
Y130900D01*
X181000D01*
Y131300D01*
X180200D01*
Y130900D01*
X179800D01*
Y130100D01*
X180200D01*
X180641Y77541D02*
Y77141D01*
X181441D01*
Y77541D01*
X181841D01*
Y78341D01*
X181441D01*
Y78741D01*
X180641D01*
Y78341D01*
X180241D01*
Y77541D01*
X180641D01*
X165200Y100100D02*
Y99700D01*
X166000D01*
Y100100D01*
X166400D01*
Y100900D01*
X166000D01*
Y101300D01*
X165200D01*
Y100900D01*
X164800D01*
Y100100D01*
X165200D01*
X162200Y103100D02*
Y102700D01*
X163000D01*
Y103100D01*
X163400D01*
Y103900D01*
X163000D01*
Y104300D01*
X162200D01*
Y103900D01*
X161800D01*
Y103100D01*
X162200D01*
X159200Y106100D02*
Y105700D01*
X160000D01*
Y106100D01*
X160400D01*
Y106900D01*
X160000D01*
Y107300D01*
X159200D01*
Y106900D01*
X158800D01*
Y106100D01*
X159200D01*
X185200Y109100D02*
Y108700D01*
X186000D01*
Y109100D01*
X186400D01*
Y109900D01*
X186000D01*
Y110300D01*
X185200D01*
Y109900D01*
X184800D01*
Y109100D01*
X185200D01*
X196200Y85100D02*
Y84700D01*
X197000D01*
Y85100D01*
X197400D01*
Y85900D01*
X197000D01*
Y86300D01*
X196200D01*
Y85900D01*
X195800D01*
Y85100D01*
X196200D01*
X189800Y83700D02*
X190200D01*
X190600Y84100D01*
X191000Y83700D01*
X191400D01*
Y84100D01*
X191000Y84500D01*
X191400Y84900D01*
Y85300D01*
X191000D01*
X190600Y84900D01*
X190200Y85300D01*
X189800D01*
Y84900D01*
X190200Y84500D01*
X189800Y84100D01*
Y83700D01*
X164200Y116100D02*
Y115700D01*
X165000D01*
Y116100D01*
X165400D01*
Y116900D01*
X165000D01*
Y117300D01*
X164200D01*
Y116900D01*
X163800D01*
Y116100D01*
X164200D01*
X235200Y28100D02*
Y27700D01*
X236000D01*
Y28100D01*
X236400D01*
Y28900D01*
X236000D01*
Y29300D01*
X235200D01*
Y28900D01*
X234800D01*
Y28100D01*
X235200D01*
X217200Y209100D02*
Y208700D01*
X218000D01*
Y209100D01*
X218400D01*
Y209900D01*
X218000D01*
Y210300D01*
X217200D01*
Y209900D01*
X216800D01*
Y209100D01*
X217200D01*
X170200Y228100D02*
Y227700D01*
X171000D01*
Y228100D01*
X171400D01*
Y228900D01*
X171000D01*
Y229300D01*
X170200D01*
Y228900D01*
X169800D01*
Y228100D01*
X170200D01*
X193200Y230100D02*
Y229700D01*
X194000D01*
Y230100D01*
X194400D01*
Y230900D01*
X194000D01*
Y231300D01*
X193200D01*
Y230900D01*
X192800D01*
Y230100D01*
X193200D01*
X202393Y235293D02*
Y234893D01*
X203192D01*
Y235293D01*
X203592D01*
Y236092D01*
X203192D01*
Y236492D01*
X202393D01*
Y236092D01*
X201993D01*
Y235293D01*
X202393D01*
X204200Y142100D02*
Y141700D01*
X205000D01*
Y142100D01*
X205400D01*
Y142900D01*
X205000D01*
Y143300D01*
X204200D01*
Y142900D01*
X203800D01*
Y142100D01*
X204200D01*
X319200Y152100D02*
Y151700D01*
X320000D01*
Y152100D01*
X320400D01*
Y152900D01*
X320000D01*
Y153300D01*
X319200D01*
Y152900D01*
X318800D01*
Y152100D01*
X319200D01*
X201200Y213100D02*
Y212700D01*
X202000D01*
Y213100D01*
X202400D01*
Y213900D01*
X202000D01*
Y214300D01*
X201200D01*
Y213900D01*
X200800D01*
Y213100D01*
X201200D01*
X309200Y155100D02*
Y154700D01*
X310000D01*
Y155100D01*
X310400D01*
Y155900D01*
X310000D01*
Y156300D01*
X309200D01*
Y155900D01*
X308800D01*
Y155100D01*
X309200D01*
X231200Y200100D02*
Y199700D01*
X232000D01*
Y200100D01*
X232400D01*
Y200900D01*
X232000D01*
Y201300D01*
X231200D01*
Y200900D01*
X230800D01*
Y200100D01*
X231200D01*
X285200Y155100D02*
Y154700D01*
X286000D01*
Y155100D01*
X286400D01*
Y155900D01*
X286000D01*
Y156300D01*
X285200D01*
Y155900D01*
X284800D01*
Y155100D01*
X285200D01*
X289200Y152100D02*
Y151700D01*
X290000D01*
Y152100D01*
X290400D01*
Y152900D01*
X290000D01*
Y153300D01*
X289200D01*
Y152900D01*
X288800D01*
Y152100D01*
X289200D01*
X158200Y161100D02*
Y160700D01*
X159000D01*
Y161100D01*
X159400D01*
Y161900D01*
X159000D01*
Y162300D01*
X158200D01*
Y161900D01*
X157800D01*
Y161100D01*
X158200D01*
X191200Y174100D02*
Y173700D01*
X192000D01*
Y174100D01*
X192400D01*
Y174900D01*
X192000D01*
Y175300D01*
X191200D01*
Y174900D01*
X190800D01*
Y174100D01*
X191200D01*
X195200Y170100D02*
Y169700D01*
X196000D01*
Y170100D01*
X196400D01*
Y170900D01*
X196000D01*
Y171300D01*
X195200D01*
Y170900D01*
X194800D01*
Y170100D01*
X195200D01*
X198200Y175100D02*
Y174700D01*
X199000D01*
Y175100D01*
X199400D01*
Y175900D01*
X199000D01*
Y176300D01*
X198200D01*
Y175900D01*
X197800D01*
Y175100D01*
X198200D01*
X180641Y176541D02*
Y176141D01*
X181441D01*
Y176541D01*
X181841D01*
Y177341D01*
X181441D01*
Y177741D01*
X180641D01*
Y177341D01*
X180241D01*
Y176541D01*
X180641D01*
X154200Y149100D02*
Y148700D01*
X155000D01*
Y149100D01*
X155400D01*
Y149900D01*
X155000D01*
Y150300D01*
X154200D01*
Y149900D01*
X153800D01*
Y149100D01*
X154200D01*
X180200Y138100D02*
Y137700D01*
X181000D01*
Y138100D01*
X181400D01*
Y138900D01*
X181000D01*
Y139300D01*
X180200D01*
Y138900D01*
X179800D01*
Y138100D01*
X180200D01*
X179200Y103100D02*
Y102700D01*
X180000D01*
Y103100D01*
X180400D01*
Y103900D01*
X180000D01*
Y104300D01*
X179200D01*
Y103900D01*
X178800D01*
Y103100D01*
X179200D01*
X196800Y100700D02*
X197200D01*
X197600Y101100D01*
X198000Y100700D01*
X198400D01*
Y101100D01*
X198000Y101500D01*
X198400Y101900D01*
Y102300D01*
X198000D01*
X197600Y101900D01*
X197200Y102300D01*
X196800D01*
Y101900D01*
X197200Y101500D01*
X196800Y101100D01*
Y100700D01*
X190200Y121100D02*
Y120700D01*
X191000D01*
Y121100D01*
X191400D01*
Y121900D01*
X191000D01*
Y122300D01*
X190200D01*
Y121900D01*
X189800D01*
Y121100D01*
X190200D01*
X276200Y163100D02*
Y162700D01*
X277000D01*
Y163100D01*
X277400D01*
Y163900D01*
X277000D01*
Y164300D01*
X276200D01*
Y163900D01*
X275800D01*
Y163100D01*
X276200D01*
X298200Y176100D02*
Y175700D01*
X299000D01*
Y176100D01*
X299400D01*
Y176900D01*
X299000D01*
Y177300D01*
X298200D01*
Y176900D01*
X297800D01*
Y176100D01*
X298200D01*
X289200Y169100D02*
Y168700D01*
X290000D01*
Y169100D01*
X290400D01*
Y169900D01*
X290000D01*
Y170300D01*
X289200D01*
Y169900D01*
X288800D01*
Y169100D01*
X289200D01*
X271200Y155100D02*
Y154700D01*
X272000D01*
Y155100D01*
X272400D01*
Y155900D01*
X272000D01*
Y156300D01*
X271200D01*
Y155900D01*
X270800D01*
Y155100D01*
X271200D01*
X211200Y135100D02*
Y134700D01*
X212000D01*
Y135100D01*
X212400D01*
Y135900D01*
X212000D01*
Y136300D01*
X211200D01*
Y135900D01*
X210800D01*
Y135100D01*
X211200D01*
X187800Y100700D02*
X188200D01*
X188600Y101100D01*
X189000Y100700D01*
X189400D01*
Y101100D01*
X189000Y101500D01*
X189400Y101900D01*
Y102300D01*
X189000D01*
X188600Y101900D01*
X188200Y102300D01*
X187800D01*
Y101900D01*
X188200Y101500D01*
X187800Y101100D01*
Y100700D01*
X203700Y135100D02*
Y134700D01*
X204500D01*
Y135100D01*
X204900D01*
Y135900D01*
X204500D01*
Y136300D01*
X203700D01*
Y135900D01*
X203300D01*
Y135100D01*
X203700D01*
X298200Y142100D02*
Y141700D01*
X299000D01*
Y142100D01*
X299400D01*
Y142900D01*
X299000D01*
Y143300D01*
X298200D01*
Y142900D01*
X297800D01*
Y142100D01*
X298200D01*
X302200Y146100D02*
Y145700D01*
X303000D01*
Y146100D01*
X303400D01*
Y146900D01*
X303000D01*
Y147300D01*
X302200D01*
Y146900D01*
X301800D01*
Y146100D01*
X302200D01*
X278200Y155100D02*
Y154700D01*
X279000D01*
Y155100D01*
X279400D01*
Y155900D01*
X279000D01*
Y156300D01*
X278200D01*
Y155900D01*
X277800D01*
Y155100D01*
X278200D01*
X280200Y152100D02*
Y151700D01*
X281000D01*
Y152100D01*
X281400D01*
Y152900D01*
X281000D01*
Y153300D01*
X280200D01*
Y152900D01*
X279800D01*
Y152100D01*
X280200D01*
X284200D02*
Y151700D01*
X285000D01*
Y152100D01*
X285400D01*
Y152900D01*
X285000D01*
Y153300D01*
X284200D01*
Y152900D01*
X283800D01*
Y152100D01*
X284200D01*
X267200Y163100D02*
Y162700D01*
X268000D01*
Y163100D01*
X268400D01*
Y163900D01*
X268000D01*
Y164300D01*
X267200D01*
Y163900D01*
X266800D01*
Y163100D01*
X267200D01*
X320200Y116100D02*
Y115700D01*
X321000D01*
Y116100D01*
X321400D01*
Y116900D01*
X321000D01*
Y117300D01*
X320200D01*
Y116900D01*
X319800D01*
Y116100D01*
X320200D01*
X302537Y116437D02*
Y116037D01*
X303337D01*
Y116437D01*
X303737D01*
Y117237D01*
X303337D01*
Y117637D01*
X302537D01*
Y117237D01*
X302137D01*
Y116437D01*
X302537D01*
X237200Y64100D02*
Y63700D01*
X238000D01*
Y64100D01*
X238400D01*
Y64900D01*
X238000D01*
Y65300D01*
X237200D01*
Y64900D01*
X236800D01*
Y64100D01*
X237200D01*
X251200Y62100D02*
Y61700D01*
X252000D01*
Y62100D01*
X252400D01*
Y62900D01*
X252000D01*
Y63300D01*
X251200D01*
Y62900D01*
X250800D01*
Y62100D01*
X251200D01*
X259200Y206100D02*
Y205700D01*
X260000D01*
Y206100D01*
X260400D01*
Y206900D01*
X260000D01*
Y207300D01*
X259200D01*
Y206900D01*
X258800D01*
Y206100D01*
X259200D01*
X271200Y205100D02*
Y204700D01*
X272000D01*
Y205100D01*
X272400D01*
Y205900D01*
X272000D01*
Y206300D01*
X271200D01*
Y205900D01*
X270800D01*
Y205100D01*
X271200D01*
X279800Y224700D02*
X280200D01*
X280600Y225100D01*
X281000Y224700D01*
X281400D01*
Y225100D01*
X281000Y225500D01*
X281400Y225900D01*
Y226300D01*
X281000D01*
X280600Y225900D01*
X280200Y226300D01*
X279800D01*
Y225900D01*
X280200Y225500D01*
X279800Y225100D01*
Y224700D01*
X229200Y190100D02*
Y189700D01*
X230000D01*
Y190100D01*
X230400D01*
Y190900D01*
X230000D01*
Y191300D01*
X229200D01*
Y190900D01*
X228800D01*
Y190100D01*
X229200D01*
X248200Y230100D02*
Y229700D01*
X249000D01*
Y230100D01*
X249400D01*
Y230900D01*
X249000D01*
Y231300D01*
X248200D01*
Y230900D01*
X247800D01*
Y230100D01*
X248200D01*
X201869Y66431D02*
Y66031D01*
X202668D01*
Y66431D01*
X203068D01*
Y67232D01*
X202668D01*
Y67632D01*
X201869D01*
Y67232D01*
X201468D01*
Y66431D01*
X201869D01*
X112800Y49700D02*
X113200D01*
X113600Y50100D01*
X114000Y49700D01*
X114400D01*
Y50100D01*
X114000Y50500D01*
X114400Y50900D01*
Y51300D01*
X114000D01*
X113600Y50900D01*
X113200Y51300D01*
X112800D01*
Y50900D01*
X113200Y50500D01*
X112800Y50100D01*
Y49700D01*
X154940Y67840D02*
Y67440D01*
X155740D01*
Y67840D01*
X156140D01*
Y68640D01*
X155740D01*
Y69040D01*
X154940D01*
Y68640D01*
X154540D01*
Y67840D01*
X154940D01*
X178200Y144100D02*
Y143700D01*
X179000D01*
Y144100D01*
X179400D01*
Y144900D01*
X179000D01*
Y145300D01*
X178200D01*
Y144900D01*
X177800D01*
Y144100D01*
X178200D01*
X190273Y187100D02*
Y186700D01*
X191073D01*
Y187100D01*
X191473D01*
Y187900D01*
X191073D01*
Y188300D01*
X190273D01*
Y187900D01*
X189873D01*
Y187100D01*
X190273D01*
X179200Y112100D02*
Y111700D01*
X180000D01*
Y112100D01*
X180400D01*
Y112900D01*
X180000D01*
Y113300D01*
X179200D01*
Y112900D01*
X178800D01*
Y112100D01*
X179200D01*
X183200Y119100D02*
Y118700D01*
X184000D01*
Y119100D01*
X184400D01*
Y119900D01*
X184000D01*
Y120300D01*
X183200D01*
Y119900D01*
X182800D01*
Y119100D01*
X183200D01*
X233200Y89100D02*
Y88700D01*
X234000D01*
Y89100D01*
X234400D01*
Y89900D01*
X234000D01*
Y90300D01*
X233200D01*
Y89900D01*
X232800D01*
Y89100D01*
X233200D01*
X227200Y88100D02*
Y87700D01*
X228000D01*
Y88100D01*
X228400D01*
Y88900D01*
X228000D01*
Y89300D01*
X227200D01*
Y88900D01*
X226800D01*
Y88100D01*
X227200D01*
X235200Y98100D02*
Y97700D01*
X236000D01*
Y98100D01*
X236400D01*
Y98900D01*
X236000D01*
Y99300D01*
X235200D01*
Y98900D01*
X234800D01*
Y98100D01*
X235200D01*
Y104100D02*
Y103700D01*
X236000D01*
Y104100D01*
X236400D01*
Y104900D01*
X236000D01*
Y105300D01*
X235200D01*
Y104900D01*
X234800D01*
Y104100D01*
X235200D01*
X231200Y107100D02*
Y106700D01*
X232000D01*
Y107100D01*
X232400D01*
Y107900D01*
X232000D01*
Y108300D01*
X231200D01*
Y107900D01*
X230800D01*
Y107100D01*
X231200D01*
X227200D02*
Y106700D01*
X228000D01*
Y107100D01*
X228400D01*
Y107900D01*
X228000D01*
Y108300D01*
X227200D01*
Y107900D01*
X226800D01*
Y107100D01*
X227200D01*
X214200Y88100D02*
Y87700D01*
X215000D01*
Y88100D01*
X215400D01*
Y88900D01*
X215000D01*
Y89300D01*
X214200D01*
Y88900D01*
X213800D01*
Y88100D01*
X214200D01*
X209200Y91100D02*
Y90700D01*
X210000D01*
Y91100D01*
X210400D01*
Y91900D01*
X210000D01*
Y92300D01*
X209200D01*
Y91900D01*
X208800D01*
Y91100D01*
X209200D01*
X208200Y97100D02*
Y96700D01*
X209000D01*
Y97100D01*
X209400D01*
Y97900D01*
X209000D01*
Y98300D01*
X208200D01*
Y97900D01*
X207800D01*
Y97100D01*
X208200D01*
Y103100D02*
Y102700D01*
X209000D01*
Y103100D01*
X209400D01*
Y103900D01*
X209000D01*
Y104300D01*
X208200D01*
Y103900D01*
X207800D01*
Y103100D01*
X208200D01*
X212200Y107100D02*
Y106700D01*
X213000D01*
Y107100D01*
X213400D01*
Y107900D01*
X213000D01*
Y108300D01*
X212200D01*
Y107900D01*
X211800D01*
Y107100D01*
X212200D01*
X218200D02*
Y106700D01*
X219000D01*
Y107100D01*
X219400D01*
Y107900D01*
X219000D01*
Y108300D01*
X218200D01*
Y107900D01*
X217800D01*
Y107100D01*
X218200D01*
X180200Y213100D02*
Y212700D01*
X181000D01*
Y213100D01*
X181400D01*
Y213900D01*
X181000D01*
Y214300D01*
X180200D01*
Y213900D01*
X179800D01*
Y213100D01*
X180200D01*
X131200Y168100D02*
Y167700D01*
X132000D01*
Y168100D01*
X132400D01*
Y168900D01*
X132000D01*
Y169300D01*
X131200D01*
Y168900D01*
X130800D01*
Y168100D01*
X131200D01*
X122200Y216100D02*
Y215700D01*
X123000D01*
Y216100D01*
X123400D01*
Y216900D01*
X123000D01*
Y217300D01*
X122200D01*
Y216900D01*
X121800D01*
Y216100D01*
X122200D01*
X139800Y233700D02*
X140200D01*
X140600Y234100D01*
X141000Y233700D01*
X141400D01*
Y234100D01*
X141000Y234500D01*
X141400Y234900D01*
Y235300D01*
X141000D01*
X140600Y234900D01*
X140200Y235300D01*
X139800D01*
Y234900D01*
X140200Y234500D01*
X139800Y234100D01*
Y233700D01*
X166800Y209700D02*
X167200D01*
X167600Y210100D01*
X168000Y209700D01*
X168400D01*
Y210100D01*
X168000Y210500D01*
X168400Y210900D01*
Y211300D01*
X168000D01*
X167600Y210900D01*
X167200Y211300D01*
X166800D01*
Y210900D01*
X167200Y210500D01*
X166800Y210100D01*
Y209700D01*
X103200Y125100D02*
Y124700D01*
X104000D01*
Y125100D01*
X104400D01*
Y125900D01*
X104000D01*
Y126300D01*
X103200D01*
Y125900D01*
X102800D01*
Y125100D01*
X103200D01*
X108200Y121100D02*
Y120700D01*
X109000D01*
Y121100D01*
X109400D01*
Y121900D01*
X109000D01*
Y122300D01*
X108200D01*
Y121900D01*
X107800D01*
Y121100D01*
X108200D01*
X89977Y108600D02*
Y108200D01*
X90777D01*
Y108600D01*
X91177D01*
Y109400D01*
X90777D01*
Y109800D01*
X89977D01*
Y109400D01*
X89577D01*
Y108600D01*
X89977D01*
X76200Y106100D02*
Y105700D01*
X77000D01*
Y106100D01*
X77400D01*
Y106900D01*
X77000D01*
Y107300D01*
X76200D01*
Y106900D01*
X75800D01*
Y106100D01*
X76200D01*
Y108600D02*
Y108200D01*
X77000D01*
Y108600D01*
X77400D01*
Y109400D01*
X77000D01*
Y109800D01*
X76200D01*
Y109400D01*
X75800D01*
Y108600D01*
X76200D01*
X123200Y164100D02*
Y163700D01*
X124000D01*
Y164100D01*
X124400D01*
Y164900D01*
X124000D01*
Y165300D01*
X123200D01*
Y164900D01*
X122800D01*
Y164100D01*
X123200D01*
X183200Y201100D02*
Y200700D01*
X184000D01*
Y201100D01*
X184400D01*
Y201900D01*
X184000D01*
Y202300D01*
X183200D01*
Y201900D01*
X182800D01*
Y201100D01*
X183200D01*
X148200Y200100D02*
Y199700D01*
X149000D01*
Y200100D01*
X149400D01*
Y200900D01*
X149000D01*
Y201300D01*
X148200D01*
Y200900D01*
X147800D01*
Y200100D01*
X148200D01*
X59923Y188100D02*
Y187700D01*
X60723D01*
Y188100D01*
X61123D01*
Y188900D01*
X60723D01*
Y189300D01*
X59923D01*
Y188900D01*
X59523D01*
Y188100D01*
X59923D01*
X62423D02*
Y187700D01*
X63223D01*
Y188100D01*
X63623D01*
Y188900D01*
X63223D01*
Y189300D01*
X62423D01*
Y188900D01*
X62023D01*
Y188100D01*
X62423D01*
X177200Y193100D02*
Y192700D01*
X178000D01*
Y193100D01*
X178400D01*
Y193900D01*
X178000D01*
Y194300D01*
X177200D01*
Y193900D01*
X176800D01*
Y193100D01*
X177200D01*
Y203100D02*
Y202700D01*
X178000D01*
Y203100D01*
X178400D01*
Y203900D01*
X178000D01*
Y204300D01*
X177200D01*
Y203900D01*
X176800D01*
Y203100D01*
X177200D01*
X103200Y181100D02*
Y180700D01*
X104000D01*
Y181100D01*
X104400D01*
Y181900D01*
X104000D01*
Y182300D01*
X103200D01*
Y181900D01*
X102800D01*
Y181100D01*
X103200D01*
X108200Y183600D02*
Y183200D01*
X109000D01*
Y183600D01*
X109400D01*
Y184400D01*
X109000D01*
Y184800D01*
X108200D01*
Y184400D01*
X107800D01*
Y183600D01*
X108200D01*
X183200Y173100D02*
Y172700D01*
X184000D01*
Y173100D01*
X184400D01*
Y173900D01*
X184000D01*
Y174300D01*
X183200D01*
Y173900D01*
X182800D01*
Y173100D01*
X183200D01*
X175200Y183100D02*
Y182700D01*
X176000D01*
Y183100D01*
X176400D01*
Y183900D01*
X176000D01*
Y184300D01*
X175200D01*
Y183900D01*
X174800D01*
Y183100D01*
X175200D01*
X153200D02*
Y182700D01*
X154000D01*
Y183100D01*
X154400D01*
Y183900D01*
X154000D01*
Y184300D01*
X153200D01*
Y183900D01*
X152800D01*
Y183100D01*
X153200D01*
Y193100D02*
Y192700D01*
X154000D01*
Y193100D01*
X154400D01*
Y193900D01*
X154000D01*
Y194300D01*
X153200D01*
Y193900D01*
X152800D01*
Y193100D01*
X153200D01*
X95200Y129100D02*
Y128700D01*
X96000D01*
Y129100D01*
X96400D01*
Y129900D01*
X96000D01*
Y130300D01*
X95200D01*
Y129900D01*
X94800D01*
Y129100D01*
X95200D01*
X93200Y147100D02*
Y146700D01*
X94000D01*
Y147100D01*
X94400D01*
Y147900D01*
X94000D01*
Y148300D01*
X93200D01*
Y147900D01*
X92800D01*
Y147100D01*
X93200D01*
X89200Y150100D02*
Y149700D01*
X90000D01*
Y150100D01*
X90400D01*
Y150900D01*
X90000D01*
Y151300D01*
X89200D01*
Y150900D01*
X88800D01*
Y150100D01*
X89200D01*
X106200Y181100D02*
Y180700D01*
X107000D01*
Y181100D01*
X107400D01*
Y181900D01*
X107000D01*
Y182300D01*
X106200D01*
Y181900D01*
X105800D01*
Y181100D01*
X106200D01*
X86200Y157100D02*
Y156700D01*
X87000D01*
Y157100D01*
X87400D01*
Y157900D01*
X87000D01*
Y158300D01*
X86200D01*
Y157900D01*
X85800D01*
Y157100D01*
X86200D01*
X89977Y160767D02*
Y160367D01*
X90777D01*
Y160767D01*
X91177D01*
Y161567D01*
X90777D01*
Y161967D01*
X89977D01*
Y161567D01*
X89577D01*
Y160767D01*
X89977D01*
Y163267D02*
Y162867D01*
X90777D01*
Y163267D01*
X91177D01*
Y164067D01*
X90777D01*
Y164467D01*
X89977D01*
Y164067D01*
X89577D01*
Y163267D01*
X89977D01*
X72200Y184100D02*
Y183700D01*
X73000D01*
Y184100D01*
X73400D01*
Y184900D01*
X73000D01*
Y185300D01*
X72200D01*
Y184900D01*
X71800D01*
Y184100D01*
X72200D01*
X76200Y190600D02*
Y190200D01*
X77000D01*
Y190600D01*
X77400D01*
Y191400D01*
X77000D01*
Y191800D01*
X76200D01*
Y191400D01*
X75800D01*
Y190600D01*
X76200D01*
X73700Y188100D02*
Y187700D01*
X74500D01*
Y188100D01*
X74900D01*
Y188900D01*
X74500D01*
Y189300D01*
X73700D01*
Y188900D01*
X73300D01*
Y188100D01*
X73700D01*
X89977Y190600D02*
Y190200D01*
X90777D01*
Y190600D01*
X91177D01*
Y191400D01*
X90777D01*
Y191800D01*
X89977D01*
Y191400D01*
X89577D01*
Y190600D01*
X89977D01*
X87477Y188100D02*
Y187700D01*
X88277D01*
Y188100D01*
X88677D01*
Y188900D01*
X88277D01*
Y189300D01*
X87477D01*
Y188900D01*
X87077D01*
Y188100D01*
X87477D01*
X86200Y184100D02*
Y183700D01*
X87000D01*
Y184100D01*
X87400D01*
Y184900D01*
X87000D01*
Y185300D01*
X86200D01*
Y184900D01*
X85800D01*
Y184100D01*
X86200D01*
X76200Y188100D02*
Y187700D01*
X77000D01*
Y188100D01*
X77400D01*
Y188900D01*
X77000D01*
Y189300D01*
X76200D01*
Y188900D01*
X75800D01*
Y188100D01*
X76200D01*
X89977D02*
Y187700D01*
X90777D01*
Y188100D01*
X91177D01*
Y188900D01*
X90777D01*
Y189300D01*
X89977D01*
Y188900D01*
X89577D01*
Y188100D01*
X89977D01*
X62423Y190600D02*
Y190200D01*
X63223D01*
Y190600D01*
X63623D01*
Y191400D01*
X63223D01*
Y191800D01*
X62423D01*
Y191400D01*
X62023D01*
Y190600D01*
X62423D01*
X58200Y157100D02*
Y156700D01*
X59000D01*
Y157100D01*
X59400D01*
Y157900D01*
X59000D01*
Y158300D01*
X58200D01*
Y157900D01*
X57800D01*
Y157100D01*
X58200D01*
Y184100D02*
Y183700D01*
X59000D01*
Y184100D01*
X59400D01*
Y184900D01*
X59000D01*
Y185300D01*
X58200D01*
Y184900D01*
X57800D01*
Y184100D01*
X58200D01*
X85200Y102100D02*
Y101700D01*
X86000D01*
Y102100D01*
X86400D01*
Y102900D01*
X86000D01*
Y103300D01*
X85200D01*
Y102900D01*
X84800D01*
Y102100D01*
X85200D01*
X59200D02*
Y101700D01*
X60000D01*
Y102100D01*
X60400D01*
Y102900D01*
X60000D01*
Y103300D01*
X59200D01*
Y102900D01*
X58800D01*
Y102100D01*
X59200D01*
X72200D02*
Y101700D01*
X73000D01*
Y102100D01*
X73400D01*
Y102900D01*
X73000D01*
Y103300D01*
X72200D01*
Y102900D01*
X71800D01*
Y102100D01*
X72200D01*
Y157100D02*
Y156700D01*
X73000D01*
Y157100D01*
X73400D01*
Y157900D01*
X73000D01*
Y158300D01*
X72200D01*
Y157900D01*
X71800D01*
Y157100D01*
X72200D01*
X86200Y130100D02*
Y129700D01*
X87000D01*
Y130100D01*
X87400D01*
Y130900D01*
X87000D01*
Y131300D01*
X86200D01*
Y130900D01*
X85800D01*
Y130100D01*
X86200D01*
X72200D02*
Y129700D01*
X73000D01*
Y130100D01*
X73400D01*
Y130900D01*
X73000D01*
Y131300D01*
X72200D01*
Y130900D01*
X71800D01*
Y130100D01*
X72200D01*
X58200D02*
Y129700D01*
X59000D01*
Y130100D01*
X59400D01*
Y130900D01*
X59000D01*
Y131300D01*
X58200D01*
Y130900D01*
X57800D01*
Y130100D01*
X58200D01*
X108200Y186600D02*
Y186200D01*
X109000D01*
Y186600D01*
X109400D01*
Y187400D01*
X109000D01*
Y187800D01*
X108200D01*
Y187400D01*
X107800D01*
Y186600D01*
X108200D01*
X314200Y144100D02*
Y143700D01*
X315000D01*
Y144100D01*
X315400D01*
Y144900D01*
X315000D01*
Y145300D01*
X314200D01*
Y144900D01*
X313800D01*
Y144100D01*
X314200D01*
X262200Y130100D02*
Y129700D01*
X263000D01*
Y130100D01*
X263400D01*
Y130900D01*
X263000D01*
Y131300D01*
X262200D01*
Y130900D01*
X261800D01*
Y130100D01*
X262200D01*
X301200Y224100D02*
Y223700D01*
X302000D01*
Y224100D01*
X302400D01*
Y224900D01*
X302000D01*
Y225300D01*
X301200D01*
Y224900D01*
X300800D01*
Y224100D01*
X301200D01*
X327200Y175100D02*
Y174700D01*
X328000D01*
Y175100D01*
X328400D01*
Y175900D01*
X328000D01*
Y176300D01*
X327200D01*
Y175900D01*
X326800D01*
Y175100D01*
X327200D01*
X293200Y233100D02*
Y232700D01*
X294000D01*
Y233100D01*
X294400D01*
Y233900D01*
X294000D01*
Y234300D01*
X293200D01*
Y233900D01*
X292800D01*
Y233100D01*
X293200D01*
X253200D02*
Y232700D01*
X254000D01*
Y233100D01*
X254400D01*
Y233900D01*
X254000D01*
Y234300D01*
X253200D01*
Y233900D01*
X252800D01*
Y233100D01*
X253200D01*
X197200Y220100D02*
Y219700D01*
X198000D01*
Y220100D01*
X198400D01*
Y220900D01*
X198000D01*
Y221300D01*
X197200D01*
Y220900D01*
X196800D01*
Y220100D01*
X197200D01*
X193200Y225100D02*
Y224700D01*
X194000D01*
Y225100D01*
X194400D01*
Y225900D01*
X194000D01*
Y226300D01*
X193200D01*
Y225900D01*
X192800D01*
Y225100D01*
X193200D01*
X174200Y219100D02*
Y218700D01*
X175000D01*
Y219100D01*
X175400D01*
Y219900D01*
X175000D01*
Y220300D01*
X174200D01*
Y219900D01*
X173800D01*
Y219100D01*
X174200D01*
X195200Y212100D02*
Y211700D01*
X196000D01*
Y212100D01*
X196400D01*
Y212900D01*
X196000D01*
Y213300D01*
X195200D01*
Y212900D01*
X194800D01*
Y212100D01*
X195200D01*
X182200Y208100D02*
Y207700D01*
X183000D01*
Y208100D01*
X183400D01*
Y208900D01*
X183000D01*
Y209300D01*
X182200D01*
Y208900D01*
X181800D01*
Y208100D01*
X182200D01*
X224200Y180100D02*
Y179700D01*
X225000D01*
Y180100D01*
X225400D01*
Y180900D01*
X225000D01*
Y181300D01*
X224200D01*
Y180900D01*
X223800D01*
Y180100D01*
X224200D01*
Y172100D02*
Y171700D01*
X225000D01*
Y172100D01*
X225400D01*
Y172900D01*
X225000D01*
Y173300D01*
X224200D01*
Y172900D01*
X223800D01*
Y172100D01*
X224200D01*
X200200Y198100D02*
Y197700D01*
X201000D01*
Y198100D01*
X201400D01*
Y198900D01*
X201000D01*
Y199300D01*
X200200D01*
Y198900D01*
X199800D01*
Y198100D01*
X200200D01*
X232200Y183100D02*
Y182700D01*
X233000D01*
Y183100D01*
X233400D01*
Y183900D01*
X233000D01*
Y184300D01*
X232200D01*
Y183900D01*
X231800D01*
Y183100D01*
X232200D01*
X291200Y209100D02*
Y208700D01*
X292000D01*
Y209100D01*
X292400D01*
Y209900D01*
X292000D01*
Y210300D01*
X291200D01*
Y209900D01*
X290800D01*
Y209100D01*
X291200D01*
X283200D02*
Y208700D01*
X284000D01*
Y209100D01*
X284400D01*
Y209900D01*
X284000D01*
Y210300D01*
X283200D01*
Y209900D01*
X282800D01*
Y209100D01*
X283200D01*
X275200Y209100D02*
Y208700D01*
X276000D01*
Y209100D01*
X276400D01*
Y209900D01*
X276000D01*
Y210300D01*
X275200D01*
Y209900D01*
X274800D01*
Y209100D01*
X275200D01*
X267200Y209100D02*
Y208700D01*
X268000D01*
Y209100D01*
X268400D01*
Y209900D01*
X268000D01*
Y210300D01*
X267200D01*
Y209900D01*
X266800D01*
Y209100D01*
X267200D01*
X140200Y214100D02*
Y213700D01*
X141000D01*
Y214100D01*
X141400D01*
Y214900D01*
X141000D01*
Y215300D01*
X140200D01*
Y214900D01*
X139800D01*
Y214100D01*
X140200D01*
X144200D02*
Y213700D01*
X145000D01*
Y214100D01*
X145400D01*
Y214900D01*
X145000D01*
Y215300D01*
X144200D01*
Y214900D01*
X143800D01*
Y214100D01*
X144200D01*
X136200D02*
Y213700D01*
X137000D01*
Y214100D01*
X137400D01*
Y214900D01*
X137000D01*
Y215300D01*
X136200D01*
Y214900D01*
X135800D01*
Y214100D01*
X136200D01*
X132200D02*
Y213700D01*
X133000D01*
Y214100D01*
X133400D01*
Y214900D01*
X133000D01*
Y215300D01*
X132200D01*
Y214900D01*
X131800D01*
Y214100D01*
X132200D01*
X241200Y122100D02*
Y121700D01*
X242000D01*
Y122100D01*
X242400D01*
Y122900D01*
X242000D01*
Y123300D01*
X241200D01*
Y122900D01*
X240800D01*
Y122100D01*
X241200D01*
X234200D02*
Y121700D01*
X235000D01*
Y122100D01*
X235400D01*
Y122900D01*
X235000D01*
Y123300D01*
X234200D01*
Y122900D01*
X233800D01*
Y122100D01*
X234200D01*
X249200Y122100D02*
Y121700D01*
X250000D01*
Y122100D01*
X250400D01*
Y122900D01*
X250000D01*
Y123300D01*
X249200D01*
Y122900D01*
X248800D01*
Y122100D01*
X249200D01*
X201200Y170100D02*
Y169700D01*
X202000D01*
Y170100D01*
X202400D01*
Y170900D01*
X202000D01*
Y171300D01*
X201200D01*
Y170900D01*
X200800D01*
Y170100D01*
X201200D01*
X285200Y166100D02*
Y165700D01*
X286000D01*
Y166100D01*
X286400D01*
Y166900D01*
X286000D01*
Y167300D01*
X285200D01*
Y166900D01*
X284800D01*
Y166100D01*
X285200D01*
X284200Y172100D02*
Y171700D01*
X285000D01*
Y172100D01*
X285400D01*
Y172900D01*
X285000D01*
Y173300D01*
X284200D01*
Y172900D01*
X283800D01*
Y172100D01*
X284200D01*
X278200Y120600D02*
Y120200D01*
X279000D01*
Y120600D01*
X279400D01*
Y121400D01*
X279000D01*
Y121800D01*
X278200D01*
Y121400D01*
X277800D01*
Y120600D01*
X278200D01*
X289200Y158100D02*
Y157700D01*
X290000D01*
Y158100D01*
X290400D01*
Y158900D01*
X290000D01*
Y159300D01*
X289200D01*
Y158900D01*
X288800D01*
Y158100D01*
X289200D01*
X232200Y175100D02*
Y174700D01*
X233000D01*
Y175100D01*
X233400D01*
Y175900D01*
X233000D01*
Y176300D01*
X232200D01*
Y175900D01*
X231800D01*
Y175100D01*
X232200D01*
X140940Y67360D02*
Y66960D01*
X141740D01*
Y67360D01*
X142140D01*
Y68160D01*
X141740D01*
Y68560D01*
X140940D01*
Y68160D01*
X140540D01*
Y67360D01*
X140940D01*
X126940Y67840D02*
Y67440D01*
X127740D01*
Y67840D01*
X128140D01*
Y68640D01*
X127740D01*
Y69040D01*
X126940D01*
Y68640D01*
X126540D01*
Y67840D01*
X126940D01*
X140250Y85250D02*
X140650D01*
X141050Y85650D01*
X141450Y85250D01*
X141850D01*
Y85650D01*
X141450Y86050D01*
X141850Y86450D01*
Y86850D01*
X141450D01*
X141050Y86450D01*
X140650Y86850D01*
X140250D01*
Y86450D01*
X140650Y86050D01*
X140250Y85650D01*
Y85250D01*
X126200Y34884D02*
Y34484D01*
X127000D01*
Y34884D01*
X127400D01*
Y35684D01*
X127000D01*
Y36084D01*
X126200D01*
Y35684D01*
X125800D01*
Y34884D01*
X126200D01*
X120200D02*
Y34484D01*
X121000D01*
Y34884D01*
X121400D01*
Y35684D01*
X121000D01*
Y36084D01*
X120200D01*
Y35684D01*
X119800D01*
Y34884D01*
X120200D01*
X123342D02*
Y34484D01*
X124142D01*
Y34884D01*
X124542D01*
Y35684D01*
X124142D01*
Y36084D01*
X123342D01*
Y35684D01*
X122942D01*
Y34884D01*
X123342D01*
X190800Y28700D02*
X191200D01*
X191600Y29100D01*
X192000Y28700D01*
X192400D01*
Y29100D01*
X192000Y29500D01*
X192400Y29900D01*
Y30300D01*
X192000D01*
X191600Y29900D01*
X191200Y30300D01*
X190800D01*
Y29900D01*
X191200Y29500D01*
X190800Y29100D01*
Y28700D01*
X181200Y26100D02*
Y25700D01*
X182000D01*
Y26100D01*
X182400D01*
Y26900D01*
X182000D01*
Y27300D01*
X181200D01*
Y26900D01*
X180800D01*
Y26100D01*
X181200D01*
X171200D02*
Y25700D01*
X172000D01*
Y26100D01*
X172400D01*
Y26900D01*
X172000D01*
Y27300D01*
X171200D01*
Y26900D01*
X170800D01*
Y26100D01*
X171200D01*
X161200D02*
Y25700D01*
X162000D01*
Y26100D01*
X162400D01*
Y26900D01*
X162000D01*
Y27300D01*
X161200D01*
Y26900D01*
X160800D01*
Y26100D01*
X161200D01*
X151200Y26625D02*
Y26225D01*
X152000D01*
Y26625D01*
X152400D01*
Y27425D01*
X152000D01*
Y27825D01*
X151200D01*
Y27425D01*
X150800D01*
Y26625D01*
X151200D01*
X141200Y26650D02*
Y26250D01*
X142000D01*
Y26650D01*
X142400D01*
Y27450D01*
X142000D01*
Y27850D01*
X141200D01*
Y27450D01*
X140800D01*
Y26650D01*
X141200D01*
X220800Y224700D02*
X221200D01*
X221600Y225100D01*
X222000Y224700D01*
X222400D01*
Y225100D01*
X222000Y225500D01*
X222400Y225900D01*
Y226300D01*
X222000D01*
X221600Y225900D01*
X221200Y226300D01*
X220800D01*
Y225900D01*
X221200Y225500D01*
X220800Y225100D01*
Y224700D01*
X49200Y90100D02*
Y89700D01*
X50000D01*
Y90100D01*
X50400D01*
Y90900D01*
X50000D01*
Y91300D01*
X49200D01*
Y90900D01*
X48800D01*
Y90100D01*
X49200D01*
X48200Y85100D02*
Y84700D01*
X49000D01*
Y85100D01*
X49400D01*
Y85900D01*
X49000D01*
Y86300D01*
X48200D01*
Y85900D01*
X47800D01*
Y85100D01*
X48200D01*
X51200Y82100D02*
Y81700D01*
X52000D01*
Y82100D01*
X52400D01*
Y82900D01*
X52000D01*
Y83300D01*
X51200D01*
Y82900D01*
X50800D01*
Y82100D01*
X51200D01*
X54200Y84100D02*
Y83700D01*
X55000D01*
Y84100D01*
X55400D01*
Y84900D01*
X55000D01*
Y85300D01*
X54200D01*
Y84900D01*
X53800D01*
Y84100D01*
X54200D01*
X46200Y88100D02*
Y87700D01*
X47000D01*
Y88100D01*
X47400D01*
Y88900D01*
X47000D01*
Y89300D01*
X46200D01*
Y88900D01*
X45800D01*
Y88100D01*
X46200D01*
X319200Y206559D02*
Y206159D01*
X320000D01*
Y206559D01*
X320400D01*
Y207360D01*
X320000D01*
Y207759D01*
X319200D01*
Y207360D01*
X318800D01*
Y206559D01*
X319200D01*
X86200Y49100D02*
Y48700D01*
X87000D01*
Y49100D01*
X87400D01*
Y49900D01*
X87000D01*
Y50300D01*
X86200D01*
Y49900D01*
X85800D01*
Y49100D01*
X86200D01*
X267200Y120100D02*
Y119700D01*
X268000D01*
Y120100D01*
X268400D01*
Y120900D01*
X268000D01*
Y121300D01*
X267200D01*
Y120900D01*
X266800D01*
Y120100D01*
X267200D01*
X269450Y102100D02*
Y101700D01*
X270250D01*
Y102100D01*
X270650D01*
Y102900D01*
X270250D01*
Y103300D01*
X269450D01*
Y102900D01*
X269050D01*
Y102100D01*
X269450D01*
X265200Y102600D02*
Y102200D01*
X266000D01*
Y102600D01*
X266400D01*
Y103400D01*
X266000D01*
Y103800D01*
X265200D01*
Y103400D01*
X264800D01*
Y102600D01*
X265200D01*
X262700Y106332D02*
Y105932D01*
X263500D01*
Y106332D01*
X263900D01*
Y107132D01*
X263500D01*
Y107532D01*
X262700D01*
Y107132D01*
X262300D01*
Y106332D01*
X262700D01*
X287200Y109100D02*
Y108700D01*
X288000D01*
Y109100D01*
X288400D01*
Y109900D01*
X288000D01*
Y110300D01*
X287200D01*
Y109900D01*
X286800D01*
Y109100D01*
X287200D01*
Y114100D02*
Y113700D01*
X288000D01*
Y114100D01*
X288400D01*
Y114900D01*
X288000D01*
Y115300D01*
X287200D01*
Y114900D01*
X286800D01*
Y114100D01*
X287200D01*
X286700Y118600D02*
Y118200D01*
X287500D01*
Y118600D01*
X287900D01*
Y119400D01*
X287500D01*
Y119800D01*
X286700D01*
Y119400D01*
X286300D01*
Y118600D01*
X286700D01*
X283200Y120600D02*
Y120200D01*
X284000D01*
Y120600D01*
X284400D01*
Y121400D01*
X284000D01*
Y121800D01*
X283200D01*
Y121400D01*
X282800D01*
Y120600D01*
X283200D01*
X262700Y112323D02*
Y111923D01*
X263500D01*
Y112323D01*
X263900D01*
Y113123D01*
X263500D01*
Y113523D01*
X262700D01*
Y113123D01*
X262300D01*
Y112323D01*
X262700D01*
X263200Y118100D02*
Y117700D01*
X264000D01*
Y118100D01*
X264400D01*
Y118900D01*
X264000D01*
Y119300D01*
X263200D01*
Y118900D01*
X262800D01*
Y118100D01*
X263200D01*
X271700Y120600D02*
Y120200D01*
X272500D01*
Y120600D01*
X272900D01*
Y121400D01*
X272500D01*
Y121800D01*
X271700D01*
Y121400D01*
X271300D01*
Y120600D01*
X271700D01*
X48100Y220700D02*
Y220300D01*
X48900D01*
Y220700D01*
X49300D01*
Y221500D01*
X48900D01*
Y221900D01*
X48100D01*
Y221500D01*
X47700D01*
Y220700D01*
X48100D01*
X51100D02*
Y220300D01*
X51900D01*
Y220700D01*
X52300D01*
Y221500D01*
X51900D01*
Y221900D01*
X51100D01*
Y221500D01*
X50700D01*
Y220700D01*
X51100D01*
X48100Y217700D02*
Y217300D01*
X48900D01*
Y217700D01*
X49300D01*
Y218500D01*
X48900D01*
Y218900D01*
X48100D01*
Y218500D01*
X47700D01*
Y217700D01*
X48100D01*
X51100D02*
Y217300D01*
X51900D01*
Y217700D01*
X52300D01*
Y218500D01*
X51900D01*
Y218900D01*
X51100D01*
Y218500D01*
X50700D01*
Y217700D01*
X51100D01*
X87477Y160767D02*
Y160367D01*
X88277D01*
Y160767D01*
X88677D01*
Y161567D01*
X88277D01*
Y161967D01*
X87477D01*
Y161567D01*
X87077D01*
Y160767D01*
X87477D01*
X89977Y133433D02*
Y133033D01*
X90777D01*
Y133433D01*
X91177D01*
Y134233D01*
X90777D01*
Y134633D01*
X89977D01*
Y134233D01*
X89577D01*
Y133433D01*
X89977D01*
X87477D02*
Y133033D01*
X88277D01*
Y133433D01*
X88677D01*
Y134233D01*
X88277D01*
Y134633D01*
X87477D01*
Y134233D01*
X87077D01*
Y133433D01*
X87477D01*
X89977Y135933D02*
Y135533D01*
X90777D01*
Y135933D01*
X91177D01*
Y136733D01*
X90777D01*
Y137133D01*
X89977D01*
Y136733D01*
X89577D01*
Y135933D01*
X89977D01*
X89977Y106100D02*
Y105700D01*
X90777D01*
Y106100D01*
X91177D01*
Y106900D01*
X90777D01*
Y107300D01*
X89977D01*
Y106900D01*
X89577D01*
Y106100D01*
X89977D01*
X87477D02*
Y105700D01*
X88277D01*
Y106100D01*
X88677D01*
Y106900D01*
X88277D01*
Y107300D01*
X87477D01*
Y106900D01*
X87077D01*
Y106100D01*
X87477D01*
X62423D02*
Y105700D01*
X63223D01*
Y106100D01*
X63623D01*
Y106900D01*
X63223D01*
Y107300D01*
X62423D01*
Y106900D01*
X62023D01*
Y106100D01*
X62423D01*
X59923D02*
Y105700D01*
X60723D01*
Y106100D01*
X61123D01*
Y106900D01*
X60723D01*
Y107300D01*
X59923D01*
Y106900D01*
X59523D01*
Y106100D01*
X59923D01*
X62423Y108600D02*
Y108200D01*
X63223D01*
Y108600D01*
X63623D01*
Y109400D01*
X63223D01*
Y109800D01*
X62423D01*
Y109400D01*
X62023D01*
Y108600D01*
X62423D01*
X62423Y133433D02*
Y133033D01*
X63223D01*
Y133433D01*
X63623D01*
Y134233D01*
X63223D01*
Y134633D01*
X62423D01*
Y134233D01*
X62023D01*
Y133433D01*
X62423D01*
X59923D02*
Y133033D01*
X60723D01*
Y133433D01*
X61123D01*
Y134233D01*
X60723D01*
Y134633D01*
X59923D01*
Y134233D01*
X59523D01*
Y133433D01*
X59923D01*
X62423Y135933D02*
Y135533D01*
X63223D01*
Y135933D01*
X63623D01*
Y136733D01*
X63223D01*
Y137133D01*
X62423D01*
Y136733D01*
X62023D01*
Y135933D01*
X62423D01*
Y160767D02*
Y160367D01*
X63223D01*
Y160767D01*
X63623D01*
Y161567D01*
X63223D01*
Y161967D01*
X62423D01*
Y161567D01*
X62023D01*
Y160767D01*
X62423D01*
X59923D02*
Y160367D01*
X60723D01*
Y160767D01*
X61123D01*
Y161567D01*
X60723D01*
Y161967D01*
X59923D01*
Y161567D01*
X59523D01*
Y160767D01*
X59923D01*
X62423Y163267D02*
Y162867D01*
X63223D01*
Y163267D01*
X63623D01*
Y164067D01*
X63223D01*
Y164467D01*
X62423D01*
Y164067D01*
X62023D01*
Y163267D01*
X62423D01*
X73700Y106100D02*
Y105700D01*
X74500D01*
Y106100D01*
X74900D01*
Y106900D01*
X74500D01*
Y107300D01*
X73700D01*
Y106900D01*
X73300D01*
Y106100D01*
X73700D01*
X76200Y133433D02*
Y133033D01*
X77000D01*
Y133433D01*
X77400D01*
Y134233D01*
X77000D01*
Y134633D01*
X76200D01*
Y134233D01*
X75800D01*
Y133433D01*
X76200D01*
X73700D02*
Y133033D01*
X74500D01*
Y133433D01*
X74900D01*
Y134233D01*
X74500D01*
Y134633D01*
X73700D01*
Y134233D01*
X73300D01*
Y133433D01*
X73700D01*
X76200Y135933D02*
Y135533D01*
X77000D01*
Y135933D01*
X77400D01*
Y136733D01*
X77000D01*
Y137133D01*
X76200D01*
Y136733D01*
X75800D01*
Y135933D01*
X76200D01*
X76200Y160767D02*
Y160367D01*
X77000D01*
Y160767D01*
X77400D01*
Y161567D01*
X77000D01*
Y161967D01*
X76200D01*
Y161567D01*
X75800D01*
Y160767D01*
X76200D01*
X73700D02*
Y160367D01*
X74500D01*
Y160767D01*
X74900D01*
Y161567D01*
X74500D01*
Y161967D01*
X73700D01*
Y161567D01*
X73300D01*
Y160767D01*
X73700D01*
X76200Y163267D02*
Y162867D01*
X77000D01*
Y163267D01*
X77400D01*
Y164067D01*
X77000D01*
Y164467D01*
X76200D01*
Y164067D01*
X75800D01*
Y163267D01*
X76200D01*
X246200Y44200D02*
Y43800D01*
X247000D01*
Y44200D01*
X247400D01*
Y45000D01*
X247000D01*
Y45400D01*
X246200D01*
Y45000D01*
X245800D01*
Y44200D01*
X246200D01*
Y79100D02*
Y78700D01*
X247000D01*
Y79100D01*
X247400D01*
Y79900D01*
X247000D01*
Y80300D01*
X246200D01*
Y79900D01*
X245800D01*
Y79100D01*
X246200D01*
X32200Y71100D02*
Y70700D01*
X33000D01*
Y71100D01*
X33400D01*
Y71900D01*
X33000D01*
Y72300D01*
X32200D01*
Y71900D01*
X31800D01*
Y71100D01*
X32200D01*
Y67100D02*
Y66700D01*
X33000D01*
Y67100D01*
X33400D01*
Y67900D01*
X33000D01*
Y68300D01*
X32200D01*
Y67900D01*
X31800D01*
Y67100D01*
X32200D01*
Y63100D02*
Y62700D01*
X33000D01*
Y63100D01*
X33400D01*
Y63900D01*
X33000D01*
Y64300D01*
X32200D01*
Y63900D01*
X31800D01*
Y63100D01*
X32200D01*
X44200Y21100D02*
Y20700D01*
X45000D01*
Y21100D01*
X45400D01*
Y21900D01*
X45000D01*
Y22300D01*
X44200D01*
Y21900D01*
X43800D01*
Y21100D01*
X44200D01*
Y25100D02*
Y24700D01*
X45000D01*
Y25100D01*
X45400D01*
Y25900D01*
X45000D01*
Y26300D01*
X44200D01*
Y25900D01*
X43800D01*
Y25100D01*
X44200D01*
Y29100D02*
Y28700D01*
X45000D01*
Y29100D01*
X45400D01*
Y29900D01*
X45000D01*
Y30300D01*
X44200D01*
Y29900D01*
X43800D01*
Y29100D01*
X44200D01*
X54200Y53100D02*
Y52700D01*
X55000D01*
Y53100D01*
X55400D01*
Y53900D01*
X55000D01*
Y54300D01*
X54200D01*
Y53900D01*
X53800D01*
Y53100D01*
X54200D01*
X21159Y245910D02*
X21559Y246709D01*
X21159Y247510D01*
X21959Y247110D01*
X22759Y247510D01*
X22359Y246709D01*
X22759Y245910D01*
X21959Y246309D01*
X21159Y245910D01*
X37120Y239299D02*
X37520Y240099D01*
X37120Y240899D01*
X37920Y240499D01*
X38720Y240899D01*
X38320Y240099D01*
X38720Y239299D01*
X37920Y239699D01*
X37120Y239299D01*
X18419D02*
X18819Y240099D01*
X18419Y240899D01*
X19219Y240499D01*
X20019Y240899D01*
X19619Y240099D01*
X20019Y239299D01*
X19219Y239699D01*
X18419Y239299D01*
X34380Y245910D02*
X34780Y246709D01*
X34380Y247510D01*
X35179Y247110D01*
X35980Y247510D01*
X35579Y246709D01*
X35980Y245910D01*
X35179Y246309D01*
X34380Y245910D01*
X21159Y232689D02*
X21559Y233489D01*
X21159Y234289D01*
X21959Y233889D01*
X22759Y234289D01*
X22359Y233489D01*
X22759Y232689D01*
X21959Y233089D01*
X21159Y232689D01*
X34380D02*
X34780Y233489D01*
X34380Y234289D01*
X35179Y233889D01*
X35980Y234289D01*
X35579Y233489D01*
X35980Y232689D01*
X35179Y233089D01*
X34380Y232689D01*
X27769Y248650D02*
X28169Y249450D01*
X27769Y250250D01*
X28569Y249850D01*
X29369Y250250D01*
X28969Y249450D01*
X29369Y248650D01*
X28569Y249050D01*
X27769Y248650D01*
Y229949D02*
X28169Y230749D01*
X27769Y231549D01*
X28569Y231149D01*
X29369Y231549D01*
X28969Y230749D01*
X29369Y229949D01*
X28569Y230349D01*
X27769Y229949D01*
X21159Y33311D02*
X21559Y34111D01*
X21159Y34911D01*
X21959Y34511D01*
X22759Y34911D01*
X22359Y34111D01*
X22759Y33311D01*
X21959Y33711D01*
X21159Y33311D01*
X37120Y26701D02*
X37520Y27501D01*
X37120Y28301D01*
X37920Y27901D01*
X38720Y28301D01*
X38320Y27501D01*
X38720Y26701D01*
X37920Y27101D01*
X37120Y26701D01*
X18419D02*
X18819Y27501D01*
X18419Y28301D01*
X19219Y27901D01*
X20019Y28301D01*
X19619Y27501D01*
X20019Y26701D01*
X19219Y27101D01*
X18419Y26701D01*
X34380Y33311D02*
X34780Y34111D01*
X34380Y34911D01*
X35179Y34511D01*
X35980Y34911D01*
X35579Y34111D01*
X35980Y33311D01*
X35179Y33711D01*
X34380Y33311D01*
X21159Y20091D02*
X21559Y20891D01*
X21159Y21691D01*
X21959Y21291D01*
X22759Y21691D01*
X22359Y20891D01*
X22759Y20091D01*
X21959Y20491D01*
X21159Y20091D01*
X34380D02*
X34780Y20891D01*
X34380Y21691D01*
X35179Y21291D01*
X35980Y21691D01*
X35579Y20891D01*
X35980Y20091D01*
X35179Y20491D01*
X34380Y20091D01*
X27769Y36051D02*
X28169Y36851D01*
X27769Y37651D01*
X28569Y37251D01*
X29369Y37651D01*
X28969Y36851D01*
X29369Y36051D01*
X28569Y36451D01*
X27769Y36051D01*
Y17350D02*
X28169Y18150D01*
X27769Y18950D01*
X28569Y18550D01*
X29369Y18950D01*
X28969Y18150D01*
X29369Y17350D01*
X28569Y17750D01*
X27769Y17350D01*
X312498Y33311D02*
X312898Y34111D01*
X312498Y34911D01*
X313298Y34511D01*
X314098Y34911D01*
X313698Y34111D01*
X314098Y33311D01*
X313298Y33711D01*
X312498Y33311D01*
X328458Y26701D02*
X328858Y27501D01*
X328458Y28301D01*
X329258Y27901D01*
X330058Y28301D01*
X329658Y27501D01*
X330058Y26701D01*
X329258Y27101D01*
X328458Y26701D01*
X309757D02*
X310157Y27501D01*
X309757Y28301D01*
X310558Y27901D01*
X311357Y28301D01*
X310958Y27501D01*
X311357Y26701D01*
X310558Y27101D01*
X309757Y26701D01*
X325718Y33311D02*
X326118Y34111D01*
X325718Y34911D01*
X326518Y34511D01*
X327318Y34911D01*
X326918Y34111D01*
X327318Y33311D01*
X326518Y33711D01*
X325718Y33311D01*
X312498Y20091D02*
X312898Y20891D01*
X312498Y21691D01*
X313298Y21291D01*
X314098Y21691D01*
X313698Y20891D01*
X314098Y20091D01*
X313298Y20491D01*
X312498Y20091D01*
X325718D02*
X326118Y20891D01*
X325718Y21691D01*
X326518Y21291D01*
X327318Y21691D01*
X326918Y20891D01*
X327318Y20091D01*
X326518Y20491D01*
X325718Y20091D01*
X319108Y36051D02*
X319508Y36851D01*
X319108Y37651D01*
X319908Y37251D01*
X320708Y37651D01*
X320308Y36851D01*
X320708Y36051D01*
X319908Y36451D01*
X319108Y36051D01*
Y17350D02*
X319508Y18150D01*
X319108Y18950D01*
X319908Y18550D01*
X320708Y18950D01*
X320308Y18150D01*
X320708Y17350D01*
X319908Y17750D01*
X319108Y17350D01*
D177*
X109321Y225500D02*
G03*
X109321Y225500I-800J0D01*
G01*
X79400D02*
G03*
X79400Y225500I-800J0D01*
G01*
M02*
