G04*
G04 #@! TF.GenerationSoftware,Altium Limited,Altium Designer,20.0.1 (14)*
G04*
G04 Layer_Color=16711935*
%FSLAX25Y25*%
%MOIN*%
G70*
G01*
G75*
%ADD20C,0.00394*%
D20*
X205024Y231192D02*
G03*
X205024Y231192I-1969J0D01*
G01*
X149410Y128670D02*
G03*
X149410Y128670I-1000J0D01*
G01*
X162943Y135169D02*
X168257D01*
X162943Y143831D02*
X168257D01*
X162943Y135169D02*
Y143831D01*
X168257Y135169D02*
Y143831D01*
X162513Y168169D02*
X167828D01*
X162513Y176831D02*
X167828D01*
X162513Y168169D02*
Y176831D01*
X167828Y168169D02*
Y176831D01*
X92443Y187479D02*
Y192597D01*
X80632Y187479D02*
Y192597D01*
X92443D01*
X80632Y187479D02*
X92443D01*
X145694Y56941D02*
Y62059D01*
X157506Y56941D02*
Y62059D01*
X145694Y56941D02*
X157506D01*
X145694Y62059D02*
X157506D01*
X131694Y56941D02*
Y62059D01*
X143506Y56941D02*
Y62059D01*
X131694Y56941D02*
X143506D01*
X131694Y62059D02*
X143506D01*
X117694Y56941D02*
Y62059D01*
X129506Y56941D02*
Y62059D01*
X117694Y56941D02*
X129506D01*
X117694Y62059D02*
X129506D01*
X191969Y248035D02*
X206142D01*
X191969Y228350D02*
X206142D01*
X191969D02*
Y248035D01*
X206142Y228350D02*
Y248035D01*
X146410Y130670D02*
X152709D01*
X146410Y118859D02*
Y130670D01*
Y118859D02*
X152709D01*
Y130670D01*
X94695Y187479D02*
X106506D01*
X94695Y192597D02*
X106506D01*
X94695Y187479D02*
Y192597D01*
X106506Y187479D02*
Y192597D01*
X196942Y188169D02*
Y196831D01*
X202257Y188169D02*
Y196831D01*
X196942Y188169D02*
X202257D01*
X196942Y196831D02*
X202257D01*
X66855Y105479D02*
X78666D01*
X66855Y110597D02*
X78666D01*
X66855Y105479D02*
Y110597D01*
X78666Y105479D02*
Y110597D01*
X66855Y132812D02*
X78666D01*
X66855Y137930D02*
X78666D01*
X66855Y132812D02*
Y137930D01*
X78666Y132812D02*
Y137930D01*
X80632Y105479D02*
X92443D01*
X80632Y110597D02*
X92443D01*
X80632Y105479D02*
Y110597D01*
X92443Y105479D02*
Y110597D01*
X80632Y132812D02*
X92444D01*
X80632Y137930D02*
X92444D01*
X80632Y132812D02*
Y137930D01*
X92444Y132812D02*
Y137930D01*
X53078Y105479D02*
X64889D01*
X53078Y110597D02*
X64889D01*
X53078Y105479D02*
Y110597D01*
X64889Y105479D02*
Y110597D01*
X53078Y132812D02*
X64889D01*
X53078Y137930D02*
X64889D01*
X53078Y132812D02*
Y137930D01*
X64889Y132812D02*
Y137930D01*
X66855Y187479D02*
X78666D01*
X66855Y192597D02*
X78666D01*
X66855Y187479D02*
Y192597D01*
X78666Y187479D02*
Y192597D01*
X66855Y160145D02*
X78666D01*
X66855Y165263D02*
X78666D01*
X66855Y160145D02*
Y165263D01*
X78666Y160145D02*
Y165263D01*
X80632Y160145D02*
X92444D01*
X80632Y165263D02*
X92444D01*
X80632Y160145D02*
Y165263D01*
X92444Y160145D02*
Y165263D01*
X53078Y187479D02*
X64889D01*
X53078Y192597D02*
X64889D01*
X53078Y187479D02*
Y192597D01*
X64889Y187479D02*
Y192597D01*
X53078Y160145D02*
X64889D01*
X53078Y165263D02*
X64889D01*
X53078Y160145D02*
Y165263D01*
X64889Y160145D02*
Y165263D01*
M02*
