G04*
G04 #@! TF.GenerationSoftware,Altium Limited,Altium Designer,20.0.1 (14)*
G04*
G04 Layer_Color=8388736*
%FSLAX25Y25*%
%MOIN*%
G70*
G01*
G75*
%ADD31R,0.09661X0.13205*%
%ADD32R,0.04150X0.07693*%
%ADD33R,0.03360X0.07700*%
%ADD34R,0.06118X0.12811*%
G04:AMPARAMS|DCode=36|XSize=48mil|YSize=45mil|CornerRadius=0mil|HoleSize=0mil|Usage=FLASHONLY|Rotation=45.000|XOffset=0mil|YOffset=0mil|HoleType=Round|Shape=Rectangle|*
%AMROTATEDRECTD36*
4,1,4,-0.00106,-0.03288,-0.03288,-0.00106,0.00106,0.03288,0.03288,0.00106,-0.00106,-0.03288,0.0*
%
%ADD36ROTATEDRECTD36*%

%ADD37P,0.05657X4X270.0*%
%ADD38R,0.02969X0.05724*%
%ADD39R,0.04000X0.04000*%
%ADD40R,0.04000X0.04000*%
%ADD41R,0.04800X0.04500*%
%ADD42R,0.04500X0.04800*%
%ADD47R,0.11000X0.07000*%
%ADD48R,0.04150X0.04937*%
G04:AMPARAMS|DCode=49|XSize=49.37mil|YSize=41.5mil|CornerRadius=0mil|HoleSize=0mil|Usage=FLASHONLY|Rotation=90.000|XOffset=0mil|YOffset=0mil|HoleType=Round|Shape=Octagon|*
%AMOCTAGOND49*
4,1,8,0.01037,0.02468,-0.01037,0.02468,-0.02075,0.01431,-0.02075,-0.01431,-0.01037,-0.02468,0.01037,-0.02468,0.02075,-0.01431,0.02075,0.01431,0.01037,0.02468,0.0*
%
%ADD49OCTAGOND49*%

%ADD50O,0.06906X0.02969*%
%ADD51R,0.06906X0.02969*%
G04:AMPARAMS|DCode=52|XSize=49.37mil|YSize=41.5mil|CornerRadius=0mil|HoleSize=0mil|Usage=FLASHONLY|Rotation=45.000|XOffset=0mil|YOffset=0mil|HoleType=Round|Shape=Rectangle|*
%AMROTATEDRECTD52*
4,1,4,-0.00278,-0.03213,-0.03213,-0.00278,0.00278,0.03213,0.03213,0.00278,-0.00278,-0.03213,0.0*
%
%ADD52ROTATEDRECTD52*%

G04:AMPARAMS|DCode=53|XSize=49.37mil|YSize=41.5mil|CornerRadius=0mil|HoleSize=0mil|Usage=FLASHONLY|Rotation=45.000|XOffset=0mil|YOffset=0mil|HoleType=Round|Shape=Octagon|*
%AMOCTAGOND53*
4,1,8,0.02479,0.01012,0.01012,0.02479,-0.00455,0.02479,-0.02479,0.00455,-0.02479,-0.01012,-0.01012,-0.02479,0.00455,-0.02479,0.02479,-0.00455,0.02479,0.01012,0.0*
%
%ADD53OCTAGOND53*%

%ADD54R,0.05724X0.06118*%
%ADD55R,0.04937X0.04150*%
G04:AMPARAMS|DCode=56|XSize=49.37mil|YSize=41.5mil|CornerRadius=0mil|HoleSize=0mil|Usage=FLASHONLY|Rotation=180.000|XOffset=0mil|YOffset=0mil|HoleType=Round|Shape=Octagon|*
%AMOCTAGOND56*
4,1,8,-0.02468,0.01037,-0.02468,-0.01037,-0.01431,-0.02075,0.01431,-0.02075,0.02468,-0.01037,0.02468,0.01037,0.01431,0.02075,-0.01431,0.02075,-0.02468,0.01037,0.0*
%
%ADD56OCTAGOND56*%

%ADD57R,0.05724X0.02969*%
%ADD58R,0.06000X0.04500*%
%ADD59P,0.05657X4X180.0*%
%ADD60R,0.04150X0.03756*%
G04:AMPARAMS|DCode=61|XSize=41.5mil|YSize=37.56mil|CornerRadius=0mil|HoleSize=0mil|Usage=FLASHONLY|Rotation=0.000|XOffset=0mil|YOffset=0mil|HoleType=Round|Shape=Octagon|*
%AMOCTAGOND61*
4,1,8,0.02075,-0.00939,0.02075,0.00939,0.01136,0.01878,-0.01136,0.01878,-0.02075,0.00939,-0.02075,-0.00939,-0.01136,-0.01878,0.01136,-0.01878,0.02075,-0.00939,0.0*
%
%ADD61OCTAGOND61*%

%ADD62R,0.03937X0.03937*%
G04:AMPARAMS|DCode=63|XSize=49.37mil|YSize=41.5mil|CornerRadius=0mil|HoleSize=0mil|Usage=FLASHONLY|Rotation=125.000|XOffset=0mil|YOffset=0mil|HoleType=Round|Shape=Rectangle|*
%AMROTATEDRECTD63*
4,1,4,0.03116,-0.00832,-0.00284,-0.03212,-0.03116,0.00832,0.00284,0.03212,0.03116,-0.00832,0.0*
%
%ADD63ROTATEDRECTD63*%

G04:AMPARAMS|DCode=64|XSize=49.37mil|YSize=41.5mil|CornerRadius=0mil|HoleSize=0mil|Usage=FLASHONLY|Rotation=125.000|XOffset=0mil|YOffset=0mil|HoleType=Round|Shape=Octagon|*
%AMOCTAGOND64*
4,1,8,-0.00566,0.02617,-0.02266,0.01427,-0.02520,-0.00018,-0.00879,-0.02362,0.00566,-0.02617,0.02266,-0.01427,0.02520,0.00018,0.00879,0.02362,-0.00566,0.02617,0.0*
%
%ADD64OCTAGOND64*%

%ADD67R,0.04500X0.04500*%
%ADD68R,0.05213X0.03362*%
%ADD70R,0.07299X0.14780*%
%ADD71R,0.04500X0.04500*%
%ADD72O,0.10055X0.03362*%
%ADD74R,0.07700X0.03360*%
%ADD75R,0.12811X0.06118*%
%ADD77R,0.04500X0.06000*%
%ADD78R,0.05518X0.10400*%
%ADD79R,0.06306X0.05912*%
%ADD80R,0.04732X0.02764*%
%ADD81R,0.09843X0.03937*%
%ADD82R,0.03150X0.04331*%
%ADD83O,0.01457X0.06299*%
%ADD84O,0.06299X0.01457*%
%ADD85O,0.01830X0.05210*%
%ADD86R,0.05912X0.06306*%
%ADD87R,0.08461X0.09032*%
%ADD88C,0.24622*%
%ADD89C,0.07487*%
%ADD90C,0.06400*%
%ADD91R,0.06400X0.06400*%
%ADD92C,0.07299*%
%ADD93R,0.07299X0.07299*%
%ADD94C,0.07693*%
%ADD95P,0.10879X4X180.0*%
%ADD96R,0.07693X0.07693*%
%ADD97R,0.07693X0.07693*%
D31*
X248376Y242208D02*
D03*
X282824D02*
D03*
D32*
X258218Y230792D02*
D03*
X263139D02*
D03*
X268061D02*
D03*
X272982D02*
D03*
D33*
X153060Y231201D02*
D03*
X148140Y231201D02*
D03*
D34*
X140462Y243799D02*
D03*
X160738D02*
D03*
D36*
X298161Y130061D02*
D03*
X303040Y134940D02*
D03*
X193040Y138939D02*
D03*
X188161Y134061D02*
D03*
D37*
X292791Y134691D02*
D03*
X296410Y138310D02*
D03*
D38*
X86538Y194538D02*
D03*
X90278Y185538D02*
D03*
X82798D02*
D03*
X151600Y55000D02*
D03*
X147860Y64000D02*
D03*
X155340D02*
D03*
X137600Y55000D02*
D03*
X133860Y64000D02*
D03*
X141340D02*
D03*
X123600Y55000D02*
D03*
X119860Y64000D02*
D03*
X127340D02*
D03*
X96860Y185538D02*
D03*
X104340D02*
D03*
X100600Y194538D02*
D03*
X69020Y103538D02*
D03*
X76501D02*
D03*
X72761Y112538D02*
D03*
X69020Y130871D02*
D03*
X76501D02*
D03*
X72761Y139871D02*
D03*
X82798Y103538D02*
D03*
X90278D02*
D03*
X86538Y112538D02*
D03*
X82798Y130871D02*
D03*
X90278D02*
D03*
X86538Y139871D02*
D03*
X55243Y103538D02*
D03*
X62724D02*
D03*
X58983Y112538D02*
D03*
X55243Y130871D02*
D03*
X62724D02*
D03*
X58983Y139871D02*
D03*
X69021Y185538D02*
D03*
X76501D02*
D03*
X72761Y194538D02*
D03*
X69021Y158204D02*
D03*
X76501D02*
D03*
X72761Y167204D02*
D03*
X82798Y158204D02*
D03*
X90278D02*
D03*
X86538Y167204D02*
D03*
X55243Y185538D02*
D03*
X62724D02*
D03*
X58983Y194538D02*
D03*
X55243Y158204D02*
D03*
X62724D02*
D03*
X58983Y167204D02*
D03*
D39*
X296041Y60500D02*
D03*
X301159D02*
D03*
X195159Y80500D02*
D03*
X190041D02*
D03*
X195159Y74500D02*
D03*
X190041D02*
D03*
X65159Y54000D02*
D03*
X60041D02*
D03*
X49041Y21000D02*
D03*
X54159D02*
D03*
X209041Y70500D02*
D03*
X214159D02*
D03*
D40*
X203777Y116941D02*
D03*
X203777Y122059D02*
D03*
X209895D02*
D03*
X209895Y116941D02*
D03*
X218600Y241059D02*
D03*
X218600Y235941D02*
D03*
X266917Y114434D02*
D03*
Y109316D02*
D03*
X288100Y91441D02*
D03*
Y96559D02*
D03*
X162059Y128324D02*
D03*
Y123206D02*
D03*
X168289Y123206D02*
D03*
Y128324D02*
D03*
X130683Y125772D02*
D03*
X130683Y130890D02*
D03*
X136801Y125772D02*
D03*
X136801Y130890D02*
D03*
X259600Y187500D02*
D03*
Y192618D02*
D03*
X112600Y194941D02*
D03*
Y200059D02*
D03*
X288600Y26941D02*
D03*
Y32059D02*
D03*
X32100Y52559D02*
D03*
Y47441D02*
D03*
X72600Y48941D02*
D03*
Y54059D02*
D03*
X303600Y41941D02*
D03*
Y47059D02*
D03*
X235600Y33941D02*
D03*
Y39059D02*
D03*
D41*
X217150Y121500D02*
D03*
X224050Y121500D02*
D03*
X246750Y187500D02*
D03*
X239850D02*
D03*
X246750Y195500D02*
D03*
X239850Y195500D02*
D03*
X308150Y159500D02*
D03*
X315050D02*
D03*
X308150Y166500D02*
D03*
X315050D02*
D03*
X308150Y149500D02*
D03*
X315050D02*
D03*
X232750Y234500D02*
D03*
X225850D02*
D03*
X232750Y242188D02*
D03*
X225850D02*
D03*
X246750Y156877D02*
D03*
X239850D02*
D03*
Y164665D02*
D03*
X246750D02*
D03*
Y172254D02*
D03*
X239850D02*
D03*
X246750Y179942D02*
D03*
X239850D02*
D03*
X281367Y98875D02*
D03*
X274467Y98875D02*
D03*
X180050Y57500D02*
D03*
X173150D02*
D03*
X180050Y64500D02*
D03*
X173150D02*
D03*
X97550Y49500D02*
D03*
X90650D02*
D03*
Y58000D02*
D03*
X97550D02*
D03*
X62150Y21000D02*
D03*
X69050D02*
D03*
X48150Y28500D02*
D03*
X55050D02*
D03*
X69050D02*
D03*
X62150D02*
D03*
X137110Y110765D02*
D03*
X144010Y110765D02*
D03*
X120150Y74500D02*
D03*
X127050Y74500D02*
D03*
X134150Y74500D02*
D03*
X141050D02*
D03*
X148150D02*
D03*
X155050D02*
D03*
D42*
X271100Y79950D02*
D03*
Y73050D02*
D03*
X275600Y133450D02*
D03*
Y126550D02*
D03*
X249600Y128050D02*
D03*
X249600Y134950D02*
D03*
X242007Y128050D02*
D03*
X242007Y134950D02*
D03*
X234600Y128050D02*
D03*
X234600Y134950D02*
D03*
X267600Y194050D02*
D03*
Y200950D02*
D03*
X291600Y194050D02*
D03*
Y200950D02*
D03*
X283600Y194050D02*
D03*
Y200950D02*
D03*
X275600Y194050D02*
D03*
Y200950D02*
D03*
X179600Y241950D02*
D03*
Y235050D02*
D03*
X303600Y32950D02*
D03*
Y26050D02*
D03*
X295600Y26050D02*
D03*
X295600Y32950D02*
D03*
X295600Y47950D02*
D03*
Y41050D02*
D03*
X232600Y65500D02*
D03*
Y58600D02*
D03*
D47*
X84600Y23291D02*
D03*
Y34709D02*
D03*
X261600Y35209D02*
D03*
Y23791D02*
D03*
X42600Y56209D02*
D03*
Y44791D02*
D03*
D48*
X259600Y213000D02*
D03*
X299600Y207000D02*
D03*
D49*
X259600Y222000D02*
D03*
X299600Y198000D02*
D03*
D50*
X189213Y245692D02*
D03*
X189213Y240692D02*
D03*
Y235693D02*
D03*
X189213Y230693D02*
D03*
X208898Y245692D02*
D03*
X208898Y240692D02*
D03*
Y235693D02*
D03*
D51*
X208898Y230693D02*
D03*
D52*
X36418Y76318D02*
D03*
D53*
X42782Y82682D02*
D03*
D54*
X274600Y107741D02*
D03*
Y116009D02*
D03*
X281293Y116009D02*
D03*
X281293Y107741D02*
D03*
D55*
X154060Y140765D02*
D03*
X265100Y224500D02*
D03*
X294100Y222500D02*
D03*
D56*
X145060Y140765D02*
D03*
X274100Y224500D02*
D03*
X285100Y222500D02*
D03*
D57*
X155071Y121025D02*
D03*
Y128505D02*
D03*
X144048Y124765D02*
D03*
Y128505D02*
D03*
Y121025D02*
D03*
D58*
X167600Y143240D02*
D03*
Y135759D02*
D03*
X123559Y126025D02*
D03*
X123559Y133505D02*
D03*
X106600Y33241D02*
D03*
X106600Y25760D02*
D03*
X80600Y46760D02*
D03*
X80600Y54240D02*
D03*
D59*
X255291Y142809D02*
D03*
X258910Y139190D02*
D03*
X304410Y180191D02*
D03*
X300791Y183809D02*
D03*
D60*
X174253Y228500D02*
D03*
X174254Y248500D02*
D03*
D61*
X180947Y228500D02*
D03*
Y248500D02*
D03*
D62*
X141600Y32500D02*
D03*
Y39193D02*
D03*
X161600Y39192D02*
D03*
Y32499D02*
D03*
X171600Y39193D02*
D03*
Y32500D02*
D03*
X181600Y39193D02*
D03*
Y32500D02*
D03*
X151600Y39193D02*
D03*
Y32500D02*
D03*
D63*
X122181Y237914D02*
D03*
D64*
X117019Y245286D02*
D03*
D67*
X281417Y91375D02*
D03*
X274417D02*
D03*
D68*
X281462Y25760D02*
D03*
Y33240D02*
D03*
X271737Y29500D02*
D03*
D70*
X53301Y66000D02*
D03*
X65899D02*
D03*
D71*
X174600Y121000D02*
D03*
Y128000D02*
D03*
D72*
X160600Y168500D02*
D03*
Y173500D02*
D03*
X160600Y178500D02*
D03*
X160600Y183500D02*
D03*
X160600Y188500D02*
D03*
X160600Y193500D02*
D03*
Y198500D02*
D03*
X160600Y203500D02*
D03*
X160600Y208500D02*
D03*
Y213500D02*
D03*
X124774Y168500D02*
D03*
Y173500D02*
D03*
X124774Y178500D02*
D03*
X124774Y183500D02*
D03*
X124774Y188500D02*
D03*
X124774Y193500D02*
D03*
Y198500D02*
D03*
X124774Y203500D02*
D03*
X124774Y208500D02*
D03*
Y213500D02*
D03*
X210600Y168500D02*
D03*
Y173500D02*
D03*
X210600Y178500D02*
D03*
X210600Y183500D02*
D03*
X210600Y188500D02*
D03*
X210600Y193500D02*
D03*
Y198500D02*
D03*
X210600Y203500D02*
D03*
X210600Y208500D02*
D03*
X210600Y213500D02*
D03*
X174774Y168500D02*
D03*
Y173500D02*
D03*
Y178500D02*
D03*
Y183500D02*
D03*
Y188500D02*
D03*
Y193500D02*
D03*
Y198500D02*
D03*
Y203500D02*
D03*
Y208500D02*
D03*
Y213500D02*
D03*
D74*
X309301Y197119D02*
D03*
Y202040D02*
D03*
Y206960D02*
D03*
Y211879D02*
D03*
D75*
X321899Y219560D02*
D03*
Y189441D02*
D03*
D77*
X63341Y219500D02*
D03*
X55860Y219500D02*
D03*
D78*
X220600Y59500D02*
D03*
X210600D02*
D03*
Y25500D02*
D03*
X220600D02*
D03*
D79*
X320600Y92056D02*
D03*
Y121976D02*
D03*
X302937Y92056D02*
D03*
Y121976D02*
D03*
D80*
X187504Y59462D02*
D03*
Y63202D02*
D03*
Y66942D02*
D03*
X198134D02*
D03*
Y63202D02*
D03*
Y59462D02*
D03*
D81*
X123742Y35284D02*
D03*
D82*
X127600Y30500D02*
D03*
X123742D02*
D03*
X119883D02*
D03*
Y40067D02*
D03*
X127600Y40067D02*
D03*
X123742D02*
D03*
D83*
X267947Y144791D02*
D03*
X269916Y144791D02*
D03*
X271884D02*
D03*
X273852D02*
D03*
X275820D02*
D03*
X277789D02*
D03*
X279757D02*
D03*
X281727D02*
D03*
X283695D02*
D03*
X285664D02*
D03*
X287632D02*
D03*
X289600Y144791D02*
D03*
Y178255D02*
D03*
X287632Y178255D02*
D03*
X285664D02*
D03*
X283695D02*
D03*
X281727D02*
D03*
X279757D02*
D03*
X277789D02*
D03*
X275820D02*
D03*
X273852D02*
D03*
X271884D02*
D03*
X269916D02*
D03*
X267947Y178255D02*
D03*
D84*
X295505Y150696D02*
D03*
X295505Y152665D02*
D03*
Y154633D02*
D03*
Y156602D02*
D03*
Y158570D02*
D03*
Y160539D02*
D03*
Y162507D02*
D03*
Y164476D02*
D03*
Y166444D02*
D03*
Y168413D02*
D03*
Y170381D02*
D03*
X295505Y172350D02*
D03*
X262041D02*
D03*
X262041Y170381D02*
D03*
Y168413D02*
D03*
Y166444D02*
D03*
Y164476D02*
D03*
Y162507D02*
D03*
Y160539D02*
D03*
Y158570D02*
D03*
Y156602D02*
D03*
Y154633D02*
D03*
Y152665D02*
D03*
X262041Y150696D02*
D03*
D85*
X64940Y47770D02*
D03*
X62380D02*
D03*
X59820D02*
D03*
X57260D02*
D03*
X64940Y38230D02*
D03*
X62380D02*
D03*
X59820D02*
D03*
X57260D02*
D03*
D86*
X312560Y72500D02*
D03*
X282640D02*
D03*
D87*
X281894Y48500D02*
D03*
X263306D02*
D03*
D88*
X319908Y240099D02*
D03*
X28569D02*
D03*
Y27501D02*
D03*
X319908D02*
D03*
D89*
X108521Y225500D02*
D03*
X78600D02*
D03*
D90*
X33600Y179131D02*
D03*
X41474D02*
D03*
X33600Y187005D02*
D03*
Y206500D02*
D03*
X41474D02*
D03*
X33600Y214374D02*
D03*
Y151762D02*
D03*
X41474D02*
D03*
X33600Y159636D02*
D03*
Y124394D02*
D03*
X41474D02*
D03*
X33600Y132268D02*
D03*
D91*
X41474Y187005D02*
D03*
Y214374D02*
D03*
Y159636D02*
D03*
Y132268D02*
D03*
D92*
X62600Y246500D02*
D03*
Y236500D02*
D03*
X52600Y246500D02*
D03*
D93*
Y236500D02*
D03*
D94*
X294064Y244036D02*
D03*
X125600Y151500D02*
D03*
X96600Y24500D02*
D03*
X246600D02*
D03*
X126100Y98500D02*
D03*
X136100D02*
D03*
X146100D02*
D03*
X226600Y213000D02*
D03*
D95*
X301136Y236965D02*
D03*
D96*
X115600Y151500D02*
D03*
X116100Y98500D02*
D03*
X236600Y213000D02*
D03*
D97*
X96600Y34500D02*
D03*
X246600D02*
D03*
M02*
