G04*
G04 #@! TF.GenerationSoftware,Altium Limited,Altium Designer,20.0.1 (14)*
G04*
G04 Layer_Color=128*
%FSLAX25Y25*%
%MOIN*%
G70*
G01*
G75*
%ADD173C,0.00200*%
D173*
X313018Y240099D02*
X326798D01*
X319908Y233209D02*
Y246989D01*
X106552Y225500D02*
X110489D01*
X108521Y223532D02*
Y227468D01*
X76631Y225500D02*
X80568D01*
X78600Y223532D02*
Y227468D01*
X31800Y179131D02*
X35400D01*
X33600Y177331D02*
Y180931D01*
X39674Y179131D02*
X43274D01*
X41474Y177331D02*
Y180931D01*
X31800Y187005D02*
X35400D01*
X33600Y185205D02*
Y188805D01*
X39674Y187005D02*
X43274D01*
X41474Y185205D02*
Y188805D01*
X31800Y206500D02*
X35400D01*
X33600Y204700D02*
Y208300D01*
X39674Y206500D02*
X43274D01*
X41474Y204700D02*
Y208300D01*
X31800Y214374D02*
X35400D01*
X33600Y212574D02*
Y216174D01*
X39674Y214374D02*
X43274D01*
X41474Y212574D02*
Y216174D01*
X31800Y151762D02*
X35400D01*
X33600Y149962D02*
Y153562D01*
X39674Y151762D02*
X43274D01*
X41474Y149962D02*
Y153562D01*
X31800Y159636D02*
X35400D01*
X33600Y157836D02*
Y161436D01*
X39674Y159636D02*
X43274D01*
X41474Y157836D02*
Y161436D01*
X31800Y124394D02*
X35400D01*
X33600Y122594D02*
Y126194D01*
X39674Y124394D02*
X43274D01*
X41474Y122594D02*
Y126194D01*
X31800Y132268D02*
X35400D01*
X33600Y130468D02*
Y134068D01*
X39674Y132268D02*
X43274D01*
X41474Y130468D02*
Y134068D01*
X60828Y246500D02*
X64372D01*
X62600Y244728D02*
Y248272D01*
X50828Y236500D02*
X54372D01*
X52600Y234728D02*
Y238272D01*
X292293Y244036D02*
X295836D01*
X294064Y242264D02*
Y245807D01*
X299364Y236965D02*
X302907D01*
X301136Y235193D02*
Y238736D01*
X123828Y151500D02*
X127372D01*
X125600Y149728D02*
Y153272D01*
X113828Y151500D02*
X117372D01*
X115600Y149728D02*
Y153272D01*
X94828Y34500D02*
X98372D01*
X96600Y32728D02*
Y36272D01*
X94828Y24500D02*
X98372D01*
X96600Y22728D02*
Y26272D01*
X244828Y34500D02*
X248372D01*
X246600Y32728D02*
Y36272D01*
X244828Y24500D02*
X248372D01*
X246600Y22728D02*
Y26272D01*
X114328Y98500D02*
X117872D01*
X116100Y96728D02*
Y100272D01*
X124328Y98500D02*
X127872D01*
X126100Y96728D02*
Y100272D01*
X134328Y98500D02*
X137872D01*
X136100Y96728D02*
Y100272D01*
X144328Y98500D02*
X147872D01*
X146100Y96728D02*
Y100272D01*
X224828Y213000D02*
X228372D01*
X226600Y211228D02*
Y214772D01*
X234828Y213000D02*
X238372D01*
X236600Y211228D02*
Y214772D01*
X60828Y236500D02*
X64372D01*
X62600Y234728D02*
Y238272D01*
X50828Y246500D02*
X54372D01*
X52600Y244728D02*
Y248272D01*
X21679Y240099D02*
X35459D01*
X28569Y233209D02*
Y246989D01*
X21679Y27501D02*
X35459D01*
X28569Y20611D02*
Y34391D01*
X313018Y27501D02*
X326798D01*
X319908Y20611D02*
Y34391D01*
X318808Y230749D02*
X321008D01*
X319908Y229649D02*
Y231849D01*
X318808Y249450D02*
X321008D01*
X319908Y248350D02*
Y250550D01*
X325418Y233489D02*
X327618D01*
X326518Y232389D02*
Y234589D01*
X312198Y233489D02*
X314398D01*
X313298Y232389D02*
Y234589D01*
X325418Y246709D02*
X327618D01*
X326518Y245609D02*
Y247810D01*
X309457Y240099D02*
X311658D01*
X310558Y238999D02*
Y241199D01*
X328158Y240099D02*
X330358D01*
X329258Y238999D02*
Y241199D01*
X312198Y246709D02*
X314398D01*
X313298Y245609D02*
Y247810D01*
X283000Y103000D02*
X284200D01*
X283600Y102400D02*
Y103600D01*
X158000Y133000D02*
X159200D01*
X158600Y132400D02*
Y133600D01*
X156000Y131500D02*
X157200D01*
X156600Y130900D02*
Y132100D01*
X215000Y114500D02*
X216200D01*
X215600Y113900D02*
Y115100D01*
X158500Y116500D02*
X159700D01*
X159100Y115900D02*
Y117100D01*
X320500Y81500D02*
X321700D01*
X321100Y80900D02*
Y82100D01*
X325500Y91500D02*
X326700D01*
X326100Y90900D02*
Y92100D01*
X309944Y92056D02*
X311144D01*
X310544Y91456D02*
Y92656D01*
X25500Y48000D02*
X26700D01*
X26100Y47400D02*
Y48600D01*
X23000Y48000D02*
X24200D01*
X23600Y47400D02*
Y48600D01*
X25500Y50500D02*
X26700D01*
X26100Y49900D02*
Y51100D01*
X23000Y50500D02*
X24200D01*
X23600Y49900D02*
Y51100D01*
X25500Y53000D02*
X26700D01*
X26100Y52400D02*
Y53600D01*
X23000Y53000D02*
X24200D01*
X23600Y52400D02*
Y53600D01*
X62000Y43000D02*
X63200D01*
X62600Y42400D02*
Y43600D01*
X64500Y43000D02*
X65700D01*
X65100Y42400D02*
Y43600D01*
X72500Y26000D02*
X73700D01*
X73100Y25400D02*
Y26600D01*
X74500Y27500D02*
X75700D01*
X75100Y26900D02*
Y28100D01*
X187000Y160000D02*
X188200D01*
X187600Y159400D02*
Y160600D01*
X208000Y165500D02*
X209200D01*
X208600Y164900D02*
Y166100D01*
X230000Y160500D02*
X231200D01*
X230600Y159900D02*
Y161100D01*
X226500Y160500D02*
X227700D01*
X227100Y159900D02*
Y161100D01*
X130000Y123500D02*
X131200D01*
X130600Y122900D02*
Y124100D01*
X132500Y123500D02*
X133700D01*
X133100Y122900D02*
Y124100D01*
X132500Y120500D02*
X133700D01*
X133100Y119900D02*
Y121100D01*
X130000Y120500D02*
X131200D01*
X130600Y119900D02*
Y121100D01*
X120500Y123500D02*
X121700D01*
X121100Y122900D02*
Y124100D01*
X123000Y123500D02*
X124200D01*
X123600Y122900D02*
Y124100D01*
X123000Y120500D02*
X124200D01*
X123600Y119900D02*
Y121100D01*
X120500Y120500D02*
X121700D01*
X121100Y119900D02*
Y121100D01*
X172700Y87000D02*
X175500D01*
X174100Y85600D02*
Y88400D01*
X282000Y78000D02*
X283200D01*
X282600Y77400D02*
Y78600D01*
X277000Y73000D02*
X278200D01*
X277600Y72400D02*
Y73600D01*
X274000Y60000D02*
X275200D01*
X274600Y59400D02*
Y60600D01*
X270500Y85000D02*
X271700D01*
X271100Y84400D02*
Y85600D01*
X241900Y104600D02*
X243100D01*
X242500Y104000D02*
Y105200D01*
X164000Y215931D02*
X165200D01*
X164600Y215331D02*
Y216531D01*
X242000Y159500D02*
X243200D01*
X242600Y158900D02*
Y160100D01*
X235000Y92500D02*
X236200D01*
X235600Y91900D02*
Y93100D01*
X241000Y88500D02*
X242200D01*
X241600Y87900D02*
Y89100D01*
X248000Y84500D02*
X249200D01*
X248600Y83900D02*
Y85100D01*
X269000Y139500D02*
X270200D01*
X269600Y138900D02*
Y140100D01*
X141000Y42500D02*
X142200D01*
X141600Y41900D02*
Y43100D01*
X161000Y43500D02*
X162200D01*
X161600Y42900D02*
Y44100D01*
X324000Y181500D02*
X325200D01*
X324600Y180900D02*
Y182100D01*
X256000Y170237D02*
X257200D01*
X256600Y169637D02*
Y170837D01*
X254000Y157500D02*
X255200D01*
X254600Y156900D02*
Y158100D01*
X235000Y164500D02*
X236200D01*
X235600Y163900D02*
Y165100D01*
X248000Y209500D02*
X249200D01*
X248600Y208900D02*
Y210100D01*
X242000Y206500D02*
X243200D01*
X242600Y205900D02*
Y207100D01*
X248994Y198500D02*
X250194D01*
X249594Y197900D02*
Y199100D01*
X268000Y188500D02*
X269200D01*
X268600Y187900D02*
Y189100D01*
X294000Y216500D02*
X295200D01*
X294600Y215900D02*
Y217100D01*
X316460Y202040D02*
X317660D01*
X317060Y201439D02*
Y202640D01*
X229875Y165375D02*
X231075D01*
X230475Y164775D02*
Y165975D01*
X244000Y151500D02*
X245200D01*
X244600Y150900D02*
Y152100D01*
X319000Y176500D02*
X320200D01*
X319600Y175900D02*
Y177100D01*
X319000Y184500D02*
X320200D01*
X319600Y183900D02*
Y185100D01*
X287500Y88000D02*
X288700D01*
X288100Y87400D02*
Y88600D01*
X265000Y136500D02*
X266200D01*
X265600Y135900D02*
Y137100D01*
X301000Y128500D02*
X302200D01*
X301600Y127900D02*
Y129100D01*
X256000Y148500D02*
X257200D01*
X256600Y147900D02*
Y149100D01*
X294905Y179405D02*
X296106D01*
X295505Y178805D02*
Y180006D01*
X264188Y180688D02*
X265388D01*
X264788Y180088D02*
Y181288D01*
X194809Y199309D02*
X196009D01*
X195409Y198709D02*
Y199909D01*
X182000Y168500D02*
X183200D01*
X182600Y167900D02*
Y169100D01*
X178000Y158500D02*
X179200D01*
X178600Y157900D02*
Y159100D01*
X177684Y164437D02*
X178884D01*
X178284Y163838D02*
Y165038D01*
X183000Y163500D02*
X184200D01*
X183600Y162900D02*
Y164100D01*
X180000Y130500D02*
X181200D01*
X180600Y129900D02*
Y131100D01*
X180441Y77941D02*
X181641D01*
X181041Y77341D02*
Y78541D01*
X165000Y100500D02*
X166200D01*
X165600Y99900D02*
Y101100D01*
X162000Y103500D02*
X163200D01*
X162600Y102900D02*
Y104100D01*
X159000Y106500D02*
X160200D01*
X159600Y105900D02*
Y107100D01*
X185000Y109500D02*
X186200D01*
X185600Y108900D02*
Y110100D01*
X196000Y85500D02*
X197200D01*
X196600Y84900D02*
Y86100D01*
X189200Y84500D02*
X192000D01*
X190600Y83100D02*
Y85900D01*
X164000Y116500D02*
X165200D01*
X164600Y115900D02*
Y117100D01*
X235000Y28500D02*
X236200D01*
X235600Y27900D02*
Y29100D01*
X217000Y209500D02*
X218200D01*
X217600Y208900D02*
Y210100D01*
X170000Y228500D02*
X171200D01*
X170600Y227900D02*
Y229100D01*
X193000Y230500D02*
X194200D01*
X193600Y229900D02*
Y231100D01*
X202192Y235693D02*
X203393D01*
X202793Y235092D02*
Y236293D01*
X204000Y142500D02*
X205200D01*
X204600Y141900D02*
Y143100D01*
X319000Y152500D02*
X320200D01*
X319600Y151900D02*
Y153100D01*
X201000Y213500D02*
X202200D01*
X201600Y212900D02*
Y214100D01*
X309000Y155500D02*
X310200D01*
X309600Y154900D02*
Y156100D01*
X231000Y200500D02*
X232200D01*
X231600Y199900D02*
Y201100D01*
X285000Y155500D02*
X286200D01*
X285600Y154900D02*
Y156100D01*
X289000Y152500D02*
X290200D01*
X289600Y151900D02*
Y153100D01*
X158000Y161500D02*
X159200D01*
X158600Y160900D02*
Y162100D01*
X191000Y174500D02*
X192200D01*
X191600Y173900D02*
Y175100D01*
X195000Y170500D02*
X196200D01*
X195600Y169900D02*
Y171100D01*
X198000Y175500D02*
X199200D01*
X198600Y174900D02*
Y176100D01*
X180441Y176941D02*
X181641D01*
X181041Y176341D02*
Y177541D01*
X154000Y149500D02*
X155200D01*
X154600Y148900D02*
Y150100D01*
X180000Y138500D02*
X181200D01*
X180600Y137900D02*
Y139100D01*
X179000Y103500D02*
X180200D01*
X179600Y102900D02*
Y104100D01*
X196200Y101500D02*
X199000D01*
X197600Y100100D02*
Y102900D01*
X190000Y121500D02*
X191200D01*
X190600Y120900D02*
Y122100D01*
X276000Y163500D02*
X277200D01*
X276600Y162900D02*
Y164100D01*
X298000Y176500D02*
X299200D01*
X298600Y175900D02*
Y177100D01*
X289000Y169500D02*
X290200D01*
X289600Y168900D02*
Y170100D01*
X271000Y155500D02*
X272200D01*
X271600Y154900D02*
Y156100D01*
X211000Y135500D02*
X212200D01*
X211600Y134900D02*
Y136100D01*
X187200Y101500D02*
X190000D01*
X188600Y100100D02*
Y102900D01*
X203500Y135500D02*
X204700D01*
X204100Y134900D02*
Y136100D01*
X298000Y142500D02*
X299200D01*
X298600Y141900D02*
Y143100D01*
X302000Y146500D02*
X303200D01*
X302600Y145900D02*
Y147100D01*
X278000Y155500D02*
X279200D01*
X278600Y154900D02*
Y156100D01*
X280000Y152500D02*
X281200D01*
X280600Y151900D02*
Y153100D01*
X284000Y152500D02*
X285200D01*
X284600Y151900D02*
Y153100D01*
X267000Y163500D02*
X268200D01*
X267600Y162900D02*
Y164100D01*
X320000Y116500D02*
X321200D01*
X320600Y115900D02*
Y117100D01*
X302337Y116837D02*
X303537D01*
X302937Y116237D02*
Y117437D01*
X237000Y64500D02*
X238200D01*
X237600Y63900D02*
Y65100D01*
X251000Y62500D02*
X252200D01*
X251600Y61900D02*
Y63100D01*
X259000Y206500D02*
X260200D01*
X259600Y205900D02*
Y207100D01*
X271000Y205500D02*
X272200D01*
X271600Y204900D02*
Y206100D01*
X279200Y225500D02*
X282000D01*
X280600Y224100D02*
Y226900D01*
X229000Y190500D02*
X230200D01*
X229600Y189900D02*
Y191100D01*
X248000Y230500D02*
X249200D01*
X248600Y229900D02*
Y231100D01*
X201669Y66831D02*
X202869D01*
X202269Y66232D02*
Y67431D01*
X112200Y50500D02*
X115000D01*
X113600Y49100D02*
Y51900D01*
X154740Y68240D02*
X155940D01*
X155340Y67640D02*
Y68840D01*
X178000Y144500D02*
X179200D01*
X178600Y143900D02*
Y145100D01*
X190073Y187500D02*
X191273D01*
X190673Y186900D02*
Y188100D01*
X179000Y112500D02*
X180200D01*
X179600Y111900D02*
Y113100D01*
X183000Y119500D02*
X184200D01*
X183600Y118900D02*
Y120100D01*
X233000Y89500D02*
X234200D01*
X233600Y88900D02*
Y90100D01*
X227000Y88500D02*
X228200D01*
X227600Y87900D02*
Y89100D01*
X235000Y98500D02*
X236200D01*
X235600Y97900D02*
Y99100D01*
X235000Y104500D02*
X236200D01*
X235600Y103900D02*
Y105100D01*
X231000Y107500D02*
X232200D01*
X231600Y106900D02*
Y108100D01*
X227000Y107500D02*
X228200D01*
X227600Y106900D02*
Y108100D01*
X214000Y88500D02*
X215200D01*
X214600Y87900D02*
Y89100D01*
X209000Y91500D02*
X210200D01*
X209600Y90900D02*
Y92100D01*
X208000Y97500D02*
X209200D01*
X208600Y96900D02*
Y98100D01*
X208000Y103500D02*
X209200D01*
X208600Y102900D02*
Y104100D01*
X212000Y107500D02*
X213200D01*
X212600Y106900D02*
Y108100D01*
X218000Y107500D02*
X219200D01*
X218600Y106900D02*
Y108100D01*
X180000Y213500D02*
X181200D01*
X180600Y212900D02*
Y214100D01*
X131000Y168500D02*
X132200D01*
X131600Y167900D02*
Y169100D01*
X122000Y216500D02*
X123200D01*
X122600Y215900D02*
Y217100D01*
X139200Y234500D02*
X142000D01*
X140600Y233100D02*
Y235900D01*
X166200Y210500D02*
X169000D01*
X167600Y209100D02*
Y211900D01*
X103000Y125500D02*
X104200D01*
X103600Y124900D02*
Y126100D01*
X108000Y121500D02*
X109200D01*
X108600Y120900D02*
Y122100D01*
X89777Y109000D02*
X90977D01*
X90377Y108400D02*
Y109600D01*
X76000Y106500D02*
X77200D01*
X76600Y105900D02*
Y107100D01*
X76000Y109000D02*
X77200D01*
X76600Y108400D02*
Y109600D01*
X123000Y164500D02*
X124200D01*
X123600Y163900D02*
Y165100D01*
X183000Y201500D02*
X184200D01*
X183600Y200900D02*
Y202100D01*
X148000Y200500D02*
X149200D01*
X148600Y199900D02*
Y201100D01*
X59723Y188500D02*
X60923D01*
X60323Y187900D02*
Y189100D01*
X62223Y188500D02*
X63423D01*
X62823Y187900D02*
Y189100D01*
X177000Y193500D02*
X178200D01*
X177600Y192900D02*
Y194100D01*
X177000Y203500D02*
X178200D01*
X177600Y202900D02*
Y204100D01*
X103000Y181500D02*
X104200D01*
X103600Y180900D02*
Y182100D01*
X108000Y184000D02*
X109200D01*
X108600Y183400D02*
Y184600D01*
X183000Y173500D02*
X184200D01*
X183600Y172900D02*
Y174100D01*
X175000Y183500D02*
X176200D01*
X175600Y182900D02*
Y184100D01*
X153000Y183500D02*
X154200D01*
X153600Y182900D02*
Y184100D01*
X153000Y193500D02*
X154200D01*
X153600Y192900D02*
Y194100D01*
X95000Y129500D02*
X96200D01*
X95600Y128900D02*
Y130100D01*
X93000Y147500D02*
X94200D01*
X93600Y146900D02*
Y148100D01*
X89000Y150500D02*
X90200D01*
X89600Y149900D02*
Y151100D01*
X106000Y181500D02*
X107200D01*
X106600Y180900D02*
Y182100D01*
X86000Y157500D02*
X87200D01*
X86600Y156900D02*
Y158100D01*
X89777Y161167D02*
X90977D01*
X90377Y160567D02*
Y161767D01*
X89777Y163667D02*
X90977D01*
X90377Y163067D02*
Y164267D01*
X72000Y184500D02*
X73200D01*
X72600Y183900D02*
Y185100D01*
X76000Y191000D02*
X77200D01*
X76600Y190400D02*
Y191600D01*
X73500Y188500D02*
X74700D01*
X74100Y187900D02*
Y189100D01*
X89777Y191000D02*
X90977D01*
X90377Y190400D02*
Y191600D01*
X87277Y188500D02*
X88477D01*
X87877Y187900D02*
Y189100D01*
X86000Y184500D02*
X87200D01*
X86600Y183900D02*
Y185100D01*
X76000Y188500D02*
X77200D01*
X76600Y187900D02*
Y189100D01*
X89777Y188500D02*
X90977D01*
X90377Y187900D02*
Y189100D01*
X62223Y191000D02*
X63423D01*
X62823Y190400D02*
Y191600D01*
X58000Y157500D02*
X59200D01*
X58600Y156900D02*
Y158100D01*
X58000Y184500D02*
X59200D01*
X58600Y183900D02*
Y185100D01*
X85000Y102500D02*
X86200D01*
X85600Y101900D02*
Y103100D01*
X59000Y102500D02*
X60200D01*
X59600Y101900D02*
Y103100D01*
X72000Y102500D02*
X73200D01*
X72600Y101900D02*
Y103100D01*
X72000Y157500D02*
X73200D01*
X72600Y156900D02*
Y158100D01*
X86000Y130500D02*
X87200D01*
X86600Y129900D02*
Y131100D01*
X72000Y130500D02*
X73200D01*
X72600Y129900D02*
Y131100D01*
X58000Y130500D02*
X59200D01*
X58600Y129900D02*
Y131100D01*
X108000Y187000D02*
X109200D01*
X108600Y186400D02*
Y187600D01*
X314000Y144500D02*
X315200D01*
X314600Y143900D02*
Y145100D01*
X262000Y130500D02*
X263200D01*
X262600Y129900D02*
Y131100D01*
X301000Y224500D02*
X302200D01*
X301600Y223900D02*
Y225100D01*
X327000Y175500D02*
X328200D01*
X327600Y174900D02*
Y176100D01*
X293000Y233500D02*
X294200D01*
X293600Y232900D02*
Y234100D01*
X253000Y233500D02*
X254200D01*
X253600Y232900D02*
Y234100D01*
X197000Y220500D02*
X198200D01*
X197600Y219900D02*
Y221100D01*
X193000Y225500D02*
X194200D01*
X193600Y224900D02*
Y226100D01*
X174000Y219500D02*
X175200D01*
X174600Y218900D02*
Y220100D01*
X195000Y212500D02*
X196200D01*
X195600Y211900D02*
Y213100D01*
X182000Y208500D02*
X183200D01*
X182600Y207900D02*
Y209100D01*
X224000Y180500D02*
X225200D01*
X224600Y179900D02*
Y181100D01*
X224000Y172500D02*
X225200D01*
X224600Y171900D02*
Y173100D01*
X200000Y198500D02*
X201200D01*
X200600Y197900D02*
Y199100D01*
X232000Y183500D02*
X233200D01*
X232600Y182900D02*
Y184100D01*
X291000Y209500D02*
X292200D01*
X291600Y208900D02*
Y210100D01*
X283000Y209500D02*
X284200D01*
X283600Y208900D02*
Y210100D01*
X275000Y209500D02*
X276200D01*
X275600Y208900D02*
Y210100D01*
X267000Y209500D02*
X268200D01*
X267600Y208900D02*
Y210100D01*
X140000Y214500D02*
X141200D01*
X140600Y213900D02*
Y215100D01*
X144000Y214500D02*
X145200D01*
X144600Y213900D02*
Y215100D01*
X136000Y214500D02*
X137200D01*
X136600Y213900D02*
Y215100D01*
X132000Y214500D02*
X133200D01*
X132600Y213900D02*
Y215100D01*
X241000Y122500D02*
X242200D01*
X241600Y121900D02*
Y123100D01*
X234000Y122500D02*
X235200D01*
X234600Y121900D02*
Y123100D01*
X249000Y122500D02*
X250200D01*
X249600Y121900D02*
Y123100D01*
X201000Y170500D02*
X202200D01*
X201600Y169900D02*
Y171100D01*
X285000Y166500D02*
X286200D01*
X285600Y165900D02*
Y167100D01*
X284000Y172500D02*
X285200D01*
X284600Y171900D02*
Y173100D01*
X278000Y121000D02*
X279200D01*
X278600Y120400D02*
Y121600D01*
X289000Y158500D02*
X290200D01*
X289600Y157900D02*
Y159100D01*
X232000Y175500D02*
X233200D01*
X232600Y174900D02*
Y176100D01*
X140740Y67760D02*
X141940D01*
X141340Y67160D02*
Y68360D01*
X126740Y68240D02*
X127940D01*
X127340Y67640D02*
Y68840D01*
X139650Y86050D02*
X142450D01*
X141050Y84650D02*
Y87450D01*
X126000Y35284D02*
X127200D01*
X126600Y34684D02*
Y35884D01*
X120000Y35284D02*
X121200D01*
X120600Y34684D02*
Y35884D01*
X123142Y35284D02*
X124342D01*
X123742Y34684D02*
Y35884D01*
X190200Y29500D02*
X193000D01*
X191600Y28100D02*
Y30900D01*
X181000Y26500D02*
X182200D01*
X181600Y25900D02*
Y27100D01*
X171000Y26500D02*
X172200D01*
X171600Y25900D02*
Y27100D01*
X161000Y26500D02*
X162200D01*
X161600Y25900D02*
Y27100D01*
X151000Y27025D02*
X152200D01*
X151600Y26425D02*
Y27625D01*
X141000Y27050D02*
X142200D01*
X141600Y26450D02*
Y27650D01*
X220200Y225500D02*
X223000D01*
X221600Y224100D02*
Y226900D01*
X49000Y90500D02*
X50200D01*
X49600Y89900D02*
Y91100D01*
X48000Y85500D02*
X49200D01*
X48600Y84900D02*
Y86100D01*
X51000Y82500D02*
X52200D01*
X51600Y81900D02*
Y83100D01*
X54000Y84500D02*
X55200D01*
X54600Y83900D02*
Y85100D01*
X46000Y88500D02*
X47200D01*
X46600Y87900D02*
Y89100D01*
X319000Y206960D02*
X320200D01*
X319600Y206360D02*
Y207559D01*
X86000Y49500D02*
X87200D01*
X86600Y48900D02*
Y50100D01*
X267000Y120500D02*
X268200D01*
X267600Y119900D02*
Y121100D01*
X269250Y102500D02*
X270450D01*
X269850Y101900D02*
Y103100D01*
X265000Y103000D02*
X266200D01*
X265600Y102400D02*
Y103600D01*
X262500Y106732D02*
X263700D01*
X263100Y106132D02*
Y107332D01*
X287000Y109500D02*
X288200D01*
X287600Y108900D02*
Y110100D01*
X287000Y114500D02*
X288200D01*
X287600Y113900D02*
Y115100D01*
X286500Y119000D02*
X287700D01*
X287100Y118400D02*
Y119600D01*
X283000Y121000D02*
X284200D01*
X283600Y120400D02*
Y121600D01*
X262500Y112723D02*
X263700D01*
X263100Y112123D02*
Y113323D01*
X263000Y118500D02*
X264200D01*
X263600Y117900D02*
Y119100D01*
X271500Y121000D02*
X272700D01*
X272100Y120400D02*
Y121600D01*
X47900Y221100D02*
X49100D01*
X48500Y220500D02*
Y221700D01*
X50900Y221100D02*
X52100D01*
X51500Y220500D02*
Y221700D01*
X47900Y218100D02*
X49100D01*
X48500Y217500D02*
Y218700D01*
X50900Y218100D02*
X52100D01*
X51500Y217500D02*
Y218700D01*
X87277Y161167D02*
X88477D01*
X87877Y160567D02*
Y161767D01*
X89777Y133833D02*
X90977D01*
X90377Y133233D02*
Y134433D01*
X87277Y133833D02*
X88477D01*
X87877Y133233D02*
Y134433D01*
X89777Y136333D02*
X90977D01*
X90377Y135733D02*
Y136933D01*
X89777Y106500D02*
X90977D01*
X90377Y105900D02*
Y107100D01*
X87277Y106500D02*
X88477D01*
X87877Y105900D02*
Y107100D01*
X62223Y106500D02*
X63423D01*
X62823Y105900D02*
Y107100D01*
X59723Y106500D02*
X60923D01*
X60323Y105900D02*
Y107100D01*
X62223Y109000D02*
X63423D01*
X62823Y108400D02*
Y109600D01*
X62223Y133833D02*
X63423D01*
X62823Y133233D02*
Y134433D01*
X59723Y133833D02*
X60923D01*
X60323Y133233D02*
Y134433D01*
X62223Y136333D02*
X63423D01*
X62823Y135733D02*
Y136933D01*
X62223Y161167D02*
X63423D01*
X62823Y160567D02*
Y161767D01*
X59723Y161167D02*
X60923D01*
X60323Y160567D02*
Y161767D01*
X62223Y163667D02*
X63423D01*
X62823Y163067D02*
Y164267D01*
X73500Y106500D02*
X74700D01*
X74100Y105900D02*
Y107100D01*
X76000Y133833D02*
X77200D01*
X76600Y133233D02*
Y134433D01*
X73500Y133833D02*
X74700D01*
X74100Y133233D02*
Y134433D01*
X76000Y136333D02*
X77200D01*
X76600Y135733D02*
Y136933D01*
X76000Y161167D02*
X77200D01*
X76600Y160567D02*
Y161767D01*
X73500Y161167D02*
X74700D01*
X74100Y160567D02*
Y161767D01*
X76000Y163667D02*
X77200D01*
X76600Y163067D02*
Y164267D01*
X246000Y44600D02*
X247200D01*
X246600Y44000D02*
Y45200D01*
X246000Y79500D02*
X247200D01*
X246600Y78900D02*
Y80100D01*
X32000Y71500D02*
X33200D01*
X32600Y70900D02*
Y72100D01*
X32000Y67500D02*
X33200D01*
X32600Y66900D02*
Y68100D01*
X32000Y63500D02*
X33200D01*
X32600Y62900D02*
Y64100D01*
X44000Y21500D02*
X45200D01*
X44600Y20900D02*
Y22100D01*
X44000Y25500D02*
X45200D01*
X44600Y24900D02*
Y26100D01*
X44000Y29500D02*
X45200D01*
X44600Y28900D02*
Y30100D01*
X54000Y53500D02*
X55200D01*
X54600Y52900D02*
Y54100D01*
X20859Y246709D02*
X23059D01*
X21959Y245609D02*
Y247810D01*
X36820Y240099D02*
X39020D01*
X37920Y238999D02*
Y241199D01*
X18119Y240099D02*
X20319D01*
X19219Y238999D02*
Y241199D01*
X34080Y246709D02*
X36279D01*
X35179Y245609D02*
Y247810D01*
X20859Y233489D02*
X23059D01*
X21959Y232389D02*
Y234589D01*
X34080Y233489D02*
X36279D01*
X35179Y232389D02*
Y234589D01*
X27469Y249450D02*
X29669D01*
X28569Y248350D02*
Y250550D01*
X27469Y230749D02*
X29669D01*
X28569Y229649D02*
Y231849D01*
X20859Y34111D02*
X23059D01*
X21959Y33011D02*
Y35211D01*
X36820Y27501D02*
X39020D01*
X37920Y26401D02*
Y28601D01*
X18119Y27501D02*
X20319D01*
X19219Y26401D02*
Y28601D01*
X34080Y34111D02*
X36279D01*
X35179Y33011D02*
Y35211D01*
X20859Y20891D02*
X23059D01*
X21959Y19791D02*
Y21991D01*
X34080Y20891D02*
X36279D01*
X35179Y19791D02*
Y21991D01*
X27469Y36851D02*
X29669D01*
X28569Y35751D02*
Y37951D01*
X27469Y18150D02*
X29669D01*
X28569Y17050D02*
Y19250D01*
X312198Y34111D02*
X314398D01*
X313298Y33011D02*
Y35211D01*
X328158Y27501D02*
X330358D01*
X329258Y26401D02*
Y28601D01*
X309457Y27501D02*
X311658D01*
X310558Y26401D02*
Y28601D01*
X325418Y34111D02*
X327618D01*
X326518Y33011D02*
Y35211D01*
X312198Y20891D02*
X314398D01*
X313298Y19791D02*
Y21991D01*
X325418Y20891D02*
X327618D01*
X326518Y19791D02*
Y21991D01*
X318808Y36851D02*
X321008D01*
X319908Y35751D02*
Y37951D01*
X318808Y18150D02*
X321008D01*
X319908Y17050D02*
Y19250D01*
M02*
