G04*
G04 #@! TF.GenerationSoftware,Altium Limited,Altium Designer,20.0.1 (14)*
G04*
G04 Layer_Physical_Order=1*
G04 Layer_Color=255*
%FSLAX25Y25*%
%MOIN*%
G70*
G01*
G75*
%ADD10C,0.01000*%
%ADD12C,0.00800*%
%ADD35R,0.05118X0.10000*%
%ADD43R,0.05906X0.05512*%
%ADD44R,0.04331X0.02362*%
%ADD62R,0.03937X0.03937*%
%ADD65O,0.01063X0.05906*%
%ADD66O,0.05906X0.01063*%
%ADD73R,0.05512X0.05906*%
%ADD76R,0.08061X0.08632*%
%ADD98R,0.08661X0.12205*%
%ADD99R,0.03150X0.06693*%
%ADD100R,0.02360X0.06700*%
%ADD101R,0.05118X0.11811*%
G04:AMPARAMS|DCode=102|XSize=38mil|YSize=35mil|CornerRadius=0mil|HoleSize=0mil|Usage=FLASHONLY|Rotation=45.000|XOffset=0mil|YOffset=0mil|HoleType=Round|Shape=Rectangle|*
%AMROTATEDRECTD102*
4,1,4,-0.00106,-0.02581,-0.02581,-0.00106,0.00106,0.02581,0.02581,0.00106,-0.00106,-0.02581,0.0*
%
%ADD102ROTATEDRECTD102*%

%ADD103P,0.04243X4X270.0*%
%ADD104R,0.01968X0.04724*%
%ADD105R,0.03000X0.03000*%
%ADD106R,0.03000X0.03000*%
%ADD107R,0.03800X0.03500*%
%ADD108R,0.03500X0.03800*%
%ADD109R,0.09449X0.03543*%
%ADD110R,0.02756X0.03937*%
%ADD111R,0.10000X0.06000*%
%ADD112R,0.03150X0.03937*%
G04:AMPARAMS|DCode=113|XSize=39.37mil|YSize=31.5mil|CornerRadius=0mil|HoleSize=0mil|Usage=FLASHONLY|Rotation=90.000|XOffset=0mil|YOffset=0mil|HoleType=Round|Shape=Octagon|*
%AMOCTAGOND113*
4,1,8,0.00787,0.01968,-0.00787,0.01968,-0.01575,0.01181,-0.01575,-0.01181,-0.00787,-0.01968,0.00787,-0.01968,0.01575,-0.01181,0.01575,0.01181,0.00787,0.01968,0.0*
%
%ADD113OCTAGOND113*%

%ADD114O,0.05906X0.01968*%
%ADD115R,0.05906X0.01968*%
G04:AMPARAMS|DCode=116|XSize=39.37mil|YSize=31.5mil|CornerRadius=0mil|HoleSize=0mil|Usage=FLASHONLY|Rotation=45.000|XOffset=0mil|YOffset=0mil|HoleType=Round|Shape=Rectangle|*
%AMROTATEDRECTD116*
4,1,4,-0.00278,-0.02506,-0.02506,-0.00278,0.00278,0.02506,0.02506,0.00278,-0.00278,-0.02506,0.0*
%
%ADD116ROTATEDRECTD116*%

G04:AMPARAMS|DCode=117|XSize=39.37mil|YSize=31.5mil|CornerRadius=0mil|HoleSize=0mil|Usage=FLASHONLY|Rotation=45.000|XOffset=0mil|YOffset=0mil|HoleType=Round|Shape=Octagon|*
%AMOCTAGOND117*
4,1,8,0.01949,0.00835,0.00835,0.01949,-0.00278,0.01949,-0.01949,0.00278,-0.01949,-0.00835,-0.00835,-0.01949,0.00278,-0.01949,0.01949,-0.00278,0.01949,0.00835,0.0*
%
%ADD117OCTAGOND117*%

%ADD118R,0.04724X0.05118*%
%ADD119R,0.03937X0.03150*%
G04:AMPARAMS|DCode=120|XSize=39.37mil|YSize=31.5mil|CornerRadius=0mil|HoleSize=0mil|Usage=FLASHONLY|Rotation=180.000|XOffset=0mil|YOffset=0mil|HoleType=Round|Shape=Octagon|*
%AMOCTAGOND120*
4,1,8,-0.01968,0.00787,-0.01968,-0.00787,-0.01181,-0.01575,0.01181,-0.01575,0.01968,-0.00787,0.01968,0.00787,0.01181,0.01575,-0.01181,0.01575,-0.01968,0.00787,0.0*
%
%ADD120OCTAGOND120*%

%ADD121R,0.04724X0.01968*%
%ADD122R,0.05000X0.03500*%
%ADD123P,0.04243X4X180.0*%
%ADD124R,0.03150X0.02756*%
G04:AMPARAMS|DCode=125|XSize=31.5mil|YSize=27.56mil|CornerRadius=0mil|HoleSize=0mil|Usage=FLASHONLY|Rotation=0.000|XOffset=0mil|YOffset=0mil|HoleType=Round|Shape=Octagon|*
%AMOCTAGOND125*
4,1,8,0.01575,-0.00689,0.01575,0.00689,0.00886,0.01378,-0.00886,0.01378,-0.01575,0.00689,-0.01575,-0.00689,-0.00886,-0.01378,0.00886,-0.01378,0.01575,-0.00689,0.0*
%
%ADD125OCTAGOND125*%

G04:AMPARAMS|DCode=126|XSize=39.37mil|YSize=31.5mil|CornerRadius=0mil|HoleSize=0mil|Usage=FLASHONLY|Rotation=125.000|XOffset=0mil|YOffset=0mil|HoleType=Round|Shape=Rectangle|*
%AMROTATEDRECTD126*
4,1,4,0.02419,-0.00709,-0.00161,-0.02516,-0.02419,0.00709,0.00161,0.02516,0.02419,-0.00709,0.0*
%
%ADD126ROTATEDRECTD126*%

G04:AMPARAMS|DCode=127|XSize=39.37mil|YSize=31.5mil|CornerRadius=0mil|HoleSize=0mil|Usage=FLASHONLY|Rotation=125.000|XOffset=0mil|YOffset=0mil|HoleType=Round|Shape=Octagon|*
%AMOCTAGOND127*
4,1,8,-0.00484,0.02064,-0.01774,0.01161,-0.01968,0.00064,-0.00613,-0.01871,0.00484,-0.02064,0.01774,-0.01161,0.01968,-0.00064,0.00613,0.01871,-0.00484,0.02064,0.0*
%
%ADD127OCTAGOND127*%

%ADD128R,0.03500X0.03500*%
%ADD129R,0.04213X0.02362*%
%ADD130O,0.01430X0.04810*%
%ADD131R,0.06299X0.13780*%
%ADD132R,0.03500X0.03500*%
%ADD133O,0.09055X0.02362*%
%ADD134R,0.06700X0.02360*%
%ADD135R,0.11811X0.05118*%
%ADD136R,0.03500X0.05000*%
%ADD137C,0.02000*%
%ADD138C,0.04000*%
%ADD139C,0.05000*%
%ADD140C,0.01500*%
%ADD141C,0.03000*%
%ADD142C,0.23622*%
%ADD143C,0.07087*%
%ADD144C,0.06000*%
%ADD145R,0.06000X0.06000*%
%ADD146C,0.06299*%
%ADD147R,0.06299X0.06299*%
%ADD148C,0.06693*%
%ADD149P,0.09465X4X180.0*%
%ADD150R,0.06693X0.06693*%
%ADD151R,0.06693X0.06693*%
%ADD152C,0.03400*%
%ADD153C,0.02400*%
%ADD154C,0.05000*%
G36*
X314805Y251419D02*
X314256Y251192D01*
X312590Y250171D01*
X311105Y248902D01*
X309836Y247417D01*
X308815Y245751D01*
X308068Y243946D01*
X307612Y242047D01*
X307458Y240099D01*
X307612Y238152D01*
X308068Y236252D01*
X308815Y234447D01*
X309836Y232782D01*
X311105Y231296D01*
X312590Y230027D01*
X314256Y229007D01*
X316061Y228259D01*
X317960Y227803D01*
X319908Y227650D01*
X321855Y227803D01*
X323755Y228259D01*
X325560Y229007D01*
X327225Y230027D01*
X328711Y231296D01*
X329980Y232782D01*
X331000Y234447D01*
X331250Y235049D01*
X331750Y234949D01*
X331750Y32651D01*
X331250Y32551D01*
X331000Y33153D01*
X329980Y34818D01*
X328711Y36304D01*
X327225Y37573D01*
X325560Y38593D01*
X323755Y39341D01*
X321855Y39797D01*
X319908Y39950D01*
X317960Y39797D01*
X316061Y39341D01*
X314256Y38593D01*
X312590Y37573D01*
X311105Y36304D01*
X309836Y34818D01*
X308815Y33153D01*
X308068Y31348D01*
X307612Y29448D01*
X307458Y27501D01*
X307612Y25553D01*
X308068Y23654D01*
X308815Y21849D01*
X309836Y20183D01*
X311105Y18698D01*
X312590Y17429D01*
X314256Y16408D01*
X314809Y16179D01*
X314711Y15689D01*
X33766Y15689D01*
X33669Y16179D01*
X34221Y16408D01*
X35887Y17429D01*
X37372Y18698D01*
X38641Y20183D01*
X39662Y21849D01*
X40409Y23654D01*
X40865Y25553D01*
X41019Y27501D01*
X40865Y29448D01*
X40409Y31348D01*
X39662Y33153D01*
X38641Y34818D01*
X37372Y36304D01*
X35887Y37573D01*
X34221Y38593D01*
X32416Y39341D01*
X30517Y39797D01*
X28569Y39950D01*
X26622Y39797D01*
X24722Y39341D01*
X22917Y38593D01*
X21252Y37573D01*
X19766Y36304D01*
X18497Y34818D01*
X17477Y33153D01*
X17279Y32676D01*
X16789Y32774D01*
X16789Y234826D01*
X17279Y234924D01*
X17477Y234447D01*
X18497Y232782D01*
X19766Y231296D01*
X21252Y230027D01*
X22917Y229007D01*
X24722Y228259D01*
X26622Y227803D01*
X28569Y227650D01*
X30517Y227803D01*
X32416Y228259D01*
X34221Y229007D01*
X35887Y230027D01*
X37372Y231296D01*
X38641Y232782D01*
X39662Y234447D01*
X40409Y236252D01*
X40865Y238152D01*
X41019Y240099D01*
X40865Y242047D01*
X40409Y243946D01*
X39662Y245751D01*
X38641Y247417D01*
X37372Y248902D01*
X35887Y250171D01*
X34221Y251192D01*
X33672Y251419D01*
X33770Y251909D01*
X314707D01*
X314805Y251419D01*
D02*
G37*
%LPC*%
G36*
X182132Y250478D02*
X179761D01*
X178772Y249489D01*
Y247511D01*
X179761Y246522D01*
X179876D01*
Y244450D01*
X177250D01*
Y243021D01*
X175050D01*
X175050Y243021D01*
X174640Y242939D01*
X174293Y242707D01*
X174293Y242707D01*
X157157Y225571D01*
X154131D01*
Y227251D01*
X154840D01*
Y235151D01*
X151280D01*
Y227251D01*
X151989D01*
Y225086D01*
X152071Y224676D01*
X152303Y224329D01*
X152889Y223743D01*
X153236Y223511D01*
X153646Y223429D01*
X157600D01*
X158010Y223511D01*
X158357Y223743D01*
X175493Y240879D01*
X177250D01*
Y239450D01*
X181950D01*
Y239622D01*
X186055D01*
X186102Y239550D01*
X186626Y239200D01*
X187244Y239077D01*
X191182D01*
X191800Y239200D01*
X192324Y239550D01*
X192674Y240074D01*
X192797Y240692D01*
X192674Y241311D01*
X192324Y241835D01*
X191800Y242185D01*
X191182Y242308D01*
X187244D01*
X186626Y242185D01*
X186102Y241835D01*
X186055Y241763D01*
X181950D01*
Y243109D01*
X182017Y243446D01*
X182017Y243446D01*
Y246522D01*
X182132D01*
X183121Y247511D01*
Y249489D01*
X182132Y250478D01*
D02*
G37*
G36*
X52600Y250282D02*
X51621Y250153D01*
X50709Y249775D01*
X49926Y249174D01*
X49325Y248391D01*
X48947Y247479D01*
X48818Y246500D01*
X48947Y245521D01*
X49325Y244609D01*
X49926Y243826D01*
X50709Y243225D01*
X51621Y242847D01*
X52600Y242718D01*
X53579Y242847D01*
X54491Y243225D01*
X55274Y243826D01*
X55875Y244609D01*
X56253Y245521D01*
X56382Y246500D01*
X56253Y247479D01*
X55875Y248391D01*
X55274Y249174D01*
X54491Y249775D01*
X53579Y250153D01*
X52600Y250282D01*
D02*
G37*
G36*
X62600Y250282D02*
X61621Y250153D01*
X60709Y249775D01*
X59926Y249174D01*
X59325Y248391D01*
X58947Y247479D01*
X58818Y246500D01*
X58947Y245521D01*
X59325Y244609D01*
X59926Y243826D01*
X60709Y243225D01*
X61621Y242847D01*
X62600Y242718D01*
X63579Y242847D01*
X64491Y243225D01*
X65274Y243826D01*
X65875Y244609D01*
X66253Y245521D01*
X66382Y246500D01*
X66253Y247479D01*
X65875Y248391D01*
X65274Y249174D01*
X64491Y249775D01*
X63579Y250153D01*
X62600Y250282D01*
D02*
G37*
G36*
X116436Y248014D02*
X116254Y247886D01*
X98386D01*
X97391Y247688D01*
X96548Y247125D01*
X79044Y229621D01*
X78600Y229679D01*
X77518Y229537D01*
X76510Y229119D01*
X75645Y228455D01*
X74981Y227590D01*
X74563Y226582D01*
X74471Y225884D01*
X70688Y222100D01*
X65690D01*
Y222600D01*
X65690D01*
Y224009D01*
X65492Y225005D01*
X64929Y225848D01*
X61439Y229339D01*
X60595Y229902D01*
X59600Y230100D01*
X41600D01*
X40605Y229902D01*
X39761Y229339D01*
X32144Y221721D01*
X31581Y220878D01*
X31383Y219883D01*
Y217210D01*
X31032Y216941D01*
X30455Y216190D01*
X30093Y215314D01*
X29969Y214374D01*
X30093Y213434D01*
X30455Y212559D01*
X31032Y211806D01*
X31784Y211229D01*
X32660Y210867D01*
X33600Y210743D01*
X34540Y210867D01*
X35416Y211229D01*
X36167Y211806D01*
X36745Y212559D01*
X37107Y213434D01*
X37231Y214374D01*
X37107Y215314D01*
X36745Y216190D01*
X36583Y216401D01*
Y218806D01*
X42677Y224900D01*
X58523D01*
X60491Y222933D01*
Y219750D01*
X60688Y218755D01*
X60991Y218303D01*
Y216400D01*
X65690D01*
Y216900D01*
X71765D01*
X72760Y217098D01*
X73603Y217662D01*
X77438Y221497D01*
X77518Y221463D01*
X78600Y221321D01*
X79681Y221463D01*
X80689Y221881D01*
X81555Y222545D01*
X82219Y223411D01*
X82636Y224418D01*
X82779Y225500D01*
X82721Y225944D01*
X99463Y242686D01*
X116877D01*
X117601Y242559D01*
X119383Y243806D01*
X119650Y245320D01*
X119597Y245396D01*
X119421Y246281D01*
X118857Y247125D01*
X118014Y247688D01*
X117988Y247693D01*
X117951Y247747D01*
X116436Y248014D01*
D02*
G37*
G36*
X122489Y241265D02*
X121364Y240477D01*
X121181Y240514D01*
X119935D01*
X118940Y240316D01*
X118096Y239752D01*
X117533Y238909D01*
X117354Y238010D01*
X108965Y229621D01*
X108521Y229679D01*
X107439Y229537D01*
X106431Y229119D01*
X105566Y228455D01*
X104902Y227590D01*
X104484Y226582D01*
X104342Y225500D01*
X104400Y225056D01*
X98761Y219418D01*
X98198Y218574D01*
X98000Y217579D01*
Y194538D01*
X98198Y193543D01*
X98761Y192699D01*
X99016Y192529D01*
Y191576D01*
X100677D01*
X100884Y191076D01*
X98308Y188500D01*
X95276D01*
Y182576D01*
X98444D01*
Y185608D01*
X102266Y189429D01*
X108158D01*
X108568Y189511D01*
X108915Y189743D01*
X112014Y192841D01*
X114700D01*
Y197041D01*
X110500D01*
Y194355D01*
X107715Y191571D01*
X102682D01*
X102184Y191576D01*
X102184Y192529D01*
X102438Y192699D01*
X103002Y193543D01*
X103200Y194538D01*
Y216502D01*
X108077Y221379D01*
X108521Y221321D01*
X109602Y221463D01*
X110610Y221881D01*
X111476Y222545D01*
X112140Y223411D01*
X112557Y224418D01*
X112700Y225500D01*
X112642Y225944D01*
X121345Y234648D01*
X121844Y234604D01*
X121873Y234562D01*
X125436Y237057D01*
X122489Y241265D01*
D02*
G37*
G36*
X294064Y248016D02*
X293034Y247880D01*
X292074Y247483D01*
X291250Y246850D01*
X290617Y246026D01*
X290220Y245066D01*
X290084Y244036D01*
X290220Y243005D01*
X290617Y242045D01*
X291250Y241221D01*
X292074Y240588D01*
X293034Y240191D01*
X294064Y240055D01*
X295095Y240191D01*
X296055Y240588D01*
X296879Y241221D01*
X297512Y242045D01*
X297909Y243005D01*
X298045Y244036D01*
X297909Y245066D01*
X297512Y246026D01*
X296879Y246850D01*
X296055Y247483D01*
X295095Y247880D01*
X294064Y248016D01*
D02*
G37*
G36*
X210867Y247308D02*
X206930D01*
X206311Y247185D01*
X205787Y246835D01*
X205437Y246311D01*
X205314Y245692D01*
X205437Y245074D01*
X205787Y244550D01*
X206311Y244200D01*
X206930Y244077D01*
X210867D01*
X211042Y244112D01*
X221691D01*
X223350Y242453D01*
Y239838D01*
X228350D01*
Y244538D01*
X225735D01*
X223463Y246810D01*
X222951Y247153D01*
X222346Y247273D01*
X211042D01*
X210867Y247308D01*
D02*
G37*
G36*
X191182D02*
X187245D01*
X186626Y247185D01*
X186102Y246835D01*
X185752Y246311D01*
X185629Y245692D01*
X185752Y245074D01*
X186102Y244550D01*
X186626Y244200D01*
X187245Y244077D01*
X191182D01*
X191266Y244094D01*
X193529Y241831D01*
Y236067D01*
X193219Y235822D01*
X192734Y236007D01*
X192674Y236311D01*
X192324Y236835D01*
X191800Y237185D01*
X191182Y237308D01*
X187244D01*
X186626Y237185D01*
X186102Y236835D01*
X186055Y236763D01*
X181950D01*
Y237550D01*
X177250D01*
Y236121D01*
X172150D01*
X171740Y236039D01*
X171393Y235807D01*
X171393Y235807D01*
X158157Y222571D01*
X152043D01*
X149211Y225403D01*
Y227251D01*
X149920D01*
Y235151D01*
X146360D01*
Y227251D01*
X147069D01*
Y224960D01*
X147151Y224550D01*
X147383Y224203D01*
X150373Y221213D01*
X150181Y220751D01*
X119781Y220751D01*
X119371Y220670D01*
X119024Y220438D01*
X111843Y213257D01*
X111611Y212909D01*
X111529Y212500D01*
Y202159D01*
X110500D01*
Y197959D01*
X114700D01*
Y202159D01*
X113670D01*
Y212056D01*
X120224Y218610D01*
X155543Y218610D01*
X155734Y218148D01*
X152928Y215342D01*
X146239Y215288D01*
X145898Y215798D01*
X145302Y216196D01*
X144600Y216335D01*
X143898Y216196D01*
X143302Y215798D01*
X142944Y215261D01*
X142260Y215255D01*
X141898Y215798D01*
X141302Y216196D01*
X140600Y216335D01*
X139898Y216196D01*
X139302Y215798D01*
X138922Y215228D01*
X138282Y215223D01*
X137898Y215798D01*
X137302Y216196D01*
X136600Y216335D01*
X135898Y216196D01*
X135302Y215798D01*
X134904Y215202D01*
X134903Y215195D01*
X134298Y215190D01*
X134296Y215202D01*
X133898Y215798D01*
X133302Y216196D01*
X132600Y216335D01*
X131898Y216196D01*
X131302Y215798D01*
X130904Y215202D01*
X130896Y215162D01*
X124026Y215107D01*
X123671Y215459D01*
Y216500D01*
X123589Y216910D01*
X123357Y217257D01*
X123010Y217489D01*
X122600Y217571D01*
X122190Y217489D01*
X121843Y217257D01*
X121611Y216910D01*
X121529Y216500D01*
Y215086D01*
X119855Y215072D01*
Y209352D01*
X119750Y209195D01*
X119612Y208500D01*
X119750Y207805D01*
X119855Y207647D01*
Y204352D01*
X119750Y204195D01*
X119612Y203500D01*
X119662Y203248D01*
X116843Y200429D01*
X116611Y200082D01*
X116529Y199672D01*
Y192944D01*
X111843Y188257D01*
X111611Y187910D01*
X111529Y187500D01*
Y173943D01*
X89868Y152282D01*
X89600Y152335D01*
X88898Y152196D01*
X88302Y151798D01*
X87904Y151202D01*
X87765Y150500D01*
X87904Y149798D01*
X88302Y149202D01*
X88898Y148804D01*
X89600Y148665D01*
X90302Y148804D01*
X90898Y149202D01*
X91296Y149798D01*
X91435Y150500D01*
X91382Y150768D01*
X95529Y154915D01*
X96029Y154708D01*
Y151444D01*
X93868Y149282D01*
X93600Y149335D01*
X92898Y149196D01*
X92302Y148798D01*
X91904Y148202D01*
X91765Y147500D01*
X91904Y146798D01*
X92302Y146202D01*
X92898Y145804D01*
X93600Y145665D01*
X94302Y145804D01*
X94898Y146202D01*
X95296Y146798D01*
X95435Y147500D01*
X95382Y147768D01*
X97857Y150243D01*
X98029Y150501D01*
X98459Y150445D01*
X98529Y150418D01*
Y145943D01*
X94843Y142257D01*
X94611Y141910D01*
X94529Y141500D01*
Y130949D01*
X94302Y130798D01*
X93904Y130202D01*
X93765Y129500D01*
X93904Y128798D01*
X94302Y128202D01*
X94898Y127804D01*
X95600Y127665D01*
X96302Y127804D01*
X96898Y128202D01*
X97296Y128798D01*
X97435Y129500D01*
X97296Y130202D01*
X96898Y130798D01*
X96671Y130949D01*
Y141057D01*
X100357Y144743D01*
X100357Y144743D01*
X100589Y145090D01*
X100671Y145500D01*
Y154057D01*
X107029Y160415D01*
X107529Y160208D01*
Y122950D01*
X107302Y122798D01*
X106904Y122202D01*
X106765Y121500D01*
X106904Y120798D01*
X107302Y120202D01*
X107898Y119804D01*
X108600Y119665D01*
X109302Y119804D01*
X109898Y120202D01*
X110296Y120798D01*
X110435Y121500D01*
X110296Y122202D01*
X109898Y122798D01*
X109671Y122950D01*
Y160229D01*
X119393Y169951D01*
X119855Y169760D01*
Y166928D01*
X144529D01*
Y149225D01*
X144611Y148815D01*
X144843Y148468D01*
X151491Y141819D01*
Y138590D01*
X152989D01*
Y130089D01*
X152109D01*
Y126921D01*
X155028D01*
X155087Y126909D01*
X159959D01*
Y126224D01*
X160119D01*
X160179Y126079D01*
X160600Y125905D01*
X172250D01*
Y125650D01*
X176950D01*
Y126050D01*
X177021Y126079D01*
X177058Y126170D01*
X180195D01*
X185103Y121262D01*
X184785Y120873D01*
X184302Y121196D01*
X183600Y121335D01*
X182898Y121196D01*
X182302Y120798D01*
X181904Y120202D01*
X181765Y119500D01*
X181904Y118798D01*
X182302Y118202D01*
X182529Y118051D01*
Y113761D01*
X181815Y113047D01*
X181341Y113155D01*
X181283Y113222D01*
X180898Y113798D01*
X180302Y114196D01*
X179600Y114335D01*
X178898Y114196D01*
X178302Y113798D01*
X178150Y113571D01*
X164600D01*
X164600Y113571D01*
X164190Y113489D01*
X163843Y113257D01*
X158843Y108257D01*
X158725Y108080D01*
X158302Y107798D01*
X157904Y107202D01*
X157765Y106500D01*
X157904Y105798D01*
X158302Y105202D01*
X158898Y104804D01*
X159600Y104665D01*
X160302Y104804D01*
X160898Y105202D01*
X161296Y105798D01*
X161435Y106500D01*
X161296Y107202D01*
X161104Y107490D01*
X165043Y111429D01*
X168325D01*
X168448Y111235D01*
X168515Y110929D01*
X162868Y105282D01*
X162600Y105335D01*
X161898Y105196D01*
X161302Y104798D01*
X160904Y104202D01*
X160765Y103500D01*
X160904Y102798D01*
X161302Y102202D01*
X161898Y101804D01*
X162600Y101665D01*
X163302Y101804D01*
X163898Y102202D01*
X164296Y102798D01*
X164435Y103500D01*
X164382Y103768D01*
X169793Y109179D01*
X180532D01*
X180942Y109261D01*
X181289Y109493D01*
X184357Y112561D01*
X184357Y112561D01*
X184589Y112908D01*
X184671Y113318D01*
X184671Y113318D01*
Y118051D01*
X184898Y118202D01*
X185020Y118385D01*
X185520Y118233D01*
Y113500D01*
X185640Y112895D01*
X185983Y112382D01*
X187006Y111359D01*
X187011Y111324D01*
X186659Y111028D01*
X186597Y110999D01*
X186302Y111196D01*
X185600Y111335D01*
X184898Y111196D01*
X184302Y110798D01*
X183904Y110202D01*
X183765Y109500D01*
X183850Y109071D01*
X183501Y108571D01*
X172600D01*
X172190Y108489D01*
X171843Y108257D01*
X171843Y108257D01*
X165868Y102282D01*
X165600Y102335D01*
X164898Y102196D01*
X164302Y101798D01*
X163904Y101202D01*
X163765Y100500D01*
X163904Y99798D01*
X164302Y99202D01*
X164898Y98804D01*
X165600Y98665D01*
X166302Y98804D01*
X166898Y99202D01*
X167296Y99798D01*
X167435Y100500D01*
X167382Y100768D01*
X173043Y106429D01*
X184587D01*
X184614Y106402D01*
X184830Y105965D01*
X181841Y102976D01*
X181380Y103222D01*
X181435Y103500D01*
X181296Y104202D01*
X180898Y104798D01*
X180302Y105196D01*
X179600Y105335D01*
X178898Y105196D01*
X178302Y104798D01*
X177904Y104202D01*
X177765Y103500D01*
X177904Y102798D01*
X178302Y102202D01*
X178898Y101804D01*
X179600Y101665D01*
X179878Y101720D01*
X180124Y101259D01*
X172983Y94117D01*
X172640Y93605D01*
X172520Y93000D01*
Y89695D01*
X171889Y89211D01*
X171392Y88563D01*
X171080Y87809D01*
X170973Y87000D01*
X171080Y86191D01*
X171241Y85801D01*
X170817Y85518D01*
X156718Y99617D01*
X156205Y99960D01*
X155600Y100080D01*
X149717D01*
X149547Y100490D01*
X148915Y101315D01*
X148090Y101947D01*
X147130Y102345D01*
X146100Y102480D01*
X145070Y102345D01*
X144110Y101947D01*
X143285Y101315D01*
X142653Y100490D01*
X142255Y99530D01*
X142120Y98500D01*
X142255Y97470D01*
X142653Y96510D01*
X143285Y95685D01*
X144110Y95053D01*
X145070Y94655D01*
X146100Y94520D01*
X147130Y94655D01*
X148090Y95053D01*
X148915Y95685D01*
X149547Y96510D01*
X149717Y96920D01*
X154945D01*
X171570Y80295D01*
Y66850D01*
X170650D01*
Y62150D01*
X171570D01*
Y59850D01*
X170650D01*
Y58469D01*
X169907D01*
X169536Y58395D01*
X169222Y58185D01*
X152799Y41761D01*
X149031D01*
Y36625D01*
X154168D01*
Y40392D01*
X170150Y56373D01*
X170650Y56166D01*
Y55150D01*
X175631D01*
Y44193D01*
X175705Y43822D01*
X175915Y43508D01*
X179032Y40392D01*
Y36625D01*
X184169D01*
Y41761D01*
X180401D01*
X177569Y44594D01*
Y55150D01*
X182550D01*
Y57615D01*
X182817Y57882D01*
X184739D01*
Y57681D01*
X190269D01*
Y61243D01*
X190269D01*
Y61421D01*
X190269D01*
Y64661D01*
X190269Y64983D01*
X190269Y65483D01*
Y67209D01*
X190798Y67738D01*
X190798Y67738D01*
X191030Y68085D01*
X191112Y68495D01*
X191112Y68495D01*
Y72400D01*
X192141D01*
Y76600D01*
X191112D01*
Y78149D01*
X191488Y78400D01*
X192141D01*
Y78923D01*
X192247Y79029D01*
X192811Y79873D01*
X193009Y80868D01*
Y82547D01*
X193308Y82937D01*
X193620Y83691D01*
X193727Y84500D01*
X193620Y85309D01*
X193308Y86063D01*
X192811Y86711D01*
X192163Y87208D01*
X191409Y87520D01*
X190600Y87627D01*
X189791Y87520D01*
X189037Y87208D01*
X188389Y86711D01*
X187892Y86063D01*
X187580Y85309D01*
X187473Y84500D01*
X187580Y83691D01*
X187809Y83138D01*
Y81749D01*
X187639Y81495D01*
X187441Y80500D01*
X187639Y79505D01*
X187941Y79053D01*
Y78400D01*
X188594D01*
X188971Y78149D01*
Y76600D01*
X187941D01*
Y72400D01*
X188971D01*
Y68939D01*
X188755Y68723D01*
X184739D01*
Y65483D01*
X184739Y65161D01*
X184445Y64782D01*
X182550D01*
Y66850D01*
X177569D01*
Y70099D01*
X181726Y74256D01*
X181936Y74571D01*
X182010Y74941D01*
Y76424D01*
X182339Y76644D01*
X182737Y77239D01*
X182877Y77941D01*
X182737Y78644D01*
X182339Y79239D01*
X181744Y79637D01*
X181041Y79777D01*
X180339Y79637D01*
X179744Y79239D01*
X179346Y78644D01*
X179206Y77941D01*
X179346Y77239D01*
X179744Y76644D01*
X180073Y76424D01*
Y75343D01*
X175915Y71185D01*
X175705Y70871D01*
X175631Y70500D01*
Y66850D01*
X174730D01*
Y80950D01*
X174610Y81555D01*
X174267Y82068D01*
X172617Y83717D01*
X172901Y84141D01*
X173291Y83980D01*
X174100Y83873D01*
X174909Y83980D01*
X175663Y84292D01*
X176311Y84789D01*
X176808Y85437D01*
X177120Y86191D01*
X177227Y87000D01*
X177120Y87809D01*
X176808Y88563D01*
X176311Y89211D01*
X175680Y89695D01*
Y92345D01*
X185046Y101711D01*
X185126Y101671D01*
X185481Y101439D01*
X185580Y100691D01*
X185892Y99937D01*
X186389Y99289D01*
X187037Y98792D01*
X187791Y98480D01*
X188600Y98373D01*
X189409Y98480D01*
X190163Y98792D01*
X190811Y99289D01*
X191308Y99937D01*
X191620Y100691D01*
X191727Y101500D01*
X191620Y102309D01*
X191308Y103063D01*
X190811Y103711D01*
X190163Y104208D01*
X189409Y104520D01*
X188661Y104619D01*
X188429Y104974D01*
X188389Y105054D01*
X190717Y107383D01*
X191060Y107895D01*
X191180Y108500D01*
Y111000D01*
X191060Y111605D01*
X190717Y112118D01*
X188680Y114155D01*
Y120234D01*
X189180Y120386D01*
X189303Y120203D01*
X189898Y119805D01*
X190600Y119665D01*
X191303Y119805D01*
X191898Y120203D01*
X192296Y120798D01*
X192436Y121500D01*
X192296Y122203D01*
X192181Y122375D01*
Y128500D01*
X192060Y129104D01*
X191718Y129617D01*
X189379Y131956D01*
X191590Y134167D01*
X188267Y137490D01*
X186056Y135279D01*
X182336Y138999D01*
X182296Y139202D01*
X181898Y139798D01*
X181750Y139896D01*
X181800Y140465D01*
X186255Y144920D01*
X208945D01*
X222470Y131395D01*
Y123850D01*
X221550D01*
Y119150D01*
X224315D01*
X239520Y103945D01*
Y93155D01*
X234982Y88617D01*
X234640Y88105D01*
X234520Y87500D01*
Y83655D01*
X219482Y68617D01*
X219140Y68105D01*
X219020Y67500D01*
Y65100D01*
X217441D01*
Y53900D01*
X223759D01*
Y65100D01*
X222180D01*
Y66845D01*
X237217Y81883D01*
X237560Y82395D01*
X237680Y83000D01*
Y86845D01*
X239283Y88449D01*
X239811Y88269D01*
X239904Y87798D01*
X240302Y87202D01*
X240898Y86804D01*
X241600Y86665D01*
X242302Y86804D01*
X242898Y87202D01*
X243002Y87359D01*
X243225Y87346D01*
X243421Y86835D01*
X225843Y69257D01*
X225611Y68910D01*
X225529Y68500D01*
Y44384D01*
X212245Y31100D01*
X207441D01*
Y19900D01*
X213759D01*
Y29586D01*
X219169Y34996D01*
X219631Y34805D01*
Y31100D01*
X217441D01*
Y19900D01*
X223759D01*
Y28929D01*
X226542D01*
X226951Y29011D01*
X227299Y29243D01*
X235014Y36959D01*
X237700D01*
Y41159D01*
X233500D01*
Y38473D01*
X226098Y31071D01*
X223759D01*
Y31100D01*
X221569D01*
Y35560D01*
X228775Y42766D01*
X228985Y43080D01*
X229059Y43451D01*
Y66589D01*
X229788Y67318D01*
X230250Y67127D01*
Y63000D01*
X234950D01*
Y63429D01*
X236151D01*
X236302Y63202D01*
X236898Y62804D01*
X237600Y62665D01*
X238302Y62804D01*
X238898Y63202D01*
X239296Y63798D01*
X239435Y64500D01*
X239296Y65202D01*
X238898Y65798D01*
X238302Y66196D01*
X237600Y66335D01*
X236898Y66196D01*
X236302Y65798D01*
X236151Y65571D01*
X234950D01*
Y68000D01*
X231123D01*
X230932Y68462D01*
X246001Y83531D01*
X247082D01*
X247302Y83202D01*
X247898Y82804D01*
X248600Y82665D01*
X249302Y82804D01*
X249898Y83202D01*
X250296Y83798D01*
X250435Y84500D01*
X250296Y85202D01*
X249898Y85798D01*
X249302Y86196D01*
X248600Y86335D01*
X247898Y86196D01*
X247302Y85798D01*
X247082Y85469D01*
X245790D01*
X245570Y85956D01*
X255357Y95743D01*
X255589Y96090D01*
X255671Y96500D01*
Y115057D01*
X270357Y129743D01*
X270357Y129743D01*
X270589Y130090D01*
X270671Y130500D01*
Y138050D01*
X270898Y138202D01*
X271296Y138798D01*
X271435Y139500D01*
X271296Y140202D01*
X270898Y140798D01*
X271020Y141317D01*
X271199Y141444D01*
X271251Y141432D01*
X271442Y141304D01*
X271884Y141216D01*
X272325Y141304D01*
X272517Y141432D01*
X272868Y141514D01*
X273219Y141432D01*
X273411Y141304D01*
X273852Y141216D01*
X274250Y141295D01*
X274322Y141285D01*
X274750Y141007D01*
Y135950D01*
X273250D01*
Y130950D01*
X277950D01*
Y135950D01*
X276891D01*
Y141008D01*
X277322Y141287D01*
X277391Y141295D01*
X277789Y141216D01*
X278187Y141295D01*
X278259Y141285D01*
X278687Y141007D01*
Y139342D01*
X278768Y138933D01*
X279000Y138585D01*
X292529Y125057D01*
Y91657D01*
X292611Y91247D01*
X292843Y90900D01*
X309204Y74539D01*
Y73571D01*
X302043D01*
X293357Y82257D01*
X293010Y82489D01*
X292600Y82571D01*
X279550D01*
X279550Y82571D01*
X279140Y82489D01*
X278793Y82257D01*
X278793Y82257D01*
X273925Y77389D01*
X273450Y77621D01*
X273450Y77879D01*
Y82450D01*
X272680D01*
Y84125D01*
X272796Y84298D01*
X272935Y85000D01*
X272796Y85702D01*
X272398Y86298D01*
X271802Y86696D01*
X271100Y86835D01*
X270398Y86696D01*
X269802Y86298D01*
X269404Y85702D01*
X269265Y85000D01*
X269404Y84298D01*
X269520Y84125D01*
Y82450D01*
X268750D01*
Y77450D01*
X272985D01*
X273279Y77450D01*
X273511Y76975D01*
X272086Y75550D01*
X268750D01*
Y70550D01*
X273450D01*
Y73886D01*
X279993Y80429D01*
X292157D01*
X300843Y71743D01*
X301190Y71511D01*
X301600Y71429D01*
X309204D01*
Y68947D01*
X310891D01*
X311238Y68447D01*
X310822Y67078D01*
X309996Y65532D01*
X308884Y64177D01*
X307528Y63064D01*
X305982Y62238D01*
X304305Y61729D01*
X303630Y61663D01*
X303259Y61998D01*
Y62600D01*
X299059D01*
Y58400D01*
X303259D01*
Y59471D01*
X304294Y59553D01*
X305985Y59959D01*
X307592Y60624D01*
X309075Y61533D01*
X310398Y62663D01*
X311527Y63985D01*
X312436Y65468D01*
X313102Y67075D01*
X313508Y68766D01*
X313522Y68947D01*
X315916D01*
Y76053D01*
X310718D01*
X294671Y92100D01*
Y125500D01*
X294589Y125910D01*
X294357Y126257D01*
X283685Y136929D01*
X283892Y137429D01*
X288538D01*
X292033Y133934D01*
X292381Y133702D01*
X292791Y133620D01*
X293200Y133702D01*
X293548Y133934D01*
X293780Y134281D01*
X293861Y134691D01*
X293780Y135101D01*
X293548Y135448D01*
X293547Y135448D01*
X290066Y138929D01*
X290273Y139429D01*
X293776D01*
X294168Y139038D01*
X293440Y138310D01*
X296410Y135340D01*
X298309Y137239D01*
X299226D01*
X300621Y135844D01*
X299610Y134833D01*
X302933Y131510D01*
X306469Y135046D01*
X303146Y138369D01*
X302135Y137358D01*
X300426Y139067D01*
X300079Y139299D01*
X299669Y139381D01*
X298309D01*
X296410Y141280D01*
X295682Y140552D01*
X294976Y141257D01*
X294629Y141489D01*
X294219Y141571D01*
X290983D01*
X290695Y142071D01*
X290754Y142370D01*
Y147212D01*
X290671Y147630D01*
Y151051D01*
X290898Y151202D01*
X291296Y151798D01*
X291435Y152500D01*
X291402Y152666D01*
X291665Y153003D01*
X291934Y152681D01*
X291931Y152665D01*
X292018Y152224D01*
X292268Y151849D01*
Y151512D01*
X292018Y151137D01*
X291931Y150696D01*
X292018Y150254D01*
X292268Y149880D01*
X292643Y149630D01*
X293084Y149542D01*
X297683D01*
X297730Y149511D01*
X298140Y149429D01*
X298140Y149429D01*
X305650D01*
Y147150D01*
X310650D01*
Y151594D01*
X312550D01*
Y147150D01*
X313529D01*
Y145949D01*
X313302Y145798D01*
X312904Y145202D01*
X312765Y144500D01*
X312904Y143798D01*
X313302Y143202D01*
X313898Y142804D01*
X314600Y142665D01*
X315302Y142804D01*
X315898Y143202D01*
X316296Y143798D01*
X316435Y144500D01*
X316296Y145202D01*
X315898Y145798D01*
X315671Y145949D01*
Y147150D01*
X317550D01*
Y151594D01*
X318040D01*
X318302Y151202D01*
X318898Y150804D01*
X319600Y150665D01*
X320302Y150804D01*
X320898Y151202D01*
X321296Y151798D01*
X321435Y152500D01*
X321296Y153202D01*
X320898Y153798D01*
X320302Y154196D01*
X319600Y154335D01*
X318898Y154196D01*
X318302Y153798D01*
X318261Y153736D01*
X311099D01*
X310959Y154061D01*
X310920Y154236D01*
X311296Y154798D01*
X311435Y155500D01*
X311296Y156202D01*
X310898Y156798D01*
X310898Y156798D01*
X310893Y156803D01*
X310650Y157150D01*
Y161850D01*
X305650D01*
Y159471D01*
X303860D01*
X302034Y161296D01*
X301687Y161528D01*
X301608Y161544D01*
X301444Y162086D01*
X304787Y165429D01*
X305650D01*
Y164150D01*
X310650D01*
Y168850D01*
X306171D01*
X305964Y169350D01*
X312043Y175429D01*
X318150D01*
X318302Y175202D01*
X318898Y174804D01*
X319600Y174665D01*
X320302Y174804D01*
X320898Y175202D01*
X321296Y175798D01*
X321435Y176500D01*
X321296Y177202D01*
X320898Y177798D01*
X320302Y178196D01*
X319600Y178335D01*
X318898Y178196D01*
X318302Y177798D01*
X318150Y177571D01*
X312013D01*
X311806Y178071D01*
X317165Y183429D01*
X318150D01*
X318302Y183202D01*
X318898Y182804D01*
X319600Y182665D01*
X320302Y182804D01*
X320898Y183202D01*
X321296Y183798D01*
X321435Y184500D01*
X321296Y185202D01*
X320898Y185798D01*
X320302Y186196D01*
X319600Y186335D01*
X318898Y186196D01*
X318302Y185798D01*
X318150Y185571D01*
X316721D01*
X316312Y185489D01*
X315964Y185257D01*
X305943Y175235D01*
X305481Y175426D01*
Y180191D01*
X305399Y180600D01*
X305167Y180947D01*
X304820Y181179D01*
X304410Y181261D01*
X302291D01*
X301881Y181179D01*
X301751Y181093D01*
X301433Y181482D01*
X303761Y183809D01*
X300791Y186779D01*
X297821Y183809D01*
X298549Y183082D01*
X296424Y180957D01*
X296208Y181101D01*
X295505Y181241D01*
X294803Y181101D01*
X294208Y180703D01*
X293810Y180108D01*
X293670Y179405D01*
X293810Y178703D01*
X294208Y178108D01*
X294435Y177956D01*
Y173504D01*
X293084D01*
X292643Y173416D01*
X292268Y173166D01*
X292018Y172792D01*
X291931Y172350D01*
X292018Y171908D01*
X292268Y171534D01*
X292643Y171284D01*
X293084Y171196D01*
X294186D01*
X294318Y171034D01*
X294498Y170696D01*
X294435Y170381D01*
X294497Y170067D01*
X294317Y169727D01*
X294185Y169567D01*
X293084D01*
X292643Y169479D01*
X292268Y169229D01*
X292018Y168854D01*
X291931Y168413D01*
X292018Y167972D01*
X292147Y167780D01*
X292229Y167429D01*
X292147Y167077D01*
X292018Y166885D01*
X291931Y166444D01*
X292010Y166047D01*
X292000Y165974D01*
X291722Y165547D01*
X287717D01*
X287644Y165590D01*
X287435Y165821D01*
X287338Y166009D01*
X287435Y166500D01*
X287296Y167202D01*
X286898Y167798D01*
X286768Y167885D01*
Y168756D01*
X287297Y169286D01*
X287840Y169122D01*
X287904Y168798D01*
X288302Y168202D01*
X288898Y167804D01*
X289600Y167665D01*
X290302Y167804D01*
X290898Y168202D01*
X291296Y168798D01*
X291435Y169500D01*
X291296Y170202D01*
X290898Y170798D01*
X290671Y170949D01*
Y175415D01*
X290754Y175834D01*
Y180676D01*
X290666Y181118D01*
X290416Y181492D01*
X290042Y181742D01*
X289600Y181830D01*
X289159Y181742D01*
X288967Y181614D01*
X288616Y181532D01*
X288265Y181614D01*
X288073Y181742D01*
X287632Y181830D01*
X287190Y181742D01*
X286816Y181492D01*
X286479D01*
X286105Y181742D01*
X285664Y181830D01*
X285222Y181742D01*
X285030Y181614D01*
X284679Y181532D01*
X284328Y181614D01*
X284136Y181742D01*
X283695Y181830D01*
X283309Y181753D01*
X283195Y181782D01*
X282809Y182047D01*
Y185195D01*
X288883Y191269D01*
X289250Y191550D01*
Y191550D01*
X289250Y191550D01*
X293950D01*
Y196550D01*
X289250D01*
Y194664D01*
X286450Y191864D01*
X285950Y192071D01*
Y196550D01*
X281250D01*
Y193214D01*
X279130Y191094D01*
X278642Y191072D01*
X278499Y191115D01*
X277950Y191664D01*
Y196550D01*
X273250D01*
Y191550D01*
X275036D01*
X276719Y189867D01*
Y187152D01*
X276219Y186945D01*
X269950Y193214D01*
Y196550D01*
X265250D01*
Y191550D01*
X268586D01*
X269511Y190625D01*
X269422Y190441D01*
X269216Y190213D01*
X268600Y190335D01*
X267898Y190196D01*
X267302Y189798D01*
X266904Y189202D01*
X266765Y188500D01*
X266904Y187798D01*
X267302Y187202D01*
X267529Y187050D01*
Y185500D01*
X267611Y185090D01*
X267843Y184743D01*
X268542Y184044D01*
X268405Y183689D01*
X268308Y183571D01*
X267043D01*
X263671Y186943D01*
Y189618D01*
X263589Y190028D01*
X263357Y190375D01*
X260357Y193375D01*
X260010Y193607D01*
X259600Y193689D01*
X259190Y193607D01*
X258843Y193375D01*
X258611Y193028D01*
X258529Y192618D01*
X258611Y192208D01*
X258843Y191861D01*
X260642Y190062D01*
X260451Y189600D01*
X257500D01*
Y185821D01*
X257000Y185614D01*
X256671Y185943D01*
Y218500D01*
X256671Y218500D01*
X256589Y218910D01*
X256357Y219257D01*
X240357Y235257D01*
X240010Y235489D01*
X239600Y235571D01*
X235250D01*
Y236850D01*
X230569D01*
Y238637D01*
X231770Y239838D01*
X235250D01*
Y244538D01*
X230250D01*
Y241058D01*
X228915Y239723D01*
X228705Y239409D01*
X228631Y239038D01*
Y237233D01*
X228350Y236850D01*
X228131Y236850D01*
X223350D01*
Y234235D01*
X221388Y232273D01*
X212451D01*
Y232277D01*
X205345D01*
Y229108D01*
X212451D01*
Y229112D01*
X221456D01*
X221489Y228612D01*
X221234Y228579D01*
X220791Y228520D01*
X220037Y228208D01*
X219389Y227711D01*
X218892Y227063D01*
X218580Y226309D01*
X218473Y225500D01*
X218580Y224691D01*
X218866Y224001D01*
X214100Y219235D01*
X200180Y233155D01*
Y235845D01*
X203431Y239096D01*
X206833D01*
X206930Y239077D01*
X210867D01*
X211485Y239200D01*
X212009Y239550D01*
X212057Y239622D01*
X216500D01*
Y238959D01*
X220700D01*
Y243159D01*
X216500D01*
Y241763D01*
X212057D01*
X212009Y241835D01*
X211485Y242185D01*
X210867Y242308D01*
X206930D01*
X206675Y242257D01*
X202777D01*
X202172Y242137D01*
X201659Y241794D01*
X197483Y237617D01*
X197140Y237105D01*
X197020Y236500D01*
Y232500D01*
X197140Y231895D01*
X197483Y231382D01*
X211865Y217000D01*
X210181Y215316D01*
X207254D01*
X206559Y215178D01*
X205970Y214784D01*
X205576Y214195D01*
X205438Y213500D01*
X205576Y212805D01*
X205970Y212216D01*
X206559Y211822D01*
X207254Y211684D01*
X213947D01*
X214641Y211822D01*
X215230Y212216D01*
X215624Y212805D01*
X215762Y213500D01*
X215624Y214195D01*
X215230Y214784D01*
X214988Y214946D01*
X214925Y215590D01*
X215718Y216383D01*
X221725Y222390D01*
X222409Y222480D01*
X223163Y222792D01*
X223811Y223289D01*
X224308Y223937D01*
X224620Y224691D01*
X224727Y225500D01*
X224620Y226309D01*
X224308Y227063D01*
X223811Y227711D01*
X223163Y228208D01*
X222409Y228520D01*
X221966Y228579D01*
X221711Y228612D01*
X221744Y229112D01*
X222042D01*
X222647Y229233D01*
X223160Y229575D01*
X225735Y232150D01*
X228131D01*
X228350Y232150D01*
X228631Y231767D01*
Y231500D01*
X228705Y231129D01*
X228915Y230815D01*
X231915Y227815D01*
X232229Y227605D01*
X232600Y227531D01*
X242199D01*
X251631Y218099D01*
Y199590D01*
X251131Y199439D01*
X250891Y199798D01*
X250296Y200196D01*
X249594Y200335D01*
X248891Y200196D01*
X248296Y199798D01*
X247898Y199202D01*
X247759Y198500D01*
X247788Y198352D01*
X247286Y197850D01*
X244250D01*
Y193150D01*
X249250D01*
Y196383D01*
X249594Y196665D01*
X250296Y196804D01*
X250891Y197202D01*
X251131Y197561D01*
X251631Y197410D01*
Y186308D01*
X251705Y185937D01*
X251915Y185623D01*
X263573Y173966D01*
X263381Y173504D01*
X261081D01*
Y174381D01*
X261081Y174381D01*
X260999Y174791D01*
X260767Y175138D01*
X249250Y186655D01*
Y189850D01*
X244250D01*
Y185150D01*
X247727D01*
X258939Y173938D01*
Y173256D01*
X258804Y173166D01*
X258554Y172792D01*
X258467Y172350D01*
X258554Y171908D01*
X258776Y171577D01*
X258633Y171146D01*
X258152Y171155D01*
X257898Y171535D01*
X257302Y171933D01*
X256600Y172073D01*
X255898Y171933D01*
X255302Y171535D01*
X254904Y170940D01*
X254765Y170237D01*
X254904Y169535D01*
X255143Y169178D01*
X254754Y168860D01*
X251671Y171943D01*
Y176092D01*
X251589Y176502D01*
X251357Y176849D01*
X249250Y178956D01*
Y182292D01*
X244250D01*
Y177592D01*
X247586D01*
X249529Y175649D01*
Y174988D01*
X249250Y174604D01*
X244250D01*
Y169904D01*
X247736D01*
X253562Y164078D01*
X253355Y163578D01*
X249502D01*
X249250Y163829D01*
Y167015D01*
X244250D01*
Y162315D01*
X247736D01*
X248301Y161750D01*
X248301Y161750D01*
X248649Y161518D01*
X249058Y161436D01*
X249058Y161436D01*
X249238D01*
X249446Y160936D01*
X247736Y159227D01*
X244659D01*
X244435Y159500D01*
X244296Y160202D01*
X243898Y160798D01*
X243302Y161196D01*
X242600Y161335D01*
X241898Y161196D01*
X241302Y160798D01*
X240904Y160202D01*
X240765Y159500D01*
X240541Y159227D01*
X237350D01*
Y155917D01*
X236888Y155726D01*
X235607Y157007D01*
X235260Y157239D01*
X234850Y157321D01*
X180552D01*
X180294Y157732D01*
X180300Y157821D01*
X180435Y158500D01*
X180296Y159202D01*
X179898Y159798D01*
X179302Y160196D01*
X178600Y160335D01*
X177898Y160196D01*
X177302Y159798D01*
X176904Y159202D01*
X176765Y158500D01*
X176900Y157821D01*
X176906Y157732D01*
X176648Y157321D01*
X164294D01*
X160382Y161232D01*
X160435Y161500D01*
X160296Y162202D01*
X159898Y162798D01*
X159302Y163196D01*
X158600Y163335D01*
X157898Y163196D01*
X157302Y162798D01*
X156904Y162202D01*
X156774Y161547D01*
X156602Y161440D01*
X156290Y161324D01*
X155671Y161943D01*
Y165403D01*
X157002Y166734D01*
X157254Y166684D01*
X163946D01*
X164641Y166822D01*
X164799Y166928D01*
X168367D01*
X168439Y166819D01*
X171578Y163681D01*
X171925Y163448D01*
X172335Y163367D01*
X172335Y163367D01*
X176834D01*
X176986Y163140D01*
X177581Y162742D01*
X178284Y162602D01*
X178986Y162742D01*
X179581Y163140D01*
X179979Y163735D01*
X180119Y164437D01*
X179979Y165140D01*
X179581Y165735D01*
X178986Y166133D01*
X178284Y166273D01*
X177581Y166133D01*
X176986Y165735D01*
X176834Y165508D01*
X172778D01*
X171821Y166466D01*
X172012Y166928D01*
X179693D01*
X179653Y166967D01*
X179844Y167429D01*
X182600D01*
X183010Y167511D01*
X183357Y167743D01*
X183589Y168090D01*
X183671Y168500D01*
X183589Y168910D01*
X183357Y169257D01*
X183010Y169489D01*
X182600Y169571D01*
X178972D01*
Y171926D01*
X179404Y172216D01*
X179547Y172429D01*
X182150D01*
X182302Y172202D01*
X182898Y171804D01*
X183600Y171665D01*
X184302Y171804D01*
X184898Y172202D01*
X185296Y172798D01*
X185319Y172917D01*
X185781Y173109D01*
X185884Y173040D01*
X186489Y172920D01*
X190725D01*
X190898Y172804D01*
X191600Y172665D01*
X192302Y172804D01*
X192898Y173202D01*
X193296Y173798D01*
X193435Y174500D01*
X193296Y175202D01*
X192898Y175798D01*
X192302Y176196D01*
X191600Y176335D01*
X190898Y176196D01*
X190725Y176080D01*
X187144D01*
X185857Y177367D01*
X185344Y177710D01*
X184739Y177830D01*
X182612D01*
X182339Y178239D01*
X181743Y178637D01*
X181041Y178776D01*
X180513Y178671D01*
X180266Y179132D01*
X188379Y187244D01*
X188921Y187080D01*
X188977Y186798D01*
X189375Y186202D01*
X189971Y185804D01*
X190673Y185665D01*
X191375Y185804D01*
X191971Y186202D01*
X192368Y186798D01*
X192508Y187500D01*
X192368Y188202D01*
X191971Y188798D01*
X191375Y189196D01*
X191093Y189252D01*
X190929Y189794D01*
X191357Y190223D01*
X191589Y190570D01*
X191671Y190980D01*
Y213057D01*
X197332Y218718D01*
X197600Y218665D01*
X198302Y218804D01*
X198898Y219202D01*
X199296Y219798D01*
X199435Y220500D01*
X199296Y221202D01*
X198898Y221798D01*
X198302Y222196D01*
X197600Y222335D01*
X196898Y222196D01*
X196302Y221798D01*
X195904Y221202D01*
X195765Y220500D01*
X195818Y220232D01*
X189843Y214257D01*
X189611Y213910D01*
X189529Y213500D01*
Y191423D01*
X179556Y181449D01*
X179066Y181648D01*
X179052Y181980D01*
X179404Y182216D01*
X179798Y182805D01*
X179936Y183500D01*
X179798Y184195D01*
X179404Y184784D01*
X178972Y185073D01*
Y186926D01*
X179404Y187216D01*
X179547Y187429D01*
X182600D01*
X183010Y187511D01*
X183357Y187743D01*
X188357Y192743D01*
X188589Y193090D01*
X188671Y193500D01*
X188671Y193500D01*
Y219057D01*
X193332Y223718D01*
X193600Y223665D01*
X194302Y223804D01*
X194898Y224202D01*
X195296Y224798D01*
X195435Y225500D01*
X195296Y226202D01*
X194898Y226798D01*
X194302Y227196D01*
X193600Y227335D01*
X192898Y227196D01*
X192302Y226798D01*
X191904Y226202D01*
X191765Y225500D01*
X191818Y225232D01*
X186843Y220257D01*
X186611Y219910D01*
X186529Y219500D01*
Y193944D01*
X182157Y189571D01*
X179547D01*
X179404Y189784D01*
X178972Y190074D01*
Y191927D01*
X179404Y192216D01*
X179798Y192805D01*
X179936Y193500D01*
X179798Y194195D01*
X179404Y194784D01*
X178972Y195073D01*
Y196926D01*
X179404Y197216D01*
X179547Y197429D01*
X180600D01*
X181010Y197511D01*
X181357Y197743D01*
X183332Y199718D01*
X183600Y199665D01*
X184302Y199804D01*
X184898Y200202D01*
X185296Y200798D01*
X185435Y201500D01*
X185296Y202202D01*
X184898Y202798D01*
X184302Y203196D01*
X183600Y203335D01*
X182898Y203196D01*
X182302Y202798D01*
X181904Y202202D01*
X181765Y201500D01*
X181818Y201232D01*
X180157Y199571D01*
X179547D01*
X179404Y199784D01*
X178972Y200074D01*
Y201926D01*
X179404Y202216D01*
X179798Y202805D01*
X179936Y203500D01*
X179798Y204195D01*
X179404Y204784D01*
X178972Y205073D01*
Y206926D01*
X179404Y207216D01*
X179547Y207429D01*
X181150D01*
X181302Y207202D01*
X181898Y206804D01*
X182600Y206665D01*
X183302Y206804D01*
X183898Y207202D01*
X184296Y207798D01*
X184435Y208500D01*
X184296Y209202D01*
X183898Y209798D01*
X183302Y210196D01*
X182600Y210335D01*
X181898Y210196D01*
X181302Y209798D01*
X181150Y209571D01*
X179547D01*
X179404Y209784D01*
X178972Y210073D01*
Y212429D01*
X180600D01*
X181010Y212511D01*
X181357Y212743D01*
X181589Y213090D01*
X181671Y213500D01*
X181589Y213910D01*
X181357Y214257D01*
X181010Y214489D01*
X180600Y214571D01*
X178972D01*
Y215555D01*
X178875Y215554D01*
X178666Y216052D01*
X185357Y222743D01*
X185357Y222743D01*
X185589Y223090D01*
X185671Y223500D01*
Y231057D01*
X186843Y232229D01*
X188995D01*
X189043Y231733D01*
X188941Y231709D01*
X189044Y231729D01*
Y231729D01*
X188803Y231682D01*
X188456Y231450D01*
X188224Y231102D01*
X188143Y230693D01*
X188224Y230283D01*
X188456Y229936D01*
X188649Y229743D01*
X188996Y229511D01*
X189406Y229429D01*
X193600D01*
X194010Y229511D01*
X194357Y229743D01*
X194589Y230090D01*
X194671Y230500D01*
X194589Y230910D01*
X194357Y231257D01*
X194010Y231489D01*
X193600Y231571D01*
X189821D01*
X189544Y231729D01*
X189677Y232229D01*
X192400D01*
X192810Y232311D01*
X193157Y232543D01*
X195357Y234743D01*
X195589Y235090D01*
X195671Y235500D01*
Y242274D01*
X195589Y242684D01*
X195357Y243031D01*
X195357Y243031D01*
X192780Y245608D01*
X192797Y245692D01*
X192674Y246311D01*
X192324Y246835D01*
X191800Y247185D01*
X191182Y247308D01*
D02*
G37*
G36*
X218600Y237011D02*
X218191Y236930D01*
X217941Y236763D01*
X202793D01*
X202383Y236682D01*
X202035Y236450D01*
X201803Y236102D01*
X201722Y235693D01*
X201803Y235283D01*
X202035Y234935D01*
X202383Y234703D01*
X202793Y234622D01*
X218352D01*
X218762Y234703D01*
X219109Y234935D01*
X219357Y235184D01*
X219589Y235531D01*
X219671Y235941D01*
X219589Y236350D01*
X219357Y236698D01*
X219010Y236930D01*
X218600Y237011D01*
D02*
G37*
G36*
X140462Y244870D02*
X140052Y244788D01*
X139705Y244556D01*
X139473Y244209D01*
X139391Y243799D01*
X139473Y243389D01*
X139529Y243305D01*
Y234500D01*
X139611Y234090D01*
X139843Y233743D01*
X140190Y233511D01*
X140600Y233429D01*
X141010Y233511D01*
X141357Y233743D01*
X141589Y234090D01*
X141671Y234500D01*
Y243661D01*
X141671Y243661D01*
X141589Y244071D01*
X141357Y244418D01*
X141219Y244556D01*
X140872Y244788D01*
X140462Y244870D01*
D02*
G37*
G36*
X56350Y240250D02*
X48850D01*
Y232750D01*
X56350D01*
Y240250D01*
D02*
G37*
G36*
X62600Y240282D02*
X61621Y240153D01*
X60709Y239775D01*
X59926Y239174D01*
X59325Y238391D01*
X58947Y237479D01*
X58818Y236500D01*
X58947Y235521D01*
X59325Y234609D01*
X59926Y233826D01*
X60709Y233225D01*
X61621Y232847D01*
X62600Y232718D01*
X63579Y232847D01*
X64491Y233225D01*
X65274Y233826D01*
X65875Y234609D01*
X66253Y235521D01*
X66382Y236500D01*
X66253Y237479D01*
X65875Y238391D01*
X65274Y239174D01*
X64491Y239775D01*
X63579Y240153D01*
X62600Y240282D01*
D02*
G37*
G36*
X293600Y235335D02*
X292898Y235196D01*
X292302Y234798D01*
X291904Y234202D01*
X291765Y233500D01*
X291904Y232798D01*
X292302Y232202D01*
X292898Y231804D01*
X293600Y231665D01*
X294302Y231804D01*
X294898Y232202D01*
X295296Y232798D01*
X295435Y233500D01*
X295296Y234202D01*
X294898Y234798D01*
X294302Y235196D01*
X293600Y235335D01*
D02*
G37*
G36*
X253600D02*
X252898Y235196D01*
X252302Y234798D01*
X251904Y234202D01*
X251765Y233500D01*
X251904Y232798D01*
X252302Y232202D01*
X252898Y231804D01*
X253600Y231665D01*
X254302Y231804D01*
X254898Y232202D01*
X255296Y232798D01*
X255435Y233500D01*
X255296Y234202D01*
X254898Y234798D01*
X254302Y235196D01*
X253600Y235335D01*
D02*
G37*
G36*
X301136Y242546D02*
X295554Y236965D01*
X301136Y231383D01*
X306717Y236965D01*
X301136Y242546D01*
D02*
G37*
G36*
X248600Y232335D02*
X247898Y232196D01*
X247302Y231798D01*
X246904Y231202D01*
X246765Y230500D01*
X246904Y229798D01*
X247302Y229202D01*
X247898Y228804D01*
X248600Y228665D01*
X249302Y228804D01*
X249898Y229202D01*
X250296Y229798D01*
X250435Y230500D01*
X250296Y231202D01*
X249898Y231798D01*
X249302Y232196D01*
X248600Y232335D01*
D02*
G37*
G36*
X270236Y234738D02*
X265886D01*
Y227338D01*
X265500Y227021D01*
X265100Y227100D01*
X260818D01*
Y230791D01*
X260620Y231786D01*
X260393Y232127D01*
Y234738D01*
X256043D01*
Y232127D01*
X255816Y231786D01*
X255618Y230791D01*
Y223382D01*
X255816Y222387D01*
X256380Y221544D01*
X257762Y220162D01*
X257825Y220119D01*
X258513Y219431D01*
X259442D01*
X259600Y219400D01*
X259758Y219431D01*
X260687D01*
X261375Y220119D01*
X261438Y220162D01*
X261481Y220225D01*
X261775Y220519D01*
Y220665D01*
X262002Y221005D01*
X262180Y221900D01*
X265100D01*
X266095Y222098D01*
X266435Y222325D01*
X267669D01*
X268065Y222076D01*
Y216479D01*
X259868Y208282D01*
X259600Y208335D01*
X258898Y208196D01*
X258302Y207798D01*
X257904Y207202D01*
X257765Y206500D01*
X257904Y205798D01*
X258302Y205202D01*
X258898Y204804D01*
X259600Y204665D01*
X260302Y204804D01*
X260898Y205202D01*
X261296Y205798D01*
X261435Y206500D01*
X261382Y206768D01*
X269893Y215279D01*
X270125Y215626D01*
X270206Y216036D01*
X270206Y216036D01*
Y226845D01*
X270236D01*
Y234738D01*
D02*
G37*
G36*
X301600Y226335D02*
X300898Y226196D01*
X300302Y225798D01*
X299904Y225202D01*
X299765Y224500D01*
X299824Y224201D01*
X299374Y223901D01*
X299285Y223960D01*
X298680Y224080D01*
X296669D01*
Y224675D01*
X291531D01*
Y220325D01*
X296669D01*
Y220920D01*
X298026D01*
X305351Y213595D01*
Y210100D01*
X313251D01*
Y213660D01*
X308531D01*
Y214229D01*
X308411Y214834D01*
X308068Y215347D01*
X301176Y222239D01*
X301423Y222700D01*
X301600Y222665D01*
X302302Y222804D01*
X302898Y223202D01*
X303296Y223798D01*
X303435Y224500D01*
X303296Y225202D01*
X302898Y225798D01*
X302302Y226196D01*
X301600Y226335D01*
D02*
G37*
G36*
X201600Y215335D02*
X200898Y215196D01*
X200302Y214798D01*
X199904Y214202D01*
X199765Y213500D01*
X199904Y212798D01*
X200302Y212202D01*
X200898Y211804D01*
X201600Y211665D01*
X202302Y211804D01*
X202898Y212202D01*
X203296Y212798D01*
X203435Y213500D01*
X203296Y214202D01*
X202898Y214798D01*
X202302Y215196D01*
X201600Y215335D01*
D02*
G37*
G36*
X240546Y216947D02*
X232654D01*
Y209053D01*
X240546D01*
Y216947D01*
D02*
G37*
G36*
X226600Y216981D02*
X225570Y216845D01*
X224610Y216447D01*
X223785Y215815D01*
X223153Y214990D01*
X222755Y214030D01*
X222620Y213000D01*
X222755Y211970D01*
X223153Y211010D01*
X223785Y210185D01*
X224610Y209553D01*
X225570Y209155D01*
X226600Y209019D01*
X227630Y209155D01*
X228590Y209553D01*
X229415Y210185D01*
X230047Y211010D01*
X230445Y211970D01*
X230580Y213000D01*
X230445Y214030D01*
X230047Y214990D01*
X229415Y215815D01*
X228590Y216447D01*
X227630Y216845D01*
X226600Y216981D01*
D02*
G37*
G36*
X217600Y210571D02*
X217190Y210489D01*
X216843Y210257D01*
X216157Y209571D01*
X210600D01*
X210190Y209489D01*
X209843Y209257D01*
X209611Y208910D01*
X209529Y208500D01*
X209611Y208090D01*
X209843Y207743D01*
X210190Y207511D01*
X210600Y207429D01*
X216600D01*
X217010Y207511D01*
X217357Y207743D01*
X218357Y208743D01*
X218589Y209090D01*
X218671Y209500D01*
X218589Y209910D01*
X218357Y210257D01*
X218010Y210489D01*
X217600Y210571D01*
D02*
G37*
G36*
X319600Y208030D02*
X309301D01*
X308891Y207949D01*
X308544Y207716D01*
X308312Y207369D01*
X308230Y206960D01*
X308312Y206550D01*
X308544Y206203D01*
X308891Y205970D01*
X309301Y205889D01*
X319600D01*
X320010Y205970D01*
X320357Y206203D01*
X320589Y206550D01*
X320671Y206960D01*
X320589Y207369D01*
X320357Y207716D01*
X320010Y207949D01*
X319600Y208030D01*
D02*
G37*
G36*
X242600Y208335D02*
X241898Y208196D01*
X241302Y207798D01*
X241150Y207571D01*
X240782D01*
X240372Y207489D01*
X240025Y207257D01*
X240025Y207257D01*
X233815Y201047D01*
X233341Y201155D01*
X233283Y201222D01*
X232898Y201798D01*
X232302Y202196D01*
X231600Y202335D01*
X230898Y202196D01*
X230302Y201798D01*
X229904Y201202D01*
X229765Y200500D01*
X229904Y199798D01*
X230302Y199202D01*
X230898Y198804D01*
X231600Y198665D01*
X232029Y198750D01*
X232529Y198401D01*
Y193750D01*
X232611Y193340D01*
X232843Y192993D01*
X237350Y188486D01*
Y185150D01*
X242350D01*
Y189850D01*
X239014D01*
X234671Y194193D01*
Y198875D01*
X241025Y205229D01*
X241302Y205202D01*
X241898Y204804D01*
X242600Y204665D01*
X243302Y204804D01*
X243898Y205202D01*
X244296Y205798D01*
X244435Y206500D01*
X244296Y207202D01*
X243898Y207798D01*
X243302Y208196D01*
X242600Y208335D01*
D02*
G37*
G36*
X294600Y218335D02*
X293898Y218196D01*
X293302Y217798D01*
X292904Y217202D01*
X292765Y216500D01*
X292904Y215798D01*
X293302Y215202D01*
X293898Y214804D01*
X294600Y214665D01*
X294868Y214718D01*
X298529Y211057D01*
Y209569D01*
X297425D01*
Y204432D01*
X301775D01*
Y209569D01*
X300671D01*
Y211500D01*
X300671Y211500D01*
X300589Y211910D01*
X300357Y212257D01*
X296382Y216232D01*
X296435Y216500D01*
X296296Y217202D01*
X295898Y217798D01*
X295302Y218196D01*
X294600Y218335D01*
D02*
G37*
G36*
X275157Y234738D02*
X270807D01*
Y226845D01*
X272082D01*
X272289Y226345D01*
X271532Y225587D01*
Y223413D01*
X272619Y222325D01*
X275581D01*
X276175Y222920D01*
X278871D01*
X279037Y222792D01*
X279791Y222480D01*
X280600Y222373D01*
X281409Y222480D01*
X281433Y222490D01*
X283261Y220661D01*
X283325Y220619D01*
X283619Y220325D01*
X283765D01*
X284105Y220098D01*
X285100Y219900D01*
X286095Y220098D01*
X286435Y220325D01*
X286581D01*
X286875Y220619D01*
X286939Y220661D01*
X286981Y220725D01*
X287668Y221413D01*
Y222342D01*
X287700Y222500D01*
X287668Y222658D01*
Y223587D01*
X286981Y224275D01*
X286939Y224339D01*
X283939Y227339D01*
X283095Y227902D01*
X282375Y228045D01*
X282163Y228208D01*
X281409Y228520D01*
X280600Y228627D01*
X279791Y228520D01*
X279037Y228208D01*
X278389Y227711D01*
X277892Y227063D01*
X277580Y226309D01*
X277550Y226080D01*
X276175D01*
X275585Y226671D01*
X275581Y226675D01*
X275157Y226858D01*
X275157Y227175D01*
Y229721D01*
X283865D01*
X288529Y225057D01*
Y218943D01*
X285157Y215571D01*
X274600D01*
X274190Y215489D01*
X273843Y215257D01*
X270843Y212257D01*
X270611Y211910D01*
X270529Y211500D01*
Y206949D01*
X270302Y206798D01*
X269904Y206202D01*
X269765Y205500D01*
X269904Y204798D01*
X270302Y204202D01*
X270898Y203804D01*
X271600Y203665D01*
X272302Y203804D01*
X272898Y204202D01*
X273296Y204798D01*
X273435Y205500D01*
X273296Y206202D01*
X272898Y206798D01*
X272671Y206949D01*
Y211057D01*
X275043Y213429D01*
X285600D01*
X286010Y213511D01*
X286357Y213743D01*
X290357Y217743D01*
X290357Y217743D01*
X290589Y218090D01*
X290671Y218500D01*
Y225500D01*
X290589Y225910D01*
X290357Y226257D01*
X285066Y231549D01*
X284718Y231781D01*
X284309Y231862D01*
X275157D01*
Y234738D01*
D02*
G37*
G36*
X317060Y203875D02*
X316358Y203735D01*
X315763Y203337D01*
X315611Y203110D01*
X313251D01*
Y203819D01*
X305351D01*
Y200259D01*
X313251D01*
Y200969D01*
X315611D01*
X315763Y200742D01*
X316358Y200344D01*
X317060Y200204D01*
X317763Y200344D01*
X318358Y200742D01*
X318756Y201337D01*
X318896Y202040D01*
X318756Y202742D01*
X318358Y203337D01*
X317763Y203735D01*
X317060Y203875D01*
D02*
G37*
G36*
X195600Y214335D02*
X194898Y214196D01*
X194302Y213798D01*
X193904Y213202D01*
X193765Y212500D01*
X193904Y211798D01*
X194302Y211202D01*
X194898Y210804D01*
X195600Y210665D01*
X195868Y210718D01*
X203843Y202743D01*
X204190Y202511D01*
X204600Y202429D01*
X205827D01*
X205970Y202216D01*
X206559Y201822D01*
X207254Y201684D01*
X213947D01*
X214641Y201822D01*
X215230Y202216D01*
X215624Y202805D01*
X215762Y203500D01*
X215624Y204195D01*
X215230Y204784D01*
X214641Y205178D01*
X213947Y205316D01*
X207254D01*
X206559Y205178D01*
X205970Y204784D01*
X205827Y204571D01*
X205043D01*
X197382Y212232D01*
X197435Y212500D01*
X197296Y213202D01*
X196898Y213798D01*
X196302Y214196D01*
X195600Y214335D01*
D02*
G37*
G36*
X291600Y211335D02*
X290898Y211195D01*
X290302Y210798D01*
X289904Y210202D01*
X289765Y209500D01*
X289904Y208798D01*
X290302Y208202D01*
X290529Y208050D01*
Y203450D01*
X289250D01*
Y198450D01*
X293950D01*
Y203450D01*
X292671D01*
Y208050D01*
X292898Y208202D01*
X293296Y208798D01*
X293435Y209500D01*
X293296Y210202D01*
X292898Y210798D01*
X292302Y211195D01*
X291600Y211335D01*
D02*
G37*
G36*
X283600D02*
X282898Y211195D01*
X282302Y210798D01*
X281904Y210202D01*
X281765Y209500D01*
X281904Y208798D01*
X282302Y208202D01*
X282529Y208050D01*
Y203450D01*
X281250D01*
Y198450D01*
X285950D01*
Y203450D01*
X284671D01*
Y208050D01*
X284898Y208202D01*
X285296Y208798D01*
X285435Y209500D01*
X285296Y210202D01*
X284898Y210798D01*
X284302Y211195D01*
X283600Y211335D01*
D02*
G37*
G36*
X275600Y211335D02*
X274898Y211196D01*
X274302Y210798D01*
X273904Y210202D01*
X273765Y209500D01*
X273904Y208798D01*
X274302Y208202D01*
X274529Y208050D01*
Y203450D01*
X273250D01*
Y198450D01*
X277950D01*
Y203450D01*
X276671D01*
Y208050D01*
X276898Y208202D01*
X277296Y208798D01*
X277435Y209500D01*
X277296Y210202D01*
X276898Y210798D01*
X276302Y211196D01*
X275600Y211335D01*
D02*
G37*
G36*
X267600Y211335D02*
X266898Y211196D01*
X266302Y210798D01*
X265904Y210202D01*
X265765Y209500D01*
X265904Y208798D01*
X266302Y208202D01*
X266529Y208050D01*
Y203450D01*
X265250D01*
Y198450D01*
X269950D01*
Y203450D01*
X268671D01*
Y208050D01*
X268898Y208202D01*
X269296Y208798D01*
X269435Y209500D01*
X269296Y210202D01*
X268898Y210798D01*
X268302Y211196D01*
X267600Y211335D01*
D02*
G37*
G36*
X195409Y201144D02*
X194707Y201005D01*
X194111Y200607D01*
X193713Y200011D01*
X193574Y199309D01*
X193713Y198607D01*
X194111Y198011D01*
X194707Y197614D01*
X195409Y197474D01*
X196111Y197614D01*
X196707Y198011D01*
X197105Y198607D01*
X197244Y199309D01*
X197105Y200011D01*
X196707Y200607D01*
X196111Y201005D01*
X195409Y201144D01*
D02*
G37*
G36*
X200600Y200335D02*
X199898Y200196D01*
X199302Y199798D01*
X198904Y199202D01*
X198765Y198500D01*
X198904Y197798D01*
X199302Y197202D01*
X199898Y196804D01*
X200600Y196665D01*
X201302Y196804D01*
X201898Y197202D01*
X202049Y197429D01*
X205827D01*
X205969Y197216D01*
X206559Y196822D01*
X207254Y196684D01*
X213946D01*
X214641Y196822D01*
X215230Y197216D01*
X215624Y197805D01*
X215762Y198500D01*
X215624Y199195D01*
X215230Y199784D01*
X214641Y200178D01*
X213946Y200316D01*
X207254D01*
X206559Y200178D01*
X205969Y199784D01*
X205827Y199571D01*
X202049D01*
X201898Y199798D01*
X201302Y200196D01*
X200600Y200335D01*
D02*
G37*
G36*
X300687Y200569D02*
X298513D01*
X297425Y199481D01*
Y196519D01*
X298513Y195431D01*
X300687D01*
X301305Y196049D01*
X305351D01*
Y195340D01*
X313251D01*
Y198899D01*
X305351D01*
Y198190D01*
X301775D01*
Y199481D01*
X300687Y200569D01*
D02*
G37*
G36*
X248600Y211335D02*
X247898Y211196D01*
X247302Y210798D01*
X246904Y210202D01*
X246765Y209500D01*
X246904Y208798D01*
X247302Y208202D01*
X247233Y207647D01*
X239093Y199507D01*
X238861Y199160D01*
X238779Y198750D01*
Y197850D01*
X237350D01*
Y193150D01*
X242350D01*
Y197850D01*
X241025D01*
X240964Y198350D01*
X249357Y206743D01*
X249589Y207090D01*
X249671Y207500D01*
Y208050D01*
X249898Y208202D01*
X250296Y208798D01*
X250435Y209500D01*
X250296Y210202D01*
X249898Y210798D01*
X249302Y211196D01*
X248600Y211335D01*
D02*
G37*
G36*
X213946Y195316D02*
X207254D01*
X206559Y195178D01*
X205969Y194784D01*
X205576Y194195D01*
X205438Y193500D01*
X205488Y193248D01*
X194843Y182604D01*
X194611Y182256D01*
X194529Y181846D01*
Y171950D01*
X194302Y171798D01*
X193904Y171202D01*
X193765Y170500D01*
X193904Y169798D01*
X194302Y169202D01*
X194898Y168804D01*
X195600Y168665D01*
X196302Y168804D01*
X196898Y169202D01*
X197296Y169798D01*
X197435Y170500D01*
X197296Y171202D01*
X196898Y171798D01*
X196671Y171950D01*
Y174248D01*
X197171Y174399D01*
X197302Y174202D01*
X197898Y173804D01*
X198600Y173665D01*
X199302Y173804D01*
X199898Y174202D01*
X200296Y174798D01*
X200435Y175500D01*
X200296Y176202D01*
X199898Y176798D01*
X199879Y176989D01*
X205320Y182429D01*
X205827D01*
X205969Y182216D01*
X206559Y181822D01*
X207254Y181684D01*
X213946D01*
X214641Y181822D01*
X215230Y182216D01*
X215624Y182805D01*
X215762Y183500D01*
X215624Y184195D01*
X215230Y184784D01*
X214641Y185178D01*
X213946Y185316D01*
X207254D01*
X206559Y185178D01*
X205969Y184784D01*
X205827Y184571D01*
X204876D01*
X204466Y184489D01*
X204119Y184257D01*
X204119Y184257D01*
X197843Y177981D01*
X197611Y177634D01*
X197529Y177224D01*
Y176950D01*
X197302Y176798D01*
X197171Y176601D01*
X196671Y176752D01*
Y181403D01*
X207002Y191734D01*
X207254Y191684D01*
X213946D01*
X214641Y191822D01*
X215230Y192216D01*
X215624Y192805D01*
X215762Y193500D01*
X215624Y194195D01*
X215230Y194784D01*
X214641Y195178D01*
X213946Y195316D01*
D02*
G37*
G36*
X45074Y217974D02*
X37874D01*
Y210774D01*
X43649D01*
X48761Y205662D01*
X49605Y205098D01*
X50600Y204900D01*
X71845D01*
X84046Y192699D01*
X84889Y192136D01*
X84954Y192123D01*
Y191576D01*
X88122D01*
Y192529D01*
X88376Y192699D01*
X88940Y193543D01*
X89138Y194538D01*
X88940Y195533D01*
X88376Y196376D01*
X88122Y196546D01*
Y197500D01*
X86599D01*
X74761Y209338D01*
X73917Y209902D01*
X72922Y210100D01*
X51677D01*
X45564Y216212D01*
X45074Y216540D01*
Y217974D01*
D02*
G37*
G36*
X41474Y210131D02*
X40534Y210007D01*
X39658Y209645D01*
X38906Y209068D01*
X38329Y208315D01*
X37967Y207440D01*
X37843Y206500D01*
X37967Y205560D01*
X38329Y204684D01*
X38906Y203932D01*
X39658Y203355D01*
X40357Y203066D01*
X43762Y199662D01*
X44605Y199098D01*
X45600Y198900D01*
X64068D01*
X70269Y192699D01*
X71112Y192136D01*
X71176Y192123D01*
Y191576D01*
X74345D01*
Y193297D01*
X74509Y193543D01*
X74707Y194538D01*
X74509Y195533D01*
X74345Y195779D01*
Y197500D01*
X72822D01*
X66983Y203338D01*
X66140Y203902D01*
X65145Y204100D01*
X46677D01*
X45009Y205768D01*
X45105Y206500D01*
X44981Y207440D01*
X44619Y208315D01*
X44042Y209068D01*
X43290Y209645D01*
X42414Y210007D01*
X41474Y210131D01*
D02*
G37*
G36*
X33600D02*
X32660Y210007D01*
X31784Y209645D01*
X31032Y209068D01*
X30455Y208315D01*
X30093Y207440D01*
X29969Y206500D01*
X30093Y205560D01*
X30455Y204684D01*
X31032Y203932D01*
X31383Y203664D01*
Y201117D01*
X31581Y200122D01*
X32144Y199279D01*
X38724Y192699D01*
X39567Y192136D01*
X40562Y191938D01*
X57399D01*
Y191576D01*
X60568D01*
Y194376D01*
X60600Y194538D01*
X60568Y194700D01*
Y197500D01*
X57399D01*
Y197138D01*
X41639D01*
X36583Y202194D01*
Y204473D01*
X36745Y204684D01*
X37107Y205560D01*
X37231Y206500D01*
X37107Y207440D01*
X36745Y208315D01*
X36167Y209068D01*
X35416Y209645D01*
X34540Y210007D01*
X33600Y210131D01*
D02*
G37*
G36*
X229600Y192335D02*
X228898Y192196D01*
X228302Y191798D01*
X228151Y191571D01*
X215947D01*
X215947Y191571D01*
X215537Y191489D01*
X215189Y191257D01*
X214198Y190266D01*
X213947Y190316D01*
X207254D01*
X206559Y190178D01*
X205970Y189784D01*
X205576Y189195D01*
X205438Y188500D01*
X205576Y187805D01*
X205970Y187216D01*
X206559Y186822D01*
X207254Y186684D01*
X213947D01*
X214641Y186822D01*
X215230Y187216D01*
X215624Y187805D01*
X215762Y188500D01*
X215712Y188752D01*
X216390Y189429D01*
X228151D01*
X228302Y189202D01*
X228898Y188804D01*
X229600Y188665D01*
X230302Y188804D01*
X230898Y189202D01*
X231296Y189798D01*
X231435Y190500D01*
X231296Y191202D01*
X230898Y191798D01*
X230302Y192196D01*
X229600Y192335D01*
D02*
G37*
G36*
X232600Y185335D02*
X231898Y185196D01*
X231302Y184798D01*
X231151Y184571D01*
X218947D01*
X218947Y184571D01*
X218537Y184489D01*
X218189Y184257D01*
X214198Y180266D01*
X213947Y180316D01*
X207254D01*
X206559Y180178D01*
X205970Y179784D01*
X205576Y179195D01*
X205438Y178500D01*
X205576Y177805D01*
X205970Y177216D01*
X206559Y176822D01*
X207254Y176684D01*
X213947D01*
X214641Y176822D01*
X215230Y177216D01*
X215624Y177805D01*
X215762Y178500D01*
X215712Y178752D01*
X219390Y182429D01*
X223348D01*
X223499Y181929D01*
X223302Y181798D01*
X222904Y181202D01*
X222765Y180500D01*
X222904Y179798D01*
X223302Y179202D01*
X223898Y178804D01*
X224600Y178665D01*
X225302Y178804D01*
X225898Y179202D01*
X226049Y179429D01*
X237350D01*
Y177592D01*
X242350D01*
Y182292D01*
X237350D01*
Y181571D01*
X233852D01*
X233701Y182071D01*
X233898Y182202D01*
X234296Y182798D01*
X234435Y183500D01*
X234296Y184202D01*
X233898Y184798D01*
X233302Y185196D01*
X232600Y185335D01*
D02*
G37*
G36*
X33600Y190636D02*
X32660Y190513D01*
X31784Y190150D01*
X31032Y189573D01*
X30455Y188821D01*
X30093Y187945D01*
X29969Y187005D01*
X30093Y186065D01*
X30455Y185190D01*
X31032Y184438D01*
X31784Y183861D01*
X32660Y183498D01*
X33600Y183374D01*
X34540Y183498D01*
X35416Y183861D01*
X36167Y184438D01*
X36745Y185190D01*
X37107Y186065D01*
X37231Y187005D01*
X37107Y187945D01*
X36745Y188821D01*
X36167Y189573D01*
X35416Y190150D01*
X34540Y190513D01*
X33600Y190636D01*
D02*
G37*
G36*
X84382Y188500D02*
X81213D01*
Y182576D01*
X84382D01*
Y183034D01*
X84782Y183386D01*
X85207Y183346D01*
X85302Y183202D01*
X85898Y182804D01*
X86600Y182665D01*
X87302Y182804D01*
X87898Y183202D01*
X88296Y183798D01*
X88435Y184500D01*
X88296Y185202D01*
X87898Y185798D01*
X87302Y186196D01*
X86600Y186335D01*
X85898Y186196D01*
X85302Y185798D01*
X84976Y185766D01*
X84485Y186257D01*
X84382Y186326D01*
Y188500D01*
D02*
G37*
G36*
X213946Y175316D02*
X207254D01*
X206559Y175178D01*
X205969Y174784D01*
X205827Y174571D01*
X202600D01*
X202190Y174489D01*
X201843Y174257D01*
X201843Y174257D01*
X200843Y173257D01*
X200611Y172910D01*
X200529Y172500D01*
Y171950D01*
X200302Y171798D01*
X199904Y171202D01*
X199765Y170500D01*
X199904Y169798D01*
X200302Y169202D01*
X200898Y168804D01*
X201600Y168665D01*
X202302Y168804D01*
X202898Y169202D01*
X203296Y169798D01*
X203435Y170500D01*
X203296Y171202D01*
X202898Y171798D01*
X202967Y172353D01*
X203043Y172429D01*
X205827D01*
X205969Y172216D01*
X206559Y171822D01*
X207254Y171684D01*
X213946D01*
X214641Y171822D01*
X215230Y172216D01*
X215624Y172805D01*
X215762Y173500D01*
X215624Y174195D01*
X215230Y174784D01*
X214641Y175178D01*
X213946Y175316D01*
D02*
G37*
G36*
X232600Y177335D02*
X231898Y177196D01*
X231302Y176798D01*
X231151Y176571D01*
X220946D01*
X220537Y176489D01*
X220189Y176257D01*
X220189Y176257D01*
X214198Y170266D01*
X213946Y170316D01*
X207254D01*
X206559Y170178D01*
X205969Y169784D01*
X205576Y169195D01*
X205438Y168500D01*
X205576Y167805D01*
X205969Y167216D01*
X206559Y166822D01*
X207254Y166684D01*
X213946D01*
X214641Y166822D01*
X215230Y167216D01*
X215624Y167805D01*
X215762Y168500D01*
X215712Y168752D01*
X221390Y174429D01*
X223348D01*
X223499Y173929D01*
X223302Y173798D01*
X222904Y173202D01*
X222765Y172500D01*
X222904Y171798D01*
X223302Y171202D01*
X223898Y170804D01*
X224600Y170665D01*
X225302Y170804D01*
X225898Y171202D01*
X226049Y171429D01*
X237350D01*
Y169904D01*
X242350D01*
Y174604D01*
X237350D01*
Y173571D01*
X233852D01*
X233701Y174071D01*
X233898Y174202D01*
X234296Y174798D01*
X234435Y175500D01*
X234296Y176202D01*
X233898Y176798D01*
X233302Y177196D01*
X232600Y177335D01*
D02*
G37*
G36*
X242350Y167015D02*
X237350D01*
Y166021D01*
X237074Y165884D01*
X236850Y165830D01*
X236302Y166196D01*
X235600Y166335D01*
X234898Y166196D01*
X234302Y165798D01*
X233904Y165202D01*
X233765Y164500D01*
X233904Y163798D01*
X234302Y163202D01*
X234898Y162804D01*
X235600Y162665D01*
X236302Y162804D01*
X236850Y163170D01*
X237074Y163116D01*
X237350Y162979D01*
Y162315D01*
X242350D01*
Y167015D01*
D02*
G37*
G36*
X45074Y190605D02*
X37874D01*
Y183405D01*
X43685D01*
X48762Y178328D01*
X49605Y177765D01*
X50600Y177567D01*
X71845D01*
X84046Y165366D01*
X84889Y164802D01*
X84954Y164790D01*
Y164242D01*
X88122D01*
Y165196D01*
X88376Y165366D01*
X88940Y166209D01*
X89138Y167204D01*
X88940Y168199D01*
X88376Y169043D01*
X88122Y169213D01*
Y170167D01*
X86599D01*
X74761Y182005D01*
X73917Y182569D01*
X73865Y182579D01*
X73760Y183110D01*
X73898Y183202D01*
X74296Y183798D01*
X74435Y184500D01*
X74296Y185202D01*
X73898Y185798D01*
X73302Y186196D01*
X72600Y186335D01*
X71898Y186196D01*
X71302Y185798D01*
X70976Y185766D01*
X70605Y186137D01*
Y188500D01*
X67436D01*
Y182767D01*
X60146D01*
X60014Y182998D01*
X59941Y183267D01*
X60296Y183798D01*
X60435Y184500D01*
X60296Y185202D01*
X59898Y185798D01*
X59302Y186196D01*
X58600Y186335D01*
X57898Y186196D01*
X57302Y185798D01*
X57247Y185792D01*
X56828Y186142D01*
Y188500D01*
X53659D01*
Y182767D01*
X51677D01*
X45564Y188879D01*
X45074Y189207D01*
Y190605D01*
D02*
G37*
G36*
X41474Y182762D02*
X40534Y182639D01*
X39658Y182276D01*
X38906Y181699D01*
X38329Y180947D01*
X37967Y180071D01*
X37843Y179131D01*
X37967Y178191D01*
X38329Y177316D01*
X38906Y176564D01*
X39658Y175987D01*
X40418Y175672D01*
X43762Y172328D01*
X44605Y171765D01*
X45600Y171567D01*
X64068D01*
X70269Y165366D01*
X71112Y164802D01*
X71176Y164790D01*
Y164242D01*
X74345D01*
Y165964D01*
X74509Y166209D01*
X74707Y167204D01*
X74509Y168199D01*
X74345Y168445D01*
Y170167D01*
X72822D01*
X66983Y176005D01*
X66140Y176569D01*
X65145Y176767D01*
X46677D01*
X45013Y178431D01*
X45105Y179131D01*
X44981Y180071D01*
X44619Y180947D01*
X44042Y181699D01*
X43290Y182276D01*
X42414Y182639D01*
X41474Y182762D01*
D02*
G37*
G36*
X33600D02*
X32660Y182639D01*
X31784Y182276D01*
X31032Y181699D01*
X30455Y180947D01*
X30093Y180071D01*
X29969Y179131D01*
X30093Y178191D01*
X30455Y177316D01*
X31032Y176564D01*
X31383Y176295D01*
Y173784D01*
X31581Y172789D01*
X32144Y171946D01*
X38724Y165366D01*
X39567Y164802D01*
X40562Y164604D01*
X57399D01*
Y164242D01*
X60568D01*
Y170167D01*
X57399D01*
Y169804D01*
X41639D01*
X36583Y174861D01*
Y177105D01*
X36745Y177316D01*
X37107Y178191D01*
X37231Y179131D01*
X37107Y180071D01*
X36745Y180947D01*
X36167Y181699D01*
X35416Y182276D01*
X34540Y182639D01*
X33600Y182762D01*
D02*
G37*
G36*
X230475Y167210D02*
X229773Y167071D01*
X229177Y166673D01*
X228779Y166077D01*
X228640Y165375D01*
X228779Y164673D01*
X229177Y164077D01*
X229773Y163679D01*
X230475Y163540D01*
X231177Y163679D01*
X231773Y164077D01*
X232171Y164673D01*
X232310Y165375D01*
X232171Y166077D01*
X231773Y166673D01*
X231177Y167071D01*
X230475Y167210D01*
D02*
G37*
G36*
X123600Y166335D02*
X122898Y166196D01*
X122302Y165798D01*
X121904Y165202D01*
X121765Y164500D01*
X121904Y163798D01*
X122302Y163202D01*
X122898Y162804D01*
X123600Y162665D01*
X124302Y162804D01*
X124898Y163202D01*
X125296Y163798D01*
X125435Y164500D01*
X125296Y165202D01*
X124898Y165798D01*
X124302Y166196D01*
X123600Y166335D01*
D02*
G37*
G36*
X183600Y165335D02*
X182898Y165196D01*
X182302Y164798D01*
X181904Y164202D01*
X181765Y163500D01*
X181904Y162798D01*
X182302Y162202D01*
X182898Y161804D01*
X183600Y161665D01*
X184302Y161804D01*
X184898Y162202D01*
X185296Y162798D01*
X185435Y163500D01*
X185296Y164202D01*
X184898Y164798D01*
X184302Y165196D01*
X183600Y165335D01*
D02*
G37*
G36*
X324600Y183335D02*
X323898Y183196D01*
X323302Y182798D01*
X322904Y182202D01*
X322765Y181500D01*
X322904Y180798D01*
X323302Y180202D01*
X323529Y180051D01*
Y176494D01*
X315886Y168850D01*
X312550D01*
Y164150D01*
X317550D01*
Y167486D01*
X325306Y175242D01*
X325537Y175228D01*
X325841Y175117D01*
X325904Y174798D01*
X326302Y174202D01*
X326529Y174050D01*
Y171394D01*
X316986Y161850D01*
X312550D01*
Y157150D01*
X317550D01*
Y159386D01*
X328357Y170193D01*
X328589Y170540D01*
X328671Y170950D01*
Y174050D01*
X328898Y174202D01*
X329296Y174798D01*
X329435Y175500D01*
X329296Y176202D01*
X328898Y176798D01*
X328302Y177196D01*
X327600Y177335D01*
X326898Y177196D01*
X326302Y176798D01*
X326171Y176601D01*
X325671Y176752D01*
Y180051D01*
X325898Y180202D01*
X326296Y180798D01*
X326435Y181500D01*
X326296Y182202D01*
X325898Y182798D01*
X325302Y183196D01*
X324600Y183335D01*
D02*
G37*
G36*
X33600Y163268D02*
X32660Y163144D01*
X31784Y162781D01*
X31032Y162204D01*
X30455Y161452D01*
X30093Y160576D01*
X29969Y159636D01*
X30093Y158697D01*
X30455Y157821D01*
X31032Y157069D01*
X31784Y156492D01*
X32660Y156129D01*
X33600Y156005D01*
X34540Y156129D01*
X35416Y156492D01*
X36167Y157069D01*
X36745Y157821D01*
X37107Y158697D01*
X37231Y159636D01*
X37107Y160576D01*
X36745Y161452D01*
X36167Y162204D01*
X35416Y162781D01*
X34540Y163144D01*
X33600Y163268D01*
D02*
G37*
G36*
X84382Y161167D02*
X81213D01*
Y155242D01*
X84382D01*
Y156429D01*
X85150D01*
X85302Y156202D01*
X85898Y155804D01*
X86600Y155665D01*
X87302Y155804D01*
X87898Y156202D01*
X88296Y156798D01*
X88435Y157500D01*
X88296Y158202D01*
X87898Y158798D01*
X87302Y159196D01*
X86600Y159335D01*
X85898Y159196D01*
X85302Y158798D01*
X85150Y158571D01*
X84382D01*
Y161167D01*
D02*
G37*
G36*
X119546Y155447D02*
X111654D01*
Y147554D01*
X119546D01*
Y155447D01*
D02*
G37*
G36*
X125600Y155481D02*
X124570Y155345D01*
X123610Y154947D01*
X122785Y154315D01*
X122153Y153490D01*
X121755Y152530D01*
X121619Y151500D01*
X121755Y150470D01*
X122153Y149510D01*
X122785Y148685D01*
X123610Y148053D01*
X124570Y147655D01*
X125600Y147520D01*
X126630Y147655D01*
X127590Y148053D01*
X128415Y148685D01*
X129047Y149510D01*
X129445Y150470D01*
X129580Y151500D01*
X129445Y152530D01*
X129047Y153490D01*
X128415Y154315D01*
X127590Y154947D01*
X126630Y155345D01*
X125600Y155481D01*
D02*
G37*
G36*
X204600Y144080D02*
X196600D01*
X195995Y143960D01*
X195483Y143617D01*
X191922Y140057D01*
X191579Y139544D01*
X191459Y138939D01*
X191579Y138335D01*
X191922Y137822D01*
X192435Y137479D01*
X193040Y137359D01*
X193644Y137479D01*
X194157Y137822D01*
X197255Y140920D01*
X204600D01*
X205205Y141040D01*
X205717Y141383D01*
X206060Y141895D01*
X206180Y142500D01*
X206060Y143105D01*
X205717Y143617D01*
X205205Y143960D01*
X204600Y144080D01*
D02*
G37*
G36*
X45074Y163236D02*
X37874D01*
Y156036D01*
X43720D01*
X48762Y150995D01*
X49605Y150431D01*
X50600Y150233D01*
X71845D01*
X84046Y138033D01*
X84889Y137469D01*
X84954Y137456D01*
Y136909D01*
X88122D01*
Y137863D01*
X88376Y138033D01*
X88940Y138876D01*
X89138Y139871D01*
X88940Y140866D01*
X88376Y141710D01*
X88122Y141879D01*
Y142833D01*
X86599D01*
X74761Y154672D01*
X73917Y155235D01*
X73428Y155333D01*
X73368Y155557D01*
X73375Y155853D01*
X73898Y156202D01*
X74296Y156798D01*
X74435Y157500D01*
X74296Y158202D01*
X73898Y158798D01*
X73302Y159196D01*
X72600Y159335D01*
X71898Y159196D01*
X71302Y158798D01*
X71150Y158571D01*
X70605D01*
Y161167D01*
X67436D01*
Y155433D01*
X59647D01*
X59495Y155933D01*
X59898Y156202D01*
X60296Y156798D01*
X60435Y157500D01*
X60296Y158202D01*
X59898Y158798D01*
X59302Y159196D01*
X58600Y159335D01*
X57898Y159196D01*
X57328Y158815D01*
X57186Y158844D01*
X56828Y158987D01*
Y161167D01*
X53659D01*
Y155433D01*
X51677D01*
X45564Y161546D01*
X45074Y161873D01*
Y163236D01*
D02*
G37*
G36*
X33600Y155394D02*
X32660Y155270D01*
X31784Y154907D01*
X31032Y154330D01*
X30455Y153578D01*
X30093Y152702D01*
X29969Y151762D01*
X30093Y150823D01*
X30455Y149947D01*
X31032Y149195D01*
X31383Y148926D01*
Y146451D01*
X31581Y145456D01*
X32144Y144612D01*
X38724Y138033D01*
X39567Y137469D01*
X40562Y137271D01*
X57399D01*
Y136909D01*
X60568D01*
Y142833D01*
X57399D01*
Y142471D01*
X41639D01*
X36583Y147528D01*
Y149736D01*
X36745Y149947D01*
X37107Y150823D01*
X37231Y151762D01*
X37107Y152702D01*
X36745Y153578D01*
X36167Y154330D01*
X35416Y154907D01*
X34540Y155270D01*
X33600Y155394D01*
D02*
G37*
G36*
X41474D02*
X40534Y155270D01*
X39658Y154907D01*
X38906Y154330D01*
X38329Y153578D01*
X37967Y152702D01*
X37843Y151762D01*
X37967Y150823D01*
X38329Y149947D01*
X38906Y149195D01*
X39658Y148618D01*
X40478Y148278D01*
X43762Y144995D01*
X44605Y144431D01*
X45600Y144233D01*
X64068D01*
X70269Y138033D01*
X71112Y137469D01*
X71176Y137456D01*
Y136909D01*
X74345D01*
Y138630D01*
X74509Y138876D01*
X74707Y139871D01*
X74509Y140866D01*
X74345Y141112D01*
Y142833D01*
X72822D01*
X66983Y148672D01*
X66140Y149235D01*
X65145Y149433D01*
X46677D01*
X45017Y151093D01*
X45105Y151762D01*
X44981Y152702D01*
X44619Y153578D01*
X44042Y154330D01*
X43290Y154907D01*
X42414Y155270D01*
X41474Y155394D01*
D02*
G37*
G36*
X204100Y137335D02*
X203398Y137196D01*
X202802Y136798D01*
X202404Y136202D01*
X202265Y135500D01*
X202404Y134798D01*
X202802Y134202D01*
X203398Y133804D01*
X204100Y133665D01*
X204802Y133804D01*
X205398Y134202D01*
X205796Y134798D01*
X205935Y135500D01*
X205796Y136202D01*
X205398Y136798D01*
X204802Y137196D01*
X204100Y137335D01*
D02*
G37*
G36*
X146541Y142940D02*
X143579D01*
X142491Y141852D01*
Y139678D01*
X143579Y138590D01*
X143989D01*
Y130089D01*
X142600D01*
X141042Y131647D01*
X140695Y131879D01*
X140285Y131961D01*
X139152D01*
X138901Y132337D01*
Y132990D01*
X138248D01*
X137796Y133292D01*
X136801Y133490D01*
X136801Y133490D01*
X131759D01*
X130156Y135094D01*
X129312Y135657D01*
X128317Y135855D01*
X126659D01*
Y135855D01*
X124632D01*
X124554Y135907D01*
X123559Y136105D01*
X122564Y135907D01*
X122486Y135855D01*
X120459D01*
Y135855D01*
X117355D01*
X116360Y135657D01*
X115517Y135094D01*
X112762Y132338D01*
X112198Y131495D01*
X112000Y130500D01*
Y112577D01*
X83523Y84100D01*
X59195D01*
Y90500D01*
X59021Y90921D01*
X56021Y93921D01*
X55600Y94095D01*
X47600D01*
X47179Y93921D01*
X42361Y89103D01*
X42310Y88980D01*
X42221Y88880D01*
X40211Y83187D01*
X40197Y83173D01*
Y83147D01*
X40039Y82698D01*
X40044Y82595D01*
X40005Y82500D01*
X40056Y82377D01*
X40063Y82243D01*
X40140Y82174D01*
X40179Y82079D01*
X40197Y82061D01*
Y81635D01*
X41735Y80097D01*
X42161D01*
X44179Y78079D01*
X44600Y77905D01*
X55600D01*
X56021Y78079D01*
X56968Y79026D01*
X57600Y78900D01*
X83523D01*
X110736Y51687D01*
X110580Y51309D01*
X110473Y50500D01*
X110580Y49691D01*
X110892Y48937D01*
X111000Y48796D01*
Y33500D01*
X111198Y32505D01*
X111762Y31661D01*
X114762Y28662D01*
X115605Y28098D01*
X116600Y27900D01*
X127600D01*
X127758Y27931D01*
X128655D01*
X138843Y17743D01*
X139190Y17511D01*
X139600Y17429D01*
X160600D01*
X161010Y17511D01*
X161357Y17743D01*
X168357Y24743D01*
X168357Y24743D01*
X168589Y25090D01*
X168671Y25500D01*
Y29596D01*
X169032Y29932D01*
X169171Y29932D01*
X170529D01*
Y27950D01*
X170302Y27798D01*
X169904Y27202D01*
X169765Y26500D01*
X169904Y25798D01*
X170302Y25202D01*
X170898Y24804D01*
X171600Y24665D01*
X172302Y24804D01*
X172898Y25202D01*
X173296Y25798D01*
X173435Y26500D01*
X173296Y27202D01*
X172898Y27798D01*
X172671Y27950D01*
Y29932D01*
X174169D01*
Y35069D01*
X169697D01*
X169490Y35568D01*
X170545Y36625D01*
X174169D01*
Y41761D01*
X169032D01*
Y38138D01*
X166843Y35950D01*
X166611Y35603D01*
X166529Y35193D01*
Y25943D01*
X160157Y19571D01*
X140043D01*
X130020Y29594D01*
X130200Y30500D01*
X130002Y31495D01*
X129578Y32130D01*
Y33068D01*
X129066D01*
Y37498D01*
X129578D01*
Y40400D01*
X134097Y44920D01*
X143100D01*
X143705Y45040D01*
X144218Y45382D01*
X150873Y52038D01*
X153184D01*
Y57962D01*
X150016D01*
Y55651D01*
X142445Y48080D01*
X134969D01*
X134762Y48580D01*
X138219Y52038D01*
X139184D01*
Y57962D01*
X136016D01*
Y54304D01*
X132792Y51080D01*
X129600D01*
X128995Y50960D01*
X128482Y50617D01*
X123002Y45137D01*
X122660Y44624D01*
X122539Y44019D01*
Y42635D01*
X121861D01*
Y42636D01*
X121464D01*
Y44635D01*
X124717Y47889D01*
X125060Y48401D01*
X125180Y49006D01*
Y52038D01*
X125184D01*
Y57962D01*
X122016D01*
Y52038D01*
X122020D01*
Y49661D01*
X118766Y46407D01*
X118423Y45894D01*
X118303Y45289D01*
Y42636D01*
X117905D01*
Y37499D01*
X118417D01*
Y33100D01*
X117677D01*
X116200Y34577D01*
Y48796D01*
X116308Y48937D01*
X116620Y49691D01*
X116727Y50500D01*
X116620Y51309D01*
X116308Y52063D01*
X116200Y52204D01*
Y52500D01*
X116002Y53495D01*
X115438Y54339D01*
X88277Y81500D01*
X116438Y109662D01*
X117002Y110505D01*
X117200Y111500D01*
Y129423D01*
X118432Y130655D01*
X123309D01*
X123559Y130705D01*
X123809Y130655D01*
X127240D01*
X128583Y129313D01*
Y128790D01*
X129235D01*
X129688Y128488D01*
X130683Y128290D01*
X136801D01*
X137796Y128488D01*
X138248Y128790D01*
X138901D01*
Y129443D01*
X139152Y129820D01*
X139841D01*
X141086Y128575D01*
Y126921D01*
X145496D01*
X148529Y123887D01*
Y116799D01*
X144846Y113115D01*
X141510D01*
Y108415D01*
X146510D01*
Y111751D01*
X150357Y115598D01*
X150589Y115945D01*
X150671Y116355D01*
X150671Y116355D01*
Y124331D01*
X150671Y124331D01*
X150589Y124741D01*
X150357Y125088D01*
X147010Y128435D01*
Y130089D01*
X146130D01*
Y138590D01*
X146541D01*
X147628Y139678D01*
Y141852D01*
X146541Y142940D01*
D02*
G37*
G36*
X84382Y133833D02*
X81213D01*
Y127909D01*
X84382D01*
Y129429D01*
X85150D01*
X85302Y129202D01*
X85898Y128804D01*
X86600Y128665D01*
X87302Y128804D01*
X87898Y129202D01*
X88296Y129798D01*
X88435Y130500D01*
X88296Y131202D01*
X87898Y131798D01*
X87302Y132196D01*
X86600Y132335D01*
X85898Y132196D01*
X85302Y131798D01*
X85150Y131571D01*
X84382D01*
Y133833D01*
D02*
G37*
G36*
X45074Y135868D02*
X37874D01*
Y128668D01*
X43755D01*
X48761Y123662D01*
X49605Y123098D01*
X50600Y122900D01*
X71845D01*
X84046Y110699D01*
X84889Y110136D01*
X84954Y110123D01*
Y109576D01*
X88122D01*
Y111297D01*
X88287Y111543D01*
X88484Y112538D01*
X88287Y113533D01*
X88122Y113779D01*
Y115500D01*
X86599D01*
X74761Y127339D01*
X73917Y127902D01*
X72922Y128100D01*
X70605D01*
Y129429D01*
X71150D01*
X71302Y129202D01*
X71898Y128804D01*
X72600Y128665D01*
X73302Y128804D01*
X73898Y129202D01*
X74296Y129798D01*
X74435Y130500D01*
X74296Y131202D01*
X73898Y131798D01*
X73302Y132196D01*
X72600Y132335D01*
X71898Y132196D01*
X71302Y131798D01*
X71150Y131571D01*
X70605D01*
Y133833D01*
X67436D01*
Y128100D01*
X56828D01*
Y129013D01*
X57186Y129156D01*
X57328Y129185D01*
X57898Y128804D01*
X58600Y128665D01*
X59302Y128804D01*
X59898Y129202D01*
X60296Y129798D01*
X60435Y130500D01*
X60296Y131202D01*
X59898Y131798D01*
X59302Y132196D01*
X58600Y132335D01*
X57898Y132196D01*
X57328Y131815D01*
X57186Y131844D01*
X56828Y131987D01*
Y133833D01*
X53659D01*
Y128100D01*
X51677D01*
X45564Y134212D01*
X45074Y134540D01*
Y135868D01*
D02*
G37*
G36*
X33600Y135899D02*
X32660Y135775D01*
X31784Y135412D01*
X31032Y134835D01*
X30455Y134083D01*
X30093Y133207D01*
X29969Y132268D01*
X30093Y131328D01*
X30455Y130452D01*
X31032Y129700D01*
X31784Y129123D01*
X32660Y128760D01*
X33600Y128637D01*
X34540Y128760D01*
X35416Y129123D01*
X36167Y129700D01*
X36745Y130452D01*
X37107Y131328D01*
X37231Y132268D01*
X37107Y133207D01*
X36745Y134083D01*
X36167Y134835D01*
X35416Y135412D01*
X34540Y135775D01*
X33600Y135899D01*
D02*
G37*
G36*
X298267Y133490D02*
X294731Y129954D01*
X298054Y126631D01*
X299377Y127953D01*
X299859Y127855D01*
X299914Y127783D01*
X300302Y127202D01*
X300898Y126804D01*
X301600Y126665D01*
X302302Y126804D01*
X302898Y127202D01*
X303296Y127798D01*
X303435Y128500D01*
X303296Y129202D01*
X302898Y129798D01*
X302302Y130196D01*
X301600Y130335D01*
X301451Y130306D01*
X298267Y133490D01*
D02*
G37*
G36*
X103600Y127335D02*
X102898Y127196D01*
X102302Y126798D01*
X101904Y126202D01*
X101765Y125500D01*
X101904Y124798D01*
X102302Y124202D01*
X102898Y123804D01*
X103600Y123665D01*
X104302Y123804D01*
X104898Y124202D01*
X105296Y124798D01*
X105435Y125500D01*
X105296Y126202D01*
X104898Y126798D01*
X104302Y127196D01*
X103600Y127335D01*
D02*
G37*
G36*
X211600Y137335D02*
X210898Y137196D01*
X210302Y136798D01*
X209904Y136202D01*
X209765Y135500D01*
X209904Y134798D01*
X210020Y134625D01*
Y131155D01*
X208777Y129912D01*
X208435Y129399D01*
X208314Y128795D01*
Y124159D01*
X207795D01*
Y123640D01*
X205877D01*
Y124159D01*
X201677D01*
Y123640D01*
X199159D01*
X198555Y123520D01*
X198042Y123177D01*
X196483Y121617D01*
X196140Y121105D01*
X196020Y120500D01*
Y104195D01*
X195389Y103711D01*
X194892Y103063D01*
X194580Y102309D01*
X194473Y101500D01*
X194580Y100691D01*
X194892Y99937D01*
X195389Y99289D01*
X196037Y98792D01*
X196791Y98480D01*
X197600Y98373D01*
X198409Y98480D01*
X199163Y98792D01*
X199811Y99289D01*
X200308Y99937D01*
X200620Y100691D01*
X200727Y101500D01*
X200620Y102309D01*
X200308Y103063D01*
X199811Y103711D01*
X199180Y104195D01*
Y119845D01*
X199814Y120479D01*
X201677D01*
Y119959D01*
X205877D01*
Y120479D01*
X207795D01*
Y119959D01*
X211995D01*
Y120199D01*
X214650D01*
Y119150D01*
X219650D01*
Y123850D01*
X214650D01*
Y123360D01*
X211995D01*
Y124159D01*
X211475D01*
Y128140D01*
X212718Y129383D01*
X213060Y129895D01*
X213180Y130500D01*
Y134625D01*
X213296Y134798D01*
X213435Y135500D01*
X213296Y136202D01*
X212898Y136798D01*
X212302Y137196D01*
X211600Y137335D01*
D02*
G37*
G36*
X277950Y129050D02*
X273250D01*
Y124050D01*
X273896D01*
Y120904D01*
X273602Y120798D01*
X273146Y121122D01*
X273089Y121410D01*
X272857Y121757D01*
X272510Y121989D01*
X272100Y122071D01*
X271690Y121989D01*
X271343Y121757D01*
X271157Y121571D01*
X265600D01*
Y121581D01*
X264673Y121459D01*
X263810Y121101D01*
X263068Y120532D01*
X262499Y119790D01*
X262141Y118927D01*
X262019Y118000D01*
X262029D01*
Y114027D01*
X262021Y113982D01*
X262029D01*
Y112723D01*
Y107000D01*
X262002D01*
X262193Y105551D01*
X262752Y104201D01*
X263642Y103042D01*
X264801Y102152D01*
X266151Y101593D01*
X267600Y101402D01*
Y101429D01*
X269850D01*
X270260Y101511D01*
X270607Y101743D01*
X270839Y102090D01*
X270921Y102500D01*
X271331Y103000D01*
X273500D01*
Y101225D01*
X271967D01*
Y96525D01*
X273500D01*
Y93725D01*
X272067D01*
Y89025D01*
X276767D01*
Y93725D01*
X275641D01*
Y96525D01*
X276967D01*
Y101225D01*
X275641D01*
Y103000D01*
X280193D01*
Y101225D01*
X278867D01*
Y96525D01*
X283867D01*
Y101225D01*
X282334D01*
Y102105D01*
X282834Y102257D01*
X282843Y102243D01*
X283190Y102011D01*
X283600Y101929D01*
Y101906D01*
X284918Y102080D01*
X286147Y102589D01*
X286581Y102922D01*
X287029Y102701D01*
Y96559D01*
X287111Y96150D01*
X287343Y95802D01*
X287690Y95570D01*
X288100Y95489D01*
X288509Y95570D01*
X288857Y95802D01*
X289089Y96150D01*
X289170Y96559D01*
Y105411D01*
X289182D01*
X289053Y106062D01*
X288684Y106614D01*
X288646Y106639D01*
X288694Y107000D01*
X288671D01*
Y109500D01*
Y112000D01*
Y114500D01*
Y117000D01*
X288694D01*
X288520Y118318D01*
X288011Y119547D01*
X287202Y120602D01*
X286147Y121411D01*
X284918Y121920D01*
X283600Y122094D01*
Y122071D01*
X278600D01*
X278190Y121989D01*
X277843Y121757D01*
X277611Y121410D01*
X277529Y121000D01*
X277546Y120915D01*
X277214Y120352D01*
X276419Y120220D01*
X276038Y120543D01*
Y124050D01*
X277950D01*
Y129050D01*
D02*
G37*
G36*
X158034Y122609D02*
X152109D01*
Y119440D01*
X158034D01*
Y122609D01*
D02*
G37*
G36*
X176950Y123350D02*
X172250D01*
Y120885D01*
X169445Y118080D01*
X165475D01*
X165302Y118196D01*
X164600Y118335D01*
X163898Y118196D01*
X163302Y117798D01*
X162904Y117202D01*
X162765Y116500D01*
X162904Y115798D01*
X163302Y115202D01*
X163898Y114804D01*
X164600Y114665D01*
X165302Y114804D01*
X165475Y114920D01*
X170100D01*
X170705Y115040D01*
X171218Y115383D01*
X174485Y118650D01*
X176950D01*
Y123350D01*
D02*
G37*
G36*
X298600Y144335D02*
X297898Y144196D01*
X297302Y143798D01*
X296904Y143202D01*
X296765Y142500D01*
X296904Y141798D01*
X297302Y141202D01*
X297898Y140804D01*
X298600Y140665D01*
X299302Y140804D01*
X299898Y141202D01*
X300049Y141429D01*
X302157D01*
X310529Y133056D01*
Y131083D01*
X304779Y125332D01*
X299384D01*
Y118620D01*
X301466D01*
X301612Y118209D01*
X301629Y118120D01*
X301241Y117539D01*
X301101Y116837D01*
X301241Y116134D01*
X301639Y115539D01*
X302234Y115141D01*
X302937Y115001D01*
X303639Y115141D01*
X304234Y115539D01*
X304632Y116134D01*
X304772Y116837D01*
X304632Y117539D01*
X304244Y118120D01*
X304261Y118209D01*
X304408Y118620D01*
X306489D01*
Y124015D01*
X312357Y129882D01*
X312357Y129882D01*
X312589Y130229D01*
X312671Y130639D01*
Y133500D01*
X312589Y133910D01*
X312357Y134257D01*
X303357Y143257D01*
X303010Y143489D01*
X302600Y143571D01*
X300049D01*
X299898Y143798D01*
X299302Y144196D01*
X298600Y144335D01*
D02*
G37*
G36*
X302600Y148335D02*
X301898Y148196D01*
X301302Y147798D01*
X300904Y147202D01*
X300765Y146500D01*
X300904Y145798D01*
X301302Y145202D01*
X301898Y144804D01*
X302600Y144665D01*
X302868Y144718D01*
X319529Y128057D01*
Y125332D01*
X317047D01*
Y118620D01*
X319529D01*
Y117949D01*
X319302Y117798D01*
X318904Y117202D01*
X318765Y116500D01*
X318904Y115798D01*
X319302Y115202D01*
X319898Y114804D01*
X320600Y114665D01*
X321302Y114804D01*
X321898Y115202D01*
X322296Y115798D01*
X322435Y116500D01*
X322296Y117202D01*
X321898Y117798D01*
X321671Y117949D01*
Y118620D01*
X324153D01*
Y125332D01*
X321671D01*
Y128500D01*
X321589Y128910D01*
X321357Y129257D01*
X321357Y129257D01*
X304382Y146232D01*
X304435Y146500D01*
X304296Y147202D01*
X303898Y147798D01*
X303302Y148196D01*
X302600Y148335D01*
D02*
G37*
G36*
X41474Y128025D02*
X40534Y127901D01*
X39658Y127538D01*
X38906Y126961D01*
X38329Y126209D01*
X37967Y125333D01*
X37843Y124394D01*
X37967Y123454D01*
X38329Y122578D01*
X38906Y121826D01*
X39658Y121249D01*
X40534Y120886D01*
X40537Y120886D01*
X43762Y117662D01*
X44605Y117098D01*
X45600Y116900D01*
X64068D01*
X70269Y110699D01*
X71112Y110136D01*
X71176Y110123D01*
Y109576D01*
X74345D01*
Y111297D01*
X74509Y111543D01*
X74707Y112538D01*
X74509Y113533D01*
X74345Y113779D01*
Y115500D01*
X72822D01*
X66983Y121338D01*
X66140Y121902D01*
X65145Y122100D01*
X46677D01*
X45021Y123756D01*
X45105Y124394D01*
X44981Y125333D01*
X44619Y126209D01*
X44042Y126961D01*
X43290Y127538D01*
X42414Y127901D01*
X41474Y128025D01*
D02*
G37*
G36*
X33600D02*
X32660Y127901D01*
X31784Y127538D01*
X31032Y126961D01*
X30455Y126209D01*
X30093Y125333D01*
X29969Y124394D01*
X30093Y123454D01*
X30455Y122578D01*
X31032Y121826D01*
X31383Y121557D01*
Y119117D01*
X31581Y118122D01*
X32144Y117279D01*
X38724Y110699D01*
X39567Y110136D01*
X40562Y109938D01*
X57399D01*
Y109576D01*
X60568D01*
Y115500D01*
X57399D01*
Y115138D01*
X41639D01*
X36583Y120194D01*
Y122367D01*
X36745Y122578D01*
X37107Y123454D01*
X37231Y124394D01*
X37107Y125333D01*
X36745Y126209D01*
X36167Y126961D01*
X35416Y127538D01*
X34540Y127901D01*
X33600Y128025D01*
D02*
G37*
G36*
X147010Y122609D02*
X141086D01*
Y120955D01*
X136353Y116221D01*
X136121Y115874D01*
X136039Y115464D01*
Y113115D01*
X134610D01*
Y108415D01*
X139610D01*
Y113115D01*
X138180D01*
Y115021D01*
X142600Y119440D01*
X147010D01*
Y122609D01*
D02*
G37*
G36*
X84382Y106500D02*
X81213D01*
Y100576D01*
X84382D01*
Y100619D01*
X84823Y100854D01*
X84898Y100804D01*
X85600Y100665D01*
X86302Y100804D01*
X86898Y101202D01*
X87296Y101798D01*
X87435Y102500D01*
X87296Y103202D01*
X86898Y103798D01*
X86302Y104196D01*
X85600Y104335D01*
X84898Y104196D01*
X84823Y104146D01*
X84382Y104381D01*
Y106500D01*
D02*
G37*
G36*
X70605D02*
X67436D01*
Y100576D01*
X70605D01*
Y100916D01*
X71093Y101356D01*
X71206Y101346D01*
X71302Y101202D01*
X71898Y100804D01*
X72600Y100665D01*
X73302Y100804D01*
X73898Y101202D01*
X74296Y101798D01*
X74435Y102500D01*
X74296Y103202D01*
X73898Y103798D01*
X73302Y104196D01*
X72600Y104335D01*
X71898Y104196D01*
X71302Y103798D01*
X70976Y103766D01*
X70605Y104137D01*
Y106500D01*
D02*
G37*
G36*
X56827D02*
X53659D01*
Y100576D01*
X56827D01*
Y101429D01*
X58151D01*
X58302Y101202D01*
X58898Y100804D01*
X59600Y100665D01*
X60302Y100804D01*
X60898Y101202D01*
X61296Y101798D01*
X61435Y102500D01*
X61296Y103202D01*
X60898Y103798D01*
X60302Y104196D01*
X59600Y104335D01*
X58898Y104196D01*
X58302Y103798D01*
X58151Y103571D01*
X57171D01*
X56827Y103914D01*
Y106500D01*
D02*
G37*
G36*
X120046Y102446D02*
X112154D01*
Y94554D01*
X120046D01*
Y102446D01*
D02*
G37*
G36*
X126100Y102480D02*
X125070Y102345D01*
X124110Y101947D01*
X123285Y101315D01*
X122653Y100490D01*
X122255Y99530D01*
X122119Y98500D01*
X122255Y97470D01*
X122653Y96510D01*
X123285Y95685D01*
X124110Y95053D01*
X125070Y94655D01*
X126100Y94520D01*
X127130Y94655D01*
X128090Y95053D01*
X128915Y95685D01*
X129547Y96510D01*
X129945Y97470D01*
X130080Y98500D01*
X129945Y99530D01*
X129547Y100490D01*
X128915Y101315D01*
X128090Y101947D01*
X127130Y102345D01*
X126100Y102480D01*
D02*
G37*
G36*
X310544Y93126D02*
X302937D01*
X302527Y93045D01*
X302180Y92813D01*
X301948Y92466D01*
X301866Y92056D01*
X301948Y91646D01*
X302180Y91299D01*
X302527Y91067D01*
X302937Y90985D01*
X310544D01*
X310954Y91067D01*
X311301Y91299D01*
X311533Y91646D01*
X311615Y92056D01*
X311533Y92466D01*
X311301Y92813D01*
X310954Y93045D01*
X310544Y93126D01*
D02*
G37*
G36*
X283767Y93725D02*
X279067D01*
Y89025D01*
X283767D01*
Y90304D01*
X286000D01*
Y89341D01*
X286229D01*
X286497Y88841D01*
X286404Y88703D01*
X286264Y88000D01*
X286404Y87298D01*
X286802Y86703D01*
X287397Y86305D01*
X288100Y86165D01*
X288802Y86305D01*
X289397Y86703D01*
X289795Y87298D01*
X289935Y88000D01*
X289795Y88703D01*
X289703Y88841D01*
X289970Y89341D01*
X290200D01*
Y93541D01*
X286000D01*
Y92445D01*
X283767D01*
Y93725D01*
D02*
G37*
G36*
X141050Y87630D02*
X140445Y87510D01*
X139933Y87168D01*
X139590Y86655D01*
X139470Y86050D01*
Y80080D01*
X131200D01*
X130595Y79960D01*
X130082Y79618D01*
X126935Y76469D01*
X126482Y76168D01*
X125933Y75617D01*
X125590Y75105D01*
X125470Y74500D01*
X125590Y73895D01*
X125933Y73383D01*
X126445Y73040D01*
X127050Y72920D01*
X127655Y73040D01*
X128167Y73383D01*
X128415Y73630D01*
X128867Y73932D01*
X131188Y76253D01*
X131650Y76062D01*
Y72150D01*
X132295D01*
Y66962D01*
X132276D01*
Y61038D01*
X135444D01*
Y63956D01*
X135456Y64016D01*
Y72150D01*
X136650D01*
Y76850D01*
X137121Y76920D01*
X139470D01*
Y74500D01*
X139590Y73895D01*
X139933Y73383D01*
X140445Y73040D01*
X141050Y72920D01*
X141655Y73040D01*
X142167Y73383D01*
X142510Y73895D01*
X142630Y74500D01*
Y76920D01*
X145179D01*
X145650Y76850D01*
Y72150D01*
X146295D01*
Y66962D01*
X146276D01*
Y61038D01*
X149444D01*
Y63956D01*
X149456Y64016D01*
Y72150D01*
X150650D01*
Y75862D01*
X151112Y76053D01*
X153782Y73383D01*
X154295Y73040D01*
X154900Y72920D01*
X155050D01*
X155655Y73040D01*
X156167Y73383D01*
X156510Y73895D01*
X156630Y74500D01*
X156510Y75105D01*
X156167Y75617D01*
X155716Y75920D01*
X152017Y79618D01*
X151505Y79960D01*
X150900Y80080D01*
X142630D01*
Y86050D01*
X142510Y86655D01*
X142167Y87168D01*
X141655Y87510D01*
X141050Y87630D01*
D02*
G37*
G36*
X155340Y70075D02*
X154638Y69936D01*
X154042Y69538D01*
X153645Y68942D01*
X153505Y68240D01*
X153645Y67538D01*
X153877Y67190D01*
X153756Y66962D01*
X153756D01*
Y61038D01*
X156924D01*
Y66962D01*
X156924D01*
X156803Y67190D01*
X157036Y67538D01*
X157175Y68240D01*
X157036Y68942D01*
X156638Y69538D01*
X156043Y69936D01*
X155340Y70075D01*
D02*
G37*
G36*
X127340D02*
X126638Y69936D01*
X126042Y69538D01*
X125645Y68942D01*
X125505Y68240D01*
X125645Y67538D01*
X125877Y67190D01*
X125756Y66962D01*
X125756D01*
Y61038D01*
X128924D01*
Y66962D01*
X128924D01*
X128803Y67190D01*
X129036Y67538D01*
X129175Y68240D01*
X129036Y68942D01*
X128638Y69538D01*
X128042Y69936D01*
X127340Y70075D01*
D02*
G37*
G36*
X196600Y86571D02*
X196190Y86489D01*
X195843Y86257D01*
X195611Y85910D01*
X195529Y85500D01*
Y82384D01*
X194402Y81257D01*
X194170Y80910D01*
X194089Y80500D01*
Y73503D01*
X192843Y72257D01*
X192611Y71910D01*
X192529Y71500D01*
Y65500D01*
X192611Y65090D01*
X192843Y64743D01*
X194460Y63126D01*
X194807Y62894D01*
X195217Y62813D01*
X197009D01*
X197063Y62759D01*
Y59462D01*
X197145Y59052D01*
X197377Y58705D01*
X197724Y58473D01*
X198134Y58391D01*
X198544Y58473D01*
X198891Y58705D01*
X199123Y59052D01*
X199204Y59462D01*
Y63202D01*
X199123Y63612D01*
X198891Y63959D01*
X198210Y64640D01*
X198179Y64661D01*
X198330Y65161D01*
X200899D01*
X200899Y65161D01*
Y65161D01*
X201399Y65247D01*
X201566Y65136D01*
X202269Y64996D01*
X202971Y65136D01*
X203566Y65534D01*
X203964Y66129D01*
X204104Y66831D01*
X203964Y67534D01*
X203566Y68129D01*
X202971Y68527D01*
X202269Y68667D01*
X201566Y68527D01*
X201399Y68415D01*
X200899Y68683D01*
Y68723D01*
X195369D01*
Y66220D01*
X194869Y65973D01*
X194671Y66125D01*
Y71057D01*
X195916Y72302D01*
X195916Y72302D01*
X196149Y72650D01*
X196230Y73059D01*
X196230Y73059D01*
Y74500D01*
Y80057D01*
X197357Y81184D01*
X197357Y81184D01*
X197589Y81531D01*
X197671Y81941D01*
Y85500D01*
X197589Y85910D01*
X197357Y86257D01*
X197010Y86489D01*
X196600Y86571D01*
D02*
G37*
G36*
X141340Y69595D02*
X140638Y69455D01*
X140042Y69058D01*
X139645Y68462D01*
X139505Y67760D01*
X139645Y67058D01*
X139756Y66891D01*
Y61038D01*
X142924D01*
Y66891D01*
X143036Y67058D01*
X143175Y67760D01*
X143036Y68462D01*
X142638Y69058D01*
X142043Y69455D01*
X141340Y69595D01*
D02*
G37*
G36*
X122650Y76850D02*
X117650D01*
Y72150D01*
X118295D01*
Y66962D01*
X118276D01*
Y61038D01*
X121444D01*
Y63956D01*
X121456Y64016D01*
Y72150D01*
X122650D01*
Y76850D01*
D02*
G37*
G36*
X280140Y74071D02*
X277600D01*
X277190Y73989D01*
X276843Y73757D01*
X276611Y73410D01*
X276529Y73000D01*
X276611Y72590D01*
X276843Y72243D01*
X277190Y72011D01*
X277600Y71929D01*
X279697D01*
X281592Y70034D01*
X281692Y68766D01*
X282098Y67075D01*
X282764Y65468D01*
X283673Y63985D01*
X284802Y62663D01*
X286125Y61533D01*
X287608Y60624D01*
X289215Y59959D01*
X290906Y59553D01*
X292640Y59416D01*
Y59430D01*
X296041D01*
X296451Y59511D01*
X296798Y59743D01*
X297030Y60091D01*
X297112Y60500D01*
X297030Y60910D01*
X296798Y61257D01*
X296451Y61489D01*
X296041Y61571D01*
X292640D01*
X292594Y61562D01*
X290895Y61729D01*
X289218Y62238D01*
X287671Y63064D01*
X286316Y64177D01*
X285204Y65532D01*
X284378Y67078D01*
X283869Y68756D01*
X283701Y70455D01*
X283711Y70500D01*
X283629Y70910D01*
X283397Y71257D01*
X280897Y73757D01*
X280550Y73989D01*
X280140Y74071D01*
D02*
G37*
G36*
X211141Y72600D02*
X206941D01*
Y68400D01*
X207699D01*
Y65100D01*
X207441D01*
Y53900D01*
X213759D01*
Y65100D01*
X209840D01*
Y68400D01*
X211141D01*
Y72600D01*
D02*
G37*
G36*
X93150Y60350D02*
X88150D01*
Y55650D01*
X89324D01*
Y51850D01*
X88150D01*
Y51217D01*
X87650Y50963D01*
X87302Y51196D01*
X86600Y51335D01*
X85898Y51196D01*
X85302Y50798D01*
X84904Y50202D01*
X84765Y49500D01*
X84904Y48798D01*
X85302Y48202D01*
X85898Y47804D01*
X86600Y47665D01*
X87302Y47804D01*
X87650Y48037D01*
X88150Y47783D01*
Y47150D01*
X93150D01*
Y51850D01*
X91975D01*
Y55650D01*
X93150D01*
Y60350D01*
D02*
G37*
G36*
X246600Y81335D02*
X245898Y81196D01*
X245302Y80798D01*
X244904Y80202D01*
X244765Y79500D01*
X244904Y78798D01*
X245020Y78625D01*
Y61500D01*
X245140Y60895D01*
X245482Y60382D01*
X247482Y58382D01*
X247995Y58040D01*
X248600Y57920D01*
X267945D01*
X271020Y54845D01*
Y41177D01*
X271140Y40572D01*
X271482Y40059D01*
X278755Y32786D01*
Y31459D01*
X284168D01*
Y32170D01*
X286500D01*
Y29959D01*
X290700D01*
Y30988D01*
X293250D01*
Y30450D01*
X297950D01*
Y35450D01*
X293250D01*
Y33129D01*
X290700D01*
Y34159D01*
X287934D01*
X287828Y34229D01*
X287419Y34311D01*
X284168D01*
Y35021D01*
X280990D01*
X274180Y41831D01*
Y55500D01*
X274060Y56105D01*
X273717Y56617D01*
X269718Y60618D01*
X269644Y60667D01*
X269522Y61346D01*
X269582Y61429D01*
X280607D01*
X293250Y48786D01*
Y45450D01*
X297950D01*
Y46879D01*
X301500D01*
Y44959D01*
X305700D01*
Y49159D01*
X301500D01*
Y49021D01*
X297950D01*
Y50450D01*
X294614D01*
X281807Y63257D01*
X281460Y63489D01*
X281050Y63571D01*
X253049D01*
X252898Y63798D01*
X252302Y64196D01*
X251600Y64335D01*
X250898Y64196D01*
X250302Y63798D01*
X249904Y63202D01*
X249765Y62500D01*
X249904Y61798D01*
X250050Y61580D01*
X249782Y61080D01*
X249255D01*
X248180Y62155D01*
Y78625D01*
X248296Y78798D01*
X248435Y79500D01*
X248296Y80202D01*
X247898Y80798D01*
X247302Y81196D01*
X246600Y81335D01*
D02*
G37*
G36*
X232600Y59671D02*
X232190Y59589D01*
X231843Y59357D01*
X231611Y59010D01*
X231529Y58600D01*
Y58450D01*
X231611Y58040D01*
X231843Y57693D01*
X245693Y43843D01*
X246040Y43611D01*
X246450Y43529D01*
X246450Y43529D01*
X246600D01*
X247010Y43611D01*
X247357Y43843D01*
X247589Y44190D01*
X247671Y44600D01*
X247589Y45010D01*
X247357Y45357D01*
X247010Y45589D01*
X246966Y45598D01*
X233598Y58966D01*
X233589Y59010D01*
X233357Y59357D01*
X233010Y59589D01*
X232600Y59671D01*
D02*
G37*
G36*
X59820Y41261D02*
X59307Y41159D01*
X59006Y40957D01*
X58742Y40883D01*
D01*
D01*
X58421Y40921D01*
X58000Y41095D01*
X57868D01*
X57773Y41159D01*
X57260Y41261D01*
X56747Y41159D01*
X56652Y41095D01*
X56600D01*
X56179Y40921D01*
X56005Y40500D01*
Y40350D01*
X55919Y39920D01*
Y36540D01*
X56005Y36110D01*
Y33947D01*
X53009Y30950D01*
D01*
X52908Y30850D01*
X52550D01*
Y30492D01*
X52179Y30121D01*
X52005Y29700D01*
Y19200D01*
X52059Y19070D01*
Y18900D01*
X52129D01*
X52179Y18779D01*
X52600Y18605D01*
X64100D01*
X64209Y18650D01*
X64650D01*
Y19091D01*
X64695Y19200D01*
Y22700D01*
X64650Y22809D01*
Y23350D01*
X60392D01*
X58695Y25047D01*
Y29603D01*
X59195Y29791D01*
X59650Y29336D01*
Y26150D01*
X64650D01*
Y26300D01*
Y30850D01*
X61164D01*
X60891Y31124D01*
Y35775D01*
X61059Y36027D01*
X61161Y36540D01*
Y39920D01*
X61133Y40059D01*
X61059Y40433D01*
X60768Y40868D01*
X60333Y41159D01*
X60210Y41183D01*
D01*
X59820Y41261D01*
D02*
G37*
G36*
X141600Y44335D02*
X140898Y44196D01*
X140302Y43798D01*
X139904Y43202D01*
X139765Y42500D01*
X139812Y42261D01*
X139402Y41761D01*
X139032D01*
Y36624D01*
X144168D01*
Y41761D01*
X143798D01*
X143388Y42261D01*
X143435Y42500D01*
X143296Y43202D01*
X142898Y43798D01*
X142302Y44196D01*
X141600Y44335D01*
D02*
G37*
G36*
X161600Y45335D02*
X160898Y45196D01*
X160302Y44798D01*
X159904Y44202D01*
X159765Y43500D01*
X159904Y42798D01*
X160263Y42261D01*
X160197Y42007D01*
X160063Y41761D01*
X159031D01*
Y36624D01*
X164169D01*
Y41761D01*
X163137D01*
X163003Y42007D01*
X162937Y42261D01*
X163296Y42798D01*
X163435Y43500D01*
X163296Y44202D01*
X162898Y44798D01*
X162302Y45196D01*
X161600Y45335D01*
D02*
G37*
G36*
X267936Y53416D02*
X258676D01*
Y43584D01*
X261726D01*
Y38809D01*
X256000D01*
Y36080D01*
X250547D01*
Y38446D01*
X242654D01*
Y30554D01*
X250547D01*
Y32920D01*
X256000D01*
Y31609D01*
X264965D01*
X268010Y28564D01*
X268523Y28221D01*
X269031Y28120D01*
Y27719D01*
X274444D01*
Y31281D01*
X269762D01*
X267200Y33844D01*
Y38809D01*
X264886D01*
Y43584D01*
X267936D01*
Y53416D01*
D02*
G37*
G36*
X36696Y79672D02*
X34120Y77095D01*
X30600D01*
X30179Y76921D01*
X30005Y76500D01*
Y54659D01*
X30000D01*
Y50459D01*
X34200D01*
Y52905D01*
X37000D01*
Y52609D01*
X48200D01*
Y52905D01*
X50600D01*
X51021Y53079D01*
X52623Y54681D01*
X53011Y54362D01*
X52904Y54202D01*
X52765Y53500D01*
X52904Y52798D01*
X53302Y52202D01*
X53447Y52106D01*
Y51878D01*
X53548Y51371D01*
X53835Y50941D01*
X55919Y48856D01*
Y46080D01*
X56021Y45567D01*
X56312Y45132D01*
X56747Y44841D01*
X57260Y44739D01*
X57773Y44841D01*
X58208Y45132D01*
X58239Y45179D01*
X58841D01*
X58872Y45132D01*
X59307Y44841D01*
X59820Y44739D01*
X60333Y44841D01*
X60768Y45132D01*
X60799Y45179D01*
X61401D01*
X61432Y45132D01*
X61867Y44841D01*
X62380Y44739D01*
X62893Y44841D01*
X63273Y45095D01*
X63429Y45121D01*
X63888Y45070D01*
X64179Y44779D01*
X64600Y44605D01*
X69453D01*
X78905Y35153D01*
Y31800D01*
X79000Y31570D01*
Y31109D01*
X90200D01*
Y31424D01*
X92654D01*
Y30554D01*
X100547D01*
Y31424D01*
X103500D01*
Y30891D01*
X109700D01*
Y35590D01*
X109449D01*
X109264Y36038D01*
X108775Y36675D01*
X108138Y37164D01*
X107396Y37472D01*
X106600Y37576D01*
X100547D01*
Y38446D01*
X98875D01*
Y47150D01*
X100050D01*
Y51850D01*
X95050D01*
Y47150D01*
X96224D01*
Y38446D01*
X92654D01*
Y37576D01*
X90200D01*
Y38309D01*
X89733D01*
X83992Y44050D01*
X83700Y44409D01*
X83700D01*
X83700Y44409D01*
Y49110D01*
X78932D01*
X77521Y50521D01*
X77100Y50695D01*
X74700D01*
Y51041D01*
X70500D01*
Y50695D01*
X65458D01*
X65453Y50699D01*
X64940Y50801D01*
X64427Y50699D01*
X64412Y50720D01*
X64229Y51195D01*
X64934Y51900D01*
X67259D01*
Y56100D01*
X67250D01*
Y58510D01*
X69649D01*
Y73490D01*
X62150D01*
Y58510D01*
X63069D01*
Y56100D01*
X63059D01*
Y53775D01*
X62603Y53319D01*
X62141Y53510D01*
Y56100D01*
X57941D01*
Y51900D01*
X58749D01*
Y50498D01*
X58271Y50353D01*
X58239Y50361D01*
X58208Y50408D01*
X57932Y50592D01*
X56098Y52427D01*
Y52501D01*
X56296Y52798D01*
X56435Y53500D01*
X56296Y54202D01*
X55898Y54798D01*
X55302Y55196D01*
X54600Y55335D01*
X53898Y55196D01*
X53738Y55089D01*
X53419Y55477D01*
X56452Y58510D01*
X57050D01*
Y59150D01*
X57195Y59500D01*
Y76500D01*
X57021Y76921D01*
X56600Y77095D01*
X39273D01*
X36696Y79672D01*
D02*
G37*
G36*
X235600Y35011D02*
X235191Y34930D01*
X234843Y34698D01*
X234611Y34350D01*
X234530Y33941D01*
Y28500D01*
X234611Y28091D01*
X234843Y27743D01*
X235191Y27511D01*
X235600Y27430D01*
X236010Y27511D01*
X236357Y27743D01*
X236589Y28091D01*
X236671Y28500D01*
Y33941D01*
X236589Y34350D01*
X236357Y34698D01*
X236010Y34930D01*
X235600Y35011D01*
D02*
G37*
G36*
X297950Y43550D02*
X293250D01*
Y38550D01*
X296436D01*
X298529Y36457D01*
Y27121D01*
X297950D01*
Y28550D01*
X293250D01*
Y23550D01*
X297950D01*
Y24979D01*
X301250D01*
Y23550D01*
X305950D01*
Y28550D01*
X301250D01*
Y27121D01*
X300671D01*
Y36900D01*
X300589Y37310D01*
X300357Y37657D01*
X297950Y40064D01*
Y43550D01*
D02*
G37*
G36*
X144168Y35068D02*
X139032D01*
Y29931D01*
X140529D01*
Y28499D01*
X140302Y28348D01*
X139904Y27752D01*
X139765Y27050D01*
X139904Y26348D01*
X140302Y25752D01*
X140898Y25354D01*
X141600Y25215D01*
X142302Y25354D01*
X142898Y25752D01*
X143296Y26348D01*
X143435Y27050D01*
X143296Y27752D01*
X142898Y28348D01*
X142671Y28499D01*
Y29931D01*
X144168D01*
Y35068D01*
D02*
G37*
G36*
X154168Y35069D02*
X149031D01*
Y29932D01*
X150529D01*
Y28475D01*
X150302Y28323D01*
X149904Y27727D01*
X149765Y27025D01*
X149904Y26323D01*
X150302Y25727D01*
X150898Y25329D01*
X151600Y25190D01*
X152302Y25329D01*
X152898Y25727D01*
X153296Y26323D01*
X153435Y27025D01*
X153296Y27727D01*
X152898Y28323D01*
X152671Y28475D01*
Y29932D01*
X154168D01*
Y35069D01*
D02*
G37*
G36*
X184169D02*
X179032D01*
Y29932D01*
X180529D01*
Y27950D01*
X180302Y27798D01*
X179904Y27202D01*
X179765Y26500D01*
X179904Y25798D01*
X180302Y25202D01*
X180898Y24804D01*
X181600Y24665D01*
X182302Y24804D01*
X182898Y25202D01*
X183296Y25798D01*
X183435Y26500D01*
X183296Y27202D01*
X182898Y27798D01*
X182671Y27950D01*
Y29932D01*
X184169D01*
Y35069D01*
D02*
G37*
G36*
X164169Y35068D02*
X159031D01*
Y29931D01*
X160529D01*
Y27950D01*
X160302Y27798D01*
X159904Y27202D01*
X159765Y26500D01*
X159904Y25798D01*
X160302Y25202D01*
X160898Y24804D01*
X161600Y24665D01*
X162302Y24804D01*
X162898Y25202D01*
X163296Y25798D01*
X163435Y26500D01*
X163296Y27202D01*
X162898Y27798D01*
X162671Y27950D01*
Y29931D01*
X164169D01*
Y35068D01*
D02*
G37*
G36*
X70121Y26300D02*
X67979D01*
Y21000D01*
X68061Y20590D01*
X68293Y20243D01*
X68640Y20011D01*
X69050Y19929D01*
X69460Y20011D01*
X69807Y20243D01*
X70039Y20590D01*
X70121Y21000D01*
Y26300D01*
D02*
G37*
G36*
X50600Y32095D02*
X42600D01*
X42179Y31921D01*
X42005Y31500D01*
Y18500D01*
X42179Y18079D01*
X42600Y17905D01*
X50600D01*
X51021Y18079D01*
X51195Y18500D01*
Y31500D01*
X51021Y31921D01*
X50600Y32095D01*
D02*
G37*
%LPD*%
G36*
X242630Y229956D02*
X242410Y229469D01*
X233001D01*
X230820Y231650D01*
X231027Y232150D01*
X235250D01*
Y233429D01*
X239157D01*
X242630Y229956D01*
D02*
G37*
G36*
X177250Y232550D02*
X179876D01*
Y230478D01*
X179761D01*
X178772Y229489D01*
Y227511D01*
X179761Y226522D01*
X182132D01*
X183029Y227419D01*
X183529Y227289D01*
Y223943D01*
X177156Y217571D01*
X175852D01*
X175701Y218071D01*
X175898Y218202D01*
X176296Y218798D01*
X176435Y219500D01*
X176296Y220202D01*
X175898Y220798D01*
X175302Y221196D01*
X174600Y221335D01*
X173898Y221196D01*
X173302Y220798D01*
X173271Y220751D01*
X160019D01*
X159827Y221213D01*
X172593Y233979D01*
X177250D01*
Y232550D01*
D02*
G37*
G36*
X254529Y218057D02*
Y186402D01*
X254067Y186210D01*
X253569Y186709D01*
Y218310D01*
X254056Y218530D01*
X254529Y218057D01*
D02*
G37*
G36*
X277348Y174768D02*
X277789Y174680D01*
X278231Y174768D01*
X278605Y175018D01*
X278942D01*
X279316Y174768D01*
X279757Y174680D01*
X280199Y174768D01*
X280391Y174896D01*
X280742Y174978D01*
X281093Y174896D01*
X281285Y174768D01*
X281727Y174680D01*
X282168Y174768D01*
X282542Y175018D01*
X282879D01*
X283253Y174768D01*
X283658Y174687D01*
X283705Y174667D01*
X284025Y174270D01*
X284007Y174217D01*
X283898Y174196D01*
X283302Y173798D01*
X282904Y173202D01*
X282765Y172500D01*
X282904Y171798D01*
X283302Y171202D01*
X283898Y170804D01*
X284600Y170665D01*
X285025Y170749D01*
X285272Y170289D01*
X284940Y169957D01*
X284708Y169610D01*
X284627Y169200D01*
Y168014D01*
X284302Y167798D01*
X283904Y167202D01*
X283765Y166500D01*
X283904Y165798D01*
X284302Y165202D01*
X284898Y164804D01*
X285553Y164674D01*
X285661Y164502D01*
X285776Y164190D01*
X278868Y157282D01*
X278600Y157335D01*
X277898Y157196D01*
X277302Y156798D01*
X276904Y156202D01*
X276765Y155500D01*
X276904Y154798D01*
X277302Y154202D01*
X277898Y153804D01*
X278600Y153665D01*
X278614Y153667D01*
X278915Y153217D01*
X278904Y153202D01*
X278765Y152500D01*
X278904Y151798D01*
X279302Y151202D01*
X279585Y151013D01*
X279433Y150513D01*
X278101D01*
X272357Y156257D01*
X272010Y156489D01*
X271600Y156571D01*
X271190Y156489D01*
X270843Y156257D01*
X270843Y156257D01*
X268321Y153736D01*
X267057D01*
X266850Y154236D01*
X273357Y160743D01*
X273589Y161090D01*
X273671Y161500D01*
X273671Y161500D01*
Y168500D01*
X273589Y168910D01*
X273357Y169257D01*
X268401Y174213D01*
X268489Y174700D01*
X268943Y174915D01*
X269197Y174769D01*
X275529Y168437D01*
Y163500D01*
X275611Y163090D01*
X275843Y162743D01*
X276190Y162511D01*
X276600Y162429D01*
X277010Y162511D01*
X277357Y162743D01*
X277589Y163090D01*
X277671Y163500D01*
Y168881D01*
X277589Y169290D01*
X277357Y169638D01*
X272857Y174137D01*
X272922Y174746D01*
X273174Y174907D01*
X273219Y174896D01*
X273411Y174768D01*
X273852Y174680D01*
X274294Y174768D01*
X274668Y175018D01*
X275005D01*
X275379Y174768D01*
X275820Y174680D01*
X276262Y174768D01*
X276636Y175018D01*
X276974D01*
X277348Y174768D01*
D02*
G37*
G36*
X300313Y181318D02*
X300791Y180840D01*
X301021Y180435D01*
X297843Y177257D01*
X297611Y176910D01*
X297529Y176500D01*
X297611Y176090D01*
X297843Y175743D01*
X298190Y175511D01*
X298600Y175429D01*
X299010Y175511D01*
X299357Y175743D01*
X302734Y179120D01*
X303339D01*
Y174753D01*
X300038Y171452D01*
X299289D01*
X299010Y171882D01*
X299001Y171952D01*
X299080Y172350D01*
X298993Y172792D01*
X298743Y173166D01*
X298368Y173416D01*
X297927Y173504D01*
X296576D01*
Y177956D01*
X296803Y178108D01*
X297201Y178703D01*
X297202Y178706D01*
X299813Y181318D01*
X300313Y181318D01*
D02*
G37*
G36*
X292001Y162975D02*
X292010Y162905D01*
X291931Y162507D01*
X292018Y162065D01*
X292146Y161874D01*
X292229Y161523D01*
X292146Y161172D01*
X292018Y160980D01*
X291931Y160539D01*
X292012Y160128D01*
X292012Y160087D01*
X291730Y159628D01*
X291011D01*
X290898Y159798D01*
X290302Y160196D01*
X289600Y160335D01*
X288898Y160196D01*
X288302Y159798D01*
X287904Y159202D01*
X287765Y158500D01*
X287904Y157798D01*
X288302Y157202D01*
X288499Y157071D01*
X288348Y156571D01*
X287050D01*
X286898Y156798D01*
X286302Y157196D01*
X285600Y157335D01*
X284898Y157196D01*
X284302Y156798D01*
X283904Y156202D01*
X283765Y155500D01*
X283904Y154798D01*
X283981Y154683D01*
X283765Y154107D01*
X283302Y153798D01*
X282904Y153202D01*
X282855Y152953D01*
X282345D01*
X282296Y153202D01*
X281898Y153798D01*
X281302Y154196D01*
X280600Y154335D01*
X280586Y154332D01*
X280285Y154782D01*
X280296Y154798D01*
X280435Y155500D01*
X280382Y155768D01*
X288019Y163405D01*
X291722D01*
X292001Y162975D01*
D02*
G37*
G36*
X253529Y158949D02*
X253302Y158798D01*
X252904Y158202D01*
X252765Y157500D01*
X252904Y156798D01*
X253302Y156202D01*
X253898Y155804D01*
X254600Y155665D01*
X254710Y155686D01*
X254956Y155226D01*
X249966Y150235D01*
X249756Y149921D01*
X249682Y149551D01*
Y144707D01*
X249220Y144515D01*
X247478Y146257D01*
X247131Y146489D01*
X246721Y146571D01*
X246043D01*
X238549Y154065D01*
X238740Y154527D01*
X242350D01*
Y157205D01*
X242600Y157665D01*
X243302Y157804D01*
X243750Y158104D01*
X244250Y157898D01*
Y154527D01*
X249250D01*
Y157713D01*
X251006Y159468D01*
X253529D01*
Y158949D01*
D02*
G37*
G36*
X276677Y148908D02*
X276670Y148309D01*
X276640Y148259D01*
X276483Y148143D01*
X276454Y148150D01*
X276262Y148278D01*
X275820Y148366D01*
X275379Y148278D01*
X275188Y148150D01*
X274836Y148068D01*
X274485Y148150D01*
X274294Y148278D01*
X273852Y148366D01*
X273411Y148278D01*
X273219Y148150D01*
X272868Y148068D01*
X272517Y148150D01*
X272325Y148278D01*
X271884Y148366D01*
X271442Y148278D01*
X271251Y148150D01*
X270900Y148068D01*
X270548Y148150D01*
X270357Y148278D01*
X269916Y148366D01*
X269474Y148278D01*
X269282Y148150D01*
X268931Y148068D01*
X268580Y148150D01*
X268388Y148278D01*
X267947Y148366D01*
X267505Y148278D01*
X267131Y148028D01*
X266881Y147654D01*
X266793Y147212D01*
Y142370D01*
X266881Y141928D01*
X267131Y141554D01*
X267505Y141304D01*
X267947Y141216D01*
X268063Y141239D01*
X268260Y140876D01*
X268286Y140774D01*
X267916Y140220D01*
X267859Y140152D01*
X267384Y140046D01*
X267244Y140185D01*
X266930Y140395D01*
X266560Y140469D01*
X264600D01*
X264229Y140395D01*
X263915Y140185D01*
X260673Y136943D01*
X260375Y136978D01*
X260181Y137492D01*
X261880Y139190D01*
X259981Y141090D01*
Y148500D01*
Y149525D01*
X259998Y149542D01*
X264463D01*
X264904Y149630D01*
X265279Y149880D01*
X265529Y150254D01*
X265616Y150696D01*
X265537Y151094D01*
X265546Y151164D01*
X265825Y151594D01*
X268765D01*
X269175Y151676D01*
X269522Y151908D01*
X271600Y153986D01*
X276677Y148908D01*
D02*
G37*
G36*
X147529Y160500D02*
X147611Y160090D01*
X147843Y159743D01*
X158843Y148743D01*
X159190Y148511D01*
X159600Y148429D01*
X184618D01*
X184678Y148346D01*
X184556Y147667D01*
X184483Y147617D01*
X180841Y143976D01*
X180380Y144222D01*
X180435Y144500D01*
X180296Y145202D01*
X179898Y145798D01*
X179302Y146196D01*
X178600Y146335D01*
X177898Y146196D01*
X177302Y145798D01*
X176904Y145202D01*
X176765Y144500D01*
X176904Y143798D01*
X177050Y143580D01*
X176782Y143080D01*
X174091D01*
X173486Y142960D01*
X172973Y142617D01*
X168465Y138110D01*
X164500D01*
Y138054D01*
X164179Y137921D01*
X160179Y133921D01*
X160005Y133500D01*
Y130424D01*
X159959D01*
Y130070D01*
X158034D01*
Y130089D01*
X155130D01*
Y138590D01*
X156628D01*
Y142940D01*
X153382D01*
X153348Y142990D01*
X146671Y149668D01*
Y166928D01*
X147529D01*
Y160500D01*
D02*
G37*
G36*
X176600Y131500D02*
Y126500D01*
X160600D01*
Y133500D01*
X164600Y137500D01*
X170600D01*
X176600Y131500D01*
D02*
G37*
G36*
X179050Y139420D02*
X178904Y139202D01*
X178765Y138500D01*
X178904Y137798D01*
X179302Y137202D01*
X179898Y136804D01*
X180101Y136764D01*
X189020Y127845D01*
Y122375D01*
X188987Y122326D01*
X188549Y122283D01*
X188422Y122311D01*
X188217Y122617D01*
X182099Y128736D01*
X181985Y128999D01*
X182042Y129419D01*
X182296Y129798D01*
X182435Y130500D01*
X182296Y131202D01*
X181898Y131798D01*
X181302Y132196D01*
X180600Y132335D01*
X179898Y132196D01*
X179302Y131798D01*
X178904Y131202D01*
X178765Y130500D01*
X178898Y129830D01*
X178895Y129721D01*
X178686Y129330D01*
X177195D01*
Y131500D01*
X177021Y131921D01*
X171884Y137058D01*
X174745Y139920D01*
X178782D01*
X179050Y139420D01*
D02*
G37*
G36*
X233529Y145556D02*
Y137450D01*
X232250D01*
Y132450D01*
X236950D01*
Y137450D01*
X235671D01*
Y145330D01*
X236171Y145537D01*
X240937Y140770D01*
Y137450D01*
X239657D01*
Y132450D01*
X244357D01*
Y137450D01*
X243078D01*
Y140801D01*
X243578Y141008D01*
X247250Y137336D01*
Y132450D01*
X251950D01*
Y135568D01*
X252412Y135759D01*
X258428Y129743D01*
X258775Y129511D01*
X259185Y129429D01*
X261151D01*
X261302Y129202D01*
X261898Y128804D01*
X262600Y128665D01*
X263302Y128804D01*
X263898Y129202D01*
X264296Y129798D01*
X264435Y130500D01*
X264296Y131202D01*
X263898Y131798D01*
X263302Y132196D01*
X262600Y132335D01*
X261898Y132196D01*
X261302Y131798D01*
X261151Y131571D01*
X259628D01*
X258231Y132967D01*
X258423Y133429D01*
X263600D01*
X264010Y133511D01*
X264357Y133743D01*
X265332Y134718D01*
X265600Y134665D01*
X266302Y134804D01*
X266731Y135091D01*
X267231Y134870D01*
Y131501D01*
X252515Y116785D01*
X252305Y116471D01*
X252231Y116100D01*
Y97481D01*
X244219Y89469D01*
X243118D01*
X242898Y89798D01*
X242302Y90196D01*
X241831Y90289D01*
X241652Y90816D01*
X242217Y91382D01*
X242560Y91895D01*
X242680Y92500D01*
Y102801D01*
X243202Y102904D01*
X243798Y103302D01*
X244196Y103898D01*
X244335Y104600D01*
X244196Y105302D01*
X243798Y105898D01*
X243202Y106296D01*
X242500Y106435D01*
X241798Y106296D01*
X241703Y106232D01*
X226550Y121385D01*
Y123850D01*
X225630D01*
Y132050D01*
X225510Y132655D01*
X225167Y133168D01*
X210718Y147617D01*
X210644Y147667D01*
X210522Y148346D01*
X210582Y148429D01*
X230657D01*
X233529Y145556D01*
D02*
G37*
%LPC*%
G36*
X174253Y229571D02*
X170600D01*
X170190Y229489D01*
X169843Y229257D01*
X169611Y228910D01*
X169529Y228500D01*
X169611Y228090D01*
X169843Y227743D01*
X170190Y227511D01*
X170600Y227429D01*
X174253D01*
X174663Y227511D01*
X175011Y227743D01*
X175243Y228090D01*
X175324Y228500D01*
X175243Y228910D01*
X175011Y229257D01*
X174663Y229489D01*
X174253Y229571D01*
D02*
G37*
G36*
X244600Y153335D02*
X243898Y153196D01*
X243302Y152798D01*
X242904Y152202D01*
X242765Y151500D01*
X242904Y150798D01*
X243302Y150202D01*
X243898Y149804D01*
X244600Y149665D01*
X245302Y149804D01*
X245898Y150202D01*
X246296Y150798D01*
X246435Y151500D01*
X246296Y152202D01*
X245898Y152798D01*
X245302Y153196D01*
X244600Y153335D01*
D02*
G37*
G36*
X154600Y151335D02*
X153898Y151196D01*
X153302Y150798D01*
X152904Y150202D01*
X152765Y149500D01*
X152904Y148798D01*
X153302Y148202D01*
X153898Y147804D01*
X154600Y147665D01*
X155302Y147804D01*
X155898Y148202D01*
X156296Y148798D01*
X156435Y149500D01*
X156296Y150202D01*
X155898Y150798D01*
X155302Y151196D01*
X154600Y151335D01*
D02*
G37*
G36*
X251950Y130550D02*
X247250D01*
Y125550D01*
X248529D01*
Y123950D01*
X248302Y123798D01*
X247904Y123202D01*
X247765Y122500D01*
X247904Y121798D01*
X248302Y121202D01*
X248898Y120805D01*
X249600Y120665D01*
X250302Y120805D01*
X250898Y121202D01*
X251296Y121798D01*
X251435Y122500D01*
X251296Y123202D01*
X250898Y123798D01*
X250671Y123950D01*
Y125550D01*
X251950D01*
Y130550D01*
D02*
G37*
G36*
X244357Y130550D02*
X239657D01*
Y125550D01*
X240529D01*
Y123950D01*
X240302Y123798D01*
X239904Y123202D01*
X239765Y122500D01*
X239904Y121798D01*
X240302Y121202D01*
X240898Y120804D01*
X241600Y120665D01*
X242302Y120804D01*
X242898Y121202D01*
X243296Y121798D01*
X243435Y122500D01*
X243296Y123202D01*
X242898Y123798D01*
X242671Y123950D01*
Y125550D01*
X244357D01*
Y130550D01*
D02*
G37*
G36*
X236950Y130550D02*
X232250D01*
Y125550D01*
X233529D01*
Y123950D01*
X233302Y123798D01*
X232904Y123202D01*
X232765Y122500D01*
X232904Y121798D01*
X233302Y121202D01*
X233898Y120804D01*
X234600Y120665D01*
X235302Y120804D01*
X235898Y121202D01*
X236296Y121798D01*
X236435Y122500D01*
X236296Y123202D01*
X235898Y123798D01*
X235671Y123950D01*
Y125550D01*
X236950D01*
Y130550D01*
D02*
G37*
%LPD*%
G36*
X58600Y90500D02*
Y81500D01*
X55600Y78500D01*
X44600D01*
X41600Y81500D01*
X40600Y82500D01*
X42782Y88682D01*
X47600Y93500D01*
X55600D01*
X58600Y90500D01*
D02*
G37*
G36*
X58100Y40400D02*
Y24800D01*
X60200Y22700D01*
X64100D01*
Y19200D01*
X52600D01*
Y29700D01*
X56600Y33700D01*
Y40500D01*
X58000D01*
X58100Y40400D01*
D02*
G37*
G36*
X56600Y59500D02*
X50600Y53500D01*
X30600D01*
Y76500D01*
X56600D01*
Y59500D01*
D02*
G37*
G36*
X89500Y37700D02*
Y31800D01*
X79500D01*
Y35400D01*
X69700Y45200D01*
X64600D01*
X64200Y45600D01*
Y50100D01*
X77100D01*
X89500Y37700D01*
D02*
G37*
G36*
X50600Y18500D02*
X42600D01*
Y31500D01*
X50600D01*
Y18500D01*
D02*
G37*
D10*
X312560Y72500D02*
G03*
X313110Y71950I550J0D01*
G01*
X287600Y117000D02*
G03*
X283600Y121000I-4000J0D01*
G01*
X265600Y120500D02*
G03*
X263100Y118000I0J-2500D01*
G01*
X263552Y114434D02*
G03*
X263100Y113982I0J-452D01*
G01*
X288100Y105411D02*
G03*
X287481Y106030I-619J0D01*
G01*
D02*
G03*
X287600Y107000I-3881J970D01*
G01*
X281100Y112000D02*
G03*
X281293Y112193I0J193D01*
G01*
X266917Y114434D02*
G03*
X269351Y112000I2434J0D01*
G01*
X283600Y103000D02*
G03*
X287481Y106030I0J4000D01*
G01*
X263100Y107000D02*
G03*
X267600Y102500I4500J0D01*
G01*
X282640Y70500D02*
G03*
X292640Y60500I10000J0D01*
G01*
X302560D02*
G03*
X312560Y70500I0J10000D01*
G01*
X275600Y133450D02*
G03*
X275820Y133670I0J221D01*
G01*
X312560Y70500D02*
Y72500D01*
Y72697D01*
X301600Y72500D02*
X312560D01*
X279550Y81500D02*
X292600D01*
X301600Y72500D01*
X271100Y73050D02*
Y73200D01*
X272350Y74450D01*
X272500D01*
X279550Y81500D01*
X59820Y47770D02*
Y53779D01*
X60041Y54000D01*
X82728Y102500D02*
X85600D01*
X302937Y92056D02*
X310544D01*
X234600Y134950D02*
Y146000D01*
X231100Y149500D02*
X234600Y146000D01*
X159600Y149500D02*
X231100D01*
X277600Y73000D02*
X280140D01*
X282640Y70500D01*
X192400Y233300D02*
X194600Y235500D01*
X186400Y233300D02*
X192400D01*
X184600Y231500D02*
X186400Y233300D01*
X194600Y235500D02*
Y242274D01*
X189213Y245692D02*
X191182D01*
X194600Y242274D01*
X184600Y223500D02*
Y231500D01*
X177600Y216500D02*
X184600Y223500D01*
X171600Y216500D02*
X177600D01*
X169919Y218181D02*
X171600Y216500D01*
X157281Y218181D02*
X169919D01*
X145600Y206500D02*
X157281Y218181D01*
X145600Y149225D02*
Y206500D01*
X153666Y140765D02*
X154060D01*
X152591Y141840D02*
X153666Y140765D01*
X152591Y141840D02*
Y142233D01*
X145600Y149225D02*
X152591Y142233D01*
X148600Y194500D02*
X152600Y198500D01*
X148600Y160500D02*
Y194500D01*
Y160500D02*
X159600Y149500D01*
X150600Y186500D02*
X152600Y188500D01*
X150600Y161257D02*
Y186500D01*
Y161257D02*
X160357Y151500D01*
X152600Y174500D02*
X156600Y178500D01*
X152600Y161379D02*
Y174500D01*
Y161379D02*
X160729Y153250D01*
X156600Y178500D02*
X160600D01*
X134600Y204500D02*
X144600Y214500D01*
X134600Y183500D02*
Y204500D01*
X129600Y178500D02*
X134600Y183500D01*
X140600Y213500D02*
Y214500D01*
X132600Y205500D02*
X140600Y213500D01*
X132600Y191500D02*
Y205500D01*
X129600Y188500D02*
X132600Y191500D01*
X136600Y212500D02*
Y214500D01*
X130600Y206500D02*
X136600Y212500D01*
X130600Y199500D02*
Y206500D01*
X129600Y198500D02*
X130600Y199500D01*
X124774Y178500D02*
X129600D01*
X239850Y156877D02*
X240000D01*
X242600Y159477D01*
Y159500D01*
X224050Y121500D02*
X225300Y120250D01*
X226600Y68500D02*
X254600Y96500D01*
Y115500D01*
X269600Y130500D02*
Y139500D01*
X295505Y178524D02*
X300791Y183809D01*
X261100Y185879D02*
X266290Y180688D01*
X281417Y91375D02*
X288100D01*
X256947Y152665D02*
X262041D01*
X252600Y148318D02*
X256947Y152665D01*
X252600Y145501D02*
Y148318D01*
X257721Y134500D02*
X263600D01*
X265600Y136500D01*
X246721Y145500D02*
X257721Y134500D01*
X141600Y39193D02*
Y42500D01*
X316450Y167900D02*
X324600Y176050D01*
Y181500D01*
X258424Y168413D02*
X262041D01*
X256600Y170237D02*
X258424Y168413D01*
X254600Y160539D02*
X262041D01*
X250562D02*
X254600D01*
Y157500D02*
Y160539D01*
X239685Y164500D02*
X239850Y164665D01*
X235600Y164500D02*
X239685D01*
X239850Y198750D02*
X248600Y207500D01*
Y209500D01*
X239850Y195500D02*
Y198750D01*
X240782Y206500D02*
X242600D01*
X233600Y199318D02*
X240782Y206500D01*
X233600Y193750D02*
Y199318D01*
Y193750D02*
X238450Y188900D01*
Y188750D02*
Y188900D01*
Y188750D02*
X239700Y187500D01*
X249450Y198500D02*
X249594D01*
X246600Y195650D02*
X249450Y198500D01*
X268600Y185500D02*
Y188500D01*
Y185500D02*
X271884Y182217D01*
X294600Y216500D02*
X299600Y211500D01*
Y207000D02*
Y211500D01*
X309301Y202040D02*
X317060D01*
X234850Y156250D02*
X245600Y145500D01*
X163850Y156250D02*
X234850D01*
X245600Y145500D02*
X246721D01*
X271884Y178255D02*
Y182217D01*
X259600Y192618D02*
X262600Y189618D01*
Y186500D02*
Y189618D01*
X290150Y194050D02*
X291600D01*
X281739Y185639D02*
X290150Y194050D01*
X281739Y178267D02*
Y185639D01*
X275820Y178255D02*
Y185829D01*
X267600Y194050D02*
X275820Y185829D01*
X279757Y190208D02*
X283600Y194050D01*
X279757Y178255D02*
Y190208D01*
X277789Y178255D02*
Y190311D01*
X275600Y192500D02*
X277789Y190311D01*
X275600Y192500D02*
Y194050D01*
X287600Y114500D02*
Y117000D01*
X278600Y121000D02*
X283600D01*
X265600Y120500D02*
X267600D01*
X263552Y114434D02*
X266917D01*
X263100Y113982D02*
Y118000D01*
X288100Y96559D02*
Y105411D01*
X281100Y112000D02*
X287600D01*
X269351D02*
X281100D01*
X292640Y60500D02*
X296041D01*
X267600Y102500D02*
X269850D01*
X263100Y107000D02*
Y112723D01*
Y113982D01*
X269916Y175565D02*
Y178255D01*
X295505Y166444D02*
X301544D01*
X311600Y176500D01*
X319600D01*
X316721Y184500D02*
X319600D01*
X300634Y168413D02*
X316721Y184500D01*
X295505Y168413D02*
X300634D01*
X288100Y88000D02*
Y91375D01*
X254600Y115500D02*
X269600Y130500D01*
X299984Y130116D02*
X301600Y128500D01*
X299040Y130061D02*
X299095Y130116D01*
X299984D01*
X298161Y130061D02*
X299040D01*
X293600Y91657D02*
X312560Y72697D01*
X293600Y91657D02*
Y125500D01*
X258910Y148500D02*
Y149969D01*
Y139190D02*
Y148500D01*
X256600D02*
X258910D01*
X295505Y178524D02*
Y179405D01*
X264788Y180688D02*
X266290D01*
X309002Y155281D02*
Y155500D01*
X174774Y168500D02*
X182600D01*
X127600Y29909D02*
Y30500D01*
Y29909D02*
X128478Y29032D01*
X129069D01*
X139600Y18500D01*
X160600D01*
X167600Y25500D01*
Y35193D01*
X171600Y39193D01*
X161350Y154750D02*
X233471D01*
X232850Y153250D02*
X248350Y137750D01*
X158600Y161500D02*
X163850Y156250D01*
X160729Y153250D02*
X232850D01*
X154600Y161500D02*
X161350Y154750D01*
X233471D02*
X245087Y143134D01*
X172335Y164437D02*
X178284D01*
X169196Y167576D02*
X172335Y164437D01*
X165600Y100500D02*
X172600Y107500D01*
X162600Y103500D02*
X169350Y110250D01*
X180532D01*
X159600Y106500D02*
Y107500D01*
X185600Y108500D02*
Y109500D01*
X196600Y81941D02*
Y85500D01*
X195159Y80500D02*
X196600Y81941D01*
X235600Y28500D02*
Y33941D01*
X216600Y208500D02*
X217600Y209500D01*
X210600Y208500D02*
X216600D01*
X170600Y228500D02*
X174253D01*
X189406Y230500D02*
X193600D01*
X189213Y230693D02*
X189406Y230500D01*
X202793Y235693D02*
X208898D01*
X154060Y128989D02*
Y140765D01*
Y128989D02*
X154544Y128505D01*
X155071D01*
X144575D02*
X145426D01*
X145060Y128989D02*
Y140765D01*
X144575Y128505D02*
X145060Y128989D01*
X144048Y128505D02*
X144575D01*
X142670D02*
X144048D01*
X140285Y130890D02*
X142670Y128505D01*
X136801Y130890D02*
X140285D01*
X295505Y152665D02*
X319600D01*
X308953Y155232D02*
X309002Y155281D01*
X308734Y155232D02*
X308953D01*
X308002Y154500D02*
X308734Y155232D01*
X300600Y154500D02*
X308002D01*
X298510Y156590D02*
X300600Y154500D01*
X295505Y156602D02*
X295518Y156590D01*
X298510D01*
X309600Y155500D02*
Y155879D01*
X309002Y155500D02*
X309600D01*
X290649Y154633D02*
X295505D01*
X289782Y155500D02*
X290649Y154633D01*
X285600Y155500D02*
X289782D01*
X289600Y152500D02*
X289600Y152499D01*
Y144791D02*
Y152499D01*
X314600Y144500D02*
Y150050D01*
X245087Y143134D02*
X246551D01*
X248350Y136200D02*
Y137750D01*
X246551Y143134D02*
X259185Y130500D01*
X262600D01*
X160357Y151500D02*
X231721D01*
X154600Y161500D02*
Y165847D01*
X231721Y151500D02*
X242007Y141214D01*
X301277Y160539D02*
X303416Y158400D01*
X295505Y160539D02*
X301277D01*
X303416Y158400D02*
X308150D01*
X278600Y155500D02*
X287576Y164476D01*
X295505D01*
X320600Y121976D02*
Y128500D01*
X302600Y146500D02*
X320600Y128500D01*
X311600Y130639D02*
Y133500D01*
X302600Y142500D02*
X311600Y133500D01*
X298600Y142500D02*
X302600D01*
X195600Y181846D02*
X207254Y193500D01*
X195600Y170500D02*
Y181846D01*
X204876Y183500D02*
X210600D01*
X198600Y177224D02*
X204876Y183500D01*
X198600Y175500D02*
Y177224D01*
X207254Y193500D02*
X210600D01*
X208769Y63799D02*
Y70771D01*
X184600Y107500D02*
X185600Y108500D01*
X172600Y107500D02*
X184600D01*
X180532Y110250D02*
X183600Y113318D01*
Y119500D01*
X296410Y138310D02*
X296410D01*
X294219Y140500D02*
X296410Y138310D01*
X284600Y140500D02*
X294219D01*
X283707Y141393D02*
X284600Y140500D01*
X283695Y144791D02*
X283707Y144779D01*
Y141393D02*
Y144779D01*
X281727Y144791D02*
X281739Y144779D01*
X281715Y144803D02*
X281727Y144791D01*
X281739Y140361D02*
Y144779D01*
Y140361D02*
X283600Y138500D01*
X288981D01*
X292791Y134691D02*
X292791D01*
X288981Y138500D02*
X292791Y134691D01*
X296410Y138310D02*
X299669D01*
X303040Y134940D01*
X276600Y163500D02*
Y168881D01*
X269916Y175565D02*
X276600Y168881D01*
X298600Y176500D02*
X302291Y180191D01*
X304410D01*
X300791Y183809D02*
Y183809D01*
X295505Y172350D02*
Y178524D01*
X304410Y174310D02*
Y180191D01*
X300481Y170381D02*
X304410Y174310D01*
X295505Y170381D02*
X300481D01*
X289600Y169500D02*
X289600Y169500D01*
X287632Y171134D02*
Y178255D01*
X285697Y169200D02*
X287632Y171134D01*
X285697Y166597D02*
Y169200D01*
X285600Y166500D02*
X285697Y166597D01*
X289600Y169500D02*
Y178255D01*
X271600Y155500D02*
X277657Y149443D01*
X280657D02*
X281715Y148386D01*
X277657Y149443D02*
X280657D01*
X281715Y144803D02*
Y148386D01*
X268765Y152665D02*
X271600Y155500D01*
X262041Y152665D02*
X268765D01*
X302937Y121976D02*
X303134D01*
X305389Y124232D01*
Y124429D01*
X311600Y130639D01*
X280600Y152500D02*
X280643D01*
X285664Y147480D01*
X284600Y152500D02*
X287632Y149469D01*
X267600Y163500D02*
Y168500D01*
X265731Y170369D02*
X267600Y168500D01*
X262041Y170381D02*
X262054Y170369D01*
X265731D01*
X255600Y185500D02*
X272600Y168500D01*
Y161500D02*
Y168500D01*
X265745Y154645D02*
X272600Y161500D01*
X255656Y166444D02*
X262041D01*
X250600Y171500D02*
X255656Y166444D01*
X250600Y171500D02*
Y176092D01*
X320600Y116500D02*
Y121976D01*
X302937Y116837D02*
Y121976D01*
X279757Y139342D02*
X293600Y125500D01*
X279757Y139342D02*
Y144791D01*
X226600Y43941D02*
Y68500D01*
X210600Y25500D02*
Y27941D01*
X226600Y43941D01*
X220600Y27941D02*
X222659Y30000D01*
X226542D01*
X235600Y39059D01*
X233600Y64500D02*
X237600D01*
X232600Y65500D02*
X233600Y64500D01*
X251600Y62500D02*
X281050D01*
X294200Y49350D01*
X269136Y216036D02*
Y229717D01*
X259600Y206500D02*
X269136Y216036D01*
X271600Y205500D02*
Y211500D01*
X274600Y214500D01*
X285600D01*
X289600Y218500D01*
Y225500D01*
X284309Y230791D02*
X289600Y225500D01*
X272982Y230791D02*
X284309D01*
X268061D02*
X269136Y229717D01*
X239700Y187500D02*
X239850D01*
X215947Y190500D02*
X229600D01*
X213947Y188500D02*
X215947Y190500D01*
X246600Y195650D02*
X246750Y195500D01*
X255600Y185500D02*
Y218500D01*
X239600Y234500D02*
X255600Y218500D01*
X232750Y234500D02*
X239600D01*
X198134Y66942D02*
X202158D01*
X198134D02*
X198815Y66261D01*
X202158Y66942D02*
X202269Y66831D01*
X155340Y64000D02*
Y68240D01*
X108600Y121500D02*
Y160672D01*
X121428Y173500D01*
X137110Y110765D02*
Y115464D01*
X142670Y121025D01*
X144048D01*
X145426Y128505D02*
X149600Y124331D01*
Y116355D02*
Y124331D01*
X144010Y110765D02*
X144160D01*
X145410Y112015D01*
Y112165D01*
X149600Y116355D01*
X164600Y112500D02*
X179600D01*
X159600Y107500D02*
X164600Y112500D01*
X69050Y21000D02*
Y28500D01*
X174774Y213500D02*
X180600D01*
X124774Y168500D02*
X131600D01*
X123229Y213500D02*
X124774D01*
X122600Y214129D02*
X123229Y213500D01*
X122600Y214129D02*
Y216500D01*
X140462Y243799D02*
X140600Y243661D01*
Y234500D02*
Y243661D01*
X171059Y213500D02*
X174774D01*
X168059Y210500D02*
X171059Y213500D01*
X167600Y210500D02*
X168059D01*
X160600Y208500D02*
X164315D01*
X165550Y209735D01*
X166835D01*
X167600Y210500D01*
X174774Y198500D02*
X180600D01*
X183600Y201500D01*
X151600Y203500D02*
X160600D01*
X148600Y200500D02*
X151600Y203500D01*
X174774Y193500D02*
X177600D01*
X174774Y203500D02*
X177600D01*
X166600Y173500D02*
X169196Y170904D01*
Y167576D02*
Y170904D01*
X160600Y173500D02*
X166600D01*
X174774D02*
X183600D01*
X174774Y183500D02*
X175600D01*
X153600D02*
X160600D01*
X152600Y198500D02*
X160600D01*
X152600Y188500D02*
X160600D01*
X153600Y193500D02*
X160600D01*
X95600Y129500D02*
Y141500D01*
X99600Y145500D01*
Y154500D02*
X116600Y171500D01*
X99600Y145500D02*
Y154500D01*
X93600Y147500D02*
X97100Y151000D01*
Y155000D01*
X89600Y150500D02*
X112600Y173500D01*
Y187500D01*
X117600Y192500D01*
Y199672D01*
X121428Y203500D02*
X124774D01*
X117600Y199672D02*
X121428Y203500D01*
X114883Y186956D02*
X121428Y193500D01*
X114883Y172783D02*
Y186956D01*
X97100Y155000D02*
X114883Y172783D01*
X119600Y183500D02*
X124774D01*
X116600Y180500D02*
X119600Y183500D01*
X116600Y171500D02*
Y180500D01*
X121428Y173500D02*
X124774D01*
X108158Y190500D02*
X112600Y194941D01*
X101822Y190500D02*
X108158D01*
X96860Y185538D02*
X101822Y190500D01*
X83728Y157500D02*
X86600D01*
X121428Y193500D02*
X124774D01*
X70728Y184500D02*
X72600D01*
X69728Y185500D02*
X70728Y184500D01*
X84728D02*
X86600D01*
X55728Y157500D02*
X58600D01*
X55243Y157984D02*
X55728Y157500D01*
X56728Y184500D02*
X58600D01*
X55728Y185500D02*
X56728Y184500D01*
X83728Y185500D02*
X84728Y184500D01*
X56728Y102500D02*
X59600D01*
X55728Y103500D02*
X56728Y102500D01*
X70728D02*
X72600D01*
X69728Y103500D02*
X70728Y102500D01*
X69728Y157500D02*
X72600D01*
X83728Y130500D02*
X86600D01*
X69728D02*
X72600D01*
X55728D02*
X58600D01*
X55243Y157984D02*
Y158204D01*
X314600Y150050D02*
X315050Y150500D01*
Y158400D02*
X315200D01*
X316450Y159650D01*
Y159800D01*
X327600Y170950D01*
Y175500D01*
X315050Y166500D02*
X315200D01*
X316450Y167750D01*
Y167900D01*
X190600Y213500D02*
X197600Y220500D01*
X187600Y219500D02*
X193600Y225500D01*
X187600Y193500D02*
Y219500D01*
X119781Y219681D02*
X174600Y219681D01*
X204600Y203500D02*
X210600D01*
X195600Y212500D02*
X204600Y203500D01*
X180243Y235693D02*
X189213D01*
X182600Y188500D02*
X187600Y193500D01*
X174774Y188500D02*
X182600D01*
X190600Y190980D02*
Y213500D01*
X178121Y178500D02*
X190600Y190980D01*
X174774Y208500D02*
X182600D01*
X112600Y200059D02*
Y212500D01*
X119781Y219681D01*
X224600Y180500D02*
X239292D01*
X239850Y179942D01*
X224600Y172500D02*
X239604D01*
X239850Y172254D01*
X200600Y198500D02*
X210600D01*
X218947Y183500D02*
X232600D01*
X291600Y200950D02*
Y209500D01*
X283600Y200950D02*
Y209500D01*
X275600Y200950D02*
Y209500D01*
X267600Y200950D02*
Y209500D01*
X132600Y214500D02*
Y214879D01*
Y211500D02*
Y214500D01*
X129600Y208500D02*
X132600Y211500D01*
X124774Y208500D02*
X129600D01*
X241600Y122500D02*
Y127643D01*
X242007Y128050D01*
X234600Y122500D02*
Y128050D01*
X249600Y122500D02*
Y128050D01*
X248350Y136200D02*
X249600Y134950D01*
X242007Y134950D02*
Y141214D01*
X287632Y144791D02*
Y149469D01*
X285664Y144791D02*
Y147480D01*
X202600Y173500D02*
X210600D01*
X201600Y170500D02*
Y172500D01*
X202600Y173500D01*
X124774Y188500D02*
X129600D01*
X124774Y198500D02*
X129600D01*
X154600Y165847D02*
X157254Y168500D01*
X160600D01*
X174774Y178500D02*
X178121D01*
X289600Y142370D02*
Y144791D01*
X284600Y172500D02*
X285651Y173551D01*
Y178243D01*
X300350Y162507D02*
X304343Y166500D01*
X295505Y162507D02*
X300350D01*
X304343Y166500D02*
X308150D01*
X298140Y150500D02*
X308150D01*
X297944Y150696D02*
X298140Y150500D01*
X295505Y150696D02*
X297944D01*
X285651Y178243D02*
X285664Y178255D01*
X274967Y116612D02*
Y125375D01*
X289600Y178255D02*
X289600Y178255D01*
X295494Y158558D02*
X295505Y158570D01*
X289658Y158558D02*
X295494D01*
X289600Y158500D02*
X289658Y158558D01*
X213947Y178500D02*
X218947Y183500D01*
X220946Y175500D02*
X232600D01*
X210600Y168500D02*
X213946D01*
X220946Y175500D01*
X210600Y178500D02*
X213947D01*
X210600Y188500D02*
X213947D01*
X198134Y59462D02*
Y63202D01*
X195159Y74500D02*
Y80500D01*
Y73059D02*
Y74500D01*
X197453Y63883D02*
X198134Y63202D01*
X195217Y63883D02*
X197453D01*
X193600Y65500D02*
X195217Y63883D01*
X193600Y65500D02*
Y71500D01*
X195159Y73059D01*
X190041Y74500D02*
Y80500D01*
Y68495D02*
Y74500D01*
X188488Y66942D02*
X190041Y68495D01*
X187504Y66942D02*
X188488D01*
X141340Y64000D02*
Y67760D01*
X127340Y64000D02*
Y68240D01*
X146100Y98500D02*
X146861Y97739D01*
X181600Y26500D02*
Y32500D01*
X171600Y26500D02*
Y32500D01*
X161600Y26500D02*
Y32499D01*
X151600Y27025D02*
Y32500D01*
X141600Y27050D02*
Y32500D01*
X248150Y186241D02*
X260010Y174381D01*
X248150Y186241D02*
Y186380D01*
X262041Y154633D02*
X262054Y154645D01*
X265745D01*
X248150Y178542D02*
X250600Y176092D01*
X175050Y241950D02*
X179600D01*
X157600Y224500D02*
X175050Y241950D01*
X153060Y225086D02*
X153646Y224500D01*
X157600D01*
X153060Y225086D02*
Y231201D01*
X172150Y235050D02*
X179600D01*
X158600Y221500D02*
X172150Y235050D01*
X151600Y221500D02*
X158600D01*
X148140Y224960D02*
X151600Y221500D01*
X148140Y224960D02*
Y231201D01*
X179600Y241950D02*
Y242100D01*
X178350Y243350D02*
X179600Y242100D01*
X180947Y243446D02*
Y248500D01*
X179600Y242100D02*
X180947Y243446D01*
Y228500D02*
Y233554D01*
X179600Y234900D02*
X180947Y233554D01*
X179600Y235050D02*
X179600Y234900D01*
X180850Y240692D02*
X189213D01*
X179600Y241943D02*
X180850Y240692D01*
X179600Y241950D02*
X179600Y241943D01*
X179600Y235050D02*
X180243Y235693D01*
X218352D02*
X218600Y235941D01*
X208898Y235693D02*
X218352D01*
X218234Y240692D02*
X218600Y241059D01*
X208898Y240692D02*
X218234D01*
X258910Y149969D02*
X259637Y150696D01*
X262041D01*
X255291Y142809D02*
Y142809D01*
X252600Y145501D02*
X255291Y142809D01*
X262030Y154621D02*
X262041Y154633D01*
X246900Y156877D02*
X250562Y160539D01*
X246750Y156877D02*
X246900D01*
X249058Y162507D02*
X262041D01*
X246900Y164665D02*
X249058Y162507D01*
X246750Y164665D02*
X246900D01*
X254678Y164476D02*
X262041D01*
X246900Y172254D02*
X254678Y164476D01*
X246750Y172254D02*
X246900D01*
X246750Y179942D02*
X246900D01*
X248150Y178692D01*
Y178542D02*
Y178692D01*
X246750Y187630D02*
X246900D01*
X248150Y186380D01*
X260010Y172379D02*
Y174381D01*
Y172379D02*
X260039Y172350D01*
X262041D01*
X269916Y178255D02*
Y180944D01*
X268359Y182500D02*
X269916Y180944D01*
X267947Y178255D02*
Y180659D01*
X267917Y180688D02*
X267947Y180659D01*
X266290Y180688D02*
X267917D01*
X266600Y182500D02*
X268359D01*
X262600Y186500D02*
X266600Y182500D01*
X259600Y187500D02*
X261100Y186000D01*
Y185879D02*
Y186000D01*
X281727Y178255D02*
X281739Y178267D01*
X299600Y197119D02*
X309301D01*
X299600D02*
Y198000D01*
X309301Y206960D02*
X319600D01*
X301159Y60500D02*
X302560D01*
X267600Y120500D02*
X271600D01*
X272100Y121000D01*
X275820Y133670D02*
Y144791D01*
X287600Y112000D02*
Y114500D01*
Y109500D02*
Y112000D01*
Y107000D02*
Y109500D01*
X288100Y91375D02*
Y91441D01*
X281293Y112193D02*
Y116009D01*
X274467Y116112D02*
X274570Y116009D01*
X281263Y98978D02*
X281367Y98875D01*
X281263Y98978D02*
Y107741D01*
X274417Y91375D02*
X274570Y91528D01*
X266917Y109316D02*
X268492Y107741D01*
X274570D01*
Y91528D02*
Y107741D01*
X274467Y116112D02*
X274967Y116612D01*
X246450Y44600D02*
X246600D01*
X232600Y58450D02*
X246450Y44600D01*
X232600Y58450D02*
Y58600D01*
X280537Y33240D02*
X281462D01*
X295600Y47950D02*
Y48100D01*
X294350Y49350D02*
X295600Y48100D01*
X294200Y49350D02*
X294350D01*
X295600Y47950D02*
X302709D01*
X303600Y47059D01*
X299600Y26050D02*
X303600D01*
X295600D02*
X299600D01*
X295600Y40900D02*
Y41050D01*
Y40900D02*
X299600Y36900D01*
Y26050D02*
Y36900D01*
X303600Y26050D02*
X303600Y26050D01*
X288600Y32059D02*
X294709D01*
X295600Y32950D01*
X281462Y33240D02*
X287419D01*
X288600Y32059D01*
X59820Y30680D02*
Y38230D01*
Y30680D02*
X62000Y28500D01*
X62150D01*
D12*
X241600Y88500D02*
X244620D01*
X220600Y27941D02*
Y35961D01*
Y25500D02*
Y27941D01*
X245600Y84500D02*
X248600D01*
X228090Y66990D02*
X245600Y84500D01*
X228090Y43451D02*
Y66990D01*
X220600Y35961D02*
X228090Y43451D01*
X253200Y116100D02*
X268200Y131100D01*
X253200Y97080D02*
Y116100D01*
X244620Y88500D02*
X253200Y97080D01*
X268200Y131100D02*
Y137859D01*
X266560Y139500D02*
X268200Y137859D01*
X264600Y139500D02*
X266560D01*
X261000Y135900D02*
X264600Y139500D01*
X258301Y135900D02*
X261000D01*
X250651Y143551D02*
X258301Y135900D01*
X250651Y143551D02*
Y149551D01*
X257600Y156500D01*
Y157500D01*
X258620Y158520D01*
X261991D02*
X262041Y158570D01*
X258620Y158520D02*
X261991D01*
X151600Y39193D02*
X169907Y57500D01*
X173150D01*
X161600Y39192D02*
Y43500D01*
X176600Y44193D02*
X181600Y39193D01*
X176600Y44193D02*
Y70500D01*
X181041Y74941D01*
Y77941D01*
X252600Y186308D02*
Y218500D01*
Y186308D02*
X270600Y168308D01*
X242600Y228500D02*
X252600Y218500D01*
X270600Y162612D02*
Y168308D01*
X265076Y157088D02*
X270600Y162612D01*
X232600Y242188D02*
X232750D01*
X231250Y240838D02*
X232600Y242188D01*
X231250Y240688D02*
Y240838D01*
X229600Y239038D02*
X231250Y240688D01*
X229600Y231500D02*
Y239038D01*
Y231500D02*
X232600Y228500D01*
X242600D01*
X262041Y156602D02*
X264534D01*
X265020Y157088D01*
X265076D01*
D35*
X220600Y59500D02*
D03*
X210600D02*
D03*
Y25500D02*
D03*
X220600D02*
D03*
D43*
X320600Y92056D02*
D03*
Y121976D02*
D03*
X302937Y92056D02*
D03*
Y121976D02*
D03*
D44*
X187504Y59462D02*
D03*
Y63202D02*
D03*
Y66942D02*
D03*
X198134D02*
D03*
Y63202D02*
D03*
Y59462D02*
D03*
D62*
X141600Y32500D02*
D03*
Y39193D02*
D03*
X161600Y39192D02*
D03*
Y32499D02*
D03*
X171600Y39193D02*
D03*
Y32500D02*
D03*
X181600Y39193D02*
D03*
Y32500D02*
D03*
X151600Y39193D02*
D03*
Y32500D02*
D03*
D65*
X267947Y144791D02*
D03*
X269916Y144791D02*
D03*
X271884D02*
D03*
X273852D02*
D03*
X275820D02*
D03*
X277789D02*
D03*
X279757D02*
D03*
X281727D02*
D03*
X283695D02*
D03*
X285664D02*
D03*
X287632D02*
D03*
X289600Y144791D02*
D03*
Y178255D02*
D03*
X287632Y178255D02*
D03*
X285664D02*
D03*
X283695D02*
D03*
X281727D02*
D03*
X279757D02*
D03*
X277789D02*
D03*
X275820D02*
D03*
X273852D02*
D03*
X271884D02*
D03*
X269916D02*
D03*
X267947Y178255D02*
D03*
D66*
X295505Y150696D02*
D03*
X295505Y152665D02*
D03*
Y154633D02*
D03*
Y156602D02*
D03*
Y158570D02*
D03*
Y160539D02*
D03*
Y162507D02*
D03*
Y164476D02*
D03*
Y166444D02*
D03*
Y168413D02*
D03*
Y170381D02*
D03*
X295505Y172350D02*
D03*
X262041D02*
D03*
X262041Y170381D02*
D03*
Y168413D02*
D03*
Y166444D02*
D03*
Y164476D02*
D03*
Y162507D02*
D03*
Y160539D02*
D03*
Y158570D02*
D03*
Y156602D02*
D03*
Y154633D02*
D03*
Y152665D02*
D03*
X262041Y150696D02*
D03*
D73*
X312560Y72500D02*
D03*
X282640D02*
D03*
D76*
X281894Y48500D02*
D03*
X263306D02*
D03*
D98*
X248376Y242208D02*
D03*
X282824D02*
D03*
D99*
X258218Y230792D02*
D03*
X263139D02*
D03*
X268061D02*
D03*
X272982D02*
D03*
D100*
X153060Y231201D02*
D03*
X148140Y231201D02*
D03*
D101*
X140462Y243799D02*
D03*
X160738D02*
D03*
D102*
X298161Y130061D02*
D03*
X303040Y134940D02*
D03*
X193040Y138939D02*
D03*
X188161Y134061D02*
D03*
D103*
X292791Y134691D02*
D03*
X296410Y138310D02*
D03*
D104*
X86538Y194538D02*
D03*
X90278Y185538D02*
D03*
X82798D02*
D03*
X151600Y55000D02*
D03*
X147860Y64000D02*
D03*
X155340D02*
D03*
X137600Y55000D02*
D03*
X133860Y64000D02*
D03*
X141340D02*
D03*
X123600Y55000D02*
D03*
X119860Y64000D02*
D03*
X127340D02*
D03*
X96860Y185538D02*
D03*
X104340D02*
D03*
X100600Y194538D02*
D03*
X69020Y103538D02*
D03*
X76501D02*
D03*
X72761Y112538D02*
D03*
X69020Y130871D02*
D03*
X76501D02*
D03*
X72761Y139871D02*
D03*
X82798Y103538D02*
D03*
X90278D02*
D03*
X86538Y112538D02*
D03*
X82798Y130871D02*
D03*
X90278D02*
D03*
X86538Y139871D02*
D03*
X55243Y103538D02*
D03*
X62724D02*
D03*
X58983Y112538D02*
D03*
X55243Y130871D02*
D03*
X62724D02*
D03*
X58983Y139871D02*
D03*
X69021Y185538D02*
D03*
X76501D02*
D03*
X72761Y194538D02*
D03*
X69021Y158204D02*
D03*
X76501D02*
D03*
X72761Y167204D02*
D03*
X82798Y158204D02*
D03*
X90278D02*
D03*
X86538Y167204D02*
D03*
X55243Y185538D02*
D03*
X62724D02*
D03*
X58983Y194538D02*
D03*
X55243Y158204D02*
D03*
X62724D02*
D03*
X58983Y167204D02*
D03*
D105*
X296041Y60500D02*
D03*
X301159D02*
D03*
X195159Y80500D02*
D03*
X190041D02*
D03*
X195159Y74500D02*
D03*
X190041D02*
D03*
X65159Y54000D02*
D03*
X60041D02*
D03*
X49041Y21000D02*
D03*
X54159D02*
D03*
X209041Y70500D02*
D03*
X214159D02*
D03*
D106*
X203777Y116941D02*
D03*
X203777Y122059D02*
D03*
X209895D02*
D03*
X209895Y116941D02*
D03*
X218600Y241059D02*
D03*
X218600Y235941D02*
D03*
X266917Y114434D02*
D03*
Y109316D02*
D03*
X288100Y91441D02*
D03*
Y96559D02*
D03*
X162059Y128324D02*
D03*
Y123206D02*
D03*
X168289Y123206D02*
D03*
Y128324D02*
D03*
X130683Y125772D02*
D03*
X130683Y130890D02*
D03*
X136801Y125772D02*
D03*
X136801Y130890D02*
D03*
X259600Y187500D02*
D03*
Y192618D02*
D03*
X112600Y194941D02*
D03*
Y200059D02*
D03*
X288600Y26941D02*
D03*
Y32059D02*
D03*
X32100Y52559D02*
D03*
Y47441D02*
D03*
X72600Y48941D02*
D03*
Y54059D02*
D03*
X303600Y41941D02*
D03*
Y47059D02*
D03*
X235600Y33941D02*
D03*
Y39059D02*
D03*
D107*
X217150Y121500D02*
D03*
X224050Y121500D02*
D03*
X246750Y187500D02*
D03*
X239850D02*
D03*
X246750Y195500D02*
D03*
X239850Y195500D02*
D03*
X308150Y159500D02*
D03*
X315050D02*
D03*
X308150Y166500D02*
D03*
X315050D02*
D03*
X308150Y149500D02*
D03*
X315050D02*
D03*
X232750Y234500D02*
D03*
X225850D02*
D03*
X232750Y242188D02*
D03*
X225850D02*
D03*
X246750Y156877D02*
D03*
X239850D02*
D03*
Y164665D02*
D03*
X246750D02*
D03*
Y172254D02*
D03*
X239850D02*
D03*
X246750Y179942D02*
D03*
X239850D02*
D03*
X281367Y98875D02*
D03*
X274467Y98875D02*
D03*
X180050Y57500D02*
D03*
X173150D02*
D03*
X180050Y64500D02*
D03*
X173150D02*
D03*
X97550Y49500D02*
D03*
X90650D02*
D03*
Y58000D02*
D03*
X97550D02*
D03*
X62150Y21000D02*
D03*
X69050D02*
D03*
X48150Y28500D02*
D03*
X55050D02*
D03*
X69050D02*
D03*
X62150D02*
D03*
X137110Y110765D02*
D03*
X144010Y110765D02*
D03*
X120150Y74500D02*
D03*
X127050Y74500D02*
D03*
X134150Y74500D02*
D03*
X141050D02*
D03*
X148150D02*
D03*
X155050D02*
D03*
D108*
X271100Y79950D02*
D03*
Y73050D02*
D03*
X275600Y133450D02*
D03*
Y126550D02*
D03*
X249600Y128050D02*
D03*
X249600Y134950D02*
D03*
X242007Y128050D02*
D03*
X242007Y134950D02*
D03*
X234600Y128050D02*
D03*
X234600Y134950D02*
D03*
X267600Y194050D02*
D03*
Y200950D02*
D03*
X291600Y194050D02*
D03*
Y200950D02*
D03*
X283600Y194050D02*
D03*
Y200950D02*
D03*
X275600Y194050D02*
D03*
Y200950D02*
D03*
X179600Y241950D02*
D03*
Y235050D02*
D03*
X303600Y32950D02*
D03*
Y26050D02*
D03*
X295600Y26050D02*
D03*
X295600Y32950D02*
D03*
X295600Y47950D02*
D03*
Y41050D02*
D03*
X232600Y65500D02*
D03*
Y58600D02*
D03*
D109*
X123742Y35284D02*
D03*
D110*
X127600Y30500D02*
D03*
X123742D02*
D03*
X119883D02*
D03*
Y40067D02*
D03*
X127600Y40067D02*
D03*
X123742D02*
D03*
D111*
X84600Y23291D02*
D03*
Y34709D02*
D03*
X261600Y35209D02*
D03*
Y23791D02*
D03*
X42600Y56209D02*
D03*
Y44791D02*
D03*
D112*
X259600Y213000D02*
D03*
X299600Y207000D02*
D03*
D113*
X259600Y222000D02*
D03*
X299600Y198000D02*
D03*
D114*
X189213Y245692D02*
D03*
X189213Y240692D02*
D03*
Y235693D02*
D03*
X189213Y230693D02*
D03*
X208898Y245692D02*
D03*
X208898Y240692D02*
D03*
Y235693D02*
D03*
D115*
X208898Y230693D02*
D03*
D116*
X36418Y76318D02*
D03*
D117*
X42782Y82682D02*
D03*
D118*
X274600Y107741D02*
D03*
Y116009D02*
D03*
X281293Y116009D02*
D03*
X281293Y107741D02*
D03*
D119*
X154060Y140765D02*
D03*
X265100Y224500D02*
D03*
X294100Y222500D02*
D03*
D120*
X145060Y140765D02*
D03*
X274100Y224500D02*
D03*
X285100Y222500D02*
D03*
D121*
X155071Y121025D02*
D03*
Y128505D02*
D03*
X144048Y124765D02*
D03*
Y128505D02*
D03*
Y121025D02*
D03*
D122*
X167600Y143240D02*
D03*
Y135759D02*
D03*
X123559Y126025D02*
D03*
X123559Y133505D02*
D03*
X106600Y33241D02*
D03*
X106600Y25760D02*
D03*
X80600Y46760D02*
D03*
X80600Y54240D02*
D03*
D123*
X255291Y142809D02*
D03*
X258910Y139190D02*
D03*
X304410Y180191D02*
D03*
X300791Y183809D02*
D03*
D124*
X174253Y228500D02*
D03*
X174254Y248500D02*
D03*
D125*
X180947Y228500D02*
D03*
Y248500D02*
D03*
D126*
X122181Y237914D02*
D03*
D127*
X117019Y245286D02*
D03*
D128*
X281417Y91375D02*
D03*
X274417D02*
D03*
D129*
X281462Y25760D02*
D03*
Y33240D02*
D03*
X271737Y29500D02*
D03*
D130*
X64940Y47770D02*
D03*
X62380D02*
D03*
X59820D02*
D03*
X57260D02*
D03*
X64940Y38230D02*
D03*
X62380D02*
D03*
X59820D02*
D03*
X57260D02*
D03*
D131*
X53301Y66000D02*
D03*
X65899D02*
D03*
D132*
X174600Y121000D02*
D03*
Y128000D02*
D03*
D133*
X160600Y168500D02*
D03*
Y173500D02*
D03*
X160600Y178500D02*
D03*
X160600Y183500D02*
D03*
X160600Y188500D02*
D03*
X160600Y193500D02*
D03*
Y198500D02*
D03*
X160600Y203500D02*
D03*
X160600Y208500D02*
D03*
Y213500D02*
D03*
X124774Y168500D02*
D03*
Y173500D02*
D03*
X124774Y178500D02*
D03*
X124774Y183500D02*
D03*
X124774Y188500D02*
D03*
X124774Y193500D02*
D03*
Y198500D02*
D03*
X124774Y203500D02*
D03*
X124774Y208500D02*
D03*
Y213500D02*
D03*
X210600Y168500D02*
D03*
Y173500D02*
D03*
X210600Y178500D02*
D03*
X210600Y183500D02*
D03*
X210600Y188500D02*
D03*
X210600Y193500D02*
D03*
Y198500D02*
D03*
X210600Y203500D02*
D03*
X210600Y208500D02*
D03*
X210600Y213500D02*
D03*
X174774Y168500D02*
D03*
Y173500D02*
D03*
Y178500D02*
D03*
Y183500D02*
D03*
Y188500D02*
D03*
Y193500D02*
D03*
Y198500D02*
D03*
Y203500D02*
D03*
Y208500D02*
D03*
Y213500D02*
D03*
D134*
X309301Y197119D02*
D03*
Y202040D02*
D03*
Y206960D02*
D03*
Y211879D02*
D03*
D135*
X321899Y219560D02*
D03*
Y189441D02*
D03*
D136*
X63341Y219500D02*
D03*
X55860Y219500D02*
D03*
D137*
X241100Y92500D02*
Y104600D01*
X155087Y128489D02*
X162059D01*
X174600Y128000D02*
X175100Y127500D01*
X174438Y128162D02*
X174600Y128000D01*
X175100Y127500D02*
X175350Y127750D01*
X168289Y128489D02*
X168616Y128162D01*
X168124Y128324D02*
X168289Y128489D01*
X162059D02*
X162224Y128324D01*
X209600Y146500D02*
X224050Y132050D01*
X185600Y146500D02*
X209600D01*
X180600Y141500D02*
X185600Y146500D01*
X209895Y122059D02*
X210174Y121780D01*
X216870D01*
X217150Y121500D01*
X162224Y128324D02*
X168124D01*
X168616Y128162D02*
X174438D01*
X174100Y87000D02*
Y93000D01*
X189600Y108500D01*
Y111000D01*
X180850Y127750D02*
X187100Y121500D01*
Y113500D02*
Y121500D01*
Y113500D02*
X189600Y111000D01*
X175350Y127750D02*
X180850D01*
X271100Y80100D02*
Y85000D01*
Y79950D02*
Y80100D01*
X270350Y80850D02*
X271100Y80100D01*
X241100Y104600D02*
X242500D01*
X224200Y121500D02*
X241100Y104600D01*
X236100Y87500D02*
X241100Y92500D01*
X220600Y59500D02*
Y67500D01*
X236100Y83000D01*
Y87500D01*
X224050Y121500D02*
X224200D01*
X281100Y224500D02*
X282100Y225500D01*
X274100Y224500D02*
X281100D01*
X162600Y213361D02*
Y213569D01*
X164600Y215361D02*
Y215931D01*
X162600Y213361D02*
X164600Y215361D01*
X143100Y46500D02*
X151600Y55000D01*
X133443Y46500D02*
X143100D01*
X127600Y40657D02*
X133443Y46500D01*
X173150Y57500D02*
Y80950D01*
X167600Y135759D02*
X168350D01*
X174091Y141500D01*
X180600D01*
X224050Y121500D02*
Y132050D01*
X164600Y116500D02*
X170100D01*
X174600Y121000D01*
X202777Y240677D02*
X208882D01*
X198600Y236500D02*
X202777Y240677D01*
X198600Y232500D02*
Y236500D01*
Y232500D02*
X213600Y217500D01*
X214600D02*
X221600Y224500D01*
X210600Y213500D02*
X214600Y217500D01*
X213600D02*
X214600D01*
X208882Y240677D02*
X208898Y240692D01*
X196600Y142500D02*
X204600D01*
X193040Y138939D02*
X196600Y142500D01*
X184739Y176250D02*
X186489Y174500D01*
X181732Y176250D02*
X184739D01*
X181041Y176941D02*
X181732Y176250D01*
X186489Y174500D02*
X191600D01*
X180600Y138500D02*
X190600Y128500D01*
Y121500D02*
Y128500D01*
X197600Y101500D02*
Y120500D01*
X199159Y122059D01*
X203777D01*
X155071Y128505D02*
X155087Y128489D01*
X203777Y122059D02*
X209895D01*
Y128795D01*
X211600Y130500D01*
Y135500D01*
X272600Y41177D02*
X280537Y33240D01*
X272600Y41177D02*
Y55500D01*
X246600Y61500D02*
X248600Y59500D01*
X268600D01*
X222042Y230693D02*
X225850Y234500D01*
X222346Y245692D02*
X225850Y242188D01*
X208898Y245692D02*
X222346D01*
X294100Y222500D02*
X298680D01*
X306951Y214229D01*
Y212059D02*
Y214229D01*
Y212059D02*
X307131Y211879D01*
X309301D01*
X127600Y40067D02*
Y40657D01*
X137600Y53654D02*
Y55000D01*
X133447Y49500D02*
X137600Y53654D01*
X129600Y49500D02*
X133447D01*
X124120Y44019D02*
X129600Y49500D01*
X123742Y40067D02*
X124120Y40445D01*
Y44019D01*
X123600Y49006D02*
Y55000D01*
X119883Y45289D02*
X123600Y49006D01*
X119883Y40067D02*
Y45289D01*
X160669Y213569D02*
X162600D01*
X160600Y213500D02*
X160669Y213569D01*
X182162Y59462D02*
X187504D01*
X180200Y57500D02*
X182162Y59462D01*
X180050Y57500D02*
X180200D01*
X181498Y63202D02*
X187504D01*
X180200Y64500D02*
X181498Y63202D01*
X180050Y64500D02*
X180200D01*
X155600Y98500D02*
X173150Y80950D01*
X146100Y98500D02*
X155600D01*
X246600Y61500D02*
Y79500D01*
X147860Y64000D02*
X147876Y64016D01*
Y74226D01*
X148150Y74500D01*
X133860Y64000D02*
X133876Y64016D01*
Y74226D01*
X134150Y74500D01*
X119860Y64000D02*
X119876Y64016D01*
Y74226D01*
X120150Y74500D01*
X141050Y78500D02*
Y86050D01*
Y78500D02*
X150900D01*
X131200D02*
X141050D01*
Y74500D02*
Y78500D01*
X154900Y74500D02*
X155050D01*
X150900Y78500D02*
X154900Y74500D01*
X127600Y75050D02*
X127750D01*
X131200Y78500D01*
X127050Y74500D02*
X127600Y75050D01*
X221600Y224500D02*
Y225500D01*
X208898Y230693D02*
X222042D01*
X206961Y240692D02*
X208898Y240692D01*
X268600Y59500D02*
X272600Y55500D01*
X263306Y36915D02*
Y48500D01*
X261600Y35209D02*
X263306Y36915D01*
X261600Y35209D02*
X263600D01*
X269128Y29681D01*
X271556D01*
X271737Y29500D01*
X246600Y34500D02*
X260891D01*
X261600Y35209D01*
D138*
X190409Y84309D02*
X190600Y84500D01*
X282100Y225500D02*
X285100Y222500D01*
X258218Y223382D02*
X259336Y224500D01*
X265100D01*
X258218Y223382D02*
Y230791D01*
Y223382D02*
X259600Y222000D01*
X190041Y80500D02*
X190409Y80868D01*
Y84309D01*
X113600Y50500D02*
Y52500D01*
Y33500D02*
Y50500D01*
X130683Y130890D02*
X136801D01*
X136801Y130890D01*
X123559Y133505D02*
X123809Y133255D01*
X128317D01*
X130683Y130890D01*
X123309Y133255D02*
X123559Y133505D01*
X117355Y133255D02*
X123309D01*
X114600Y130500D02*
X117355Y133255D01*
X114600Y111500D02*
Y130500D01*
X84600Y81500D02*
X114600Y111500D01*
X108021Y225000D02*
X120935Y237914D01*
X72922Y152833D02*
X85884Y139871D01*
X50600Y152833D02*
X72922D01*
X85884Y139871D02*
X86538D01*
X72922Y180167D02*
X85884Y167204D01*
X50600Y180167D02*
X72922D01*
X43726Y187041D02*
X50600Y180167D01*
X43726Y159707D02*
X50600Y152833D01*
X63090Y219750D02*
X63341Y219500D01*
X63090Y219750D02*
Y224009D01*
X59600Y227500D02*
X63090Y224009D01*
X41600Y227500D02*
X59600D01*
X33983Y219883D02*
X41600Y227500D01*
X33600Y214374D02*
X33983Y214757D01*
Y219883D01*
X84600Y81500D02*
X113600Y52500D01*
X57600Y81500D02*
X84600D01*
X54600Y84500D02*
X57600Y81500D01*
X123742Y30500D02*
X127600D01*
X119883D02*
X123742D01*
X116600D02*
X119883D01*
X113600Y33500D02*
X116600Y30500D01*
X120935Y237914D02*
X121181D01*
X119935D02*
X120935D01*
X107521Y225500D02*
Y225500D01*
X100600Y194538D02*
Y217579D01*
X71765Y219500D02*
X77765Y225500D01*
X63341Y219500D02*
X71765D01*
X100600Y217579D02*
X108021Y225000D01*
X98386Y245286D02*
X117019D01*
X78600Y225500D02*
X98386Y245286D01*
X40562Y112538D02*
X57900D01*
X45600Y201500D02*
X65145D01*
X41474Y205626D02*
X45600Y201500D01*
X65145D02*
X72107Y194538D01*
X43726Y132374D02*
X50600Y125500D01*
X72922D01*
X85884Y112538D01*
X85884Y167204D02*
X86538D01*
X72922Y207500D02*
X85884Y194538D01*
X50600Y207500D02*
X72922D01*
X43726Y214374D02*
X50600Y207500D01*
X85884Y194538D02*
X86538D01*
X65145Y119500D02*
X72107Y112538D01*
X45600Y119500D02*
X65145D01*
X41474Y123626D02*
X45600Y119500D01*
X65145Y146833D02*
X72107Y139871D01*
X45600Y146833D02*
X65145D01*
X41474Y150959D02*
X45600Y146833D01*
X65145Y174167D02*
X72107Y167204D01*
X45600Y174167D02*
X65145D01*
X41474Y178293D02*
X45600Y174167D01*
X41474Y205626D02*
Y206500D01*
X33983Y119117D02*
Y124117D01*
Y119117D02*
X40562Y112538D01*
X40562Y139871D02*
X57900D01*
X33983Y146451D02*
X40562Y139871D01*
X33983Y146451D02*
Y151451D01*
X33983Y173784D02*
Y178784D01*
Y173784D02*
X40562Y167204D01*
X57900D01*
X41474Y214374D02*
X43726D01*
X40562Y194538D02*
X58000D01*
X33983Y201117D02*
X40562Y194538D01*
X33600Y206500D02*
X33983Y206117D01*
Y201117D02*
Y206117D01*
D139*
X84100Y35209D02*
X86100D01*
X96600Y34500D02*
X106600D01*
X86100Y35209D02*
X86809Y34500D01*
X96600D01*
D140*
X86600Y49500D02*
X90650D01*
X62380Y47770D02*
Y51221D01*
X65159Y54000D01*
X57260Y47770D02*
Y49390D01*
X54772Y51878D02*
X57260Y49390D01*
X54772Y51878D02*
Y53328D01*
X54600Y53500D02*
X54772Y53328D01*
X90650Y49500D02*
Y58000D01*
X96600Y34500D02*
X97550Y35450D01*
Y49500D01*
D141*
X65159Y54000D02*
Y65260D01*
X65899Y66000D01*
D142*
X319908Y240099D02*
D03*
X28569D02*
D03*
Y27501D02*
D03*
X319908D02*
D03*
D143*
X108521Y225500D02*
D03*
X78600D02*
D03*
D144*
X33600Y179131D02*
D03*
X41474D02*
D03*
X33600Y187005D02*
D03*
Y206500D02*
D03*
X41474D02*
D03*
X33600Y214374D02*
D03*
Y151762D02*
D03*
X41474D02*
D03*
X33600Y159636D02*
D03*
Y124394D02*
D03*
X41474D02*
D03*
X33600Y132268D02*
D03*
D145*
X41474Y187005D02*
D03*
Y214374D02*
D03*
Y159636D02*
D03*
Y132268D02*
D03*
D146*
X62600Y246500D02*
D03*
Y236500D02*
D03*
X52600Y246500D02*
D03*
D147*
Y236500D02*
D03*
D148*
X294064Y244036D02*
D03*
X125600Y151500D02*
D03*
X96600Y24500D02*
D03*
X246600D02*
D03*
X126100Y98500D02*
D03*
X136100D02*
D03*
X146100D02*
D03*
X226600Y213000D02*
D03*
D149*
X301136Y236965D02*
D03*
D150*
X115600Y151500D02*
D03*
X116100Y98500D02*
D03*
X236600Y213000D02*
D03*
D151*
X96600Y34500D02*
D03*
X246600D02*
D03*
D152*
X319908Y230749D02*
D03*
Y249450D02*
D03*
X326518Y233489D02*
D03*
X313298D02*
D03*
X326518Y246709D02*
D03*
X310558Y240099D02*
D03*
X329258D02*
D03*
X313298Y246709D02*
D03*
X21959D02*
D03*
X37920Y240099D02*
D03*
X19219D02*
D03*
X35179Y246709D02*
D03*
X21959Y233489D02*
D03*
X35179D02*
D03*
X28569Y249450D02*
D03*
Y230749D02*
D03*
X21959Y34111D02*
D03*
X37920Y27501D02*
D03*
X19219D02*
D03*
X35179Y34111D02*
D03*
X21959Y20891D02*
D03*
X35179D02*
D03*
X28569Y36851D02*
D03*
Y18150D02*
D03*
X313298Y34111D02*
D03*
X329258Y27501D02*
D03*
X310558D02*
D03*
X326518Y34111D02*
D03*
X313298Y20891D02*
D03*
X326518D02*
D03*
X319908Y36851D02*
D03*
Y18150D02*
D03*
D153*
X283600Y103000D02*
D03*
X158600Y133000D02*
D03*
X156600Y131500D02*
D03*
X215600Y114500D02*
D03*
X159100Y116500D02*
D03*
X321100Y81500D02*
D03*
X326100Y91500D02*
D03*
X310544Y92056D02*
D03*
X26100Y48000D02*
D03*
X23600D02*
D03*
X26100Y50500D02*
D03*
X23600D02*
D03*
X26100Y53000D02*
D03*
X23600D02*
D03*
X62600Y43000D02*
D03*
X65100D02*
D03*
X73100Y26000D02*
D03*
X75100Y27500D02*
D03*
X187600Y160000D02*
D03*
X208600Y165500D02*
D03*
X230600Y160500D02*
D03*
X227100D02*
D03*
X130600Y123500D02*
D03*
X133100D02*
D03*
Y120500D02*
D03*
X130600D02*
D03*
X121100Y123500D02*
D03*
X123600D02*
D03*
Y120500D02*
D03*
X121100D02*
D03*
X282600Y78000D02*
D03*
X277600Y73000D02*
D03*
X274600Y60000D02*
D03*
X271100Y85000D02*
D03*
X242500Y104600D02*
D03*
X164600Y215931D02*
D03*
X242600Y159500D02*
D03*
X235600Y92500D02*
D03*
X241600Y88500D02*
D03*
X248600Y84500D02*
D03*
X269600Y139500D02*
D03*
X141600Y42500D02*
D03*
X161600Y43500D02*
D03*
X324600Y181500D02*
D03*
X256600Y170237D02*
D03*
X254600Y157500D02*
D03*
X235600Y164500D02*
D03*
X248600Y209500D02*
D03*
X242600Y206500D02*
D03*
X249594Y198500D02*
D03*
X268600Y188500D02*
D03*
X294600Y216500D02*
D03*
X317060Y202040D02*
D03*
X230475Y165375D02*
D03*
X244600Y151500D02*
D03*
X319600Y176500D02*
D03*
Y184500D02*
D03*
X288100Y88000D02*
D03*
X265600Y136500D02*
D03*
X301600Y128500D02*
D03*
X256600Y148500D02*
D03*
X295505Y179405D02*
D03*
X264788Y180688D02*
D03*
X195409Y199309D02*
D03*
X182600Y168500D02*
D03*
X178600Y158500D02*
D03*
X178284Y164437D02*
D03*
X183600Y163500D02*
D03*
X180600Y130500D02*
D03*
X181041Y77941D02*
D03*
X165600Y100500D02*
D03*
X162600Y103500D02*
D03*
X159600Y106500D02*
D03*
X185600Y109500D02*
D03*
X196600Y85500D02*
D03*
X164600Y116500D02*
D03*
X235600Y28500D02*
D03*
X217600Y209500D02*
D03*
X170600Y228500D02*
D03*
X193600Y230500D02*
D03*
X202793Y235693D02*
D03*
X204600Y142500D02*
D03*
X319600Y152500D02*
D03*
X201600Y213500D02*
D03*
X309600Y155500D02*
D03*
X231600Y200500D02*
D03*
X285600Y155500D02*
D03*
X289600Y152500D02*
D03*
X158600Y161500D02*
D03*
X191600Y174500D02*
D03*
X195600Y170500D02*
D03*
X198600Y175500D02*
D03*
X181041Y176941D02*
D03*
X154600Y149500D02*
D03*
X180600Y138500D02*
D03*
X179600Y103500D02*
D03*
X190600Y121500D02*
D03*
X276600Y163500D02*
D03*
X298600Y176500D02*
D03*
X289600Y169500D02*
D03*
X271600Y155500D02*
D03*
X211600Y135500D02*
D03*
X204100D02*
D03*
X298600Y142500D02*
D03*
X302600Y146500D02*
D03*
X278600Y155500D02*
D03*
X280600Y152500D02*
D03*
X284600D02*
D03*
X267600Y163500D02*
D03*
X320600Y116500D02*
D03*
X302937Y116837D02*
D03*
X237600Y64500D02*
D03*
X251600Y62500D02*
D03*
X259600Y206500D02*
D03*
X271600Y205500D02*
D03*
X229600Y190500D02*
D03*
X248600Y230500D02*
D03*
X202269Y66831D02*
D03*
X155340Y68240D02*
D03*
X178600Y144500D02*
D03*
X190673Y187500D02*
D03*
X179600Y112500D02*
D03*
X183600Y119500D02*
D03*
X233600Y89500D02*
D03*
X227600Y88500D02*
D03*
X235600Y98500D02*
D03*
Y104500D02*
D03*
X231600Y107500D02*
D03*
X227600D02*
D03*
X214600Y88500D02*
D03*
X209600Y91500D02*
D03*
X208600Y97500D02*
D03*
Y103500D02*
D03*
X212600Y107500D02*
D03*
X218600D02*
D03*
X180600Y213500D02*
D03*
X131600Y168500D02*
D03*
X122600Y216500D02*
D03*
X103600Y125500D02*
D03*
X108600Y121500D02*
D03*
X90377Y109000D02*
D03*
X76600Y106500D02*
D03*
Y109000D02*
D03*
X123600Y164500D02*
D03*
X183600Y201500D02*
D03*
X148600Y200500D02*
D03*
X60323Y188500D02*
D03*
X62823D02*
D03*
X177600Y193500D02*
D03*
Y203500D02*
D03*
X103600Y181500D02*
D03*
X108600Y184000D02*
D03*
X183600Y173500D02*
D03*
X175600Y183500D02*
D03*
X153600D02*
D03*
Y193500D02*
D03*
X95600Y129500D02*
D03*
X93600Y147500D02*
D03*
X89600Y150500D02*
D03*
X106600Y181500D02*
D03*
X86600Y157500D02*
D03*
X90377Y161167D02*
D03*
Y163667D02*
D03*
X72600Y184500D02*
D03*
X76600Y191000D02*
D03*
X74100Y188500D02*
D03*
X90377Y191000D02*
D03*
X87877Y188500D02*
D03*
X86600Y184500D02*
D03*
X76600Y188500D02*
D03*
X90377D02*
D03*
X62823Y191000D02*
D03*
X58600Y157500D02*
D03*
Y184500D02*
D03*
X85600Y102500D02*
D03*
X59600D02*
D03*
X72600D02*
D03*
Y157500D02*
D03*
X86600Y130500D02*
D03*
X72600D02*
D03*
X58600D02*
D03*
X108600Y187000D02*
D03*
X314600Y144500D02*
D03*
X262600Y130500D02*
D03*
X301600Y224500D02*
D03*
X327600Y175500D02*
D03*
X293600Y233500D02*
D03*
X253600D02*
D03*
X197600Y220500D02*
D03*
X193600Y225500D02*
D03*
X174600Y219500D02*
D03*
X195600Y212500D02*
D03*
X182600Y208500D02*
D03*
X224600Y180500D02*
D03*
Y172500D02*
D03*
X200600Y198500D02*
D03*
X232600Y183500D02*
D03*
X291600Y209500D02*
D03*
X283600D02*
D03*
X275600Y209500D02*
D03*
X267600Y209500D02*
D03*
X140600Y214500D02*
D03*
X144600D02*
D03*
X136600D02*
D03*
X132600D02*
D03*
X241600Y122500D02*
D03*
X234600D02*
D03*
X249600Y122500D02*
D03*
X201600Y170500D02*
D03*
X285600Y166500D02*
D03*
X284600Y172500D02*
D03*
X278600Y121000D02*
D03*
X289600Y158500D02*
D03*
X232600Y175500D02*
D03*
X141340Y67760D02*
D03*
X127340Y68240D02*
D03*
X126600Y35284D02*
D03*
X120600D02*
D03*
X123742D02*
D03*
X181600Y26500D02*
D03*
X171600D02*
D03*
X161600D02*
D03*
X151600Y27025D02*
D03*
X141600Y27050D02*
D03*
X49600Y90500D02*
D03*
X48600Y85500D02*
D03*
X51600Y82500D02*
D03*
X54600Y84500D02*
D03*
X46600Y88500D02*
D03*
X319600Y206960D02*
D03*
X86600Y49500D02*
D03*
X267600Y120500D02*
D03*
X269850Y102500D02*
D03*
X265600Y103000D02*
D03*
X263100Y106732D02*
D03*
X287600Y109500D02*
D03*
Y114500D02*
D03*
X287100Y119000D02*
D03*
X283600Y121000D02*
D03*
X263100Y112723D02*
D03*
X263600Y118500D02*
D03*
X272100Y121000D02*
D03*
X48500Y221100D02*
D03*
X51500D02*
D03*
X48500Y218100D02*
D03*
X51500D02*
D03*
X87877Y161167D02*
D03*
X90377Y133833D02*
D03*
X87877D02*
D03*
X90377Y136333D02*
D03*
X90377Y106500D02*
D03*
X87877D02*
D03*
X62823D02*
D03*
X60323D02*
D03*
X62823Y109000D02*
D03*
X62823Y133833D02*
D03*
X60323D02*
D03*
X62823Y136333D02*
D03*
Y161167D02*
D03*
X60323D02*
D03*
X62823Y163667D02*
D03*
X74100Y106500D02*
D03*
X76600Y133833D02*
D03*
X74100D02*
D03*
X76600Y136333D02*
D03*
X76600Y161167D02*
D03*
X74100D02*
D03*
X76600Y163667D02*
D03*
X246600Y44600D02*
D03*
Y79500D02*
D03*
X32600Y71500D02*
D03*
Y67500D02*
D03*
Y63500D02*
D03*
X44600Y21500D02*
D03*
Y25500D02*
D03*
Y29500D02*
D03*
X54600Y53500D02*
D03*
D154*
X174100Y87000D02*
D03*
X190600Y84500D02*
D03*
X197600Y101500D02*
D03*
X188600D02*
D03*
X280600Y225500D02*
D03*
X113600Y50500D02*
D03*
X140600Y234500D02*
D03*
X167600Y210500D02*
D03*
X141050Y86050D02*
D03*
X191600Y29500D02*
D03*
X221600Y225500D02*
D03*
M02*
